<?xml version="1.0" encoding="utf-8" standalone="no"?>
<!DOCTYPE svg PUBLIC "-//W3C//DTD SVG 1.1//EN"
  "http://www.w3.org/Graphics/SVG/1.1/DTD/svg11.dtd">
<svg xmlns:xlink="http://www.w3.org/1999/xlink" width="720pt" height="288pt" viewBox="0 0 720 288" xmlns="http://www.w3.org/2000/svg" version="1.1">
 <metadata>
  <rdf:RDF xmlns:dc="http://purl.org/dc/elements/1.1/" xmlns:cc="http://creativecommons.org/ns#" xmlns:rdf="http://www.w3.org/1999/02/22-rdf-syntax-ns#">
   <cc:Work>
    <dc:type rdf:resource="http://purl.org/dc/dcmitype/StillImage"/>
    <dc:date>2025-10-12T22:06:48.886308</dc:date>
    <dc:format>image/svg+xml</dc:format>
    <dc:creator>
     <cc:Agent>
      <dc:title>Matplotlib v3.10.7, https://matplotlib.org/</dc:title>
     </cc:Agent>
    </dc:creator>
   </cc:Work>
  </rdf:RDF>
 </metadata>
 <defs>
  <style type="text/css">*{stroke-linejoin: round; stroke-linecap: butt}</style>
 </defs>
 <g id="figure_1">
  <g id="patch_1">
   <path d="M 0 288 
L 720 288 
L 720 0 
L 0 0 
z
" style="fill: #ffffff"/>
  </g>
  <g id="axes_1">
   <g id="patch_2">
    <path d="M 47.72 246.04 
L 354.6 246.04 
L 354.6 26.88 
L 47.72 26.88 
z
" style="fill: #ffffff"/>
   </g>
   <g id="matplotlib.axis_1">
    <g id="xtick_1">
     <g id="line2d_1">
      <defs>
       <path id="m3443503791" d="M 0 0 
L 0 3.5 
" style="stroke: #000000; stroke-width: 0.8"/>
      </defs>
      <g>
       <use xlink:href="#m3443503791" x="109.077584" y="246.04" style="stroke: #000000; stroke-width: 0.8"/>
      </g>
     </g>
     <g id="text_1">
      <!-- 0.2 -->
      <g transform="translate(101.126021 260.638438) scale(0.1 -0.1)">
       <defs>
        <path id="DejaVuSans-30" d="M 2034 4250 
Q 1547 4250 1301 3770 
Q 1056 3291 1056 2328 
Q 1056 1369 1301 889 
Q 1547 409 2034 409 
Q 2525 409 2770 889 
Q 3016 1369 3016 2328 
Q 3016 3291 2770 3770 
Q 2525 4250 2034 4250 
z
M 2034 4750 
Q 2819 4750 3233 4129 
Q 3647 3509 3647 2328 
Q 3647 1150 3233 529 
Q 2819 -91 2034 -91 
Q 1250 -91 836 529 
Q 422 1150 422 2328 
Q 422 3509 836 4129 
Q 1250 4750 2034 4750 
z
" transform="scale(0.015625)"/>
        <path id="DejaVuSans-2e" d="M 684 794 
L 1344 794 
L 1344 0 
L 684 0 
L 684 794 
z
" transform="scale(0.015625)"/>
        <path id="DejaVuSans-32" d="M 1228 531 
L 3431 531 
L 3431 0 
L 469 0 
L 469 531 
Q 828 903 1448 1529 
Q 2069 2156 2228 2338 
Q 2531 2678 2651 2914 
Q 2772 3150 2772 3378 
Q 2772 3750 2511 3984 
Q 2250 4219 1831 4219 
Q 1534 4219 1204 4116 
Q 875 4013 500 3803 
L 500 4441 
Q 881 4594 1212 4672 
Q 1544 4750 1819 4750 
Q 2544 4750 2975 4387 
Q 3406 4025 3406 3419 
Q 3406 3131 3298 2873 
Q 3191 2616 2906 2266 
Q 2828 2175 2409 1742 
Q 1991 1309 1228 531 
z
" transform="scale(0.015625)"/>
       </defs>
       <use xlink:href="#DejaVuSans-30"/>
       <use xlink:href="#DejaVuSans-2e" transform="translate(63.623047 0)"/>
       <use xlink:href="#DejaVuSans-32" transform="translate(95.410156 0)"/>
      </g>
     </g>
    </g>
    <g id="xtick_2">
     <g id="line2d_2">
      <g>
       <use xlink:href="#m3443503791" x="170.465861" y="246.04" style="stroke: #000000; stroke-width: 0.8"/>
      </g>
     </g>
     <g id="text_2">
      <!-- 0.4 -->
      <g transform="translate(162.514299 260.638438) scale(0.1 -0.1)">
       <defs>
        <path id="DejaVuSans-34" d="M 2419 4116 
L 825 1625 
L 2419 1625 
L 2419 4116 
z
M 2253 4666 
L 3047 4666 
L 3047 1625 
L 3713 1625 
L 3713 1100 
L 3047 1100 
L 3047 0 
L 2419 0 
L 2419 1100 
L 313 1100 
L 313 1709 
L 2253 4666 
z
" transform="scale(0.015625)"/>
       </defs>
       <use xlink:href="#DejaVuSans-30"/>
       <use xlink:href="#DejaVuSans-2e" transform="translate(63.623047 0)"/>
       <use xlink:href="#DejaVuSans-34" transform="translate(95.410156 0)"/>
      </g>
     </g>
    </g>
    <g id="xtick_3">
     <g id="line2d_3">
      <g>
       <use xlink:href="#m3443503791" x="231.854139" y="246.04" style="stroke: #000000; stroke-width: 0.8"/>
      </g>
     </g>
     <g id="text_3">
      <!-- 0.6 -->
      <g transform="translate(223.902576 260.638438) scale(0.1 -0.1)">
       <defs>
        <path id="DejaVuSans-36" d="M 2113 2584 
Q 1688 2584 1439 2293 
Q 1191 2003 1191 1497 
Q 1191 994 1439 701 
Q 1688 409 2113 409 
Q 2538 409 2786 701 
Q 3034 994 3034 1497 
Q 3034 2003 2786 2293 
Q 2538 2584 2113 2584 
z
M 3366 4563 
L 3366 3988 
Q 3128 4100 2886 4159 
Q 2644 4219 2406 4219 
Q 1781 4219 1451 3797 
Q 1122 3375 1075 2522 
Q 1259 2794 1537 2939 
Q 1816 3084 2150 3084 
Q 2853 3084 3261 2657 
Q 3669 2231 3669 1497 
Q 3669 778 3244 343 
Q 2819 -91 2113 -91 
Q 1303 -91 875 529 
Q 447 1150 447 2328 
Q 447 3434 972 4092 
Q 1497 4750 2381 4750 
Q 2619 4750 2861 4703 
Q 3103 4656 3366 4563 
z
" transform="scale(0.015625)"/>
       </defs>
       <use xlink:href="#DejaVuSans-30"/>
       <use xlink:href="#DejaVuSans-2e" transform="translate(63.623047 0)"/>
       <use xlink:href="#DejaVuSans-36" transform="translate(95.410156 0)"/>
      </g>
     </g>
    </g>
    <g id="xtick_4">
     <g id="line2d_4">
      <g>
       <use xlink:href="#m3443503791" x="293.242416" y="246.04" style="stroke: #000000; stroke-width: 0.8"/>
      </g>
     </g>
     <g id="text_4">
      <!-- 0.8 -->
      <g transform="translate(285.290854 260.638438) scale(0.1 -0.1)">
       <defs>
        <path id="DejaVuSans-38" d="M 2034 2216 
Q 1584 2216 1326 1975 
Q 1069 1734 1069 1313 
Q 1069 891 1326 650 
Q 1584 409 2034 409 
Q 2484 409 2743 651 
Q 3003 894 3003 1313 
Q 3003 1734 2745 1975 
Q 2488 2216 2034 2216 
z
M 1403 2484 
Q 997 2584 770 2862 
Q 544 3141 544 3541 
Q 544 4100 942 4425 
Q 1341 4750 2034 4750 
Q 2731 4750 3128 4425 
Q 3525 4100 3525 3541 
Q 3525 3141 3298 2862 
Q 3072 2584 2669 2484 
Q 3125 2378 3379 2068 
Q 3634 1759 3634 1313 
Q 3634 634 3220 271 
Q 2806 -91 2034 -91 
Q 1263 -91 848 271 
Q 434 634 434 1313 
Q 434 1759 690 2068 
Q 947 2378 1403 2484 
z
M 1172 3481 
Q 1172 3119 1398 2916 
Q 1625 2713 2034 2713 
Q 2441 2713 2670 2916 
Q 2900 3119 2900 3481 
Q 2900 3844 2670 4047 
Q 2441 4250 2034 4250 
Q 1625 4250 1398 4047 
Q 1172 3844 1172 3481 
z
" transform="scale(0.015625)"/>
       </defs>
       <use xlink:href="#DejaVuSans-30"/>
       <use xlink:href="#DejaVuSans-2e" transform="translate(63.623047 0)"/>
       <use xlink:href="#DejaVuSans-38" transform="translate(95.410156 0)"/>
      </g>
     </g>
    </g>
    <g id="text_5">
     <!-- u -->
     <g transform="translate(197.99125 274.316562) scale(0.1 -0.1)">
      <defs>
       <path id="DejaVuSans-75" d="M 544 1381 
L 544 3500 
L 1119 3500 
L 1119 1403 
Q 1119 906 1312 657 
Q 1506 409 1894 409 
Q 2359 409 2629 706 
Q 2900 1003 2900 1516 
L 2900 3500 
L 3475 3500 
L 3475 0 
L 2900 0 
L 2900 538 
Q 2691 219 2414 64 
Q 2138 -91 1772 -91 
Q 1169 -91 856 284 
Q 544 659 544 1381 
z
M 1991 3584 
L 1991 3584 
z
" transform="scale(0.015625)"/>
      </defs>
      <use xlink:href="#DejaVuSans-75"/>
     </g>
    </g>
   </g>
   <g id="matplotlib.axis_2">
    <g id="ytick_1">
     <g id="line2d_5">
      <defs>
       <path id="m30a12f11bd" d="M 0 0 
L -3.5 0 
" style="stroke: #000000; stroke-width: 0.8"/>
      </defs>
      <g>
       <use xlink:href="#m30a12f11bd" x="47.72" y="202.221152" style="stroke: #000000; stroke-width: 0.8"/>
      </g>
     </g>
     <g id="text_6">
      <!-- 0.2 -->
      <g transform="translate(24.816875 206.020371) scale(0.1 -0.1)">
       <use xlink:href="#DejaVuSans-30"/>
       <use xlink:href="#DejaVuSans-2e" transform="translate(63.623047 0)"/>
       <use xlink:href="#DejaVuSans-32" transform="translate(95.410156 0)"/>
      </g>
     </g>
    </g>
    <g id="ytick_2">
     <g id="line2d_6">
      <g>
       <use xlink:href="#m30a12f11bd" x="47.72" y="158.380384" style="stroke: #000000; stroke-width: 0.8"/>
      </g>
     </g>
     <g id="text_7">
      <!-- 0.4 -->
      <g transform="translate(24.816875 162.179603) scale(0.1 -0.1)">
       <use xlink:href="#DejaVuSans-30"/>
       <use xlink:href="#DejaVuSans-2e" transform="translate(63.623047 0)"/>
       <use xlink:href="#DejaVuSans-34" transform="translate(95.410156 0)"/>
      </g>
     </g>
    </g>
    <g id="ytick_3">
     <g id="line2d_7">
      <g>
       <use xlink:href="#m30a12f11bd" x="47.72" y="114.539616" style="stroke: #000000; stroke-width: 0.8"/>
      </g>
     </g>
     <g id="text_8">
      <!-- 0.6 -->
      <g transform="translate(24.816875 118.338835) scale(0.1 -0.1)">
       <use xlink:href="#DejaVuSans-30"/>
       <use xlink:href="#DejaVuSans-2e" transform="translate(63.623047 0)"/>
       <use xlink:href="#DejaVuSans-36" transform="translate(95.410156 0)"/>
      </g>
     </g>
    </g>
    <g id="ytick_4">
     <g id="line2d_8">
      <g>
       <use xlink:href="#m30a12f11bd" x="47.72" y="70.698848" style="stroke: #000000; stroke-width: 0.8"/>
      </g>
     </g>
     <g id="text_9">
      <!-- 0.8 -->
      <g transform="translate(24.816875 74.498067) scale(0.1 -0.1)">
       <use xlink:href="#DejaVuSans-30"/>
       <use xlink:href="#DejaVuSans-2e" transform="translate(63.623047 0)"/>
       <use xlink:href="#DejaVuSans-38" transform="translate(95.410156 0)"/>
      </g>
     </g>
    </g>
    <g id="text_10">
     <!-- v -->
     <g transform="translate(18.737188 139.419375) rotate(-90) scale(0.1 -0.1)">
      <defs>
       <path id="DejaVuSans-76" d="M 191 3500 
L 800 3500 
L 1894 563 
L 2988 3500 
L 3597 3500 
L 2284 0 
L 1503 0 
L 191 3500 
z
" transform="scale(0.015625)"/>
      </defs>
      <use xlink:href="#DejaVuSans-76"/>
     </g>
    </g>
   </g>
   <g id="QuadContourSet_1">
    <path d="M 78.383445 26.88 
L 78.493885 155.383454 
L 78.702499 179.147791 
L 79.014611 191.47004 
L 79.384245 198.511325 
L 79.87318 203.792289 
L 80.400953 207.312932 
L 80.996145 210.031587 
L 81.826055 212.593896 
L 82.633277 214.354217 
L 83.759107 216.114538 
L 84.693494 217.194038 
L 85.925944 218.279314 
L 87.158394 219.111852 
L 88.390843 219.77203 
L 90.855743 220.740483 
L 93.320643 221.420701 
L 97.017992 222.113579 
L 100.715341 222.579042 
L 106.87759 223.077634 
L 114.272289 223.426809 
L 125.364337 223.714198 
L 143.851084 223.93288 
L 178.359679 224.070538 
L 267.096064 224.134649 
L 316.487921 224.140304 
M 338.484288 224.141253 
L 354.6 224.141536 
L 354.6 224.141536 
" clip-path="url(#pb7c9f0026e)" style="fill: none; stroke: #440154; stroke-width: 1.5"/>
    <path d="M 109.077584 26.88 
L 109.19592 82.33012 
L 109.459099 113.135743 
L 109.824407 131.619116 
L 110.268069 143.941365 
L 110.836208 153.623133 
L 111.461581 160.664418 
L 112.119598 165.945382 
L 112.85445 170.346185 
L 113.61958 173.866827 
L 114.604949 177.38747 
L 115.54407 180.027952 
L 116.737189 182.69289 
L 118.242804 185.308916 
L 119.510828 187.069237 
L 121.062171 188.829558 
L 122.993275 190.58988 
L 125.471444 192.350201 
L 127.829237 193.662295 
L 130.851915 194.990683 
L 133.991486 196.068705 
L 137.688835 197.061579 
L 141.386185 197.842306 
L 146.315984 198.649596 
L 152.478233 199.400289 
L 159.872932 200.048681 
L 168.50008 200.583958 
L 179.592129 201.053878 
L 194.381526 201.453516 
L 215.333173 201.781728 
L 246.144418 202.023367 
L 297.907309 202.17826 
L 322.595728 202.206521 
M 344.700981 202.219036 
L 354.6 202.221152 
L 354.6 202.221152 
" clip-path="url(#pb7c9f0026e)" style="fill: none; stroke: #472d7b; stroke-width: 1.5"/>
    <path d="M 139.771725 26.88 
L 139.901691 52.404659 
L 140.211224 74.408675 
L 140.660375 91.131727 
L 141.19801 103.453976 
L 141.820973 113.135743 
L 142.529734 121.057189 
L 143.382314 128.098474 
L 144.214787 133.379438 
L 145.277868 138.660402 
L 146.403807 143.061205 
L 147.548434 146.674787 
L 148.877011 150.10249 
L 150.108979 152.742972 
L 151.575902 155.383454 
L 153.342674 158.023936 
L 154.943133 160.030344 
L 156.336585 161.544578 
L 158.640482 163.674514 
L 161.105382 165.55919 
L 163.570281 167.134414 
L 166.266901 168.585863 
L 169.73253 170.129876 
L 173.42988 171.476878 
L 177.127229 172.588892 
L 182.057028 173.798177 
L 186.986827 174.770311 
L 193.149076 175.740149 
L 200.543775 176.643417 
L 209.170924 177.443003 
L 219.030522 178.123432 
L 231.35502 178.737745 
L 246.144418 179.247926 
L 265.863614 179.687854 
L 291.74506 180.0231 
L 327.486104 180.243723 
L 328.812488 180.248423 
M 350.808762 180.298252 
L 354.6 180.300766 
L 354.6 180.300766 
" clip-path="url(#pb7c9f0026e)" style="fill: none; stroke: #3b528b; stroke-width: 1.5"/>
    <path d="M 170.465869 26.88 
L 170.604082 40.08241 
L 170.96498 54.58913 
L 171.463198 66.487229 
L 172.121666 77.049157 
L 172.890439 85.850763 
L 173.703862 92.892048 
L 174.662329 99.366672 
L 175.757984 105.214297 
L 176.770608 109.6151 
L 177.989671 114.015904 
L 179.151681 117.536546 
L 180.521241 121.057189 
L 182.150597 124.577831 
L 183.586782 127.218313 
L 185.249095 129.858795 
L 187.189569 132.499277 
L 189.480577 135.139759 
L 191.916627 137.508002 
L 194.381526 139.551816 
L 196.846426 141.311363 
L 199.692529 143.061205 
L 203.051527 144.821526 
L 207.065944 146.581847 
L 210.403373 147.822858 
L 214.82441 149.222329 
L 219.030522 150.346057 
L 223.960321 151.459367 
L 230.12257 152.609212 
L 236.82217 153.623133 
L 244.01211 154.503293 
L 253.100138 155.383454 
L 263.398715 156.149015 
L 275.723213 156.831706 
L 290.51261 157.414998 
L 307.766908 157.871671 
L 316.489608 158.035579 
M 338.483463 158.301504 
L 354.6 158.380378 
L 354.6 158.380378 
" clip-path="url(#pb7c9f0026e)" style="fill: none; stroke: #2c728e; stroke-width: 1.5"/>
    <path d="M 201.160021 26.88 
L 201.316947 34.801446 
L 201.740486 44.483213 
L 202.350735 53.284819 
L 203.124609 61.206265 
L 204.040145 68.24755 
L 205.065736 74.408675 
L 206.155887 79.689639 
L 207.492038 84.970602 
L 208.840982 89.371406 
L 210.403373 93.633665 
L 211.635823 96.518671 
L 213.317578 99.933333 
L 215.333173 103.415056 
L 217.141856 106.094458 
L 219.188985 108.73494 
L 221.560003 111.375422 
L 224.33416 114.015904 
L 226.455459 115.776225 
L 228.89012 117.567795 
L 231.555475 119.296867 
L 235.052369 121.265563 
L 238.749719 123.047666 
L 242.447068 124.58287 
L 247.376867 126.320709 
L 251.074217 127.436163 
L 256.004016 128.722269 
L 262.166265 130.067596 
L 268.328514 131.181178 
L 275.723213 132.278261 
L 284.350361 133.301185 
L 292.97751 134.109844 
L 304.069558 134.909337 
L 316.394056 135.556408 
L 322.603617 135.805911 
M 344.697595 136.366273 
L 354.6 136.459985 
L 354.6 136.459985 
" clip-path="url(#pb7c9f0026e)" style="fill: none; stroke: #21918c; stroke-width: 1.5"/>
    <path d="M 231.854186 26.88 
L 231.995071 31.280803 
L 232.414248 37.441928 
L 233.056955 43.603052 
L 233.941804 49.764177 
L 234.924641 55.045141 
L 235.931445 59.445944 
L 237.141045 63.846747 
L 238.593435 68.24755 
L 239.982169 71.808104 
L 241.562263 75.288835 
L 243.427933 78.809478 
L 245.03856 81.44996 
L 246.866285 84.090442 
L 248.949237 86.730924 
L 251.339647 89.371406 
L 254.105308 92.011888 
L 256.199213 93.772209 
L 258.533502 95.53253 
L 262.166265 97.920841 
L 264.631165 99.340492 
L 268.328514 101.21976 
L 272.025863 102.849295 
L 275.894331 104.334137 
L 280.653012 105.906265 
L 285.582811 107.292799 
L 291.74506 108.747007 
L 297.907309 109.949519 
L 305.302008 111.128539 
L 312.696707 112.075032 
L 321.323855 112.942667 
L 328.838442 113.526788 
M 350.799946 114.491397 
L 354.6 114.539582 
L 354.6 114.539582 
" clip-path="url(#pb7c9f0026e)" style="fill: none; stroke: #28ae80; stroke-width: 1.5"/>
    <path d="M 262.548375 26.88 
L 262.756159 30.400643 
L 263.283968 34.801446 
L 264.056601 39.202249 
L 265.080276 43.603052 
L 266.097962 47.123695 
L 267.315714 50.644337 
L 268.763073 54.16498 
L 270.478305 57.685622 
L 272.025863 60.417412 
L 273.670152 62.966586 
L 275.723213 65.750188 
L 278.188112 68.632837 
L 280.653012 71.125089 
L 283.388186 73.528514 
L 285.659131 75.288835 
L 288.202605 77.049157 
L 291.74506 79.193521 
L 295.44241 81.119751 
L 299.139759 82.785334 
L 302.837108 84.235356 
L 307.766908 85.890406 
L 312.696707 87.281892 
L 317.788381 88.491245 
L 319.139528 88.777259 
M 340.897145 91.880865 
L 347.205301 92.341683 
L 353.36755 92.60071 
L 354.6 92.619162 
L 354.6 92.619162 
" clip-path="url(#pb7c9f0026e)" style="fill: none; stroke: #5ec962; stroke-width: 1.5"/>
    <path d="M 293.242614 26.88 
L 293.295094 27.760161 
L 293.390208 28.640321 
L 293.51514 29.520482 
L 293.665617 30.400643 
L 293.839441 31.280803 
L 294.035347 32.160964 
L 294.20996 32.869108 
L 294.252618 33.041124 
L 294.491 33.921285 
L 294.750212 34.801446 
L 295.030246 35.681606 
L 295.331223 36.561767 
L 295.44241 36.866956 
L 295.653753 37.441928 
L 295.998138 38.322088 
L 296.364617 39.202249 
L 296.674859 39.905292 
L 296.753884 40.08241 
L 297.167289 40.96257 
L 297.604729 41.842731 
L 297.907309 42.420891 
L 298.067468 42.722892 
L 298.557049 43.603052 
L 298.701599 43.849496 
M 311.920716 58.0392 
L 312.682182 58.565783 
L 312.696707 58.575524 
L 313.929157 59.375914 
L 314.04077 59.445944 
L 315.161606 60.129361 
L 315.496182 60.326104 
L 316.394056 60.839938 
L 317.058854 61.206265 
L 317.626506 61.511107 
L 318.74091 62.086426 
L 318.858956 62.1459 
L 320.091406 62.745183 
L 320.565679 62.966586 
L 321.323855 63.312684 
L 322.546347 63.846747 
L 322.556305 63.851007 
L 323.788755 64.359599 
L 324.721558 64.726908 
L 325.021205 64.842656 
L 326.253655 65.299903 
L 327.12154 65.607068 
L 327.486104 65.733877 
L 328.718554 66.144734 
L 329.798938 66.487229 
L 329.951004 66.534691 
L 331.183454 66.903374 
L 332.415904 67.253011 
L 332.838782 67.36739 
L 333.648353 67.583479 
L 334.880803 67.895879 
L 336.113253 68.191114 
L 336.361263 68.24755 
L 337.345703 68.469111 
L 338.578153 68.730834 
L 339.810602 68.976779 
L 340.615709 69.127711 
L 341.043052 69.207115 
L 342.275502 69.42206 
L 343.507952 69.622047 
L 344.740402 69.807165 
L 345.972851 69.977407 
L 346.213718 70.007871 
L 347.205301 70.132572 
L 348.437751 70.272479 
L 349.670201 70.396617 
L 350.902651 70.504081 
L 352.1351 70.593302 
L 353.36755 70.661228 
L 354.6 70.698707 
" clip-path="url(#pb7c9f0026e)" style="fill: none; stroke: #addc30; stroke-width: 1.5"/>
    <path d="M 323.936991 26.88 
L 324.052843 27.760161 
L 324.263494 28.640321 
L 324.541487 29.520482 
L 324.878223 30.400643 
L 325.021205 30.724365 
L 325.27025 31.280803 
L 325.715963 32.160964 
L 326.21448 33.041124 
L 326.253655 33.104521 
L 326.768303 33.921285 
L 327.376901 34.801446 
L 327.486104 34.948226 
L 328.045068 35.681606 
L 328.718554 36.497549 
L 328.77303 36.561767 
L 329.568499 37.441928 
L 329.951004 37.838 
L 330.433854 38.322088 
L 331.183454 39.028241 
L 331.374918 39.202249 
L 332.400021 40.08241 
L 332.415904 40.095394 
L 333.521089 40.96257 
L 333.648353 41.057639 
L 334.101401 41.381185 
M 353.822475 48.725956 
L 354.6 48.778153 
" clip-path="url(#pb7c9f0026e)" style="fill: none; stroke: #fde725; stroke-width: 1.5"/>
   </g>
   <g id="patch_3">
    <path d="M 47.72 246.04 
L 47.72 26.88 
" style="fill: none; stroke: #000000; stroke-width: 0.8; stroke-linejoin: miter; stroke-linecap: square"/>
   </g>
   <g id="patch_4">
    <path d="M 354.6 246.04 
L 354.6 26.88 
" style="fill: none; stroke: #000000; stroke-width: 0.8; stroke-linejoin: miter; stroke-linecap: square"/>
   </g>
   <g id="patch_5">
    <path d="M 47.72 246.04 
L 354.6 246.04 
" style="fill: none; stroke: #000000; stroke-width: 0.8; stroke-linejoin: miter; stroke-linecap: square"/>
   </g>
   <g id="patch_6">
    <path d="M 47.72 26.88 
L 354.6 26.88 
" style="fill: none; stroke: #000000; stroke-width: 0.8; stroke-linejoin: miter; stroke-linecap: square"/>
   </g>
   <g id="text_11">
    <!-- BB1 (θ=2, δ=1.5) -->
    <g transform="translate(147.949375 20.88) scale(0.12 -0.12)">
     <defs>
      <path id="DejaVuSans-42" d="M 1259 2228 
L 1259 519 
L 2272 519 
Q 2781 519 3026 730 
Q 3272 941 3272 1375 
Q 3272 1813 3026 2020 
Q 2781 2228 2272 2228 
L 1259 2228 
z
M 1259 4147 
L 1259 2741 
L 2194 2741 
Q 2656 2741 2882 2914 
Q 3109 3088 3109 3444 
Q 3109 3797 2882 3972 
Q 2656 4147 2194 4147 
L 1259 4147 
z
M 628 4666 
L 2241 4666 
Q 2963 4666 3353 4366 
Q 3744 4066 3744 3513 
Q 3744 3084 3544 2831 
Q 3344 2578 2956 2516 
Q 3422 2416 3680 2098 
Q 3938 1781 3938 1306 
Q 3938 681 3513 340 
Q 3088 0 2303 0 
L 628 0 
L 628 4666 
z
" transform="scale(0.015625)"/>
      <path id="DejaVuSans-31" d="M 794 531 
L 1825 531 
L 1825 4091 
L 703 3866 
L 703 4441 
L 1819 4666 
L 2450 4666 
L 2450 531 
L 3481 531 
L 3481 0 
L 794 0 
L 794 531 
z
" transform="scale(0.015625)"/>
      <path id="DejaVuSans-20" transform="scale(0.015625)"/>
      <path id="DejaVuSans-28" d="M 1984 4856 
Q 1566 4138 1362 3434 
Q 1159 2731 1159 2009 
Q 1159 1288 1364 580 
Q 1569 -128 1984 -844 
L 1484 -844 
Q 1016 -109 783 600 
Q 550 1309 550 2009 
Q 550 2706 781 3412 
Q 1013 4119 1484 4856 
L 1984 4856 
z
" transform="scale(0.015625)"/>
      <path id="DejaVuSans-3b8" d="M 2953 2219 
L 963 2219 
Q 1009 1284 1225 888 
Q 1494 400 1959 400 
Q 2428 400 2688 891 
Q 2916 1322 2953 2219 
z
M 2944 2750 
Q 2856 3638 2688 3950 
Q 2419 4444 1959 4444 
Q 1481 4444 1228 3956 
Q 1028 3563 969 2750 
L 2944 2750 
z
M 1959 4913 
Q 2709 4913 3138 4250 
Q 3566 3591 3566 2422 
Q 3566 1256 3138 594 
Q 2709 -72 1959 -72 
Q 1206 -72 781 594 
Q 353 1256 353 2422 
Q 353 3591 781 4250 
Q 1206 4913 1959 4913 
z
" transform="scale(0.015625)"/>
      <path id="DejaVuSans-3d" d="M 678 2906 
L 4684 2906 
L 4684 2381 
L 678 2381 
L 678 2906 
z
M 678 1631 
L 4684 1631 
L 4684 1100 
L 678 1100 
L 678 1631 
z
" transform="scale(0.015625)"/>
      <path id="DejaVuSans-2c" d="M 750 794 
L 1409 794 
L 1409 256 
L 897 -744 
L 494 -744 
L 750 256 
L 750 794 
z
" transform="scale(0.015625)"/>
      <path id="DejaVuSans-3b4" d="M 3138 4053 
Q 2819 4272 2072 4272 
Q 1281 4272 1281 3906 
Q 1281 3619 2106 3469 
Q 2756 3353 3122 3003 
Q 3566 2581 3566 1716 
Q 3566 888 3138 400 
Q 2709 -91 1959 -91 
Q 1213 -91 781 400 
Q 353 888 353 1747 
Q 353 2384 781 2900 
Q 947 3100 1181 3213 
Q 694 3459 694 3900 
Q 694 4750 2072 4750 
Q 2763 4750 3138 4531 
L 3138 4053 
z
M 1613 3056 
Q 1400 2966 1228 2738 
Q 959 2384 959 1747 
Q 959 1113 1225 756 
Q 1494 397 1959 397 
Q 2419 397 2687 759 
Q 2956 1122 2956 1716 
Q 2956 2338 2672 2638 
Q 2369 2959 1975 2994 
Q 1775 3013 1613 3056 
z
" transform="scale(0.015625)"/>
      <path id="DejaVuSans-35" d="M 691 4666 
L 3169 4666 
L 3169 4134 
L 1269 4134 
L 1269 2991 
Q 1406 3038 1543 3061 
Q 1681 3084 1819 3084 
Q 2600 3084 3056 2656 
Q 3513 2228 3513 1497 
Q 3513 744 3044 326 
Q 2575 -91 1722 -91 
Q 1428 -91 1123 -41 
Q 819 9 494 109 
L 494 744 
Q 775 591 1075 516 
Q 1375 441 1709 441 
Q 2250 441 2565 725 
Q 2881 1009 2881 1497 
Q 2881 1984 2565 2268 
Q 2250 2553 1709 2553 
Q 1456 2553 1204 2497 
Q 953 2441 691 2322 
L 691 4666 
z
" transform="scale(0.015625)"/>
      <path id="DejaVuSans-29" d="M 513 4856 
L 1013 4856 
Q 1481 4119 1714 3412 
Q 1947 2706 1947 2009 
Q 1947 1309 1714 600 
Q 1481 -109 1013 -844 
L 513 -844 
Q 928 -128 1133 580 
Q 1338 1288 1338 2009 
Q 1338 2731 1133 3434 
Q 928 4138 513 4856 
z
" transform="scale(0.015625)"/>
     </defs>
     <use xlink:href="#DejaVuSans-42"/>
     <use xlink:href="#DejaVuSans-42" transform="translate(68.603516 0)"/>
     <use xlink:href="#DejaVuSans-31" transform="translate(137.207031 0)"/>
     <use xlink:href="#DejaVuSans-20" transform="translate(200.830078 0)"/>
     <use xlink:href="#DejaVuSans-28" transform="translate(232.617188 0)"/>
     <use xlink:href="#DejaVuSans-3b8" transform="translate(271.630859 0)"/>
     <use xlink:href="#DejaVuSans-3d" transform="translate(332.8125 0)"/>
     <use xlink:href="#DejaVuSans-32" transform="translate(416.601562 0)"/>
     <use xlink:href="#DejaVuSans-2c" transform="translate(480.224609 0)"/>
     <use xlink:href="#DejaVuSans-20" transform="translate(512.011719 0)"/>
     <use xlink:href="#DejaVuSans-3b4" transform="translate(543.798828 0)"/>
     <use xlink:href="#DejaVuSans-3d" transform="translate(604.980469 0)"/>
     <use xlink:href="#DejaVuSans-31" transform="translate(688.769531 0)"/>
     <use xlink:href="#DejaVuSans-2e" transform="translate(752.392578 0)"/>
     <use xlink:href="#DejaVuSans-35" transform="translate(784.179688 0)"/>
     <use xlink:href="#DejaVuSans-29" transform="translate(847.802734 0)"/>
    </g>
   </g>
   <g id="text_12">
    <g clip-path="url(#pb7c9f0026e)">
     <!-- 0.1 -->
     <g style="fill: #440154" transform="translate(321.919909 226.072132) rotate(-359.99699) scale(0.07 -0.07)">
      <use xlink:href="#DejaVuSans-30"/>
      <use xlink:href="#DejaVuSans-2e" transform="translate(63.623047 0)"/>
      <use xlink:href="#DejaVuSans-31" transform="translate(95.410156 0)"/>
     </g>
    </g>
   </g>
   <g id="text_13">
    <g clip-path="url(#pb7c9f0026e)">
     <!-- 0.2 -->
     <g style="fill: #472d7b" transform="translate(328.080927 204.141783) rotate(-359.960416) scale(0.07 -0.07)">
      <use xlink:href="#DejaVuSans-30"/>
      <use xlink:href="#DejaVuSans-2e" transform="translate(63.623047 0)"/>
      <use xlink:href="#DejaVuSans-32" transform="translate(95.410156 0)"/>
     </g>
    </g>
   </g>
   <g id="text_14">
    <g clip-path="url(#pb7c9f0026e)">
     <!-- 0.3 -->
     <g style="fill: #3b528b" transform="translate(334.23916 182.196008) rotate(-359.840691) scale(0.07 -0.07)">
      <defs>
       <path id="DejaVuSans-33" d="M 2597 2516 
Q 3050 2419 3304 2112 
Q 3559 1806 3559 1356 
Q 3559 666 3084 287 
Q 2609 -91 1734 -91 
Q 1441 -91 1130 -33 
Q 819 25 488 141 
L 488 750 
Q 750 597 1062 519 
Q 1375 441 1716 441 
Q 2309 441 2620 675 
Q 2931 909 2931 1356 
Q 2931 1769 2642 2001 
Q 2353 2234 1838 2234 
L 1294 2234 
L 1294 2753 
L 1863 2753 
Q 2328 2753 2575 2939 
Q 2822 3125 2822 3475 
Q 2822 3834 2567 4026 
Q 2313 4219 1838 4219 
Q 1578 4219 1281 4162 
Q 984 4106 628 3988 
L 628 4550 
Q 988 4650 1302 4700 
Q 1616 4750 1894 4750 
Q 2613 4750 3031 4423 
Q 3450 4097 3450 3541 
Q 3450 3153 3228 2886 
Q 3006 2619 2597 2516 
z
" transform="scale(0.015625)"/>
      </defs>
      <use xlink:href="#DejaVuSans-30"/>
      <use xlink:href="#DejaVuSans-2e" transform="translate(63.623047 0)"/>
      <use xlink:href="#DejaVuSans-33" transform="translate(95.410156 0)"/>
     </g>
    </g>
   </g>
   <g id="text_15">
    <g clip-path="url(#pb7c9f0026e)">
     <!-- 0.4 -->
     <g style="fill: #2c728e" transform="translate(321.89218 160.04166) rotate(-359.156552) scale(0.07 -0.07)">
      <use xlink:href="#DejaVuSans-30"/>
      <use xlink:href="#DejaVuSans-2e" transform="translate(63.623047 0)"/>
      <use xlink:href="#DejaVuSans-34" transform="translate(95.410156 0)"/>
     </g>
    </g>
   </g>
   <g id="text_16">
    <g clip-path="url(#pb7c9f0026e)">
     <!-- 0.5 -->
     <g style="fill: #21918c" transform="translate(328.025247 137.903815) rotate(-358.229744) scale(0.07 -0.07)">
      <use xlink:href="#DejaVuSans-30"/>
      <use xlink:href="#DejaVuSans-2e" transform="translate(63.623047 0)"/>
      <use xlink:href="#DejaVuSans-35" transform="translate(95.410156 0)"/>
     </g>
    </g>
   </g>
   <g id="text_17">
    <g clip-path="url(#pb7c9f0026e)">
     <!-- 0.6 -->
     <g style="fill: #28ae80" transform="translate(334.148807 115.769458) rotate(-356.921442) scale(0.07 -0.07)">
      <use xlink:href="#DejaVuSans-30"/>
      <use xlink:href="#DejaVuSans-2e" transform="translate(63.623047 0)"/>
      <use xlink:href="#DejaVuSans-36" transform="translate(95.410156 0)"/>
     </g>
    </g>
   </g>
   <g id="text_18">
    <g clip-path="url(#pb7c9f0026e)">
     <!-- 0.7 -->
     <g style="fill: #5ec962" transform="translate(324.137048 91.595785) rotate(-350.1812) scale(0.07 -0.07)">
      <defs>
       <path id="DejaVuSans-37" d="M 525 4666 
L 3525 4666 
L 3525 4397 
L 1831 0 
L 1172 0 
L 2766 4134 
L 525 4134 
L 525 4666 
z
" transform="scale(0.015625)"/>
      </defs>
      <use xlink:href="#DejaVuSans-30"/>
      <use xlink:href="#DejaVuSans-2e" transform="translate(63.623047 0)"/>
      <use xlink:href="#DejaVuSans-37" transform="translate(95.410156 0)"/>
     </g>
    </g>
   </g>
   <g id="text_19">
    <g clip-path="url(#pb7c9f0026e)">
     <!-- 0.8 -->
     <g style="fill: #addc30" transform="translate(299.475142 48.259714) rotate(-307.211158) scale(0.07 -0.07)">
      <use xlink:href="#DejaVuSans-30"/>
      <use xlink:href="#DejaVuSans-2e" transform="translate(63.623047 0)"/>
      <use xlink:href="#DejaVuSans-38" transform="translate(95.410156 0)"/>
     </g>
    </g>
   </g>
   <g id="text_20">
    <g clip-path="url(#pb7c9f0026e)">
     <!-- 0.9 -->
     <g style="fill: #fde725" transform="translate(337.438149 45.67552) rotate(-335.329633) scale(0.07 -0.07)">
      <defs>
       <path id="DejaVuSans-39" d="M 703 97 
L 703 672 
Q 941 559 1184 500 
Q 1428 441 1663 441 
Q 2288 441 2617 861 
Q 2947 1281 2994 2138 
Q 2813 1869 2534 1725 
Q 2256 1581 1919 1581 
Q 1219 1581 811 2004 
Q 403 2428 403 3163 
Q 403 3881 828 4315 
Q 1253 4750 1959 4750 
Q 2769 4750 3195 4129 
Q 3622 3509 3622 2328 
Q 3622 1225 3098 567 
Q 2575 -91 1691 -91 
Q 1453 -91 1209 -44 
Q 966 3 703 97 
z
M 1959 2075 
Q 2384 2075 2632 2365 
Q 2881 2656 2881 3163 
Q 2881 3666 2632 3958 
Q 2384 4250 1959 4250 
Q 1534 4250 1286 3958 
Q 1038 3666 1038 3163 
Q 1038 2656 1286 2365 
Q 1534 2075 1959 2075 
z
" transform="scale(0.015625)"/>
      </defs>
      <use xlink:href="#DejaVuSans-30"/>
      <use xlink:href="#DejaVuSans-2e" transform="translate(63.623047 0)"/>
      <use xlink:href="#DejaVuSans-39" transform="translate(95.410156 0)"/>
     </g>
    </g>
   </g>
  </g>
  <g id="axes_2">
   <g id="patch_7">
    <path d="M 402.32 246.04 
L 709.2 246.04 
L 709.2 26.88 
L 402.32 26.88 
z
" style="fill: #ffffff"/>
   </g>
   <g id="matplotlib.axis_3">
    <g id="xtick_5">
     <g id="line2d_9">
      <g>
       <use xlink:href="#m3443503791" x="463.677584" y="246.04" style="stroke: #000000; stroke-width: 0.8"/>
      </g>
     </g>
     <g id="text_21">
      <!-- 0.2 -->
      <g transform="translate(455.726021 260.638438) scale(0.1 -0.1)">
       <use xlink:href="#DejaVuSans-30"/>
       <use xlink:href="#DejaVuSans-2e" transform="translate(63.623047 0)"/>
       <use xlink:href="#DejaVuSans-32" transform="translate(95.410156 0)"/>
      </g>
     </g>
    </g>
    <g id="xtick_6">
     <g id="line2d_10">
      <g>
       <use xlink:href="#m3443503791" x="525.065861" y="246.04" style="stroke: #000000; stroke-width: 0.8"/>
      </g>
     </g>
     <g id="text_22">
      <!-- 0.4 -->
      <g transform="translate(517.114299 260.638438) scale(0.1 -0.1)">
       <use xlink:href="#DejaVuSans-30"/>
       <use xlink:href="#DejaVuSans-2e" transform="translate(63.623047 0)"/>
       <use xlink:href="#DejaVuSans-34" transform="translate(95.410156 0)"/>
      </g>
     </g>
    </g>
    <g id="xtick_7">
     <g id="line2d_11">
      <g>
       <use xlink:href="#m3443503791" x="586.454139" y="246.04" style="stroke: #000000; stroke-width: 0.8"/>
      </g>
     </g>
     <g id="text_23">
      <!-- 0.6 -->
      <g transform="translate(578.502576 260.638438) scale(0.1 -0.1)">
       <use xlink:href="#DejaVuSans-30"/>
       <use xlink:href="#DejaVuSans-2e" transform="translate(63.623047 0)"/>
       <use xlink:href="#DejaVuSans-36" transform="translate(95.410156 0)"/>
      </g>
     </g>
    </g>
    <g id="xtick_8">
     <g id="line2d_12">
      <g>
       <use xlink:href="#m3443503791" x="647.842416" y="246.04" style="stroke: #000000; stroke-width: 0.8"/>
      </g>
     </g>
     <g id="text_24">
      <!-- 0.8 -->
      <g transform="translate(639.890854 260.638438) scale(0.1 -0.1)">
       <use xlink:href="#DejaVuSans-30"/>
       <use xlink:href="#DejaVuSans-2e" transform="translate(63.623047 0)"/>
       <use xlink:href="#DejaVuSans-38" transform="translate(95.410156 0)"/>
      </g>
     </g>
    </g>
    <g id="text_25">
     <!-- u -->
     <g transform="translate(552.59125 274.316562) scale(0.1 -0.1)">
      <use xlink:href="#DejaVuSans-75"/>
     </g>
    </g>
   </g>
   <g id="matplotlib.axis_4">
    <g id="ytick_5">
     <g id="line2d_13">
      <g>
       <use xlink:href="#m30a12f11bd" x="402.32" y="202.221152" style="stroke: #000000; stroke-width: 0.8"/>
      </g>
     </g>
     <g id="text_26">
      <!-- 0.2 -->
      <g transform="translate(379.416875 206.020371) scale(0.1 -0.1)">
       <use xlink:href="#DejaVuSans-30"/>
       <use xlink:href="#DejaVuSans-2e" transform="translate(63.623047 0)"/>
       <use xlink:href="#DejaVuSans-32" transform="translate(95.410156 0)"/>
      </g>
     </g>
    </g>
    <g id="ytick_6">
     <g id="line2d_14">
      <g>
       <use xlink:href="#m30a12f11bd" x="402.32" y="158.380384" style="stroke: #000000; stroke-width: 0.8"/>
      </g>
     </g>
     <g id="text_27">
      <!-- 0.4 -->
      <g transform="translate(379.416875 162.179603) scale(0.1 -0.1)">
       <use xlink:href="#DejaVuSans-30"/>
       <use xlink:href="#DejaVuSans-2e" transform="translate(63.623047 0)"/>
       <use xlink:href="#DejaVuSans-34" transform="translate(95.410156 0)"/>
      </g>
     </g>
    </g>
    <g id="ytick_7">
     <g id="line2d_15">
      <g>
       <use xlink:href="#m30a12f11bd" x="402.32" y="114.539616" style="stroke: #000000; stroke-width: 0.8"/>
      </g>
     </g>
     <g id="text_28">
      <!-- 0.6 -->
      <g transform="translate(379.416875 118.338835) scale(0.1 -0.1)">
       <use xlink:href="#DejaVuSans-30"/>
       <use xlink:href="#DejaVuSans-2e" transform="translate(63.623047 0)"/>
       <use xlink:href="#DejaVuSans-36" transform="translate(95.410156 0)"/>
      </g>
     </g>
    </g>
    <g id="ytick_8">
     <g id="line2d_16">
      <g>
       <use xlink:href="#m30a12f11bd" x="402.32" y="70.698848" style="stroke: #000000; stroke-width: 0.8"/>
      </g>
     </g>
     <g id="text_29">
      <!-- 0.8 -->
      <g transform="translate(379.416875 74.498067) scale(0.1 -0.1)">
       <use xlink:href="#DejaVuSans-30"/>
       <use xlink:href="#DejaVuSans-2e" transform="translate(63.623047 0)"/>
       <use xlink:href="#DejaVuSans-38" transform="translate(95.410156 0)"/>
      </g>
     </g>
    </g>
    <g id="text_30">
     <!-- v -->
     <g transform="translate(373.337188 139.419375) rotate(-90) scale(0.1 -0.1)">
      <use xlink:href="#DejaVuSans-76"/>
     </g>
    </g>
   </g>
   <g id="QuadContourSet_2">
    <path d="M 432.983445 26.88 
L 433.095335 61.206265 
L 433.40918 91.131727 
L 433.876401 114.896064 
L 434.428147 132.499277 
L 435.080414 146.581847 
L 435.832166 158.023936 
L 436.62443 166.825542 
L 437.462595 173.866827 
L 438.414018 180.027952 
L 439.465093 185.308916 
L 440.579282 189.709719 
L 441.758394 193.425434 
L 443.069309 196.751004 
L 444.344413 199.391486 
L 445.901364 202.031968 
L 447.142555 203.792289 
L 448.595955 205.55261 
L 450.385542 207.376425 
L 452.850442 209.413727 
L 455.315341 211.055178 
L 458.165538 212.593896 
L 461.47759 214.029732 
L 465.17494 215.313839 
L 468.872289 216.349979 
L 473.802088 217.457792 
L 478.731888 218.339288 
L 484.894137 219.215152 
L 492.288835 220.03297 
L 500.915984 220.766244 
L 512.008032 221.475037 
L 525.56498 222.107107 
L 542.819277 222.678418 
L 565.003373 223.179998 
L 594.582169 223.608087 
L 632.788112 223.929358 
L 682.086104 224.116621 
L 689.574676 224.12853 
L 689.574676 224.12853 
" clip-path="url(#p9163865d94)" style="fill: none; stroke: #440154; stroke-width: 1.5"/>
    <path d="M 463.677584 26.88 
L 463.784574 42.722892 
L 464.115074 58.565783 
L 464.622408 72.648353 
L 465.319392 85.850763 
L 466.141983 97.292851 
L 467.041112 106.974618 
L 468.06607 115.776225 
L 469.206068 123.697671 
L 470.442215 130.738956 
L 471.74426 136.90008 
L 473.067848 142.181044 
L 474.633551 147.462008 
L 476.266988 152.117913 
L 477.974849 156.263614 
L 479.656955 159.784257 
L 481.604553 163.3049 
L 483.661687 166.50914 
L 485.171663 168.585863 
L 487.359036 171.25695 
L 489.823936 173.870346 
L 492.716247 176.507309 
L 494.921951 178.267631 
L 497.397103 180.027952 
L 500.915984 182.208354 
L 504.613333 184.171577 
L 508.310683 185.86525 
L 512.008032 187.341224 
L 516.937831 189.036265 
L 522.270234 190.58988 
L 528.02988 192.010684 
L 534.192129 193.299523 
L 541.586827 194.597014 
L 550.213976 195.84797 
L 558.841124 196.879451 
L 569.933173 197.961532 
L 582.257671 198.920235 
L 595.814618 199.752848 
L 611.836466 200.512392 
L 630.323213 201.162265 
L 651.274859 201.676655 
L 659.943132 201.83326 
M 682.04578 202.106283 
L 706.7351 202.220195 
L 709.2 202.221152 
L 709.2 202.221152 
" clip-path="url(#p9163865d94)" style="fill: none; stroke: #472d7b; stroke-width: 1.5"/>
    <path d="M 494.371723 26.88 
L 494.488383 37.441928 
L 494.843015 48.003855 
L 495.391951 57.685622 
L 496.096916 66.487229 
L 497.025681 75.288835 
L 498.08417 83.210281 
L 499.233776 90.251566 
L 500.61718 97.292851 
L 502.148434 103.812242 
L 503.495103 108.73494 
L 505.158201 114.015904 
L 506.747253 118.416707 
L 508.556213 122.81751 
L 510.626807 127.218313 
L 512.507878 130.738956 
L 514.624405 134.259598 
L 517.021204 137.780241 
L 519.754232 141.300884 
L 522.065789 143.941365 
L 524.644703 146.581847 
L 527.538005 149.222329 
L 530.80519 151.862811 
L 534.524 154.503293 
L 537.889478 156.614889 
L 542.013001 158.904096 
L 546.516627 161.092586 
L 551.446426 163.182494 
L 556.376225 165.008671 
L 561.306024 166.615825 
L 566.235823 168.039705 
L 572.398072 169.603715 
L 579.833939 171.226345 
L 587.18747 172.597546 
L 595.814618 173.966798 
L 605.674217 175.273479 
L 615.533815 176.357381 
L 626.97264 177.38747 
L 639.205723 178.267631 
L 652.507309 179.009938 
L 666.165566 179.575648 
M 688.150929 180.131479 
L 704.270201 180.291467 
L 709.2 180.300768 
L 709.2 180.300768 
" clip-path="url(#p9163865d94)" style="fill: none; stroke: #3b528b; stroke-width: 1.5"/>
    <path d="M 525.065862 26.88 
L 525.165562 33.921285 
L 525.46591 40.96257 
L 525.97455 48.003855 
L 526.704636 55.045141 
L 527.676037 62.086426 
L 528.745409 68.24755 
L 530.045224 74.408675 
L 531.366936 79.689639 
L 532.959679 85.136457 
L 534.699044 90.251566 
L 536.657028 95.234308 
L 538.360782 99.053173 
L 540.577935 103.453976 
L 542.819277 107.375489 
L 544.808645 110.495261 
L 547.30805 114.015904 
L 550.119944 117.536546 
L 552.678876 120.401959 
L 555.143775 122.906102 
L 557.909429 125.457992 
L 561.306024 128.275238 
L 565.003373 131.005866 
L 568.700723 133.442415 
L 573.103401 136.01992 
L 577.327871 138.215262 
L 582.257671 140.487876 
L 587.18747 142.496005 
L 592.117269 144.280969 
L 598.279518 146.246013 
L 604.441767 147.960711 
L 610.604016 149.463592 
L 617.998715 151.02975 
L 625.393414 152.375053 
L 634.020562 153.708585 
L 642.647711 154.824345 
L 652.507309 155.871325 
L 662.366908 156.706849 
L 672.339276 157.362202 
M 694.309022 158.217795 
L 705.502651 158.370285 
L 709.2 158.380383 
L 709.2 158.380383 
" clip-path="url(#p9163865d94)" style="fill: none; stroke: #2c728e; stroke-width: 1.5"/>
    <path d="M 555.760002 26.88 
L 555.889941 33.041124 
L 556.068459 36.364764 
M 558.417456 54.309236 
L 559.565877 59.445944 
L 561.003325 64.726908 
L 562.538474 69.463601 
L 564.061134 73.528514 
L 565.95094 77.929317 
L 567.664591 81.44996 
L 569.933173 85.57787 
L 571.7228 88.491245 
L 574.122691 92.011888 
L 576.817421 95.53253 
L 579.792771 98.987473 
L 582.388261 101.693655 
L 585.17896 104.334137 
L 588.41992 107.103987 
L 592.117269 109.932682 
L 595.814618 112.46392 
L 599.777421 114.896064 
L 604.441767 117.443285 
L 608.231113 119.296867 
L 613.068916 121.42173 
L 617.998715 123.346186 
L 622.928514 125.060081 
L 629.090763 126.946621 
L 635.253012 128.587099 
L 641.415261 130.014492 
L 648.80996 131.482123 
L 656.204659 132.715452 
L 663.599357 133.742013 
L 672.226506 134.706521 
L 680.853655 135.444059 
L 690.450357 136.01992 
L 699.340402 136.33883 
L 709.2 136.459999 
L 709.2 136.459999 
" clip-path="url(#p9163865d94)" style="fill: none; stroke: #21918c; stroke-width: 1.5"/>
    <path d="M 586.454141 26.88 
L 586.560706 31.280803 
L 586.879873 35.681606 
L 587.416432 40.08241 
L 588.178586 44.483213 
L 589.178335 48.884016 
L 590.43191 53.284819 
L 591.960642 57.685622 
L 593.40014 61.206265 
L 595.051377 64.726908 
L 597.047068 68.441787 
L 599.079056 71.768193 
L 601.515056 75.288835 
L 603.558065 77.929317 
L 605.809189 80.569799 
L 608.294403 83.210281 
L 611.044754 85.850763 
L 614.301365 88.65792 
L 617.998715 91.493557 
L 621.696064 94.017408 
L 625.628545 96.412691 
L 629.090763 98.309838 
L 634.020562 100.717103 
L 638.325449 102.573815 
L 642.908333 104.334137 
L 648.112408 106.094458 
L 653.056954 107.559733 
M 674.342347 112.026806 
L 680.853655 112.90074 
L 688.248353 113.654406 
L 695.643052 114.171511 
L 703.037751 114.463511 
L 709.2 114.539614 
L 709.2 114.539614 
" clip-path="url(#p9163865d94)" style="fill: none; stroke: #28ae80; stroke-width: 1.5"/>
    <path d="M 617.148282 26.88 
L 617.256983 30.400643 
L 617.581877 33.921285 
L 618.12737 37.441928 
L 618.901134 40.96257 
L 619.914238 44.483213 
L 621.181804 48.003855 
L 622.723722 51.524498 
L 624.160964 54.319275 
L 626.165321 57.685622 
L 627.969434 60.326104 
L 630.323213 63.356269 
L 632.788112 66.144717 
L 635.253012 68.621364 
L 637.767501 70.888032 
L 641.062805 73.528514 
L 643.880161 75.540543 
L 647.637041 77.929317 
L 651.274859 79.968709 
L 654.972209 81.807218 
L 658.669558 83.440022 
L 660.552115 84.198769 
M 681.40201 90.086049 
L 685.783454 90.841353 
L 691.945703 91.664503 
L 698.107952 92.227125 
L 704.270201 92.541599 
L 709.2 92.619229 
L 709.2 92.619229 
" clip-path="url(#p9163865d94)" style="fill: none; stroke: #5ec962; stroke-width: 1.5"/>
    <path d="M 647.842423 26.88 
L 647.854298 27.760161 
L 647.888814 28.640321 
L 647.946023 29.520482 
L 648.026015 30.400643 
L 648.128912 31.280803 
L 648.25487 32.160964 
L 648.404081 33.041124 
L 648.576767 33.921285 
L 648.773185 34.801446 
L 648.80996 34.948779 
L 648.993775 35.681606 
L 649.238825 36.561767 
L 649.508681 37.441928 
L 649.803746 38.322088 
L 650.04241 38.97807 
L 650.124586 39.202249 
L 650.472063 40.08241 
L 650.846348 40.96257 
L 651.247987 41.842731 
L 651.274859 41.898183 
L 651.678668 42.722892 
L 652.138262 43.603052 
L 652.507309 44.268562 
L 652.627781 44.483213 
L 653.149084 45.363373 
L 653.701719 46.243534 
L 653.739759 46.301319 
L 654.289025 47.123695 
L 654.909928 48.003855 
L 654.972209 48.088334 
L 655.568479 48.884016 
L 656.204659 49.690807 
L 656.263544 49.764177 
L 656.999929 50.644337 
L 657.437108 51.143557 
L 657.777332 51.524498 
L 658.598234 52.404659 
L 658.669558 52.478328 
L 659.4675 53.284819 
L 659.902008 53.706479 
L 660.385558 54.16498 
L 661.134458 54.84812 
L 661.355848 55.045141 
L 662.366908 55.912399 
L 662.38235 55.925301 
L 663.471311 56.805462 
L 663.599357 56.905561 
L 664.626024 57.685622 
L 664.831807 57.837078 
L 665.852181 58.565783 
L 666.064257 58.712744 
L 667.156543 59.445944 
L 667.296707 59.537389 
L 667.959767 59.955786 
M 687.453906 68.068548 
L 688.170707 68.24755 
L 688.248353 68.266741 
L 689.480803 68.553574 
L 690.713253 68.820872 
L 691.945703 69.069024 
L 692.259611 69.127711 
L 693.178153 69.298154 
L 694.410602 69.508876 
L 695.643052 69.701595 
L 696.875502 69.876599 
L 697.901648 70.007871 
L 698.107952 70.034134 
L 699.340402 70.174407 
L 700.572851 70.297732 
L 701.805301 70.404292 
L 703.037751 70.494246 
L 704.270201 70.56773 
L 705.502651 70.624856 
L 706.7351 70.665713 
L 707.96755 70.690362 
L 709.2 70.698843 
" clip-path="url(#p9163865d94)" style="fill: none; stroke: #addc30; stroke-width: 1.5"/>
    <path d="M 678.53657 26.88 
L 678.561994 27.760161 
L 678.635991 28.640321 
L 678.75896 29.520482 
L 678.931549 30.400643 
L 679.154649 31.280803 
L 679.42937 32.160964 
L 679.621205 32.678503 
L 679.757468 33.041124 
L 680.141265 33.921285 
L 680.582167 34.801446 
L 680.853655 35.282646 
L 681.083787 35.681606 
L 681.649924 36.561767 
L 682.086104 37.173109 
L 682.283554 37.441928 
L 682.991701 38.322088 
L 683.318554 38.694827 
L 683.779994 39.202249 
L 684.551004 39.98219 
L 684.654313 40.08241 
L 685.62882 40.96257 
L 685.783454 41.093232 
L 686.715717 41.842731 
L 687.015904 42.069447 
L 687.47121 42.394607 
M 707.60766 48.744865 
L 707.96755 48.760296 
L 709.2 48.778453 
" clip-path="url(#p9163865d94)" style="fill: none; stroke: #fde725; stroke-width: 1.5"/>
   </g>
   <g id="patch_8">
    <path d="M 402.32 246.04 
L 402.32 26.88 
" style="fill: none; stroke: #000000; stroke-width: 0.8; stroke-linejoin: miter; stroke-linecap: square"/>
   </g>
   <g id="patch_9">
    <path d="M 709.2 246.04 
L 709.2 26.88 
" style="fill: none; stroke: #000000; stroke-width: 0.8; stroke-linejoin: miter; stroke-linecap: square"/>
   </g>
   <g id="patch_10">
    <path d="M 402.32 246.04 
L 709.2 246.04 
" style="fill: none; stroke: #000000; stroke-width: 0.8; stroke-linejoin: miter; stroke-linecap: square"/>
   </g>
   <g id="patch_11">
    <path d="M 402.32 26.88 
L 709.2 26.88 
" style="fill: none; stroke: #000000; stroke-width: 0.8; stroke-linejoin: miter; stroke-linecap: square"/>
   </g>
   <g id="text_31">
    <!-- BB7 (θ=2, δ=1.2) -->
    <g transform="translate(502.549375 20.88) scale(0.12 -0.12)">
     <use xlink:href="#DejaVuSans-42"/>
     <use xlink:href="#DejaVuSans-42" transform="translate(68.603516 0)"/>
     <use xlink:href="#DejaVuSans-37" transform="translate(137.207031 0)"/>
     <use xlink:href="#DejaVuSans-20" transform="translate(200.830078 0)"/>
     <use xlink:href="#DejaVuSans-28" transform="translate(232.617188 0)"/>
     <use xlink:href="#DejaVuSans-3b8" transform="translate(271.630859 0)"/>
     <use xlink:href="#DejaVuSans-3d" transform="translate(332.8125 0)"/>
     <use xlink:href="#DejaVuSans-32" transform="translate(416.601562 0)"/>
     <use xlink:href="#DejaVuSans-2c" transform="translate(480.224609 0)"/>
     <use xlink:href="#DejaVuSans-20" transform="translate(512.011719 0)"/>
     <use xlink:href="#DejaVuSans-3b4" transform="translate(543.798828 0)"/>
     <use xlink:href="#DejaVuSans-3d" transform="translate(604.980469 0)"/>
     <use xlink:href="#DejaVuSans-31" transform="translate(688.769531 0)"/>
     <use xlink:href="#DejaVuSans-2e" transform="translate(752.392578 0)"/>
     <use xlink:href="#DejaVuSans-32" transform="translate(784.179688 0)"/>
     <use xlink:href="#DejaVuSans-29" transform="translate(847.802734 0)"/>
    </g>
   </g>
   <g id="text_32">
    <g clip-path="url(#p9163865d94)">
     <!-- 0.1 -->
     <g style="fill: #440154" transform="translate(695.005384 226.066623) rotate(-359.959201) scale(0.07 -0.07)">
      <use xlink:href="#DejaVuSans-30"/>
      <use xlink:href="#DejaVuSans-2e" transform="translate(63.623047 0)"/>
      <use xlink:href="#DejaVuSans-31" transform="translate(95.410156 0)"/>
     </g>
    </g>
   </g>
   <g id="text_33">
    <g clip-path="url(#p9163865d94)">
     <!-- 0.2 -->
     <g style="fill: #472d7b" transform="translate(665.399462 203.8387) rotate(-359.13578) scale(0.07 -0.07)">
      <use xlink:href="#DejaVuSans-30"/>
      <use xlink:href="#DejaVuSans-2e" transform="translate(63.623047 0)"/>
      <use xlink:href="#DejaVuSans-32" transform="translate(95.410156 0)"/>
     </g>
    </g>
   </g>
   <g id="text_34">
    <g clip-path="url(#p9163865d94)">
     <!-- 0.3 -->
     <g style="fill: #3b528b" transform="translate(671.533274 181.663643) rotate(-358.232201) scale(0.07 -0.07)">
      <use xlink:href="#DejaVuSans-30"/>
      <use xlink:href="#DejaVuSans-2e" transform="translate(63.623047 0)"/>
      <use xlink:href="#DejaVuSans-33" transform="translate(95.410156 0)"/>
     </g>
    </g>
   </g>
   <g id="text_35">
    <g clip-path="url(#p9163865d94)">
     <!-- 0.4 -->
     <g style="fill: #2c728e" transform="translate(677.667042 159.550753) rotate(-357.279068) scale(0.07 -0.07)">
      <use xlink:href="#DejaVuSans-30"/>
      <use xlink:href="#DejaVuSans-2e" transform="translate(63.623047 0)"/>
      <use xlink:href="#DejaVuSans-34" transform="translate(95.410156 0)"/>
     </g>
    </g>
   </g>
   <g id="text_36">
    <g clip-path="url(#p9163865d94)">
     <!-- 0.5 -->
     <g style="fill: #21918c" transform="translate(554.432151 40.033008) rotate(-276.076197) scale(0.07 -0.07)">
      <use xlink:href="#DejaVuSans-30"/>
      <use xlink:href="#DejaVuSans-2e" transform="translate(63.623047 0)"/>
      <use xlink:href="#DejaVuSans-35" transform="translate(95.410156 0)"/>
     </g>
    </g>
   </g>
   <g id="text_37">
    <g clip-path="url(#p9163865d94)">
     <!-- 0.6 -->
     <g style="fill: #28ae80" transform="translate(657.728201 110.602788) rotate(-345.650109) scale(0.07 -0.07)">
      <use xlink:href="#DejaVuSans-30"/>
      <use xlink:href="#DejaVuSans-2e" transform="translate(63.623047 0)"/>
      <use xlink:href="#DejaVuSans-36" transform="translate(95.410156 0)"/>
     </g>
    </g>
   </g>
   <g id="text_38">
    <g clip-path="url(#p9163865d94)">
     <!-- 0.7 -->
     <g style="fill: #5ec962" transform="translate(664.886305 87.62554) rotate(-341.002625) scale(0.07 -0.07)">
      <use xlink:href="#DejaVuSans-30"/>
      <use xlink:href="#DejaVuSans-2e" transform="translate(63.623047 0)"/>
      <use xlink:href="#DejaVuSans-37" transform="translate(95.410156 0)"/>
     </g>
    </g>
   </g>
   <g id="text_39">
    <g clip-path="url(#p9163865d94)">
     <!-- 0.8 -->
     <g style="fill: #addc30" transform="translate(671.421013 63.933333) rotate(-333.12117) scale(0.07 -0.07)">
      <use xlink:href="#DejaVuSans-30"/>
      <use xlink:href="#DejaVuSans-2e" transform="translate(63.623047 0)"/>
      <use xlink:href="#DejaVuSans-38" transform="translate(95.410156 0)"/>
     </g>
    </g>
   </g>
   <g id="text_40">
    <g clip-path="url(#p9163865d94)">
     <!-- 0.9 -->
     <g style="fill: #fde725" transform="translate(690.986432 46.782734) rotate(-339.14429) scale(0.07 -0.07)">
      <use xlink:href="#DejaVuSans-30"/>
      <use xlink:href="#DejaVuSans-2e" transform="translate(63.623047 0)"/>
      <use xlink:href="#DejaVuSans-39" transform="translate(95.410156 0)"/>
     </g>
    </g>
   </g>
  </g>
 </g>
 <defs>
  <clipPath id="pb7c9f0026e">
   <rect x="47.72" y="26.88" width="306.88" height="219.16"/>
  </clipPath>
  <clipPath id="p9163865d94">
   <rect x="402.32" y="26.88" width="306.88" height="219.16"/>
  </clipPath>
 </defs>
</svg>
