<?xml version="1.0" encoding="utf-8" standalone="no"?>
<!DOCTYPE svg PUBLIC "-//W3C//DTD SVG 1.1//EN"
  "http://www.w3.org/Graphics/SVG/1.1/DTD/svg11.dtd">
<svg xmlns:xlink="http://www.w3.org/1999/xlink" width="360pt" height="288pt" viewBox="0 0 360 288" xmlns="http://www.w3.org/2000/svg" version="1.1">
 <metadata>
  <rdf:RDF xmlns:dc="http://purl.org/dc/elements/1.1/" xmlns:cc="http://creativecommons.org/ns#" xmlns:rdf="http://www.w3.org/1999/02/22-rdf-syntax-ns#">
   <cc:Work>
    <dc:type rdf:resource="http://purl.org/dc/dcmitype/StillImage"/>
    <dc:date>2025-10-12T22:06:46.815708</dc:date>
    <dc:format>image/svg+xml</dc:format>
    <dc:creator>
     <cc:Agent>
      <dc:title>Matplotlib v3.10.7, https://matplotlib.org/</dc:title>
     </cc:Agent>
    </dc:creator>
   </cc:Work>
  </rdf:RDF>
 </metadata>
 <defs>
  <style type="text/css">*{stroke-linejoin: round; stroke-linecap: butt}</style>
 </defs>
 <g id="figure_1">
  <g id="patch_1">
   <path d="M 0 288 
L 360 288 
L 360 0 
L 0 0 
z
" style="fill: #ffffff"/>
  </g>
  <g id="axes_1">
   <g id="patch_2">
    <path d="M 47.72 246.04 
L 349.2 246.04 
L 349.2 26.88 
L 47.72 26.88 
z
" style="fill: #ffffff"/>
   </g>
   <g id="matplotlib.axis_1">
    <g id="xtick_1">
     <g id="line2d_1">
      <defs>
       <path id="mc1eff28966" d="M 0 0 
L 0 3.5 
" style="stroke: #000000; stroke-width: 0.8"/>
      </defs>
      <g>
       <use xlink:href="#mc1eff28966" x="107.997908" y="246.04" style="stroke: #000000; stroke-width: 0.8"/>
      </g>
     </g>
     <g id="text_1">
      <!-- 0.2 -->
      <g transform="translate(100.046345 260.638438) scale(0.1 -0.1)">
       <defs>
        <path id="DejaVuSans-30" d="M 2034 4250 
Q 1547 4250 1301 3770 
Q 1056 3291 1056 2328 
Q 1056 1369 1301 889 
Q 1547 409 2034 409 
Q 2525 409 2770 889 
Q 3016 1369 3016 2328 
Q 3016 3291 2770 3770 
Q 2525 4250 2034 4250 
z
M 2034 4750 
Q 2819 4750 3233 4129 
Q 3647 3509 3647 2328 
Q 3647 1150 3233 529 
Q 2819 -91 2034 -91 
Q 1250 -91 836 529 
Q 422 1150 422 2328 
Q 422 3509 836 4129 
Q 1250 4750 2034 4750 
z
" transform="scale(0.015625)"/>
        <path id="DejaVuSans-2e" d="M 684 794 
L 1344 794 
L 1344 0 
L 684 0 
L 684 794 
z
" transform="scale(0.015625)"/>
        <path id="DejaVuSans-32" d="M 1228 531 
L 3431 531 
L 3431 0 
L 469 0 
L 469 531 
Q 828 903 1448 1529 
Q 2069 2156 2228 2338 
Q 2531 2678 2651 2914 
Q 2772 3150 2772 3378 
Q 2772 3750 2511 3984 
Q 2250 4219 1831 4219 
Q 1534 4219 1204 4116 
Q 875 4013 500 3803 
L 500 4441 
Q 881 4594 1212 4672 
Q 1544 4750 1819 4750 
Q 2544 4750 2975 4387 
Q 3406 4025 3406 3419 
Q 3406 3131 3298 2873 
Q 3191 2616 2906 2266 
Q 2828 2175 2409 1742 
Q 1991 1309 1228 531 
z
" transform="scale(0.015625)"/>
       </defs>
       <use xlink:href="#DejaVuSans-30"/>
       <use xlink:href="#DejaVuSans-2e" transform="translate(63.623047 0)"/>
       <use xlink:href="#DejaVuSans-32" transform="translate(95.410156 0)"/>
      </g>
     </g>
    </g>
    <g id="xtick_2">
     <g id="line2d_2">
      <g>
       <use xlink:href="#mc1eff28966" x="168.305969" y="246.04" style="stroke: #000000; stroke-width: 0.8"/>
      </g>
     </g>
     <g id="text_2">
      <!-- 0.4 -->
      <g transform="translate(160.354407 260.638438) scale(0.1 -0.1)">
       <defs>
        <path id="DejaVuSans-34" d="M 2419 4116 
L 825 1625 
L 2419 1625 
L 2419 4116 
z
M 2253 4666 
L 3047 4666 
L 3047 1625 
L 3713 1625 
L 3713 1100 
L 3047 1100 
L 3047 0 
L 2419 0 
L 2419 1100 
L 313 1100 
L 313 1709 
L 2253 4666 
z
" transform="scale(0.015625)"/>
       </defs>
       <use xlink:href="#DejaVuSans-30"/>
       <use xlink:href="#DejaVuSans-2e" transform="translate(63.623047 0)"/>
       <use xlink:href="#DejaVuSans-34" transform="translate(95.410156 0)"/>
      </g>
     </g>
    </g>
    <g id="xtick_3">
     <g id="line2d_3">
      <g>
       <use xlink:href="#mc1eff28966" x="228.614031" y="246.04" style="stroke: #000000; stroke-width: 0.8"/>
      </g>
     </g>
     <g id="text_3">
      <!-- 0.6 -->
      <g transform="translate(220.662468 260.638438) scale(0.1 -0.1)">
       <defs>
        <path id="DejaVuSans-36" d="M 2113 2584 
Q 1688 2584 1439 2293 
Q 1191 2003 1191 1497 
Q 1191 994 1439 701 
Q 1688 409 2113 409 
Q 2538 409 2786 701 
Q 3034 994 3034 1497 
Q 3034 2003 2786 2293 
Q 2538 2584 2113 2584 
z
M 3366 4563 
L 3366 3988 
Q 3128 4100 2886 4159 
Q 2644 4219 2406 4219 
Q 1781 4219 1451 3797 
Q 1122 3375 1075 2522 
Q 1259 2794 1537 2939 
Q 1816 3084 2150 3084 
Q 2853 3084 3261 2657 
Q 3669 2231 3669 1497 
Q 3669 778 3244 343 
Q 2819 -91 2113 -91 
Q 1303 -91 875 529 
Q 447 1150 447 2328 
Q 447 3434 972 4092 
Q 1497 4750 2381 4750 
Q 2619 4750 2861 4703 
Q 3103 4656 3366 4563 
z
" transform="scale(0.015625)"/>
       </defs>
       <use xlink:href="#DejaVuSans-30"/>
       <use xlink:href="#DejaVuSans-2e" transform="translate(63.623047 0)"/>
       <use xlink:href="#DejaVuSans-36" transform="translate(95.410156 0)"/>
      </g>
     </g>
    </g>
    <g id="xtick_4">
     <g id="line2d_4">
      <g>
       <use xlink:href="#mc1eff28966" x="288.922092" y="246.04" style="stroke: #000000; stroke-width: 0.8"/>
      </g>
     </g>
     <g id="text_4">
      <!-- 0.8 -->
      <g transform="translate(280.97053 260.638438) scale(0.1 -0.1)">
       <defs>
        <path id="DejaVuSans-38" d="M 2034 2216 
Q 1584 2216 1326 1975 
Q 1069 1734 1069 1313 
Q 1069 891 1326 650 
Q 1584 409 2034 409 
Q 2484 409 2743 651 
Q 3003 894 3003 1313 
Q 3003 1734 2745 1975 
Q 2488 2216 2034 2216 
z
M 1403 2484 
Q 997 2584 770 2862 
Q 544 3141 544 3541 
Q 544 4100 942 4425 
Q 1341 4750 2034 4750 
Q 2731 4750 3128 4425 
Q 3525 4100 3525 3541 
Q 3525 3141 3298 2862 
Q 3072 2584 2669 2484 
Q 3125 2378 3379 2068 
Q 3634 1759 3634 1313 
Q 3634 634 3220 271 
Q 2806 -91 2034 -91 
Q 1263 -91 848 271 
Q 434 634 434 1313 
Q 434 1759 690 2068 
Q 947 2378 1403 2484 
z
M 1172 3481 
Q 1172 3119 1398 2916 
Q 1625 2713 2034 2713 
Q 2441 2713 2670 2916 
Q 2900 3119 2900 3481 
Q 2900 3844 2670 4047 
Q 2441 4250 2034 4250 
Q 1625 4250 1398 4047 
Q 1172 3844 1172 3481 
z
" transform="scale(0.015625)"/>
       </defs>
       <use xlink:href="#DejaVuSans-30"/>
       <use xlink:href="#DejaVuSans-2e" transform="translate(63.623047 0)"/>
       <use xlink:href="#DejaVuSans-38" transform="translate(95.410156 0)"/>
      </g>
     </g>
    </g>
    <g id="text_5">
     <!-- u -->
     <g transform="translate(195.29125 274.316562) scale(0.1 -0.1)">
      <defs>
       <path id="DejaVuSans-75" d="M 544 1381 
L 544 3500 
L 1119 3500 
L 1119 1403 
Q 1119 906 1312 657 
Q 1506 409 1894 409 
Q 2359 409 2629 706 
Q 2900 1003 2900 1516 
L 2900 3500 
L 3475 3500 
L 3475 0 
L 2900 0 
L 2900 538 
Q 2691 219 2414 64 
Q 2138 -91 1772 -91 
Q 1169 -91 856 284 
Q 544 659 544 1381 
z
M 1991 3584 
L 1991 3584 
z
" transform="scale(0.015625)"/>
      </defs>
      <use xlink:href="#DejaVuSans-75"/>
     </g>
    </g>
   </g>
   <g id="matplotlib.axis_2">
    <g id="ytick_1">
     <g id="line2d_5">
      <defs>
       <path id="m3e6db4d9a5" d="M 0 0 
L -3.5 0 
" style="stroke: #000000; stroke-width: 0.8"/>
      </defs>
      <g>
       <use xlink:href="#m3e6db4d9a5" x="47.72" y="202.221152" style="stroke: #000000; stroke-width: 0.8"/>
      </g>
     </g>
     <g id="text_6">
      <!-- 0.2 -->
      <g transform="translate(24.816875 206.020371) scale(0.1 -0.1)">
       <use xlink:href="#DejaVuSans-30"/>
       <use xlink:href="#DejaVuSans-2e" transform="translate(63.623047 0)"/>
       <use xlink:href="#DejaVuSans-32" transform="translate(95.410156 0)"/>
      </g>
     </g>
    </g>
    <g id="ytick_2">
     <g id="line2d_6">
      <g>
       <use xlink:href="#m3e6db4d9a5" x="47.72" y="158.380384" style="stroke: #000000; stroke-width: 0.8"/>
      </g>
     </g>
     <g id="text_7">
      <!-- 0.4 -->
      <g transform="translate(24.816875 162.179603) scale(0.1 -0.1)">
       <use xlink:href="#DejaVuSans-30"/>
       <use xlink:href="#DejaVuSans-2e" transform="translate(63.623047 0)"/>
       <use xlink:href="#DejaVuSans-34" transform="translate(95.410156 0)"/>
      </g>
     </g>
    </g>
    <g id="ytick_3">
     <g id="line2d_7">
      <g>
       <use xlink:href="#m3e6db4d9a5" x="47.72" y="114.539616" style="stroke: #000000; stroke-width: 0.8"/>
      </g>
     </g>
     <g id="text_8">
      <!-- 0.6 -->
      <g transform="translate(24.816875 118.338835) scale(0.1 -0.1)">
       <use xlink:href="#DejaVuSans-30"/>
       <use xlink:href="#DejaVuSans-2e" transform="translate(63.623047 0)"/>
       <use xlink:href="#DejaVuSans-36" transform="translate(95.410156 0)"/>
      </g>
     </g>
    </g>
    <g id="ytick_4">
     <g id="line2d_8">
      <g>
       <use xlink:href="#m3e6db4d9a5" x="47.72" y="70.698848" style="stroke: #000000; stroke-width: 0.8"/>
      </g>
     </g>
     <g id="text_9">
      <!-- 0.8 -->
      <g transform="translate(24.816875 74.498067) scale(0.1 -0.1)">
       <use xlink:href="#DejaVuSans-30"/>
       <use xlink:href="#DejaVuSans-2e" transform="translate(63.623047 0)"/>
       <use xlink:href="#DejaVuSans-38" transform="translate(95.410156 0)"/>
      </g>
     </g>
    </g>
    <g id="text_10">
     <!-- v -->
     <g transform="translate(18.737188 139.419375) rotate(-90) scale(0.1 -0.1)">
      <defs>
       <path id="DejaVuSans-76" d="M 191 3500 
L 800 3500 
L 1894 563 
L 2988 3500 
L 3597 3500 
L 2284 0 
L 1503 0 
L 191 3500 
z
" transform="scale(0.015625)"/>
      </defs>
      <use xlink:href="#DejaVuSans-76"/>
     </g>
    </g>
   </g>
   <g id="QuadContourSet_1">
    <path d="M 77.843907 26.88 
L 78.061165 105.308495 
L 78.356267 140.491371 
L 78.732999 161.014716 
L 79.180792 174.208294 
L 79.720764 183.73699 
L 80.296824 190.333779 
L 80.993712 195.797949 
L 81.728261 199.862475 
L 82.434288 202.794381 
L 83.361937 205.726288 
L 84.269615 207.925217 
L 85.44626 210.124147 
L 86.440564 211.5901 
L 87.67148 213.056054 
L 89.230981 214.522007 
L 91.27397 215.98796 
L 93.093244 216.997389 
L 95.109833 217.8922 
L 97.126421 218.615006 
L 100.151304 219.470365 
L 103.176187 220.130199 
L 107.209365 220.804551 
L 112.250836 221.426766 
L 119.308896 222.039586 
L 128.383545 222.565542 
L 139.474783 222.981465 
L 155.607492 223.354927 
L 179.806555 223.664722 
L 218.121739 223.904126 
L 286.685753 224.076369 
L 317.279522 224.113957 
M 338.772118 224.133511 
L 349.2 224.141514 
L 349.2 224.141514 
" clip-path="url(#p05333e7da7)" style="fill: none; stroke: #440154; stroke-width: 1.5"/>
    <path d="M 107.998149 26.88 
L 108.468954 59.863946 
L 109.025662 84.052174 
L 109.635171 101.643612 
L 110.323357 115.570167 
L 111.070551 126.564816 
L 111.863908 135.360535 
L 112.717523 142.690301 
L 113.697907 149.28709 
L 114.805773 155.150903 
L 115.836755 159.548763 
L 117.099369 163.946622 
L 118.386796 167.611505 
L 119.61992 170.543411 
L 121.084315 173.475318 
L 122.374738 175.674247 
L 123.876298 177.873177 
L 125.637808 180.072107 
L 127.734983 182.271037 
L 129.391839 183.757953 
L 131.408428 185.327391 
L 133.425017 186.687047 
L 136.4499 188.412578 
L 139.474783 189.848741 
L 142.512073 191.066756 
L 146.532843 192.41021 
L 150.56602 193.523824 
L 155.916369 194.731639 
L 161.657258 195.771506 
L 168.715318 196.789294 
L 176.781672 197.699347 
L 185.856321 198.495023 
L 196.947559 199.240452 
L 211.063679 199.945107 
L 228.204682 200.561566 
L 249.378863 201.096009 
L 277.611104 201.575742 
L 315.926288 201.988044 
L 326.305858 202.070142 
M 347.895145 202.213327 
L 349.2 202.220977 
L 349.2 202.220977 
" clip-path="url(#p05333e7da7)" style="fill: none; stroke: #472d7b; stroke-width: 1.5"/>
    <path d="M 138.811818 42.56428 
L 139.672842 58.397993 
L 140.603257 71.591572 
L 141.586693 82.586221 
L 142.649141 92.114916 
L 143.75261 100.177659 
L 144.970831 107.507425 
L 146.295896 114.104214 
L 147.710257 119.968027 
L 149.183028 125.098863 
L 150.665914 129.496722 
L 152.407091 133.894582 
L 154.104517 137.559465 
L 155.660284 140.491371 
L 157.62408 143.717633 
L 159.640669 146.588455 
L 161.821354 149.28709 
L 163.847157 151.48602 
L 166.144407 153.68495 
L 168.768454 155.88388 
L 171.797433 158.082809 
L 175.332379 160.281739 
L 178.798261 162.132296 
L 182.745014 163.946622 
L 186.432792 165.412575 
L 190.897793 166.950448 
L 195.939264 168.434746 
L 201.98903 169.938027 
L 208.41822 171.276388 
L 215.096856 172.446011 
L 223.163211 173.627012 
L 232.23786 174.721901 
L 242.320803 175.718888 
L 254.420334 176.686223 
L 268.536455 177.583365 
L 285.677458 178.432433 
L 305.843344 179.195152 
L 330.042408 179.880883 
L 349.2 180.300176 
L 349.2 180.300176 
" clip-path="url(#p05333e7da7)" style="fill: none; stroke: #3b528b; stroke-width: 1.5"/>
    <path d="M 168.307899 26.88 
L 169.445936 38.607625 
L 170.646817 48.869298 
L 171.983699 58.397993 
L 173.32782 66.460736 
L 174.765084 73.797383 
L 176.274312 80.387291 
L 177.831273 86.251104 
L 179.3974 91.38194 
L 181.194553 96.512776 
L 182.957967 100.910635 
L 184.972076 105.308495 
L 186.880548 108.973378 
L 189.04166 112.638261 
L 191.506341 116.303144 
L 193.922676 119.460015 
L 196.25465 122.166957 
L 199.103544 125.098863 
L 201.98903 127.717372 
L 205.12031 130.229699 
L 208.211847 132.428629 
L 212.071973 134.849475 
L 216.105151 137.060884 
L 220.183045 139.025418 
L 224.171505 140.726228 
L 229.417166 142.690301 
L 234.254448 144.27298 
L 240.304214 146.000383 
L 246.35398 147.498489 
L 253.41204 149.011066 
L 261.478395 150.489657 
L 270.553043 151.899563 
L 280.635987 153.218418 
L 291.727224 154.433917 
L 304.83505 155.624438 
L 318.951171 156.678711 
L 328.34238 157.276818 
L 328.34238 157.276818 
" clip-path="url(#p05333e7da7)" style="fill: none; stroke: #2c728e; stroke-width: 1.5"/>
    <path d="M 198.46377 26.88 
L 199.972441 35.04074 
L 201.508999 42.272508 
L 203.299838 49.602274 
L 205.156163 56.199064 
L 207.042629 62.062876 
L 209.04709 67.538572 
L 211.063679 72.405291 
L 213.080268 76.737248 
L 215.372652 81.120268 
L 217.518 84.785151 
L 220.138328 88.781811 
L 222.587268 92.114916 
L 225.179799 95.286945 
L 228.204682 98.596116 
L 230.547225 100.910635 
L 233.827584 103.842542 
L 237.279331 106.59503 
L 240.604789 108.973378 
L 244.337391 111.371853 
L 248.370569 113.689456 
L 252.403746 115.765729 
L 257.445217 118.074652 
L 262.486689 120.116442 
L 268.217742 122.166957 
L 273.577926 123.86644 
L 279.627692 125.572022 
L 286.685753 127.323647 
L 294.752107 129.065556 
L 302.818462 130.580524 
L 311.89311 132.062922 
L 321.407928 133.410294 
M 342.73391 135.844744 
L 349.2 136.457259 
L 349.2 136.457259 
" clip-path="url(#p05333e7da7)" style="fill: none; stroke: #21918c; stroke-width: 1.5"/>
    <path d="M 228.620546 26.88 
L 230.709358 33.476789 
L 232.807182 39.340602 
L 234.862985 44.471438 
L 237.160584 49.602274 
L 239.354997 54.000134 
L 241.79243 58.397993 
L 244.513379 62.795853 
L 247.362274 66.911927 
L 249.823178 70.125619 
L 252.924601 73.790502 
L 255.666724 76.722408 
L 258.677449 79.654314 
L 261.997798 82.586221 
L 265.67709 85.518127 
L 269.777473 88.450033 
L 273.577926 90.89777 
L 278.207336 93.58087 
L 282.652575 95.893283 
L 287.694047 98.249158 
L 292.735518 100.363273 
L 298.785284 102.629351 
L 304.83505 104.64529 
L 311.89311 106.731502 
L 318.951171 108.577146 
L 327.017525 110.440763 
L 330.611927 111.197885 
L 330.611927 111.197885 
" clip-path="url(#p05333e7da7)" style="fill: none; stroke: #28ae80; stroke-width: 1.5"/>
    <path d="M 258.778407 26.88 
L 261.333871 32.010836 
L 263.758616 36.408696 
L 266.519866 40.940668 
L 269.39916 45.204415 
L 272.126516 48.869298 
L 275.122565 52.534181 
L 278.428152 56.199064 
L 281.644281 59.435315 
L 285.324642 62.795853 
L 288.862664 65.727759 
L 292.753031 68.659666 
L 297.051628 71.591572 
L 300.801873 73.921085 
L 305.843344 76.762884 
L 310.884816 79.317699 
L 316.448547 81.853244 
L 321.976054 84.119744 
L 325.95016 85.613483 
M 346.407055 91.899918 
L 349.2 92.611711 
L 349.2 92.611711 
" clip-path="url(#p05333e7da7)" style="fill: none; stroke: #5ec962; stroke-width: 1.5"/>
    <path d="M 288.937535 26.88 
L 289.458325 27.612977 
L 289.710635 27.963453 
L 289.987823 28.345953 
L 290.52624 29.07893 
L 290.71893 29.338007 
L 291.073813 29.811906 
L 291.630734 30.544883 
L 291.727224 30.670447 
L 292.19731 31.27786 
L 292.735518 31.962633 
L 292.773679 32.010836 
L 293.36024 32.743813 
L 293.743813 33.216103 
L 293.957119 33.476789 
L 294.564656 34.209766 
L 294.752107 34.43311 
L 295.183154 34.942742 
L 295.760401 35.61518 
L 295.812781 35.675719 
L 296.454052 36.408696 
L 296.768696 36.763333 
L 297.107108 37.141672 
L 297.772231 37.874649 
L 297.77699 37.879838 
L 298.450039 38.607625 
L 298.785284 38.965022 
L 299.140608 39.340602 
L 299.793579 40.021175 
L 299.844296 40.073579 
L 300.561736 40.806555 
L 300.801873 41.048662 
L 301.293131 41.539532 
L 301.810167 42.049162 
L 302.038836 42.272508 
L 302.799301 43.005485 
L 302.818462 43.023751 
L 303.57523 43.738462 
L 303.826756 43.972885 
L 304.366812 44.471438 
L 304.83505 44.898081 
L 305.174529 45.204415 
L 305.843344 45.800195 
L 305.998887 45.937391 
L 306.84043 46.670368 
L 306.851639 46.680023 
L 307.699916 47.403344 
L 307.859933 47.538096 
L 308.577683 48.136321 
L 308.868227 48.375516 
L 309.474328 48.869298 
L 309.876522 49.193001 
L 310.390472 49.602274 
L 310.884816 49.991244 
L 311.326767 50.335251 
L 311.89311 50.770905 
L 312.28389 51.068227 
L 312.901405 51.53262 
L 313.262549 51.801204 
L 313.909699 52.276998 
L 314.263483 52.534181 
L 314.917993 53.004624 
L 315.287462 53.267157 
L 315.926288 53.716058 
L 316.335289 54.000134 
L 316.934582 54.411835 
L 317.407804 54.73311 
L 317.942876 55.092472 
L 318.505878 55.466087 
L 318.951171 55.758461 
L 319.630425 56.199064 
L 319.959465 56.410274 
L 320.782393 56.93204 
L 320.967759 57.048364 
L 321.962772 57.665017 
L 321.976054 57.673165 
L 322.984348 58.284922 
L 323.173077 58.397993 
L 323.992642 58.884186 
L 324.414039 59.13097 
L 325.000936 59.471354 
L 325.686754 59.863946 
L 326.009231 60.046792 
L 326.992398 60.596923 
L 327.017525 60.610852 
L 328.025819 61.16367 
L 328.333059 61.3299 
L 329.034114 61.705758 
L 329.709362 62.062876 
L 330.042408 62.237443 
L 331.050702 62.758984 
L 331.12279 62.795853 
L 332.058997 63.270528 
L 332.57565 63.528829 
L 333.067291 63.772535 
L 333.463026 63.965933 
" clip-path="url(#p05333e7da7)" style="fill: none; stroke: #addc30; stroke-width: 1.5"/>
    <path d="M 319.098112 26.88 
L 319.8403 27.612977 
L 319.959465 27.729338 
L 320.59622 28.345953 
L 320.967759 28.701172 
L 321.366241 29.07893 
L 321.976054 29.649781 
L 322.150749 29.811906 
L 322.905595 30.504024 
M 339.482438 43.115458 
L 340.125351 43.52292 
L 340.46945 43.738462 
L 341.133645 44.150619 
L 341.656828 44.471438 
L 342.14194 44.766178 
L 342.871976 45.204415 
L 343.150234 45.369943 
L 344.115854 45.937391 
L 344.158528 45.962246 
L 345.166823 46.543374 
L 345.389846 46.670368 
L 346.175117 47.113669 
L 346.694767 47.403344 
L 347.183411 47.673434 
L 348.031637 48.136321 
L 348.191706 48.222948 
L 349.2 48.762479 
" clip-path="url(#p05333e7da7)" style="fill: none; stroke: #fde725; stroke-width: 1.5"/>
   </g>
   <g id="patch_3">
    <path d="M 47.72 246.04 
L 47.72 26.88 
" style="fill: none; stroke: #000000; stroke-width: 0.8; stroke-linejoin: miter; stroke-linecap: square"/>
   </g>
   <g id="patch_4">
    <path d="M 349.2 246.04 
L 349.2 26.88 
" style="fill: none; stroke: #000000; stroke-width: 0.8; stroke-linejoin: miter; stroke-linecap: square"/>
   </g>
   <g id="patch_5">
    <path d="M 47.72 246.04 
L 349.2 246.04 
" style="fill: none; stroke: #000000; stroke-width: 0.8; stroke-linejoin: miter; stroke-linecap: square"/>
   </g>
   <g id="patch_6">
    <path d="M 47.72 26.88 
L 349.2 26.88 
" style="fill: none; stroke: #000000; stroke-width: 0.8; stroke-linejoin: miter; stroke-linecap: square"/>
   </g>
   <g id="text_11">
    <!-- Clayton copula contours (θ=2) -->
    <g transform="translate(106.51375 20.88) scale(0.12 -0.12)">
     <defs>
      <path id="DejaVuSans-43" d="M 4122 4306 
L 4122 3641 
Q 3803 3938 3442 4084 
Q 3081 4231 2675 4231 
Q 1875 4231 1450 3742 
Q 1025 3253 1025 2328 
Q 1025 1406 1450 917 
Q 1875 428 2675 428 
Q 3081 428 3442 575 
Q 3803 722 4122 1019 
L 4122 359 
Q 3791 134 3420 21 
Q 3050 -91 2638 -91 
Q 1578 -91 968 557 
Q 359 1206 359 2328 
Q 359 3453 968 4101 
Q 1578 4750 2638 4750 
Q 3056 4750 3426 4639 
Q 3797 4528 4122 4306 
z
" transform="scale(0.015625)"/>
      <path id="DejaVuSans-6c" d="M 603 4863 
L 1178 4863 
L 1178 0 
L 603 0 
L 603 4863 
z
" transform="scale(0.015625)"/>
      <path id="DejaVuSans-61" d="M 2194 1759 
Q 1497 1759 1228 1600 
Q 959 1441 959 1056 
Q 959 750 1161 570 
Q 1363 391 1709 391 
Q 2188 391 2477 730 
Q 2766 1069 2766 1631 
L 2766 1759 
L 2194 1759 
z
M 3341 1997 
L 3341 0 
L 2766 0 
L 2766 531 
Q 2569 213 2275 61 
Q 1981 -91 1556 -91 
Q 1019 -91 701 211 
Q 384 513 384 1019 
Q 384 1609 779 1909 
Q 1175 2209 1959 2209 
L 2766 2209 
L 2766 2266 
Q 2766 2663 2505 2880 
Q 2244 3097 1772 3097 
Q 1472 3097 1187 3025 
Q 903 2953 641 2809 
L 641 3341 
Q 956 3463 1253 3523 
Q 1550 3584 1831 3584 
Q 2591 3584 2966 3190 
Q 3341 2797 3341 1997 
z
" transform="scale(0.015625)"/>
      <path id="DejaVuSans-79" d="M 2059 -325 
Q 1816 -950 1584 -1140 
Q 1353 -1331 966 -1331 
L 506 -1331 
L 506 -850 
L 844 -850 
Q 1081 -850 1212 -737 
Q 1344 -625 1503 -206 
L 1606 56 
L 191 3500 
L 800 3500 
L 1894 763 
L 2988 3500 
L 3597 3500 
L 2059 -325 
z
" transform="scale(0.015625)"/>
      <path id="DejaVuSans-74" d="M 1172 4494 
L 1172 3500 
L 2356 3500 
L 2356 3053 
L 1172 3053 
L 1172 1153 
Q 1172 725 1289 603 
Q 1406 481 1766 481 
L 2356 481 
L 2356 0 
L 1766 0 
Q 1100 0 847 248 
Q 594 497 594 1153 
L 594 3053 
L 172 3053 
L 172 3500 
L 594 3500 
L 594 4494 
L 1172 4494 
z
" transform="scale(0.015625)"/>
      <path id="DejaVuSans-6f" d="M 1959 3097 
Q 1497 3097 1228 2736 
Q 959 2375 959 1747 
Q 959 1119 1226 758 
Q 1494 397 1959 397 
Q 2419 397 2687 759 
Q 2956 1122 2956 1747 
Q 2956 2369 2687 2733 
Q 2419 3097 1959 3097 
z
M 1959 3584 
Q 2709 3584 3137 3096 
Q 3566 2609 3566 1747 
Q 3566 888 3137 398 
Q 2709 -91 1959 -91 
Q 1206 -91 779 398 
Q 353 888 353 1747 
Q 353 2609 779 3096 
Q 1206 3584 1959 3584 
z
" transform="scale(0.015625)"/>
      <path id="DejaVuSans-6e" d="M 3513 2113 
L 3513 0 
L 2938 0 
L 2938 2094 
Q 2938 2591 2744 2837 
Q 2550 3084 2163 3084 
Q 1697 3084 1428 2787 
Q 1159 2491 1159 1978 
L 1159 0 
L 581 0 
L 581 3500 
L 1159 3500 
L 1159 2956 
Q 1366 3272 1645 3428 
Q 1925 3584 2291 3584 
Q 2894 3584 3203 3211 
Q 3513 2838 3513 2113 
z
" transform="scale(0.015625)"/>
      <path id="DejaVuSans-20" transform="scale(0.015625)"/>
      <path id="DejaVuSans-63" d="M 3122 3366 
L 3122 2828 
Q 2878 2963 2633 3030 
Q 2388 3097 2138 3097 
Q 1578 3097 1268 2742 
Q 959 2388 959 1747 
Q 959 1106 1268 751 
Q 1578 397 2138 397 
Q 2388 397 2633 464 
Q 2878 531 3122 666 
L 3122 134 
Q 2881 22 2623 -34 
Q 2366 -91 2075 -91 
Q 1284 -91 818 406 
Q 353 903 353 1747 
Q 353 2603 823 3093 
Q 1294 3584 2113 3584 
Q 2378 3584 2631 3529 
Q 2884 3475 3122 3366 
z
" transform="scale(0.015625)"/>
      <path id="DejaVuSans-70" d="M 1159 525 
L 1159 -1331 
L 581 -1331 
L 581 3500 
L 1159 3500 
L 1159 2969 
Q 1341 3281 1617 3432 
Q 1894 3584 2278 3584 
Q 2916 3584 3314 3078 
Q 3713 2572 3713 1747 
Q 3713 922 3314 415 
Q 2916 -91 2278 -91 
Q 1894 -91 1617 61 
Q 1341 213 1159 525 
z
M 3116 1747 
Q 3116 2381 2855 2742 
Q 2594 3103 2138 3103 
Q 1681 3103 1420 2742 
Q 1159 2381 1159 1747 
Q 1159 1113 1420 752 
Q 1681 391 2138 391 
Q 2594 391 2855 752 
Q 3116 1113 3116 1747 
z
" transform="scale(0.015625)"/>
      <path id="DejaVuSans-72" d="M 2631 2963 
Q 2534 3019 2420 3045 
Q 2306 3072 2169 3072 
Q 1681 3072 1420 2755 
Q 1159 2438 1159 1844 
L 1159 0 
L 581 0 
L 581 3500 
L 1159 3500 
L 1159 2956 
Q 1341 3275 1631 3429 
Q 1922 3584 2338 3584 
Q 2397 3584 2469 3576 
Q 2541 3569 2628 3553 
L 2631 2963 
z
" transform="scale(0.015625)"/>
      <path id="DejaVuSans-73" d="M 2834 3397 
L 2834 2853 
Q 2591 2978 2328 3040 
Q 2066 3103 1784 3103 
Q 1356 3103 1142 2972 
Q 928 2841 928 2578 
Q 928 2378 1081 2264 
Q 1234 2150 1697 2047 
L 1894 2003 
Q 2506 1872 2764 1633 
Q 3022 1394 3022 966 
Q 3022 478 2636 193 
Q 2250 -91 1575 -91 
Q 1294 -91 989 -36 
Q 684 19 347 128 
L 347 722 
Q 666 556 975 473 
Q 1284 391 1588 391 
Q 1994 391 2212 530 
Q 2431 669 2431 922 
Q 2431 1156 2273 1281 
Q 2116 1406 1581 1522 
L 1381 1569 
Q 847 1681 609 1914 
Q 372 2147 372 2553 
Q 372 3047 722 3315 
Q 1072 3584 1716 3584 
Q 2034 3584 2315 3537 
Q 2597 3491 2834 3397 
z
" transform="scale(0.015625)"/>
      <path id="DejaVuSans-28" d="M 1984 4856 
Q 1566 4138 1362 3434 
Q 1159 2731 1159 2009 
Q 1159 1288 1364 580 
Q 1569 -128 1984 -844 
L 1484 -844 
Q 1016 -109 783 600 
Q 550 1309 550 2009 
Q 550 2706 781 3412 
Q 1013 4119 1484 4856 
L 1984 4856 
z
" transform="scale(0.015625)"/>
      <path id="DejaVuSans-3b8" d="M 2953 2219 
L 963 2219 
Q 1009 1284 1225 888 
Q 1494 400 1959 400 
Q 2428 400 2688 891 
Q 2916 1322 2953 2219 
z
M 2944 2750 
Q 2856 3638 2688 3950 
Q 2419 4444 1959 4444 
Q 1481 4444 1228 3956 
Q 1028 3563 969 2750 
L 2944 2750 
z
M 1959 4913 
Q 2709 4913 3138 4250 
Q 3566 3591 3566 2422 
Q 3566 1256 3138 594 
Q 2709 -72 1959 -72 
Q 1206 -72 781 594 
Q 353 1256 353 2422 
Q 353 3591 781 4250 
Q 1206 4913 1959 4913 
z
" transform="scale(0.015625)"/>
      <path id="DejaVuSans-3d" d="M 678 2906 
L 4684 2906 
L 4684 2381 
L 678 2381 
L 678 2906 
z
M 678 1631 
L 4684 1631 
L 4684 1100 
L 678 1100 
L 678 1631 
z
" transform="scale(0.015625)"/>
      <path id="DejaVuSans-29" d="M 513 4856 
L 1013 4856 
Q 1481 4119 1714 3412 
Q 1947 2706 1947 2009 
Q 1947 1309 1714 600 
Q 1481 -109 1013 -844 
L 513 -844 
Q 928 -128 1133 580 
Q 1338 1288 1338 2009 
Q 1338 2731 1133 3434 
Q 928 4138 513 4856 
z
" transform="scale(0.015625)"/>
     </defs>
     <use xlink:href="#DejaVuSans-43"/>
     <use xlink:href="#DejaVuSans-6c" transform="translate(69.824219 0)"/>
     <use xlink:href="#DejaVuSans-61" transform="translate(97.607422 0)"/>
     <use xlink:href="#DejaVuSans-79" transform="translate(158.886719 0)"/>
     <use xlink:href="#DejaVuSans-74" transform="translate(218.066406 0)"/>
     <use xlink:href="#DejaVuSans-6f" transform="translate(257.275391 0)"/>
     <use xlink:href="#DejaVuSans-6e" transform="translate(318.457031 0)"/>
     <use xlink:href="#DejaVuSans-20" transform="translate(381.835938 0)"/>
     <use xlink:href="#DejaVuSans-63" transform="translate(413.623047 0)"/>
     <use xlink:href="#DejaVuSans-6f" transform="translate(468.603516 0)"/>
     <use xlink:href="#DejaVuSans-70" transform="translate(529.785156 0)"/>
     <use xlink:href="#DejaVuSans-75" transform="translate(593.261719 0)"/>
     <use xlink:href="#DejaVuSans-6c" transform="translate(656.640625 0)"/>
     <use xlink:href="#DejaVuSans-61" transform="translate(684.423828 0)"/>
     <use xlink:href="#DejaVuSans-20" transform="translate(745.703125 0)"/>
     <use xlink:href="#DejaVuSans-63" transform="translate(777.490234 0)"/>
     <use xlink:href="#DejaVuSans-6f" transform="translate(832.470703 0)"/>
     <use xlink:href="#DejaVuSans-6e" transform="translate(893.652344 0)"/>
     <use xlink:href="#DejaVuSans-74" transform="translate(957.03125 0)"/>
     <use xlink:href="#DejaVuSans-6f" transform="translate(996.240234 0)"/>
     <use xlink:href="#DejaVuSans-75" transform="translate(1057.421875 0)"/>
     <use xlink:href="#DejaVuSans-72" transform="translate(1120.800781 0)"/>
     <use xlink:href="#DejaVuSans-73" transform="translate(1161.914062 0)"/>
     <use xlink:href="#DejaVuSans-20" transform="translate(1214.013672 0)"/>
     <use xlink:href="#DejaVuSans-28" transform="translate(1245.800781 0)"/>
     <use xlink:href="#DejaVuSans-3b8" transform="translate(1284.814453 0)"/>
     <use xlink:href="#DejaVuSans-3d" transform="translate(1345.996094 0)"/>
     <use xlink:href="#DejaVuSans-32" transform="translate(1429.785156 0)"/>
     <use xlink:href="#DejaVuSans-29" transform="translate(1493.408203 0)"/>
    </g>
   </g>
   <g id="text_12">
    <g clip-path="url(#p05333e7da7)">
     <!-- 0.1 -->
     <g style="fill: #440154" transform="translate(321.662381 226.325486) rotate(-359.943106) scale(0.08 -0.08)">
      <defs>
       <path id="DejaVuSans-31" d="M 794 531 
L 1825 531 
L 1825 4091 
L 703 3866 
L 703 4441 
L 1819 4666 
L 2450 4666 
L 2450 531 
L 3481 531 
L 3481 0 
L 794 0 
L 794 531 
z
" transform="scale(0.015625)"/>
      </defs>
      <use xlink:href="#DejaVuSans-30"/>
      <use xlink:href="#DejaVuSans-2e" transform="translate(63.623047 0)"/>
      <use xlink:href="#DejaVuSans-31" transform="translate(95.410156 0)"/>
     </g>
    </g>
   </g>
   <g id="text_13">
    <g clip-path="url(#p05333e7da7)">
     <!-- 0.2 -->
     <g style="fill: #472d7b" transform="translate(330.723406 204.307312) rotate(-359.585271) scale(0.08 -0.08)">
      <use xlink:href="#DejaVuSans-30"/>
      <use xlink:href="#DejaVuSans-2e" transform="translate(63.623047 0)"/>
      <use xlink:href="#DejaVuSans-32" transform="translate(95.410156 0)"/>
     </g>
    </g>
   </g>
   <g id="text_14">
    <g clip-path="url(#p05333e7da7)">
     <!-- 0.3 -->
     <g style="fill: #3b528b" transform="translate(135.937254 26.46935) rotate(-272.138109) scale(0.08 -0.08)">
      <defs>
       <path id="DejaVuSans-33" d="M 2597 2516 
Q 3050 2419 3304 2112 
Q 3559 1806 3559 1356 
Q 3559 666 3084 287 
Q 2609 -91 1734 -91 
Q 1441 -91 1130 -33 
Q 819 25 488 141 
L 488 750 
Q 750 597 1062 519 
Q 1375 441 1716 441 
Q 2309 441 2620 675 
Q 2931 909 2931 1356 
Q 2931 1769 2642 2001 
Q 2353 2234 1838 2234 
L 1294 2234 
L 1294 2753 
L 1863 2753 
Q 2328 2753 2575 2939 
Q 2822 3125 2822 3475 
Q 2822 3834 2567 4026 
Q 2313 4219 1838 4219 
Q 1578 4219 1281 4162 
Q 984 4106 628 3988 
L 628 4550 
Q 988 4650 1302 4700 
Q 1616 4750 1894 4750 
Q 2613 4750 3031 4423 
Q 3450 4097 3450 3541 
Q 3450 3153 3228 2886 
Q 3006 2619 2597 2516 
z
" transform="scale(0.015625)"/>
      </defs>
      <use xlink:href="#DejaVuSans-30"/>
      <use xlink:href="#DejaVuSans-2e" transform="translate(63.623047 0)"/>
      <use xlink:href="#DejaVuSans-33" transform="translate(95.410156 0)"/>
     </g>
    </g>
   </g>
   <g id="text_15">
    <g clip-path="url(#p05333e7da7)">
     <!-- 0.4 -->
     <g style="fill: #2c728e" transform="translate(332.639733 159.720092) rotate(-356.71404) scale(0.08 -0.08)">
      <use xlink:href="#DejaVuSans-30"/>
      <use xlink:href="#DejaVuSans-2e" transform="translate(63.623047 0)"/>
      <use xlink:href="#DejaVuSans-34" transform="translate(95.410156 0)"/>
     </g>
    </g>
   </g>
   <g id="text_16">
    <g clip-path="url(#p05333e7da7)">
     <!-- 0.5 -->
     <g style="fill: #21918c" transform="translate(325.47382 136.119662) rotate(-352.905907) scale(0.08 -0.08)">
      <defs>
       <path id="DejaVuSans-35" d="M 691 4666 
L 3169 4666 
L 3169 4134 
L 1269 4134 
L 1269 2991 
Q 1406 3038 1543 3061 
Q 1681 3084 1819 3084 
Q 2600 3084 3056 2656 
Q 3513 2228 3513 1497 
Q 3513 744 3044 326 
Q 2575 -91 1722 -91 
Q 1428 -91 1123 -41 
Q 819 9 494 109 
L 494 744 
Q 775 591 1075 516 
Q 1375 441 1709 441 
Q 2250 441 2565 725 
Q 2881 1009 2881 1497 
Q 2881 1984 2565 2268 
Q 2250 2553 1709 2553 
Q 1456 2553 1204 2497 
Q 953 2441 691 2322 
L 691 4666 
z
" transform="scale(0.015625)"/>
      </defs>
      <use xlink:href="#DejaVuSans-30"/>
      <use xlink:href="#DejaVuSans-2e" transform="translate(63.623047 0)"/>
      <use xlink:href="#DejaVuSans-35" transform="translate(95.410156 0)"/>
     </g>
    </g>
   </g>
   <g id="text_17">
    <g clip-path="url(#p05333e7da7)">
     <!-- 0.6 -->
     <g style="fill: #28ae80" transform="translate(334.469839 114.160357) rotate(-349.106345) scale(0.08 -0.08)">
      <use xlink:href="#DejaVuSans-30"/>
      <use xlink:href="#DejaVuSans-2e" transform="translate(63.623047 0)"/>
      <use xlink:href="#DejaVuSans-36" transform="translate(95.410156 0)"/>
     </g>
    </g>
   </g>
   <g id="text_18">
    <g clip-path="url(#p05333e7da7)">
     <!-- 0.7 -->
     <g style="fill: #5ec962" transform="translate(329.359176 89.064102) rotate(-341.481013) scale(0.08 -0.08)">
      <defs>
       <path id="DejaVuSans-37" d="M 525 4666 
L 3525 4666 
L 3525 4397 
L 1831 0 
L 1172 0 
L 2766 4134 
L 525 4134 
L 525 4666 
z
" transform="scale(0.015625)"/>
      </defs>
      <use xlink:href="#DejaVuSans-30"/>
      <use xlink:href="#DejaVuSans-2e" transform="translate(63.623047 0)"/>
      <use xlink:href="#DejaVuSans-37" transform="translate(95.410156 0)"/>
     </g>
    </g>
   </g>
   <g id="text_19">
    <g clip-path="url(#p05333e7da7)">
     <!-- 0.8 -->
     <g style="fill: #addc30" transform="translate(336.444626 67.706889) rotate(-335.655347) scale(0.08 -0.08)">
      <use xlink:href="#DejaVuSans-30"/>
      <use xlink:href="#DejaVuSans-2e" transform="translate(63.623047 0)"/>
      <use xlink:href="#DejaVuSans-38" transform="translate(95.410156 0)"/>
     </g>
    </g>
   </g>
   <g id="text_20">
    <g clip-path="url(#p05333e7da7)">
     <!-- 0.9 -->
     <g style="fill: #fde725" transform="translate(324.588742 34.773413) rotate(-320.269576) scale(0.08 -0.08)">
      <defs>
       <path id="DejaVuSans-39" d="M 703 97 
L 703 672 
Q 941 559 1184 500 
Q 1428 441 1663 441 
Q 2288 441 2617 861 
Q 2947 1281 2994 2138 
Q 2813 1869 2534 1725 
Q 2256 1581 1919 1581 
Q 1219 1581 811 2004 
Q 403 2428 403 3163 
Q 403 3881 828 4315 
Q 1253 4750 1959 4750 
Q 2769 4750 3195 4129 
Q 3622 3509 3622 2328 
Q 3622 1225 3098 567 
Q 2575 -91 1691 -91 
Q 1453 -91 1209 -44 
Q 966 3 703 97 
z
M 1959 2075 
Q 2384 2075 2632 2365 
Q 2881 2656 2881 3163 
Q 2881 3666 2632 3958 
Q 2384 4250 1959 4250 
Q 1534 4250 1286 3958 
Q 1038 3666 1038 3163 
Q 1038 2656 1286 2365 
Q 1534 2075 1959 2075 
z
" transform="scale(0.015625)"/>
      </defs>
      <use xlink:href="#DejaVuSans-30"/>
      <use xlink:href="#DejaVuSans-2e" transform="translate(63.623047 0)"/>
      <use xlink:href="#DejaVuSans-39" transform="translate(95.410156 0)"/>
     </g>
    </g>
   </g>
  </g>
 </g>
 <defs>
  <clipPath id="p05333e7da7">
   <rect x="47.72" y="26.88" width="301.48" height="219.16"/>
  </clipPath>
 </defs>
</svg>
