<?xml version="1.0" encoding="utf-8" standalone="no"?>
<!DOCTYPE svg PUBLIC "-//W3C//DTD SVG 1.1//EN"
  "http://www.w3.org/Graphics/SVG/1.1/DTD/svg11.dtd">
<svg xmlns:xlink="http://www.w3.org/1999/xlink" width="360pt" height="288pt" viewBox="0 0 360 288" xmlns="http://www.w3.org/2000/svg" version="1.1">
 <metadata>
  <rdf:RDF xmlns:dc="http://purl.org/dc/elements/1.1/" xmlns:cc="http://creativecommons.org/ns#" xmlns:rdf="http://www.w3.org/1999/02/22-rdf-syntax-ns#">
   <cc:Work>
    <dc:type rdf:resource="http://purl.org/dc/dcmitype/StillImage"/>
    <dc:date>2025-10-12T22:06:49.308450</dc:date>
    <dc:format>image/svg+xml</dc:format>
    <dc:creator>
     <cc:Agent>
      <dc:title>Matplotlib v3.10.7, https://matplotlib.org/</dc:title>
     </cc:Agent>
    </dc:creator>
   </cc:Work>
  </rdf:RDF>
 </metadata>
 <defs>
  <style type="text/css">*{stroke-linejoin: round; stroke-linecap: butt}</style>
 </defs>
 <g id="figure_1">
  <g id="patch_1">
   <path d="M 0 288 
L 360 288 
L 360 0 
L 0 0 
z
" style="fill: #ffffff"/>
  </g>
  <g id="axes_1">
   <g id="patch_2">
    <path d="M 47.72 246.04 
L 349.2 246.04 
L 349.2 26.88 
L 47.72 26.88 
z
" style="fill: #ffffff"/>
   </g>
   <g id="matplotlib.axis_1">
    <g id="xtick_1">
     <g id="line2d_1">
      <defs>
       <path id="m46dd80fd31" d="M 0 0 
L 0 3.5 
" style="stroke: #000000; stroke-width: 0.8"/>
      </defs>
      <g>
       <use xlink:href="#m46dd80fd31" x="107.997908" y="246.04" style="stroke: #000000; stroke-width: 0.8"/>
      </g>
     </g>
     <g id="text_1">
      <!-- 0.2 -->
      <g transform="translate(100.046345 260.638438) scale(0.1 -0.1)">
       <defs>
        <path id="DejaVuSans-30" d="M 2034 4250 
Q 1547 4250 1301 3770 
Q 1056 3291 1056 2328 
Q 1056 1369 1301 889 
Q 1547 409 2034 409 
Q 2525 409 2770 889 
Q 3016 1369 3016 2328 
Q 3016 3291 2770 3770 
Q 2525 4250 2034 4250 
z
M 2034 4750 
Q 2819 4750 3233 4129 
Q 3647 3509 3647 2328 
Q 3647 1150 3233 529 
Q 2819 -91 2034 -91 
Q 1250 -91 836 529 
Q 422 1150 422 2328 
Q 422 3509 836 4129 
Q 1250 4750 2034 4750 
z
" transform="scale(0.015625)"/>
        <path id="DejaVuSans-2e" d="M 684 794 
L 1344 794 
L 1344 0 
L 684 0 
L 684 794 
z
" transform="scale(0.015625)"/>
        <path id="DejaVuSans-32" d="M 1228 531 
L 3431 531 
L 3431 0 
L 469 0 
L 469 531 
Q 828 903 1448 1529 
Q 2069 2156 2228 2338 
Q 2531 2678 2651 2914 
Q 2772 3150 2772 3378 
Q 2772 3750 2511 3984 
Q 2250 4219 1831 4219 
Q 1534 4219 1204 4116 
Q 875 4013 500 3803 
L 500 4441 
Q 881 4594 1212 4672 
Q 1544 4750 1819 4750 
Q 2544 4750 2975 4387 
Q 3406 4025 3406 3419 
Q 3406 3131 3298 2873 
Q 3191 2616 2906 2266 
Q 2828 2175 2409 1742 
Q 1991 1309 1228 531 
z
" transform="scale(0.015625)"/>
       </defs>
       <use xlink:href="#DejaVuSans-30"/>
       <use xlink:href="#DejaVuSans-2e" transform="translate(63.623047 0)"/>
       <use xlink:href="#DejaVuSans-32" transform="translate(95.410156 0)"/>
      </g>
     </g>
    </g>
    <g id="xtick_2">
     <g id="line2d_2">
      <g>
       <use xlink:href="#m46dd80fd31" x="168.305969" y="246.04" style="stroke: #000000; stroke-width: 0.8"/>
      </g>
     </g>
     <g id="text_2">
      <!-- 0.4 -->
      <g transform="translate(160.354407 260.638438) scale(0.1 -0.1)">
       <defs>
        <path id="DejaVuSans-34" d="M 2419 4116 
L 825 1625 
L 2419 1625 
L 2419 4116 
z
M 2253 4666 
L 3047 4666 
L 3047 1625 
L 3713 1625 
L 3713 1100 
L 3047 1100 
L 3047 0 
L 2419 0 
L 2419 1100 
L 313 1100 
L 313 1709 
L 2253 4666 
z
" transform="scale(0.015625)"/>
       </defs>
       <use xlink:href="#DejaVuSans-30"/>
       <use xlink:href="#DejaVuSans-2e" transform="translate(63.623047 0)"/>
       <use xlink:href="#DejaVuSans-34" transform="translate(95.410156 0)"/>
      </g>
     </g>
    </g>
    <g id="xtick_3">
     <g id="line2d_3">
      <g>
       <use xlink:href="#m46dd80fd31" x="228.614031" y="246.04" style="stroke: #000000; stroke-width: 0.8"/>
      </g>
     </g>
     <g id="text_3">
      <!-- 0.6 -->
      <g transform="translate(220.662468 260.638438) scale(0.1 -0.1)">
       <defs>
        <path id="DejaVuSans-36" d="M 2113 2584 
Q 1688 2584 1439 2293 
Q 1191 2003 1191 1497 
Q 1191 994 1439 701 
Q 1688 409 2113 409 
Q 2538 409 2786 701 
Q 3034 994 3034 1497 
Q 3034 2003 2786 2293 
Q 2538 2584 2113 2584 
z
M 3366 4563 
L 3366 3988 
Q 3128 4100 2886 4159 
Q 2644 4219 2406 4219 
Q 1781 4219 1451 3797 
Q 1122 3375 1075 2522 
Q 1259 2794 1537 2939 
Q 1816 3084 2150 3084 
Q 2853 3084 3261 2657 
Q 3669 2231 3669 1497 
Q 3669 778 3244 343 
Q 2819 -91 2113 -91 
Q 1303 -91 875 529 
Q 447 1150 447 2328 
Q 447 3434 972 4092 
Q 1497 4750 2381 4750 
Q 2619 4750 2861 4703 
Q 3103 4656 3366 4563 
z
" transform="scale(0.015625)"/>
       </defs>
       <use xlink:href="#DejaVuSans-30"/>
       <use xlink:href="#DejaVuSans-2e" transform="translate(63.623047 0)"/>
       <use xlink:href="#DejaVuSans-36" transform="translate(95.410156 0)"/>
      </g>
     </g>
    </g>
    <g id="xtick_4">
     <g id="line2d_4">
      <g>
       <use xlink:href="#m46dd80fd31" x="288.922092" y="246.04" style="stroke: #000000; stroke-width: 0.8"/>
      </g>
     </g>
     <g id="text_4">
      <!-- 0.8 -->
      <g transform="translate(280.97053 260.638438) scale(0.1 -0.1)">
       <defs>
        <path id="DejaVuSans-38" d="M 2034 2216 
Q 1584 2216 1326 1975 
Q 1069 1734 1069 1313 
Q 1069 891 1326 650 
Q 1584 409 2034 409 
Q 2484 409 2743 651 
Q 3003 894 3003 1313 
Q 3003 1734 2745 1975 
Q 2488 2216 2034 2216 
z
M 1403 2484 
Q 997 2584 770 2862 
Q 544 3141 544 3541 
Q 544 4100 942 4425 
Q 1341 4750 2034 4750 
Q 2731 4750 3128 4425 
Q 3525 4100 3525 3541 
Q 3525 3141 3298 2862 
Q 3072 2584 2669 2484 
Q 3125 2378 3379 2068 
Q 3634 1759 3634 1313 
Q 3634 634 3220 271 
Q 2806 -91 2034 -91 
Q 1263 -91 848 271 
Q 434 634 434 1313 
Q 434 1759 690 2068 
Q 947 2378 1403 2484 
z
M 1172 3481 
Q 1172 3119 1398 2916 
Q 1625 2713 2034 2713 
Q 2441 2713 2670 2916 
Q 2900 3119 2900 3481 
Q 2900 3844 2670 4047 
Q 2441 4250 2034 4250 
Q 1625 4250 1398 4047 
Q 1172 3844 1172 3481 
z
" transform="scale(0.015625)"/>
       </defs>
       <use xlink:href="#DejaVuSans-30"/>
       <use xlink:href="#DejaVuSans-2e" transform="translate(63.623047 0)"/>
       <use xlink:href="#DejaVuSans-38" transform="translate(95.410156 0)"/>
      </g>
     </g>
    </g>
    <g id="text_5">
     <!-- u -->
     <g transform="translate(195.29125 274.316562) scale(0.1 -0.1)">
      <defs>
       <path id="DejaVuSans-75" d="M 544 1381 
L 544 3500 
L 1119 3500 
L 1119 1403 
Q 1119 906 1312 657 
Q 1506 409 1894 409 
Q 2359 409 2629 706 
Q 2900 1003 2900 1516 
L 2900 3500 
L 3475 3500 
L 3475 0 
L 2900 0 
L 2900 538 
Q 2691 219 2414 64 
Q 2138 -91 1772 -91 
Q 1169 -91 856 284 
Q 544 659 544 1381 
z
M 1991 3584 
L 1991 3584 
z
" transform="scale(0.015625)"/>
      </defs>
      <use xlink:href="#DejaVuSans-75"/>
     </g>
    </g>
   </g>
   <g id="matplotlib.axis_2">
    <g id="ytick_1">
     <g id="line2d_5">
      <defs>
       <path id="m0cadfc4c05" d="M 0 0 
L -3.5 0 
" style="stroke: #000000; stroke-width: 0.8"/>
      </defs>
      <g>
       <use xlink:href="#m0cadfc4c05" x="47.72" y="202.221152" style="stroke: #000000; stroke-width: 0.8"/>
      </g>
     </g>
     <g id="text_6">
      <!-- 0.2 -->
      <g transform="translate(24.816875 206.020371) scale(0.1 -0.1)">
       <use xlink:href="#DejaVuSans-30"/>
       <use xlink:href="#DejaVuSans-2e" transform="translate(63.623047 0)"/>
       <use xlink:href="#DejaVuSans-32" transform="translate(95.410156 0)"/>
      </g>
     </g>
    </g>
    <g id="ytick_2">
     <g id="line2d_6">
      <g>
       <use xlink:href="#m0cadfc4c05" x="47.72" y="158.380384" style="stroke: #000000; stroke-width: 0.8"/>
      </g>
     </g>
     <g id="text_7">
      <!-- 0.4 -->
      <g transform="translate(24.816875 162.179603) scale(0.1 -0.1)">
       <use xlink:href="#DejaVuSans-30"/>
       <use xlink:href="#DejaVuSans-2e" transform="translate(63.623047 0)"/>
       <use xlink:href="#DejaVuSans-34" transform="translate(95.410156 0)"/>
      </g>
     </g>
    </g>
    <g id="ytick_3">
     <g id="line2d_7">
      <g>
       <use xlink:href="#m0cadfc4c05" x="47.72" y="114.539616" style="stroke: #000000; stroke-width: 0.8"/>
      </g>
     </g>
     <g id="text_8">
      <!-- 0.6 -->
      <g transform="translate(24.816875 118.338835) scale(0.1 -0.1)">
       <use xlink:href="#DejaVuSans-30"/>
       <use xlink:href="#DejaVuSans-2e" transform="translate(63.623047 0)"/>
       <use xlink:href="#DejaVuSans-36" transform="translate(95.410156 0)"/>
      </g>
     </g>
    </g>
    <g id="ytick_4">
     <g id="line2d_8">
      <g>
       <use xlink:href="#m0cadfc4c05" x="47.72" y="70.698848" style="stroke: #000000; stroke-width: 0.8"/>
      </g>
     </g>
     <g id="text_9">
      <!-- 0.8 -->
      <g transform="translate(24.816875 74.498067) scale(0.1 -0.1)">
       <use xlink:href="#DejaVuSans-30"/>
       <use xlink:href="#DejaVuSans-2e" transform="translate(63.623047 0)"/>
       <use xlink:href="#DejaVuSans-38" transform="translate(95.410156 0)"/>
      </g>
     </g>
    </g>
    <g id="text_10">
     <!-- v -->
     <g transform="translate(18.737188 139.419375) rotate(-90) scale(0.1 -0.1)">
      <defs>
       <path id="DejaVuSans-76" d="M 191 3500 
L 800 3500 
L 1894 563 
L 2988 3500 
L 3597 3500 
L 2284 0 
L 1503 0 
L 191 3500 
z
" transform="scale(0.015625)"/>
      </defs>
      <use xlink:href="#DejaVuSans-76"/>
     </g>
    </g>
   </g>
   <g id="QuadContourSet_1">
    <path d="M 77.844721 26.88 
L 78.525261 41.539532 
L 79.354142 54.73311 
L 80.356081 67.193712 
L 81.528697 78.921338 
L 82.772215 89.18301 
L 84.144308 98.711706 
L 85.633279 107.507425 
L 87.222488 115.570167 
L 88.890146 122.899933 
L 90.607353 129.496722 
L 92.337157 135.360535 
L 94.293378 141.224348 
L 96.22371 146.355184 
L 98.395181 151.48602 
L 100.481459 155.88388 
L 102.811788 160.281739 
L 105.192776 164.30358 
L 107.35937 167.611505 
L 110.234247 171.561941 
L 112.982929 174.941271 
L 115.620331 177.873177 
L 118.529887 180.805084 
L 121.75566 183.73699 
L 125.358662 186.674875 
L 129.391839 189.606439 
L 133.425017 192.219994 
L 137.761619 194.731639 
L 142.499666 197.176809 
L 147.541137 199.490003 
L 152.582609 201.552274 
L 157.987263 203.527358 
L 163.673846 205.38188 
L 169.907719 207.192241 
L 176.781672 208.960206 
L 184.848027 210.780371 
L 192.914381 212.371434 
L 201.98903 213.93447 
L 212.071973 215.438094 
L 223.163211 216.85898 
L 235.323194 218.18689 
L 248.370569 219.392562 
L 263.494983 220.558895 
L 279.627692 221.579306 
L 297.77699 222.502022 
L 302.165154 222.694058 
M 323.640281 223.483669 
L 345.166823 224.055536 
L 349.2 224.140922 
L 349.2 224.140922 
" clip-path="url(#p3efcf1ab21)" style="fill: none; stroke: #440154; stroke-width: 1.5"/>
    <path d="M 108.000079 26.88 
L 109.130372 37.141672 
L 110.399061 46.670368 
L 111.780813 55.466087 
L 113.391223 64.261806 
L 115.095777 72.324548 
L 116.861246 79.654314 
L 118.861179 86.98408 
L 120.889913 93.58087 
L 123.166872 100.177659 
L 125.429211 106.041472 
L 127.949017 111.905284 
L 130.400134 117.047264 
L 133.097888 122.166957 
L 135.647804 126.564816 
L 138.466488 130.99907 
L 141.514938 135.360535 
L 144.516254 139.274717 
L 147.541137 142.889722 
L 150.699126 146.355184 
L 154.351367 150.020067 
L 157.62408 153.030977 
L 161.657258 156.431362 
L 165.712202 159.548763 
L 169.884088 162.480669 
L 174.765084 165.602763 
L 179.806555 168.524641 
L 185.040973 171.276388 
L 189.889498 173.601645 
L 195.939264 176.240257 
L 201.98903 178.624765 
L 208.088729 180.805084 
L 215.096856 183.068918 
L 222.448239 185.202943 
L 230.221271 187.22751 
L 238.287625 189.110038 
L 247.714621 191.066756 
L 257.445217 192.849347 
L 267.528161 194.477867 
L 278.619398 196.047606 
L 290.71893 197.5317 
L 303.826756 198.907956 
L 317.942876 200.15804 
L 327.342267 200.87282 
M 348.882714 202.202831 
L 349.2 202.219574 
L 349.2 202.219574 
" clip-path="url(#p3efcf1ab21)" style="fill: none; stroke: #472d7b; stroke-width: 1.5"/>
    <path d="M 138.15592 26.88 
L 139.729373 34.942742 
L 141.536389 43.005485 
L 143.50796 50.714149 
L 145.524548 57.69958 
L 147.642181 64.261806 
L 150.01497 70.858595 
L 152.353938 76.722408 
L 154.935822 82.586221 
L 157.62408 88.123647 
L 160.132415 92.847893 
L 163.107683 97.978729 
L 165.890073 102.376589 
L 168.912442 106.774448 
L 172.203242 111.172308 
L 175.795502 115.570167 
L 179.048331 119.23505 
L 182.831438 123.166049 
L 186.864615 127.012375 
L 190.897793 130.547075 
L 195.043082 133.894582 
L 199.972441 137.544218 
L 204.307052 140.491371 
L 209.04709 143.466936 
L 214.088562 146.379684 
L 219.572553 149.28709 
L 225.179799 152.011653 
L 231.229565 154.702459 
L 237.755734 157.349833 
L 244.337391 159.783021 
L 251.395452 162.159263 
L 258.453512 164.322125 
L 266.519866 166.563208 
L 274.586221 168.586677 
L 283.66087 170.633944 
L 293.743813 172.658446 
L 303.826756 174.451743 
L 306.334921 174.865053 
M 327.566776 177.909637 
L 339.802004 179.33913 
L 349.2 180.297874 
L 349.2 180.297874 
" clip-path="url(#p3efcf1ab21)" style="fill: none; stroke: #3b528b; stroke-width: 1.5"/>
    <path d="M 168.312242 26.88 
L 170.303845 33.476789 
L 172.51608 40.073579 
L 174.972342 46.670368 
L 177.382636 52.534181 
L 180.029799 58.397993 
L 182.940096 64.261806 
L 185.856321 69.621047 
L 188.881204 74.715929 
L 192.07459 79.654314 
L 195.159169 84.052174 
L 198.495443 88.450033 
L 202.111157 92.847893 
L 206.03914 97.245753 
L 210.318001 101.643612 
L 214.183954 105.308495 
L 218.356156 108.973378 
L 223.163211 112.86576 
L 227.770746 116.303144 
L 232.23786 119.392424 
L 237.732296 122.899933 
L 243.329097 126.178924 
L 248.370569 128.906929 
L 254.420334 131.928918 
L 260.4701 134.70595 
L 267.528161 137.670993 
L 274.909022 140.491371 
L 281.644281 142.84339 
L 289.710635 145.41279 
L 298.065002 147.821137 
L 306.851639 150.108385 
L 315.926288 152.235675 
L 326.009231 154.350986 
L 329.531284 155.033483 
L 329.531284 155.033483 
" clip-path="url(#p3efcf1ab21)" style="fill: none; stroke: #2c728e; stroke-width: 1.5"/>
    <path d="M 198.469048 26.88 
L 201.001111 32.743813 
L 203.770602 38.607625 
L 206.802116 44.471438 
L 209.692045 49.602274 
L 212.8266 54.73311 
L 216.23138 59.863946 
L 219.936167 64.994783 
L 223.376587 69.392642 
L 227.196388 73.913707 
L 231.229565 78.324219 
L 235.447625 82.586221 
L 239.354924 86.251104 
L 243.550058 89.915987 
L 248.370569 93.819747 
L 253.41204 97.589926 
L 258.453512 101.076386 
L 263.926699 104.575518 
L 269.544749 107.89155 
L 275.594515 111.18426 
L 281.644281 114.219264 
L 287.721589 117.03612 
L 294.752107 120.035035 
L 302.091169 122.899933 
L 308.868227 125.329988 
L 311.812091 126.32624 
M 332.253516 132.386012 
L 341.195876 134.627559 
L 349.2 136.453423 
L 349.2 136.453423 
" clip-path="url(#p3efcf1ab21)" style="fill: none; stroke: #21918c; stroke-width: 1.5"/>
    <path d="M 228.626336 26.88 
L 231.620286 32.010836 
L 234.855226 37.141672 
L 238.355037 42.272508 
L 242.147354 47.403344 
L 245.654786 51.801204 
L 249.423624 56.199064 
L 253.480692 60.596923 
L 257.856867 64.994783 
L 262.486689 69.302151 
L 266.83187 73.057525 
L 271.561338 76.863318 
L 276.602809 80.630799 
L 281.644281 84.131119 
L 287.209368 87.717057 
L 292.735518 91.019255 
L 298.785284 94.369375 
L 304.83505 97.470506 
L 310.884816 100.347631 
L 317.942876 103.449386 
L 325.000936 106.304216 
L 332.065773 108.939353 
L 332.065773 108.939353 
" clip-path="url(#p3efcf1ab21)" style="fill: none; stroke: #28ae80; stroke-width: 1.5"/>
    <path d="M 258.784106 26.88 
L 262.688896 32.010836 
L 266.911842 37.141672 
L 270.8111 41.539532 
L 274.995201 45.937391 
L 279.627692 50.46167 
L 284.339667 54.73311 
L 288.702341 58.422501 
L 293.743813 62.400891 
L 298.785284 66.1047 
L 303.826756 69.561421 
L 309.876522 73.416305 
L 315.926288 76.984133 
L 322.152331 80.387291 
L 327.745729 83.234481 
M 347.181593 91.818085 
L 349.2 92.607568 
L 349.2 92.607568 
" clip-path="url(#p3efcf1ab21)" style="fill: none; stroke: #5ec962; stroke-width: 1.5"/>
    <path d="M 288.942359 26.88 
L 289.623966 27.612977 
L 289.710635 27.705542 
L 290.313265 28.345953 
L 290.71893 28.773394 
L 291.010371 29.07893 
L 291.7154 29.811906 
L 291.727224 29.824122 
L 292.428498 30.544883 
L 292.735518 30.857815 
L 293.149773 31.27786 
L 293.743813 31.875247 
L 293.879351 32.010836 
L 294.617382 32.743813 
L 294.752107 32.876654 
L 295.364006 33.476789 
L 295.760401 33.862434 
L 296.119343 34.209766 
L 296.768696 34.833104 
L 296.883532 34.942742 
L 297.656747 35.675719 
L 297.77699 35.788895 
L 298.439139 36.408696 
L 298.785284 36.730173 
L 299.230836 37.141672 
L 299.793579 37.657383 
L 300.031997 37.874649 
L 300.801873 38.570842 
L 300.842781 38.607625 
L 301.663401 39.340602 
L 301.810167 39.470735 
L 302.493997 40.073579 
L 302.818462 40.357469 
L 303.334731 40.806555 
L 303.826756 41.231368 
L 304.185781 41.539532 
L 304.83505 42.092713 
L 305.047333 42.272508 
L 305.843344 42.941775 
L 305.919575 43.005485 
L 306.802723 43.738462 
L 306.851639 43.778786 
L 307.696987 44.471438 
L 307.859933 44.603996 
L 308.602542 45.204415 
L 308.868227 45.417706 
L 309.519597 45.937391 
L 309.876522 46.220158 
L 310.448369 46.670368 
L 310.884816 47.011586 
L 311.389081 47.403344 
L 311.89311 47.792218 
L 312.341963 48.136321 
L 312.901405 48.562274 
L 313.307249 48.869298 
L 313.909699 49.321969 
L 314.285181 49.602274 
L 314.917993 50.071511 
L 315.27601 50.335251 
L 315.926288 50.811105 
L 316.27999 51.068227 
L 316.934582 51.540945 
L 317.297386 51.801204 
L 317.942876 52.261225 
L 318.328469 52.534181 
L 318.951171 52.97213 
L 319.373517 53.267157 
L 319.959465 53.673842 
L 320.432819 54.000134 
L 320.967759 54.366536 
L 321.506668 54.73311 
L 321.976054 55.050384 
L 322.595369 55.466087 
L 322.984348 55.725553 
L 323.699235 56.199064 
L 323.992642 56.392203 
L 324.818588 56.93204 
L 325.000936 57.050493 
L 325.953759 57.665017 
L 326.009231 57.700576 
L 327.017525 58.342578 
L 327.105165 58.397993 
L 328.025819 58.976652 
L 328.273149 59.13097 
L 329.034114 59.602954 
L 329.458029 59.863946 
L 330.042408 60.221623 
L 330.660178 60.596923 
L 331.050702 60.832792 
L 331.879984 61.3299 
L 332.058997 61.436591 
L 333.067291 62.033138 
L 333.117891 62.062876 
L 334.075585 62.622535 
L 334.37446 62.795853 
L 334.47011 62.851009 
" clip-path="url(#p3efcf1ab21)" style="fill: none; stroke: #addc30; stroke-width: 1.5"/>
    <path d="M 319.101095 26.88 
L 319.941102 27.612977 
L 319.959465 27.628901 
L 320.79092 28.345953 
L 320.967759 28.497381 
L 321.650714 29.07893 
L 321.976054 29.35402 
L 322.520653 29.811906 
L 322.984348 30.19906 
L 323.400911 30.544883 
L 323.992642 31.032742 
L 324.291666 31.27786 
L 325.000936 31.855296 
L 325.193102 32.010836 
L 326.009231 32.666947 
L 326.105406 32.743813 
L 327.017525 33.467913 
L 327.028772 33.476789 
L 327.963411 34.209766 
L 328.025819 34.258388 
L 328.909517 34.942742 
L 329.034114 35.038599 
L 329.867297 35.675719 
L 330.042408 35.808752 
L 330.836967 36.408696 
L 331.050702 36.569039 
L 331.581439 36.964742 
M 348.988186 48.632032 
L 349.2 48.76031 
" clip-path="url(#p3efcf1ab21)" style="fill: none; stroke: #fde725; stroke-width: 1.5"/>
   </g>
   <g id="patch_3">
    <path d="M 47.72 246.04 
L 47.72 26.88 
" style="fill: none; stroke: #000000; stroke-width: 0.8; stroke-linejoin: miter; stroke-linecap: square"/>
   </g>
   <g id="patch_4">
    <path d="M 349.2 246.04 
L 349.2 26.88 
" style="fill: none; stroke: #000000; stroke-width: 0.8; stroke-linejoin: miter; stroke-linecap: square"/>
   </g>
   <g id="patch_5">
    <path d="M 47.72 246.04 
L 349.2 246.04 
" style="fill: none; stroke: #000000; stroke-width: 0.8; stroke-linejoin: miter; stroke-linecap: square"/>
   </g>
   <g id="patch_6">
    <path d="M 47.72 26.88 
L 349.2 26.88 
" style="fill: none; stroke: #000000; stroke-width: 0.8; stroke-linejoin: miter; stroke-linecap: square"/>
   </g>
   <g id="text_11">
    <!-- FGM copula contours (θ=0.8) -->
    <g transform="translate(110.423125 20.88) scale(0.12 -0.12)">
     <defs>
      <path id="DejaVuSans-46" d="M 628 4666 
L 3309 4666 
L 3309 4134 
L 1259 4134 
L 1259 2759 
L 3109 2759 
L 3109 2228 
L 1259 2228 
L 1259 0 
L 628 0 
L 628 4666 
z
" transform="scale(0.015625)"/>
      <path id="DejaVuSans-47" d="M 3809 666 
L 3809 1919 
L 2778 1919 
L 2778 2438 
L 4434 2438 
L 4434 434 
Q 4069 175 3628 42 
Q 3188 -91 2688 -91 
Q 1594 -91 976 548 
Q 359 1188 359 2328 
Q 359 3472 976 4111 
Q 1594 4750 2688 4750 
Q 3144 4750 3555 4637 
Q 3966 4525 4313 4306 
L 4313 3634 
Q 3963 3931 3569 4081 
Q 3175 4231 2741 4231 
Q 1884 4231 1454 3753 
Q 1025 3275 1025 2328 
Q 1025 1384 1454 906 
Q 1884 428 2741 428 
Q 3075 428 3337 486 
Q 3600 544 3809 666 
z
" transform="scale(0.015625)"/>
      <path id="DejaVuSans-4d" d="M 628 4666 
L 1569 4666 
L 2759 1491 
L 3956 4666 
L 4897 4666 
L 4897 0 
L 4281 0 
L 4281 4097 
L 3078 897 
L 2444 897 
L 1241 4097 
L 1241 0 
L 628 0 
L 628 4666 
z
" transform="scale(0.015625)"/>
      <path id="DejaVuSans-20" transform="scale(0.015625)"/>
      <path id="DejaVuSans-63" d="M 3122 3366 
L 3122 2828 
Q 2878 2963 2633 3030 
Q 2388 3097 2138 3097 
Q 1578 3097 1268 2742 
Q 959 2388 959 1747 
Q 959 1106 1268 751 
Q 1578 397 2138 397 
Q 2388 397 2633 464 
Q 2878 531 3122 666 
L 3122 134 
Q 2881 22 2623 -34 
Q 2366 -91 2075 -91 
Q 1284 -91 818 406 
Q 353 903 353 1747 
Q 353 2603 823 3093 
Q 1294 3584 2113 3584 
Q 2378 3584 2631 3529 
Q 2884 3475 3122 3366 
z
" transform="scale(0.015625)"/>
      <path id="DejaVuSans-6f" d="M 1959 3097 
Q 1497 3097 1228 2736 
Q 959 2375 959 1747 
Q 959 1119 1226 758 
Q 1494 397 1959 397 
Q 2419 397 2687 759 
Q 2956 1122 2956 1747 
Q 2956 2369 2687 2733 
Q 2419 3097 1959 3097 
z
M 1959 3584 
Q 2709 3584 3137 3096 
Q 3566 2609 3566 1747 
Q 3566 888 3137 398 
Q 2709 -91 1959 -91 
Q 1206 -91 779 398 
Q 353 888 353 1747 
Q 353 2609 779 3096 
Q 1206 3584 1959 3584 
z
" transform="scale(0.015625)"/>
      <path id="DejaVuSans-70" d="M 1159 525 
L 1159 -1331 
L 581 -1331 
L 581 3500 
L 1159 3500 
L 1159 2969 
Q 1341 3281 1617 3432 
Q 1894 3584 2278 3584 
Q 2916 3584 3314 3078 
Q 3713 2572 3713 1747 
Q 3713 922 3314 415 
Q 2916 -91 2278 -91 
Q 1894 -91 1617 61 
Q 1341 213 1159 525 
z
M 3116 1747 
Q 3116 2381 2855 2742 
Q 2594 3103 2138 3103 
Q 1681 3103 1420 2742 
Q 1159 2381 1159 1747 
Q 1159 1113 1420 752 
Q 1681 391 2138 391 
Q 2594 391 2855 752 
Q 3116 1113 3116 1747 
z
" transform="scale(0.015625)"/>
      <path id="DejaVuSans-6c" d="M 603 4863 
L 1178 4863 
L 1178 0 
L 603 0 
L 603 4863 
z
" transform="scale(0.015625)"/>
      <path id="DejaVuSans-61" d="M 2194 1759 
Q 1497 1759 1228 1600 
Q 959 1441 959 1056 
Q 959 750 1161 570 
Q 1363 391 1709 391 
Q 2188 391 2477 730 
Q 2766 1069 2766 1631 
L 2766 1759 
L 2194 1759 
z
M 3341 1997 
L 3341 0 
L 2766 0 
L 2766 531 
Q 2569 213 2275 61 
Q 1981 -91 1556 -91 
Q 1019 -91 701 211 
Q 384 513 384 1019 
Q 384 1609 779 1909 
Q 1175 2209 1959 2209 
L 2766 2209 
L 2766 2266 
Q 2766 2663 2505 2880 
Q 2244 3097 1772 3097 
Q 1472 3097 1187 3025 
Q 903 2953 641 2809 
L 641 3341 
Q 956 3463 1253 3523 
Q 1550 3584 1831 3584 
Q 2591 3584 2966 3190 
Q 3341 2797 3341 1997 
z
" transform="scale(0.015625)"/>
      <path id="DejaVuSans-6e" d="M 3513 2113 
L 3513 0 
L 2938 0 
L 2938 2094 
Q 2938 2591 2744 2837 
Q 2550 3084 2163 3084 
Q 1697 3084 1428 2787 
Q 1159 2491 1159 1978 
L 1159 0 
L 581 0 
L 581 3500 
L 1159 3500 
L 1159 2956 
Q 1366 3272 1645 3428 
Q 1925 3584 2291 3584 
Q 2894 3584 3203 3211 
Q 3513 2838 3513 2113 
z
" transform="scale(0.015625)"/>
      <path id="DejaVuSans-74" d="M 1172 4494 
L 1172 3500 
L 2356 3500 
L 2356 3053 
L 1172 3053 
L 1172 1153 
Q 1172 725 1289 603 
Q 1406 481 1766 481 
L 2356 481 
L 2356 0 
L 1766 0 
Q 1100 0 847 248 
Q 594 497 594 1153 
L 594 3053 
L 172 3053 
L 172 3500 
L 594 3500 
L 594 4494 
L 1172 4494 
z
" transform="scale(0.015625)"/>
      <path id="DejaVuSans-72" d="M 2631 2963 
Q 2534 3019 2420 3045 
Q 2306 3072 2169 3072 
Q 1681 3072 1420 2755 
Q 1159 2438 1159 1844 
L 1159 0 
L 581 0 
L 581 3500 
L 1159 3500 
L 1159 2956 
Q 1341 3275 1631 3429 
Q 1922 3584 2338 3584 
Q 2397 3584 2469 3576 
Q 2541 3569 2628 3553 
L 2631 2963 
z
" transform="scale(0.015625)"/>
      <path id="DejaVuSans-73" d="M 2834 3397 
L 2834 2853 
Q 2591 2978 2328 3040 
Q 2066 3103 1784 3103 
Q 1356 3103 1142 2972 
Q 928 2841 928 2578 
Q 928 2378 1081 2264 
Q 1234 2150 1697 2047 
L 1894 2003 
Q 2506 1872 2764 1633 
Q 3022 1394 3022 966 
Q 3022 478 2636 193 
Q 2250 -91 1575 -91 
Q 1294 -91 989 -36 
Q 684 19 347 128 
L 347 722 
Q 666 556 975 473 
Q 1284 391 1588 391 
Q 1994 391 2212 530 
Q 2431 669 2431 922 
Q 2431 1156 2273 1281 
Q 2116 1406 1581 1522 
L 1381 1569 
Q 847 1681 609 1914 
Q 372 2147 372 2553 
Q 372 3047 722 3315 
Q 1072 3584 1716 3584 
Q 2034 3584 2315 3537 
Q 2597 3491 2834 3397 
z
" transform="scale(0.015625)"/>
      <path id="DejaVuSans-28" d="M 1984 4856 
Q 1566 4138 1362 3434 
Q 1159 2731 1159 2009 
Q 1159 1288 1364 580 
Q 1569 -128 1984 -844 
L 1484 -844 
Q 1016 -109 783 600 
Q 550 1309 550 2009 
Q 550 2706 781 3412 
Q 1013 4119 1484 4856 
L 1984 4856 
z
" transform="scale(0.015625)"/>
      <path id="DejaVuSans-3b8" d="M 2953 2219 
L 963 2219 
Q 1009 1284 1225 888 
Q 1494 400 1959 400 
Q 2428 400 2688 891 
Q 2916 1322 2953 2219 
z
M 2944 2750 
Q 2856 3638 2688 3950 
Q 2419 4444 1959 4444 
Q 1481 4444 1228 3956 
Q 1028 3563 969 2750 
L 2944 2750 
z
M 1959 4913 
Q 2709 4913 3138 4250 
Q 3566 3591 3566 2422 
Q 3566 1256 3138 594 
Q 2709 -72 1959 -72 
Q 1206 -72 781 594 
Q 353 1256 353 2422 
Q 353 3591 781 4250 
Q 1206 4913 1959 4913 
z
" transform="scale(0.015625)"/>
      <path id="DejaVuSans-3d" d="M 678 2906 
L 4684 2906 
L 4684 2381 
L 678 2381 
L 678 2906 
z
M 678 1631 
L 4684 1631 
L 4684 1100 
L 678 1100 
L 678 1631 
z
" transform="scale(0.015625)"/>
      <path id="DejaVuSans-29" d="M 513 4856 
L 1013 4856 
Q 1481 4119 1714 3412 
Q 1947 2706 1947 2009 
Q 1947 1309 1714 600 
Q 1481 -109 1013 -844 
L 513 -844 
Q 928 -128 1133 580 
Q 1338 1288 1338 2009 
Q 1338 2731 1133 3434 
Q 928 4138 513 4856 
z
" transform="scale(0.015625)"/>
     </defs>
     <use xlink:href="#DejaVuSans-46"/>
     <use xlink:href="#DejaVuSans-47" transform="translate(57.519531 0)"/>
     <use xlink:href="#DejaVuSans-4d" transform="translate(135.009766 0)"/>
     <use xlink:href="#DejaVuSans-20" transform="translate(221.289062 0)"/>
     <use xlink:href="#DejaVuSans-63" transform="translate(253.076172 0)"/>
     <use xlink:href="#DejaVuSans-6f" transform="translate(308.056641 0)"/>
     <use xlink:href="#DejaVuSans-70" transform="translate(369.238281 0)"/>
     <use xlink:href="#DejaVuSans-75" transform="translate(432.714844 0)"/>
     <use xlink:href="#DejaVuSans-6c" transform="translate(496.09375 0)"/>
     <use xlink:href="#DejaVuSans-61" transform="translate(523.876953 0)"/>
     <use xlink:href="#DejaVuSans-20" transform="translate(585.15625 0)"/>
     <use xlink:href="#DejaVuSans-63" transform="translate(616.943359 0)"/>
     <use xlink:href="#DejaVuSans-6f" transform="translate(671.923828 0)"/>
     <use xlink:href="#DejaVuSans-6e" transform="translate(733.105469 0)"/>
     <use xlink:href="#DejaVuSans-74" transform="translate(796.484375 0)"/>
     <use xlink:href="#DejaVuSans-6f" transform="translate(835.693359 0)"/>
     <use xlink:href="#DejaVuSans-75" transform="translate(896.875 0)"/>
     <use xlink:href="#DejaVuSans-72" transform="translate(960.253906 0)"/>
     <use xlink:href="#DejaVuSans-73" transform="translate(1001.367188 0)"/>
     <use xlink:href="#DejaVuSans-20" transform="translate(1053.466797 0)"/>
     <use xlink:href="#DejaVuSans-28" transform="translate(1085.253906 0)"/>
     <use xlink:href="#DejaVuSans-3b8" transform="translate(1124.267578 0)"/>
     <use xlink:href="#DejaVuSans-3d" transform="translate(1185.449219 0)"/>
     <use xlink:href="#DejaVuSans-30" transform="translate(1269.238281 0)"/>
     <use xlink:href="#DejaVuSans-2e" transform="translate(1332.861328 0)"/>
     <use xlink:href="#DejaVuSans-38" transform="translate(1364.648438 0)"/>
     <use xlink:href="#DejaVuSans-29" transform="translate(1428.271484 0)"/>
    </g>
   </g>
   <g id="text_12">
    <g clip-path="url(#p3efcf1ab21)">
     <!-- 0.1 -->
     <g style="fill: #440154" transform="translate(306.456717 225.069218) rotate(-357.700839) scale(0.08 -0.08)">
      <defs>
       <path id="DejaVuSans-31" d="M 794 531 
L 1825 531 
L 1825 4091 
L 703 3866 
L 703 4441 
L 1819 4666 
L 2450 4666 
L 2450 531 
L 3481 531 
L 3481 0 
L 794 0 
L 794 531 
z
" transform="scale(0.015625)"/>
      </defs>
      <use xlink:href="#DejaVuSans-30"/>
      <use xlink:href="#DejaVuSans-2e" transform="translate(63.623047 0)"/>
      <use xlink:href="#DejaVuSans-31" transform="translate(95.410156 0)"/>
     </g>
    </g>
   </g>
   <g id="text_13">
    <g clip-path="url(#p3efcf1ab21)">
     <!-- 0.2 -->
     <g style="fill: #472d7b" transform="translate(331.613424 203.36285) rotate(-356.142806) scale(0.08 -0.08)">
      <use xlink:href="#DejaVuSans-30"/>
      <use xlink:href="#DejaVuSans-2e" transform="translate(63.623047 0)"/>
      <use xlink:href="#DejaVuSans-32" transform="translate(95.410156 0)"/>
     </g>
    </g>
   </g>
   <g id="text_14">
    <g clip-path="url(#p3efcf1ab21)">
     <!-- 0.3 -->
     <g style="fill: #3b528b" transform="translate(310.308427 177.679042) rotate(-351.101314) scale(0.08 -0.08)">
      <defs>
       <path id="DejaVuSans-33" d="M 2597 2516 
Q 3050 2419 3304 2112 
Q 3559 1806 3559 1356 
Q 3559 666 3084 287 
Q 2609 -91 1734 -91 
Q 1441 -91 1130 -33 
Q 819 25 488 141 
L 488 750 
Q 750 597 1062 519 
Q 1375 441 1716 441 
Q 2309 441 2620 675 
Q 2931 909 2931 1356 
Q 2931 1769 2642 2001 
Q 2353 2234 1838 2234 
L 1294 2234 
L 1294 2753 
L 1863 2753 
Q 2328 2753 2575 2939 
Q 2822 3125 2822 3475 
Q 2822 3834 2567 4026 
Q 2313 4219 1838 4219 
Q 1578 4219 1281 4162 
Q 984 4106 628 3988 
L 628 4550 
Q 988 4650 1302 4700 
Q 1616 4750 1894 4750 
Q 2613 4750 3031 4423 
Q 3450 4097 3450 3541 
Q 3450 3153 3228 2886 
Q 3006 2619 2597 2516 
z
" transform="scale(0.015625)"/>
      </defs>
      <use xlink:href="#DejaVuSans-30"/>
      <use xlink:href="#DejaVuSans-2e" transform="translate(63.623047 0)"/>
      <use xlink:href="#DejaVuSans-33" transform="translate(95.410156 0)"/>
     </g>
    </g>
   </g>
   <g id="text_15">
    <g clip-path="url(#p3efcf1ab21)">
     <!-- 0.4 -->
     <g style="fill: #2c728e" transform="translate(333.4697 157.948264) rotate(-349.57696) scale(0.08 -0.08)">
      <use xlink:href="#DejaVuSans-30"/>
      <use xlink:href="#DejaVuSans-2e" transform="translate(63.623047 0)"/>
      <use xlink:href="#DejaVuSans-34" transform="translate(95.410156 0)"/>
     </g>
    </g>
   </g>
   <g id="text_16">
    <g clip-path="url(#p3efcf1ab21)">
     <!-- 0.5 -->
     <g style="fill: #21918c" transform="translate(315.244136 129.656967) rotate(-342.060866) scale(0.08 -0.08)">
      <defs>
       <path id="DejaVuSans-35" d="M 691 4666 
L 3169 4666 
L 3169 4134 
L 1269 4134 
L 1269 2991 
Q 1406 3038 1543 3061 
Q 1681 3084 1819 3084 
Q 2600 3084 3056 2656 
Q 3513 2228 3513 1497 
Q 3513 744 3044 326 
Q 2575 -91 1722 -91 
Q 1428 -91 1123 -41 
Q 819 9 494 109 
L 494 744 
Q 775 591 1075 516 
Q 1375 441 1709 441 
Q 2250 441 2565 725 
Q 2881 1009 2881 1497 
Q 2881 1984 2565 2268 
Q 2250 2553 1709 2553 
Q 1456 2553 1204 2497 
Q 953 2441 691 2322 
L 691 4666 
z
" transform="scale(0.015625)"/>
      </defs>
      <use xlink:href="#DejaVuSans-30"/>
      <use xlink:href="#DejaVuSans-2e" transform="translate(63.623047 0)"/>
      <use xlink:href="#DejaVuSans-35" transform="translate(95.410156 0)"/>
     </g>
    </g>
   </g>
   <g id="text_17">
    <g clip-path="url(#p3efcf1ab21)">
     <!-- 0.6 -->
     <g style="fill: #28ae80" transform="translate(335.408582 112.332925) rotate(-340.680789) scale(0.08 -0.08)">
      <use xlink:href="#DejaVuSans-30"/>
      <use xlink:href="#DejaVuSans-2e" transform="translate(63.623047 0)"/>
      <use xlink:href="#DejaVuSans-36" transform="translate(95.410156 0)"/>
     </g>
    </g>
   </g>
   <g id="text_18">
    <g clip-path="url(#p3efcf1ab21)">
     <!-- 0.7 -->
     <g style="fill: #5ec962" transform="translate(330.674293 86.941377) rotate(-334.246947) scale(0.08 -0.08)">
      <defs>
       <path id="DejaVuSans-37" d="M 525 4666 
L 3525 4666 
L 3525 4397 
L 1831 0 
L 1172 0 
L 2766 4134 
L 525 4134 
L 525 4666 
z
" transform="scale(0.015625)"/>
      </defs>
      <use xlink:href="#DejaVuSans-30"/>
      <use xlink:href="#DejaVuSans-2e" transform="translate(63.623047 0)"/>
      <use xlink:href="#DejaVuSans-37" transform="translate(95.410156 0)"/>
     </g>
    </g>
   </g>
   <g id="text_19">
    <g clip-path="url(#p3efcf1ab21)">
     <!-- 0.8 -->
     <g style="fill: #addc30" transform="translate(337.108635 66.693052) rotate(-330.30515) scale(0.08 -0.08)">
      <use xlink:href="#DejaVuSans-30"/>
      <use xlink:href="#DejaVuSans-2e" transform="translate(63.623047 0)"/>
      <use xlink:href="#DejaVuSans-38" transform="translate(95.410156 0)"/>
     </g>
    </g>
   </g>
   <g id="text_20">
    <g clip-path="url(#p3efcf1ab21)">
     <!-- 0.9 -->
     <g style="fill: #fde725" transform="translate(333.689202 41.018788) rotate(-323.77423) scale(0.08 -0.08)">
      <defs>
       <path id="DejaVuSans-39" d="M 703 97 
L 703 672 
Q 941 559 1184 500 
Q 1428 441 1663 441 
Q 2288 441 2617 861 
Q 2947 1281 2994 2138 
Q 2813 1869 2534 1725 
Q 2256 1581 1919 1581 
Q 1219 1581 811 2004 
Q 403 2428 403 3163 
Q 403 3881 828 4315 
Q 1253 4750 1959 4750 
Q 2769 4750 3195 4129 
Q 3622 3509 3622 2328 
Q 3622 1225 3098 567 
Q 2575 -91 1691 -91 
Q 1453 -91 1209 -44 
Q 966 3 703 97 
z
M 1959 2075 
Q 2384 2075 2632 2365 
Q 2881 2656 2881 3163 
Q 2881 3666 2632 3958 
Q 2384 4250 1959 4250 
Q 1534 4250 1286 3958 
Q 1038 3666 1038 3163 
Q 1038 2656 1286 2365 
Q 1534 2075 1959 2075 
z
" transform="scale(0.015625)"/>
      </defs>
      <use xlink:href="#DejaVuSans-30"/>
      <use xlink:href="#DejaVuSans-2e" transform="translate(63.623047 0)"/>
      <use xlink:href="#DejaVuSans-39" transform="translate(95.410156 0)"/>
     </g>
    </g>
   </g>
  </g>
 </g>
 <defs>
  <clipPath id="p3efcf1ab21">
   <rect x="47.72" y="26.88" width="301.48" height="219.16"/>
  </clipPath>
 </defs>
</svg>
