<?xml version="1.0" encoding="utf-8" standalone="no"?>
<!DOCTYPE svg PUBLIC "-//W3C//DTD SVG 1.1//EN"
  "http://www.w3.org/Graphics/SVG/1.1/DTD/svg11.dtd">
<svg xmlns:xlink="http://www.w3.org/1999/xlink" width="360pt" height="288pt" viewBox="0 0 360 288" xmlns="http://www.w3.org/2000/svg" version="1.1">
 <metadata>
  <rdf:RDF xmlns:dc="http://purl.org/dc/elements/1.1/" xmlns:cc="http://creativecommons.org/ns#" xmlns:rdf="http://www.w3.org/1999/02/22-rdf-syntax-ns#">
   <cc:Work>
    <dc:type rdf:resource="http://purl.org/dc/dcmitype/StillImage"/>
    <dc:date>2025-10-12T22:22:52.304296</dc:date>
    <dc:format>image/svg+xml</dc:format>
    <dc:creator>
     <cc:Agent>
      <dc:title>Matplotlib v3.10.7, https://matplotlib.org/</dc:title>
     </cc:Agent>
    </dc:creator>
   </cc:Work>
  </rdf:RDF>
 </metadata>
 <defs>
  <style type="text/css">*{stroke-linejoin: round; stroke-linecap: butt}</style>
 </defs>
 <g id="figure_1">
  <g id="patch_1">
   <path d="M 0 288 
L 360 288 
L 360 0 
L 0 0 
z
" style="fill: #ffffff"/>
  </g>
  <g id="axes_1">
   <g id="patch_2">
    <path d="M 47.72 246.04 
L 349.2 246.04 
L 349.2 26.88 
L 47.72 26.88 
z
" style="fill: #ffffff"/>
   </g>
   <g id="matplotlib.axis_1">
    <g id="xtick_1">
     <g id="line2d_1">
      <defs>
       <path id="m4c543805ab" d="M 0 0 
L 0 3.5 
" style="stroke: #000000; stroke-width: 0.8"/>
      </defs>
      <g>
       <use xlink:href="#m4c543805ab" x="107.997908" y="246.04" style="stroke: #000000; stroke-width: 0.8"/>
      </g>
     </g>
     <g id="text_1">
      <!-- 0.2 -->
      <g transform="translate(100.046345 260.638438) scale(0.1 -0.1)">
       <defs>
        <path id="DejaVuSans-30" d="M 2034 4250 
Q 1547 4250 1301 3770 
Q 1056 3291 1056 2328 
Q 1056 1369 1301 889 
Q 1547 409 2034 409 
Q 2525 409 2770 889 
Q 3016 1369 3016 2328 
Q 3016 3291 2770 3770 
Q 2525 4250 2034 4250 
z
M 2034 4750 
Q 2819 4750 3233 4129 
Q 3647 3509 3647 2328 
Q 3647 1150 3233 529 
Q 2819 -91 2034 -91 
Q 1250 -91 836 529 
Q 422 1150 422 2328 
Q 422 3509 836 4129 
Q 1250 4750 2034 4750 
z
" transform="scale(0.015625)"/>
        <path id="DejaVuSans-2e" d="M 684 794 
L 1344 794 
L 1344 0 
L 684 0 
L 684 794 
z
" transform="scale(0.015625)"/>
        <path id="DejaVuSans-32" d="M 1228 531 
L 3431 531 
L 3431 0 
L 469 0 
L 469 531 
Q 828 903 1448 1529 
Q 2069 2156 2228 2338 
Q 2531 2678 2651 2914 
Q 2772 3150 2772 3378 
Q 2772 3750 2511 3984 
Q 2250 4219 1831 4219 
Q 1534 4219 1204 4116 
Q 875 4013 500 3803 
L 500 4441 
Q 881 4594 1212 4672 
Q 1544 4750 1819 4750 
Q 2544 4750 2975 4387 
Q 3406 4025 3406 3419 
Q 3406 3131 3298 2873 
Q 3191 2616 2906 2266 
Q 2828 2175 2409 1742 
Q 1991 1309 1228 531 
z
" transform="scale(0.015625)"/>
       </defs>
       <use xlink:href="#DejaVuSans-30"/>
       <use xlink:href="#DejaVuSans-2e" transform="translate(63.623047 0)"/>
       <use xlink:href="#DejaVuSans-32" transform="translate(95.410156 0)"/>
      </g>
     </g>
    </g>
    <g id="xtick_2">
     <g id="line2d_2">
      <g>
       <use xlink:href="#m4c543805ab" x="168.305969" y="246.04" style="stroke: #000000; stroke-width: 0.8"/>
      </g>
     </g>
     <g id="text_2">
      <!-- 0.4 -->
      <g transform="translate(160.354407 260.638438) scale(0.1 -0.1)">
       <defs>
        <path id="DejaVuSans-34" d="M 2419 4116 
L 825 1625 
L 2419 1625 
L 2419 4116 
z
M 2253 4666 
L 3047 4666 
L 3047 1625 
L 3713 1625 
L 3713 1100 
L 3047 1100 
L 3047 0 
L 2419 0 
L 2419 1100 
L 313 1100 
L 313 1709 
L 2253 4666 
z
" transform="scale(0.015625)"/>
       </defs>
       <use xlink:href="#DejaVuSans-30"/>
       <use xlink:href="#DejaVuSans-2e" transform="translate(63.623047 0)"/>
       <use xlink:href="#DejaVuSans-34" transform="translate(95.410156 0)"/>
      </g>
     </g>
    </g>
    <g id="xtick_3">
     <g id="line2d_3">
      <g>
       <use xlink:href="#m4c543805ab" x="228.614031" y="246.04" style="stroke: #000000; stroke-width: 0.8"/>
      </g>
     </g>
     <g id="text_3">
      <!-- 0.6 -->
      <g transform="translate(220.662468 260.638438) scale(0.1 -0.1)">
       <defs>
        <path id="DejaVuSans-36" d="M 2113 2584 
Q 1688 2584 1439 2293 
Q 1191 2003 1191 1497 
Q 1191 994 1439 701 
Q 1688 409 2113 409 
Q 2538 409 2786 701 
Q 3034 994 3034 1497 
Q 3034 2003 2786 2293 
Q 2538 2584 2113 2584 
z
M 3366 4563 
L 3366 3988 
Q 3128 4100 2886 4159 
Q 2644 4219 2406 4219 
Q 1781 4219 1451 3797 
Q 1122 3375 1075 2522 
Q 1259 2794 1537 2939 
Q 1816 3084 2150 3084 
Q 2853 3084 3261 2657 
Q 3669 2231 3669 1497 
Q 3669 778 3244 343 
Q 2819 -91 2113 -91 
Q 1303 -91 875 529 
Q 447 1150 447 2328 
Q 447 3434 972 4092 
Q 1497 4750 2381 4750 
Q 2619 4750 2861 4703 
Q 3103 4656 3366 4563 
z
" transform="scale(0.015625)"/>
       </defs>
       <use xlink:href="#DejaVuSans-30"/>
       <use xlink:href="#DejaVuSans-2e" transform="translate(63.623047 0)"/>
       <use xlink:href="#DejaVuSans-36" transform="translate(95.410156 0)"/>
      </g>
     </g>
    </g>
    <g id="xtick_4">
     <g id="line2d_4">
      <g>
       <use xlink:href="#m4c543805ab" x="288.922092" y="246.04" style="stroke: #000000; stroke-width: 0.8"/>
      </g>
     </g>
     <g id="text_4">
      <!-- 0.8 -->
      <g transform="translate(280.97053 260.638438) scale(0.1 -0.1)">
       <defs>
        <path id="DejaVuSans-38" d="M 2034 2216 
Q 1584 2216 1326 1975 
Q 1069 1734 1069 1313 
Q 1069 891 1326 650 
Q 1584 409 2034 409 
Q 2484 409 2743 651 
Q 3003 894 3003 1313 
Q 3003 1734 2745 1975 
Q 2488 2216 2034 2216 
z
M 1403 2484 
Q 997 2584 770 2862 
Q 544 3141 544 3541 
Q 544 4100 942 4425 
Q 1341 4750 2034 4750 
Q 2731 4750 3128 4425 
Q 3525 4100 3525 3541 
Q 3525 3141 3298 2862 
Q 3072 2584 2669 2484 
Q 3125 2378 3379 2068 
Q 3634 1759 3634 1313 
Q 3634 634 3220 271 
Q 2806 -91 2034 -91 
Q 1263 -91 848 271 
Q 434 634 434 1313 
Q 434 1759 690 2068 
Q 947 2378 1403 2484 
z
M 1172 3481 
Q 1172 3119 1398 2916 
Q 1625 2713 2034 2713 
Q 2441 2713 2670 2916 
Q 2900 3119 2900 3481 
Q 2900 3844 2670 4047 
Q 2441 4250 2034 4250 
Q 1625 4250 1398 4047 
Q 1172 3844 1172 3481 
z
" transform="scale(0.015625)"/>
       </defs>
       <use xlink:href="#DejaVuSans-30"/>
       <use xlink:href="#DejaVuSans-2e" transform="translate(63.623047 0)"/>
       <use xlink:href="#DejaVuSans-38" transform="translate(95.410156 0)"/>
      </g>
     </g>
    </g>
    <g id="text_5">
     <!-- u -->
     <g transform="translate(195.29125 274.316562) scale(0.1 -0.1)">
      <defs>
       <path id="DejaVuSans-75" d="M 544 1381 
L 544 3500 
L 1119 3500 
L 1119 1403 
Q 1119 906 1312 657 
Q 1506 409 1894 409 
Q 2359 409 2629 706 
Q 2900 1003 2900 1516 
L 2900 3500 
L 3475 3500 
L 3475 0 
L 2900 0 
L 2900 538 
Q 2691 219 2414 64 
Q 2138 -91 1772 -91 
Q 1169 -91 856 284 
Q 544 659 544 1381 
z
M 1991 3584 
L 1991 3584 
z
" transform="scale(0.015625)"/>
      </defs>
      <use xlink:href="#DejaVuSans-75"/>
     </g>
    </g>
   </g>
   <g id="matplotlib.axis_2">
    <g id="ytick_1">
     <g id="line2d_5">
      <defs>
       <path id="mc8ae13db2d" d="M 0 0 
L -3.5 0 
" style="stroke: #000000; stroke-width: 0.8"/>
      </defs>
      <g>
       <use xlink:href="#mc8ae13db2d" x="47.72" y="202.221152" style="stroke: #000000; stroke-width: 0.8"/>
      </g>
     </g>
     <g id="text_6">
      <!-- 0.2 -->
      <g transform="translate(24.816875 206.020371) scale(0.1 -0.1)">
       <use xlink:href="#DejaVuSans-30"/>
       <use xlink:href="#DejaVuSans-2e" transform="translate(63.623047 0)"/>
       <use xlink:href="#DejaVuSans-32" transform="translate(95.410156 0)"/>
      </g>
     </g>
    </g>
    <g id="ytick_2">
     <g id="line2d_6">
      <g>
       <use xlink:href="#mc8ae13db2d" x="47.72" y="158.380384" style="stroke: #000000; stroke-width: 0.8"/>
      </g>
     </g>
     <g id="text_7">
      <!-- 0.4 -->
      <g transform="translate(24.816875 162.179603) scale(0.1 -0.1)">
       <use xlink:href="#DejaVuSans-30"/>
       <use xlink:href="#DejaVuSans-2e" transform="translate(63.623047 0)"/>
       <use xlink:href="#DejaVuSans-34" transform="translate(95.410156 0)"/>
      </g>
     </g>
    </g>
    <g id="ytick_3">
     <g id="line2d_7">
      <g>
       <use xlink:href="#mc8ae13db2d" x="47.72" y="114.539616" style="stroke: #000000; stroke-width: 0.8"/>
      </g>
     </g>
     <g id="text_8">
      <!-- 0.6 -->
      <g transform="translate(24.816875 118.338835) scale(0.1 -0.1)">
       <use xlink:href="#DejaVuSans-30"/>
       <use xlink:href="#DejaVuSans-2e" transform="translate(63.623047 0)"/>
       <use xlink:href="#DejaVuSans-36" transform="translate(95.410156 0)"/>
      </g>
     </g>
    </g>
    <g id="ytick_4">
     <g id="line2d_8">
      <g>
       <use xlink:href="#mc8ae13db2d" x="47.72" y="70.698848" style="stroke: #000000; stroke-width: 0.8"/>
      </g>
     </g>
     <g id="text_9">
      <!-- 0.8 -->
      <g transform="translate(24.816875 74.498067) scale(0.1 -0.1)">
       <use xlink:href="#DejaVuSans-30"/>
       <use xlink:href="#DejaVuSans-2e" transform="translate(63.623047 0)"/>
       <use xlink:href="#DejaVuSans-38" transform="translate(95.410156 0)"/>
      </g>
     </g>
    </g>
    <g id="text_10">
     <!-- v -->
     <g transform="translate(18.737188 139.419375) rotate(-90) scale(0.1 -0.1)">
      <defs>
       <path id="DejaVuSans-76" d="M 191 3500 
L 800 3500 
L 1894 563 
L 2988 3500 
L 3597 3500 
L 2284 0 
L 1503 0 
L 191 3500 
z
" transform="scale(0.015625)"/>
      </defs>
      <use xlink:href="#DejaVuSans-76"/>
     </g>
    </g>
   </g>
   <g id="QuadContourSet_1">
    <path d="M 77.899169 42.572154 
L 78.163104 78.188361 
L 78.536652 100.910635 
L 79.02328 117.769097 
L 79.616832 130.962676 
L 80.334034 141.957324 
L 81.121788 150.753043 
L 82.002007 158.22743 
L 83.010301 164.893293 
L 84.085256 170.543411 
L 85.293272 175.674247 
L 86.556422 180.072107 
L 87.814051 183.73699 
L 89.308475 187.401873 
L 90.717116 190.333779 
L 92.362159 193.265686 
L 94.303287 196.197592 
L 96.118127 198.536996 
L 98.134716 200.779145 
L 100.232508 202.794381 
L 102.910041 204.993311 
L 105.192776 206.605565 
L 108.217659 208.446049 
L 111.466142 210.124147 
L 115.275719 211.78336 
L 119.308896 213.256882 
L 123.410634 214.522007 
L 128.383545 215.80738 
L 133.425017 216.893747 
L 139.474783 217.973513 
L 146.532843 218.996285 
L 154.599197 219.928621 
L 163.673846 220.753718 
L 174.765084 221.526996 
L 187.87291 222.203243 
L 204.005619 222.793139 
L 223.163211 223.264432 
L 248.370569 223.649712 
L 282.652575 223.933423 
L 334.075585 224.115236 
L 349.2 224.141492 
L 349.2 224.141492 
" clip-path="url(#pf891e2b213)" style="fill: none; stroke: #440154; stroke-width: 1.5"/>
    <path d="M 107.998081 26.88 
L 108.331633 54.73311 
L 108.76594 73.790502 
L 109.30287 88.450033 
L 109.977981 100.910635 
L 110.755684 111.172308 
L 111.646287 119.968027 
L 112.601719 127.297793 
L 113.679487 133.894582 
L 114.860438 139.758395 
L 116.111858 144.889231 
L 117.386692 149.28709 
L 118.892887 153.68495 
L 120.363063 157.349833 
L 122.074639 161.014716 
L 123.6528 163.946622 
L 125.454631 166.878528 
L 127.526997 169.810435 
L 129.929083 172.742341 
L 132.416722 175.36143 
L 134.433311 177.232437 
L 137.458194 179.693224 
L 140.483077 181.817835 
L 143.624126 183.73699 
L 146.532843 185.298883 
L 150.56602 187.184506 
L 154.768954 188.867826 
L 159.640669 190.529812 
L 164.68214 191.988114 
L 169.8706 193.265686 
L 175.773378 194.496791 
L 182.831438 195.721674 
L 190.897793 196.862973 
L 198.964147 197.789135 
L 209.04709 198.714714 
L 220.138328 199.506572 
L 233.246154 200.216395 
L 249.378863 200.849229 
L 268.536455 201.36428 
L 292.735518 201.778599 
L 325.000936 202.090234 
L 326.305771 202.099018 
M 347.895248 202.215472 
L 349.2 202.221026 
L 349.2 202.221026 
" clip-path="url(#pf891e2b213)" style="fill: none; stroke: #472d7b; stroke-width: 1.5"/>
    <path d="M 138.152317 26.88 
L 138.587037 45.937391 
L 139.155313 61.3299 
L 139.838793 73.790502 
L 140.621295 84.052174 
L 141.511191 92.847893 
L 142.499666 100.458931 
L 143.518363 106.774448 
L 144.668971 112.638261 
L 145.876297 117.769097 
L 147.314856 122.899933 
L 148.773899 127.297793 
L 150.488705 131.695652 
L 152.156022 135.360535 
L 154.085485 139.025418 
L 155.855539 141.957324 
L 157.866973 144.889231 
L 160.166811 147.821137 
L 162.665552 150.598885 
L 165.076985 152.951973 
L 167.707023 155.219835 
L 170.731906 157.509387 
L 173.803293 159.548763 
L 177.60791 161.747692 
L 180.814849 163.369722 
L 184.848027 165.161691 
L 189.311345 166.878528 
L 193.922676 168.411447 
L 198.964147 169.856845 
L 205.013913 171.332592 
L 211.063679 172.579165 
L 218.121739 173.800825 
L 226.188094 174.952213 
L 235.262742 176.001262 
L 245.345686 176.930747 
L 256.436923 177.733091 
L 269.544749 178.45803 
L 284.669164 179.074514 
L 303.826756 179.618951 
L 318.289337 179.907719 
M 339.779434 180.205722 
L 349.2 180.300493 
L 349.2 180.300493 
" clip-path="url(#pf891e2b213)" style="fill: none; stroke: #3b528b; stroke-width: 1.5"/>
    <path d="M 168.306721 26.88 
L 168.892007 40.806555 
L 169.601816 52.534181 
L 170.385987 62.062876 
L 171.335014 70.858595 
L 172.343464 78.188361 
L 173.469156 84.785151 
L 174.765084 90.981822 
L 175.965103 95.779799 
L 177.482769 100.910635 
L 179.017616 105.308495 
L 180.816232 109.706355 
L 182.559857 113.371237 
L 184.571221 117.03612 
L 186.410916 119.968027 
L 188.494366 122.899933 
L 190.897793 125.867359 
L 193.589948 128.763746 
L 195.939264 130.993232 
L 198.964147 133.526121 
L 201.98903 135.747731 
L 205.013913 137.711917 
L 208.591517 139.758395 
L 212.071973 141.510111 
L 216.418345 143.423278 
L 221.146622 145.219046 
L 226.188094 146.86622 
L 231.229565 148.286394 
L 237.279331 149.745368 
L 243.329097 150.984969 
L 250.468645 152.218997 
L 258.453512 153.362035 
L 267.528161 154.42099 
L 277.611104 155.362547 
L 288.702341 156.178429 
L 301.810167 156.918055 
L 316.934582 157.548858 
L 327.318047 157.878902 
M 348.900995 158.374364 
L 349.2 158.379838 
L 349.2 158.379838 
" clip-path="url(#pf891e2b213)" style="fill: none; stroke: #2c728e; stroke-width: 1.5"/>
    <path d="M 198.461431 26.88 
L 199.241546 37.141672 
L 200.124662 45.937391 
L 201.165601 54.000134 
L 202.230035 60.596923 
L 203.379261 66.460736 
L 204.766217 72.324548 
L 206.220727 77.455385 
L 207.686607 81.853244 
L 209.397607 86.251104 
L 211.063679 89.948883 
L 213.080268 93.825382 
L 215.13279 97.245753 
L 217.137359 100.177659 
L 219.411352 103.109565 
L 222.005077 106.041472 
L 224.200093 108.240401 
L 227.196388 110.897956 
L 230.221271 113.250445 
L 233.246154 115.327881 
L 236.271037 117.176468 
L 240.304214 119.343976 
L 244.337391 121.229476 
L 248.415989 122.899933 
L 253.41204 124.676737 
L 258.453512 126.22236 
L 264.503278 127.808677 
L 270.553043 129.155256 
L 277.611104 130.480926 
L 285.677458 131.735649 
L 293.743813 132.768135 
L 302.818462 133.719384 
L 313.909699 134.644884 
L 320.325308 135.084663 
M 341.783807 136.182016 
L 349.2 136.45896 
L 349.2 136.45896 
" clip-path="url(#pf891e2b213)" style="fill: none; stroke: #21918c; stroke-width: 1.5"/>
    <path d="M 228.616699 26.88 
L 229.615492 34.209766 
L 230.727157 40.806555 
L 231.927413 46.670368 
L 233.246154 52.050532 
L 234.662474 56.93204 
L 236.271037 61.642282 
L 237.898102 65.727759 
L 239.577758 69.392642 
L 241.505532 73.057525 
L 243.730865 76.722408 
L 245.766827 79.654314 
L 248.074087 82.586221 
L 250.387157 85.184127 
L 252.930239 87.717057 
L 255.428629 89.931921 
L 258.453512 92.309847 
L 261.478395 94.412695 
L 264.897209 96.512776 
L 268.536455 98.480665 
L 272.569632 100.393185 
L 276.602809 102.070441 
L 281.49257 103.842542 
L 286.152201 105.308495 
L 291.727224 106.827409 
L 297.800882 108.240401 
L 304.83505 109.620588 
L 311.89311 110.781178 
L 320.113981 111.905284 
L 329.429529 112.942436 
L 329.429529 112.942436 
" clip-path="url(#pf891e2b213)" style="fill: none; stroke: #28ae80; stroke-width: 1.5"/>
    <path d="M 258.772985 26.88 
L 260.026758 32.010836 
L 261.510472 37.141672 
L 263.004117 41.539532 
L 264.74525 45.937391 
L 266.519866 49.799393 
L 268.346747 53.267157 
L 270.095608 56.199064 
L 272.063524 59.13097 
L 274.288707 62.062876 
L 276.819237 64.994783 
L 279.716374 67.926689 
L 282.652575 70.522593 
L 285.677458 72.876091 
L 288.702341 74.959087 
L 291.727224 76.816137 
L 295.760401 78.997594 
L 299.793579 80.898989 
L 303.871564 82.586221 
L 308.868227 84.384706 
L 313.909699 85.951544 
L 319.959465 87.562247 
L 323.520071 88.393911 
M 344.727112 92.0554 
L 349.2 92.615652 
L 349.2 92.615652 
" clip-path="url(#pf891e2b213)" style="fill: none; stroke: #5ec962; stroke-width: 1.5"/>
    <path d="M 288.931126 26.88 
L 289.237317 27.612977 
L 289.551665 28.345953 
L 289.710635 28.70815 
L 289.874465 29.07893 
L 290.206021 29.811906 
L 290.546544 30.544883 
L 290.71893 30.907382 
L 290.896432 31.27786 
L 291.256026 32.010836 
L 291.625494 32.743813 
L 291.727224 32.941254 
L 292.005457 33.476789 
L 292.396105 34.209766 
L 292.735518 34.830054 
L 292.797734 34.942742 
L 293.211164 35.675719 
L 293.63627 36.408696 
L 293.743813 36.590095 
L 294.074044 37.141672 
L 294.524546 37.874649 
L 294.752107 38.236088 
L 294.988494 38.607625 
L 295.466393 39.340602 
L 295.760401 39.780328 
L 295.958679 40.073579 
L 296.466169 40.806555 
L 296.768696 41.232618 
L 296.989227 41.539532 
L 297.528715 42.272508 
L 297.77699 42.601764 
L 298.085279 43.005485 
L 298.659404 43.738462 
L 298.785284 43.89566 
L 299.252546 44.471438 
L 299.793579 45.12052 
L 299.864482 45.204415 
L 300.497365 45.937391 
L 300.801873 46.281399 
L 301.151238 46.670368 
L 301.810167 47.385518 
L 301.826842 47.403344 
L 302.526692 48.136321 
L 302.818462 48.434512 
L 303.250686 48.869298 
L 303.826756 49.434912 
L 304.000026 49.602274 
L 304.776418 50.335251 
L 304.83505 50.38946 
L 305.581895 51.068227 
L 305.843344 51.300458 
L 306.417144 51.801204 
L 306.851639 52.171979 
L 307.283881 52.534181 
L 307.859933 53.00644 
L 308.183959 53.267157 
L 308.868227 53.806096 
L 309.119376 54.000134 
L 309.876522 54.573045 
L 310.092284 54.73311 
L 310.884816 55.309239 
L 311.105004 55.466087 
L 311.89311 56.016492 
L 312.160031 56.199064 
L 312.901405 56.69649 
L 313.260051 56.93204 
L 313.909699 57.350799 
L 314.40795 57.665017 
L 314.917993 57.980871 
L 315.606827 58.397993 
L 315.926288 58.588053 
L 316.860011 59.13097 
L 316.934582 59.173592 
L 317.942876 59.737988 
L 318.173103 59.863946 
L 318.951171 60.282719 
L 319.549269 60.596923 
L 319.959465 60.809024 
L 320.967759 61.317778 
L 320.992282 61.3299 
L 321.976054 61.808907 
L 322.511125 62.062876 
L 322.984348 62.284237 
L 323.992642 62.74431 
L 324.108049 62.795853 
L 325.000936 63.189155 
L 325.792986 63.528829 
L 326.009231 63.620338 
L 327.017525 64.037696 
L 327.57289 64.261806 
L 328.025819 64.442289 
L 329.034114 64.834468 
L 329.456309 64.994783 
L 330.042408 65.214704 
L 331.050702 65.583622 
L 331.454103 65.727759 
L 331.902354 65.886141 
" clip-path="url(#pf891e2b213)" style="fill: none; stroke: #addc30; stroke-width: 1.5"/>
    <path d="M 319.092646 26.88 
L 319.654154 27.612977 
L 319.959465 28.001303 
L 320.233635 28.345953 
L 320.831863 29.07893 
L 320.967759 29.24172 
L 321.449791 29.811906 
L 321.976054 30.417612 
L 322.088101 30.544883 
L 322.748015 31.27786 
L 322.984348 31.534045 
L 323.430439 32.010836 
L 323.992642 32.596388 
L 324.136284 32.743813 
L 324.866985 33.476789 
L 325.000936 33.608189 
L 325.623857 34.209766 
L 326.009231 34.572989 
L 326.407956 34.942742 
L 327.017525 35.494769 
L 327.220733 35.675719 
L 328.025819 36.376248 
L 328.063768 36.408696 
L 328.939116 37.141672 
L 329.034114 37.219525 
L 329.848372 37.874649 
L 329.908598 37.922072 
M 348.15723 48.343942 
L 348.191706 48.358266 
L 349.2 48.766452 
" clip-path="url(#pf891e2b213)" style="fill: none; stroke: #fde725; stroke-width: 1.5"/>
   </g>
   <g id="patch_3">
    <path d="M 47.72 246.04 
L 47.72 26.88 
" style="fill: none; stroke: #000000; stroke-width: 0.8; stroke-linejoin: miter; stroke-linecap: square"/>
   </g>
   <g id="patch_4">
    <path d="M 349.2 246.04 
L 349.2 26.88 
" style="fill: none; stroke: #000000; stroke-width: 0.8; stroke-linejoin: miter; stroke-linecap: square"/>
   </g>
   <g id="patch_5">
    <path d="M 47.72 246.04 
L 349.2 246.04 
" style="fill: none; stroke: #000000; stroke-width: 0.8; stroke-linejoin: miter; stroke-linecap: square"/>
   </g>
   <g id="patch_6">
    <path d="M 47.72 26.88 
L 349.2 26.88 
" style="fill: none; stroke: #000000; stroke-width: 0.8; stroke-linejoin: miter; stroke-linecap: square"/>
   </g>
   <g id="text_11">
    <!-- Frank copula contours (θ=6) -->
    <g transform="translate(112.988125 20.88) scale(0.12 -0.12)">
     <defs>
      <path id="DejaVuSans-46" d="M 628 4666 
L 3309 4666 
L 3309 4134 
L 1259 4134 
L 1259 2759 
L 3109 2759 
L 3109 2228 
L 1259 2228 
L 1259 0 
L 628 0 
L 628 4666 
z
" transform="scale(0.015625)"/>
      <path id="DejaVuSans-72" d="M 2631 2963 
Q 2534 3019 2420 3045 
Q 2306 3072 2169 3072 
Q 1681 3072 1420 2755 
Q 1159 2438 1159 1844 
L 1159 0 
L 581 0 
L 581 3500 
L 1159 3500 
L 1159 2956 
Q 1341 3275 1631 3429 
Q 1922 3584 2338 3584 
Q 2397 3584 2469 3576 
Q 2541 3569 2628 3553 
L 2631 2963 
z
" transform="scale(0.015625)"/>
      <path id="DejaVuSans-61" d="M 2194 1759 
Q 1497 1759 1228 1600 
Q 959 1441 959 1056 
Q 959 750 1161 570 
Q 1363 391 1709 391 
Q 2188 391 2477 730 
Q 2766 1069 2766 1631 
L 2766 1759 
L 2194 1759 
z
M 3341 1997 
L 3341 0 
L 2766 0 
L 2766 531 
Q 2569 213 2275 61 
Q 1981 -91 1556 -91 
Q 1019 -91 701 211 
Q 384 513 384 1019 
Q 384 1609 779 1909 
Q 1175 2209 1959 2209 
L 2766 2209 
L 2766 2266 
Q 2766 2663 2505 2880 
Q 2244 3097 1772 3097 
Q 1472 3097 1187 3025 
Q 903 2953 641 2809 
L 641 3341 
Q 956 3463 1253 3523 
Q 1550 3584 1831 3584 
Q 2591 3584 2966 3190 
Q 3341 2797 3341 1997 
z
" transform="scale(0.015625)"/>
      <path id="DejaVuSans-6e" d="M 3513 2113 
L 3513 0 
L 2938 0 
L 2938 2094 
Q 2938 2591 2744 2837 
Q 2550 3084 2163 3084 
Q 1697 3084 1428 2787 
Q 1159 2491 1159 1978 
L 1159 0 
L 581 0 
L 581 3500 
L 1159 3500 
L 1159 2956 
Q 1366 3272 1645 3428 
Q 1925 3584 2291 3584 
Q 2894 3584 3203 3211 
Q 3513 2838 3513 2113 
z
" transform="scale(0.015625)"/>
      <path id="DejaVuSans-6b" d="M 581 4863 
L 1159 4863 
L 1159 1991 
L 2875 3500 
L 3609 3500 
L 1753 1863 
L 3688 0 
L 2938 0 
L 1159 1709 
L 1159 0 
L 581 0 
L 581 4863 
z
" transform="scale(0.015625)"/>
      <path id="DejaVuSans-20" transform="scale(0.015625)"/>
      <path id="DejaVuSans-63" d="M 3122 3366 
L 3122 2828 
Q 2878 2963 2633 3030 
Q 2388 3097 2138 3097 
Q 1578 3097 1268 2742 
Q 959 2388 959 1747 
Q 959 1106 1268 751 
Q 1578 397 2138 397 
Q 2388 397 2633 464 
Q 2878 531 3122 666 
L 3122 134 
Q 2881 22 2623 -34 
Q 2366 -91 2075 -91 
Q 1284 -91 818 406 
Q 353 903 353 1747 
Q 353 2603 823 3093 
Q 1294 3584 2113 3584 
Q 2378 3584 2631 3529 
Q 2884 3475 3122 3366 
z
" transform="scale(0.015625)"/>
      <path id="DejaVuSans-6f" d="M 1959 3097 
Q 1497 3097 1228 2736 
Q 959 2375 959 1747 
Q 959 1119 1226 758 
Q 1494 397 1959 397 
Q 2419 397 2687 759 
Q 2956 1122 2956 1747 
Q 2956 2369 2687 2733 
Q 2419 3097 1959 3097 
z
M 1959 3584 
Q 2709 3584 3137 3096 
Q 3566 2609 3566 1747 
Q 3566 888 3137 398 
Q 2709 -91 1959 -91 
Q 1206 -91 779 398 
Q 353 888 353 1747 
Q 353 2609 779 3096 
Q 1206 3584 1959 3584 
z
" transform="scale(0.015625)"/>
      <path id="DejaVuSans-70" d="M 1159 525 
L 1159 -1331 
L 581 -1331 
L 581 3500 
L 1159 3500 
L 1159 2969 
Q 1341 3281 1617 3432 
Q 1894 3584 2278 3584 
Q 2916 3584 3314 3078 
Q 3713 2572 3713 1747 
Q 3713 922 3314 415 
Q 2916 -91 2278 -91 
Q 1894 -91 1617 61 
Q 1341 213 1159 525 
z
M 3116 1747 
Q 3116 2381 2855 2742 
Q 2594 3103 2138 3103 
Q 1681 3103 1420 2742 
Q 1159 2381 1159 1747 
Q 1159 1113 1420 752 
Q 1681 391 2138 391 
Q 2594 391 2855 752 
Q 3116 1113 3116 1747 
z
" transform="scale(0.015625)"/>
      <path id="DejaVuSans-6c" d="M 603 4863 
L 1178 4863 
L 1178 0 
L 603 0 
L 603 4863 
z
" transform="scale(0.015625)"/>
      <path id="DejaVuSans-74" d="M 1172 4494 
L 1172 3500 
L 2356 3500 
L 2356 3053 
L 1172 3053 
L 1172 1153 
Q 1172 725 1289 603 
Q 1406 481 1766 481 
L 2356 481 
L 2356 0 
L 1766 0 
Q 1100 0 847 248 
Q 594 497 594 1153 
L 594 3053 
L 172 3053 
L 172 3500 
L 594 3500 
L 594 4494 
L 1172 4494 
z
" transform="scale(0.015625)"/>
      <path id="DejaVuSans-73" d="M 2834 3397 
L 2834 2853 
Q 2591 2978 2328 3040 
Q 2066 3103 1784 3103 
Q 1356 3103 1142 2972 
Q 928 2841 928 2578 
Q 928 2378 1081 2264 
Q 1234 2150 1697 2047 
L 1894 2003 
Q 2506 1872 2764 1633 
Q 3022 1394 3022 966 
Q 3022 478 2636 193 
Q 2250 -91 1575 -91 
Q 1294 -91 989 -36 
Q 684 19 347 128 
L 347 722 
Q 666 556 975 473 
Q 1284 391 1588 391 
Q 1994 391 2212 530 
Q 2431 669 2431 922 
Q 2431 1156 2273 1281 
Q 2116 1406 1581 1522 
L 1381 1569 
Q 847 1681 609 1914 
Q 372 2147 372 2553 
Q 372 3047 722 3315 
Q 1072 3584 1716 3584 
Q 2034 3584 2315 3537 
Q 2597 3491 2834 3397 
z
" transform="scale(0.015625)"/>
      <path id="DejaVuSans-28" d="M 1984 4856 
Q 1566 4138 1362 3434 
Q 1159 2731 1159 2009 
Q 1159 1288 1364 580 
Q 1569 -128 1984 -844 
L 1484 -844 
Q 1016 -109 783 600 
Q 550 1309 550 2009 
Q 550 2706 781 3412 
Q 1013 4119 1484 4856 
L 1984 4856 
z
" transform="scale(0.015625)"/>
      <path id="DejaVuSans-3b8" d="M 2953 2219 
L 963 2219 
Q 1009 1284 1225 888 
Q 1494 400 1959 400 
Q 2428 400 2688 891 
Q 2916 1322 2953 2219 
z
M 2944 2750 
Q 2856 3638 2688 3950 
Q 2419 4444 1959 4444 
Q 1481 4444 1228 3956 
Q 1028 3563 969 2750 
L 2944 2750 
z
M 1959 4913 
Q 2709 4913 3138 4250 
Q 3566 3591 3566 2422 
Q 3566 1256 3138 594 
Q 2709 -72 1959 -72 
Q 1206 -72 781 594 
Q 353 1256 353 2422 
Q 353 3591 781 4250 
Q 1206 4913 1959 4913 
z
" transform="scale(0.015625)"/>
      <path id="DejaVuSans-3d" d="M 678 2906 
L 4684 2906 
L 4684 2381 
L 678 2381 
L 678 2906 
z
M 678 1631 
L 4684 1631 
L 4684 1100 
L 678 1100 
L 678 1631 
z
" transform="scale(0.015625)"/>
      <path id="DejaVuSans-29" d="M 513 4856 
L 1013 4856 
Q 1481 4119 1714 3412 
Q 1947 2706 1947 2009 
Q 1947 1309 1714 600 
Q 1481 -109 1013 -844 
L 513 -844 
Q 928 -128 1133 580 
Q 1338 1288 1338 2009 
Q 1338 2731 1133 3434 
Q 928 4138 513 4856 
z
" transform="scale(0.015625)"/>
     </defs>
     <use xlink:href="#DejaVuSans-46"/>
     <use xlink:href="#DejaVuSans-72" transform="translate(50.269531 0)"/>
     <use xlink:href="#DejaVuSans-61" transform="translate(91.382812 0)"/>
     <use xlink:href="#DejaVuSans-6e" transform="translate(152.662109 0)"/>
     <use xlink:href="#DejaVuSans-6b" transform="translate(216.041016 0)"/>
     <use xlink:href="#DejaVuSans-20" transform="translate(273.951172 0)"/>
     <use xlink:href="#DejaVuSans-63" transform="translate(305.738281 0)"/>
     <use xlink:href="#DejaVuSans-6f" transform="translate(360.71875 0)"/>
     <use xlink:href="#DejaVuSans-70" transform="translate(421.900391 0)"/>
     <use xlink:href="#DejaVuSans-75" transform="translate(485.376953 0)"/>
     <use xlink:href="#DejaVuSans-6c" transform="translate(548.755859 0)"/>
     <use xlink:href="#DejaVuSans-61" transform="translate(576.539062 0)"/>
     <use xlink:href="#DejaVuSans-20" transform="translate(637.818359 0)"/>
     <use xlink:href="#DejaVuSans-63" transform="translate(669.605469 0)"/>
     <use xlink:href="#DejaVuSans-6f" transform="translate(724.585938 0)"/>
     <use xlink:href="#DejaVuSans-6e" transform="translate(785.767578 0)"/>
     <use xlink:href="#DejaVuSans-74" transform="translate(849.146484 0)"/>
     <use xlink:href="#DejaVuSans-6f" transform="translate(888.355469 0)"/>
     <use xlink:href="#DejaVuSans-75" transform="translate(949.537109 0)"/>
     <use xlink:href="#DejaVuSans-72" transform="translate(1012.916016 0)"/>
     <use xlink:href="#DejaVuSans-73" transform="translate(1054.029297 0)"/>
     <use xlink:href="#DejaVuSans-20" transform="translate(1106.128906 0)"/>
     <use xlink:href="#DejaVuSans-28" transform="translate(1137.916016 0)"/>
     <use xlink:href="#DejaVuSans-3b8" transform="translate(1176.929688 0)"/>
     <use xlink:href="#DejaVuSans-3d" transform="translate(1238.111328 0)"/>
     <use xlink:href="#DejaVuSans-36" transform="translate(1321.900391 0)"/>
     <use xlink:href="#DejaVuSans-29" transform="translate(1385.523438 0)"/>
    </g>
   </g>
   <g id="text_12">
    <g clip-path="url(#pf891e2b213)">
     <!-- 0.1 -->
     <g style="fill: #440154" transform="translate(75.634911 26.389337) rotate(-270.175049) scale(0.08 -0.08)">
      <defs>
       <path id="DejaVuSans-31" d="M 794 531 
L 1825 531 
L 1825 4091 
L 703 3866 
L 703 4441 
L 1819 4666 
L 2450 4666 
L 2450 531 
L 3481 531 
L 3481 0 
L 794 0 
L 794 531 
z
" transform="scale(0.015625)"/>
      </defs>
      <use xlink:href="#DejaVuSans-30"/>
      <use xlink:href="#DejaVuSans-2e" transform="translate(63.623047 0)"/>
      <use xlink:href="#DejaVuSans-31" transform="translate(95.410156 0)"/>
     </g>
    </g>
   </g>
   <g id="text_13">
    <g clip-path="url(#pf891e2b213)">
     <!-- 0.2 -->
     <g style="fill: #472d7b" transform="translate(330.72637 204.333693) rotate(-359.663682) scale(0.08 -0.08)">
      <use xlink:href="#DejaVuSans-30"/>
      <use xlink:href="#DejaVuSans-2e" transform="translate(63.623047 0)"/>
      <use xlink:href="#DejaVuSans-32" transform="translate(95.410156 0)"/>
     </g>
    </g>
   </g>
   <g id="text_14">
    <g clip-path="url(#pf891e2b213)">
     <!-- 0.3 -->
     <g style="fill: #3b528b" transform="translate(322.640285 182.184325) rotate(-359.135586) scale(0.08 -0.08)">
      <defs>
       <path id="DejaVuSans-33" d="M 2597 2516 
Q 3050 2419 3304 2112 
Q 3559 1806 3559 1356 
Q 3559 666 3084 287 
Q 2609 -91 1734 -91 
Q 1441 -91 1130 -33 
Q 819 25 488 141 
L 488 750 
Q 750 597 1062 519 
Q 1375 441 1716 441 
Q 2309 441 2620 675 
Q 2931 909 2931 1356 
Q 2931 1769 2642 2001 
Q 2353 2234 1838 2234 
L 1294 2234 
L 1294 2753 
L 1863 2753 
Q 2328 2753 2575 2939 
Q 2822 3125 2822 3475 
Q 2822 3834 2567 4026 
Q 2313 4219 1838 4219 
Q 1578 4219 1281 4162 
Q 984 4106 628 3988 
L 628 4550 
Q 988 4650 1302 4700 
Q 1616 4750 1894 4750 
Q 2613 4750 3031 4423 
Q 3450 4097 3450 3541 
Q 3450 3153 3228 2886 
Q 3006 2619 2597 2516 
z
" transform="scale(0.015625)"/>
      </defs>
      <use xlink:href="#DejaVuSans-30"/>
      <use xlink:href="#DejaVuSans-2e" transform="translate(63.623047 0)"/>
      <use xlink:href="#DejaVuSans-33" transform="translate(95.410156 0)"/>
     </g>
    </g>
   </g>
   <g id="text_15">
    <g clip-path="url(#pf891e2b213)">
     <!-- 0.4 -->
     <g style="fill: #2c728e" transform="translate(331.694385 160.202165) rotate(-358.569467) scale(0.08 -0.08)">
      <use xlink:href="#DejaVuSans-30"/>
      <use xlink:href="#DejaVuSans-2e" transform="translate(63.623047 0)"/>
      <use xlink:href="#DejaVuSans-34" transform="translate(95.410156 0)"/>
     </g>
    </g>
   </g>
   <g id="text_16">
    <g clip-path="url(#pf891e2b213)">
     <!-- 0.5 -->
     <g style="fill: #21918c" transform="translate(324.576712 137.547043) rotate(-356.817554) scale(0.08 -0.08)">
      <defs>
       <path id="DejaVuSans-35" d="M 691 4666 
L 3169 4666 
L 3169 4134 
L 1269 4134 
L 1269 2991 
Q 1406 3038 1543 3061 
Q 1681 3084 1819 3084 
Q 2600 3084 3056 2656 
Q 3513 2228 3513 1497 
Q 3513 744 3044 326 
Q 2575 -91 1722 -91 
Q 1428 -91 1123 -41 
Q 819 9 494 109 
L 494 744 
Q 775 591 1075 516 
Q 1375 441 1709 441 
Q 2250 441 2565 725 
Q 2881 1009 2881 1497 
Q 2881 1984 2565 2268 
Q 2250 2553 1709 2553 
Q 1456 2553 1204 2497 
Q 953 2441 691 2322 
L 691 4666 
z
" transform="scale(0.015625)"/>
      </defs>
      <use xlink:href="#DejaVuSans-30"/>
      <use xlink:href="#DejaVuSans-2e" transform="translate(63.623047 0)"/>
      <use xlink:href="#DejaVuSans-35" transform="translate(95.410156 0)"/>
     </g>
    </g>
   </g>
   <g id="text_17">
    <g clip-path="url(#pf891e2b213)">
     <!-- 0.6 -->
     <g style="fill: #28ae80" transform="translate(333.597976 115.544547) rotate(-355.071743) scale(0.08 -0.08)">
      <use xlink:href="#DejaVuSans-30"/>
      <use xlink:href="#DejaVuSans-2e" transform="translate(63.623047 0)"/>
      <use xlink:href="#DejaVuSans-36" transform="translate(95.410156 0)"/>
     </g>
    </g>
   </g>
   <g id="text_18">
    <g clip-path="url(#pf891e2b213)">
     <!-- 0.7 -->
     <g style="fill: #5ec962" transform="translate(327.416588 91.45393) rotate(-349.386942) scale(0.08 -0.08)">
      <defs>
       <path id="DejaVuSans-37" d="M 525 4666 
L 3525 4666 
L 3525 4397 
L 1831 0 
L 1172 0 
L 2766 4134 
L 525 4134 
L 525 4666 
z
" transform="scale(0.015625)"/>
      </defs>
      <use xlink:href="#DejaVuSans-30"/>
      <use xlink:href="#DejaVuSans-2e" transform="translate(63.623047 0)"/>
      <use xlink:href="#DejaVuSans-37" transform="translate(95.410156 0)"/>
     </g>
    </g>
   </g>
   <g id="text_19">
    <g clip-path="url(#pf891e2b213)">
     <!-- 0.8 -->
     <g style="fill: #addc30" transform="translate(335.417906 69.357066) rotate(-343.883067) scale(0.08 -0.08)">
      <use xlink:href="#DejaVuSans-30"/>
      <use xlink:href="#DejaVuSans-2e" transform="translate(63.623047 0)"/>
      <use xlink:href="#DejaVuSans-38" transform="translate(95.410156 0)"/>
     </g>
    </g>
   </g>
   <g id="text_20">
    <g clip-path="url(#pf891e2b213)">
     <!-- 0.9 -->
     <g style="fill: #fde725" transform="translate(332.048316 42.260055) rotate(-328.178658) scale(0.08 -0.08)">
      <defs>
       <path id="DejaVuSans-39" d="M 703 97 
L 703 672 
Q 941 559 1184 500 
Q 1428 441 1663 441 
Q 2288 441 2617 861 
Q 2947 1281 2994 2138 
Q 2813 1869 2534 1725 
Q 2256 1581 1919 1581 
Q 1219 1581 811 2004 
Q 403 2428 403 3163 
Q 403 3881 828 4315 
Q 1253 4750 1959 4750 
Q 2769 4750 3195 4129 
Q 3622 3509 3622 2328 
Q 3622 1225 3098 567 
Q 2575 -91 1691 -91 
Q 1453 -91 1209 -44 
Q 966 3 703 97 
z
M 1959 2075 
Q 2384 2075 2632 2365 
Q 2881 2656 2881 3163 
Q 2881 3666 2632 3958 
Q 2384 4250 1959 4250 
Q 1534 4250 1286 3958 
Q 1038 3666 1038 3163 
Q 1038 2656 1286 2365 
Q 1534 2075 1959 2075 
z
" transform="scale(0.015625)"/>
      </defs>
      <use xlink:href="#DejaVuSans-30"/>
      <use xlink:href="#DejaVuSans-2e" transform="translate(63.623047 0)"/>
      <use xlink:href="#DejaVuSans-39" transform="translate(95.410156 0)"/>
     </g>
    </g>
   </g>
  </g>
 </g>
 <defs>
  <clipPath id="pf891e2b213">
   <rect x="47.72" y="26.88" width="301.48" height="219.16"/>
  </clipPath>
 </defs>
</svg>
