<?xml version="1.0" encoding="utf-8" standalone="no"?>
<!DOCTYPE svg PUBLIC "-//W3C//DTD SVG 1.1//EN"
  "http://www.w3.org/Graphics/SVG/1.1/DTD/svg11.dtd">
<svg xmlns:xlink="http://www.w3.org/1999/xlink" width="360pt" height="288pt" viewBox="0 0 360 288" xmlns="http://www.w3.org/2000/svg" version="1.1">
 <metadata>
  <rdf:RDF xmlns:dc="http://purl.org/dc/elements/1.1/" xmlns:cc="http://creativecommons.org/ns#" xmlns:rdf="http://www.w3.org/1999/02/22-rdf-syntax-ns#">
   <cc:Work>
    <dc:type rdf:resource="http://purl.org/dc/dcmitype/StillImage"/>
    <dc:date>2025-10-12T22:06:43.432076</dc:date>
    <dc:format>image/svg+xml</dc:format>
    <dc:creator>
     <cc:Agent>
      <dc:title>Matplotlib v3.10.7, https://matplotlib.org/</dc:title>
     </cc:Agent>
    </dc:creator>
   </cc:Work>
  </rdf:RDF>
 </metadata>
 <defs>
  <style type="text/css">*{stroke-linejoin: round; stroke-linecap: butt}</style>
 </defs>
 <g id="figure_1">
  <g id="patch_1">
   <path d="M 0 288 
L 360 288 
L 360 0 
L 0 0 
z
" style="fill: #ffffff"/>
  </g>
  <g id="axes_1">
   <g id="patch_2">
    <path d="M 47.72 246.04 
L 349.2 246.04 
L 349.2 26.88 
L 47.72 26.88 
z
" style="fill: #ffffff"/>
   </g>
   <g id="matplotlib.axis_1">
    <g id="xtick_1">
     <g id="line2d_1">
      <defs>
       <path id="mac663cb2fd" d="M 0 0 
L 0 3.5 
" style="stroke: #000000; stroke-width: 0.8"/>
      </defs>
      <g>
       <use xlink:href="#mac663cb2fd" x="107.997908" y="246.04" style="stroke: #000000; stroke-width: 0.8"/>
      </g>
     </g>
     <g id="text_1">
      <!-- 0.2 -->
      <g transform="translate(100.046345 260.638438) scale(0.1 -0.1)">
       <defs>
        <path id="DejaVuSans-30" d="M 2034 4250 
Q 1547 4250 1301 3770 
Q 1056 3291 1056 2328 
Q 1056 1369 1301 889 
Q 1547 409 2034 409 
Q 2525 409 2770 889 
Q 3016 1369 3016 2328 
Q 3016 3291 2770 3770 
Q 2525 4250 2034 4250 
z
M 2034 4750 
Q 2819 4750 3233 4129 
Q 3647 3509 3647 2328 
Q 3647 1150 3233 529 
Q 2819 -91 2034 -91 
Q 1250 -91 836 529 
Q 422 1150 422 2328 
Q 422 3509 836 4129 
Q 1250 4750 2034 4750 
z
" transform="scale(0.015625)"/>
        <path id="DejaVuSans-2e" d="M 684 794 
L 1344 794 
L 1344 0 
L 684 0 
L 684 794 
z
" transform="scale(0.015625)"/>
        <path id="DejaVuSans-32" d="M 1228 531 
L 3431 531 
L 3431 0 
L 469 0 
L 469 531 
Q 828 903 1448 1529 
Q 2069 2156 2228 2338 
Q 2531 2678 2651 2914 
Q 2772 3150 2772 3378 
Q 2772 3750 2511 3984 
Q 2250 4219 1831 4219 
Q 1534 4219 1204 4116 
Q 875 4013 500 3803 
L 500 4441 
Q 881 4594 1212 4672 
Q 1544 4750 1819 4750 
Q 2544 4750 2975 4387 
Q 3406 4025 3406 3419 
Q 3406 3131 3298 2873 
Q 3191 2616 2906 2266 
Q 2828 2175 2409 1742 
Q 1991 1309 1228 531 
z
" transform="scale(0.015625)"/>
       </defs>
       <use xlink:href="#DejaVuSans-30"/>
       <use xlink:href="#DejaVuSans-2e" transform="translate(63.623047 0)"/>
       <use xlink:href="#DejaVuSans-32" transform="translate(95.410156 0)"/>
      </g>
     </g>
    </g>
    <g id="xtick_2">
     <g id="line2d_2">
      <g>
       <use xlink:href="#mac663cb2fd" x="168.305969" y="246.04" style="stroke: #000000; stroke-width: 0.8"/>
      </g>
     </g>
     <g id="text_2">
      <!-- 0.4 -->
      <g transform="translate(160.354407 260.638438) scale(0.1 -0.1)">
       <defs>
        <path id="DejaVuSans-34" d="M 2419 4116 
L 825 1625 
L 2419 1625 
L 2419 4116 
z
M 2253 4666 
L 3047 4666 
L 3047 1625 
L 3713 1625 
L 3713 1100 
L 3047 1100 
L 3047 0 
L 2419 0 
L 2419 1100 
L 313 1100 
L 313 1709 
L 2253 4666 
z
" transform="scale(0.015625)"/>
       </defs>
       <use xlink:href="#DejaVuSans-30"/>
       <use xlink:href="#DejaVuSans-2e" transform="translate(63.623047 0)"/>
       <use xlink:href="#DejaVuSans-34" transform="translate(95.410156 0)"/>
      </g>
     </g>
    </g>
    <g id="xtick_3">
     <g id="line2d_3">
      <g>
       <use xlink:href="#mac663cb2fd" x="228.614031" y="246.04" style="stroke: #000000; stroke-width: 0.8"/>
      </g>
     </g>
     <g id="text_3">
      <!-- 0.6 -->
      <g transform="translate(220.662468 260.638438) scale(0.1 -0.1)">
       <defs>
        <path id="DejaVuSans-36" d="M 2113 2584 
Q 1688 2584 1439 2293 
Q 1191 2003 1191 1497 
Q 1191 994 1439 701 
Q 1688 409 2113 409 
Q 2538 409 2786 701 
Q 3034 994 3034 1497 
Q 3034 2003 2786 2293 
Q 2538 2584 2113 2584 
z
M 3366 4563 
L 3366 3988 
Q 3128 4100 2886 4159 
Q 2644 4219 2406 4219 
Q 1781 4219 1451 3797 
Q 1122 3375 1075 2522 
Q 1259 2794 1537 2939 
Q 1816 3084 2150 3084 
Q 2853 3084 3261 2657 
Q 3669 2231 3669 1497 
Q 3669 778 3244 343 
Q 2819 -91 2113 -91 
Q 1303 -91 875 529 
Q 447 1150 447 2328 
Q 447 3434 972 4092 
Q 1497 4750 2381 4750 
Q 2619 4750 2861 4703 
Q 3103 4656 3366 4563 
z
" transform="scale(0.015625)"/>
       </defs>
       <use xlink:href="#DejaVuSans-30"/>
       <use xlink:href="#DejaVuSans-2e" transform="translate(63.623047 0)"/>
       <use xlink:href="#DejaVuSans-36" transform="translate(95.410156 0)"/>
      </g>
     </g>
    </g>
    <g id="xtick_4">
     <g id="line2d_4">
      <g>
       <use xlink:href="#mac663cb2fd" x="288.922092" y="246.04" style="stroke: #000000; stroke-width: 0.8"/>
      </g>
     </g>
     <g id="text_4">
      <!-- 0.8 -->
      <g transform="translate(280.97053 260.638438) scale(0.1 -0.1)">
       <defs>
        <path id="DejaVuSans-38" d="M 2034 2216 
Q 1584 2216 1326 1975 
Q 1069 1734 1069 1313 
Q 1069 891 1326 650 
Q 1584 409 2034 409 
Q 2484 409 2743 651 
Q 3003 894 3003 1313 
Q 3003 1734 2745 1975 
Q 2488 2216 2034 2216 
z
M 1403 2484 
Q 997 2584 770 2862 
Q 544 3141 544 3541 
Q 544 4100 942 4425 
Q 1341 4750 2034 4750 
Q 2731 4750 3128 4425 
Q 3525 4100 3525 3541 
Q 3525 3141 3298 2862 
Q 3072 2584 2669 2484 
Q 3125 2378 3379 2068 
Q 3634 1759 3634 1313 
Q 3634 634 3220 271 
Q 2806 -91 2034 -91 
Q 1263 -91 848 271 
Q 434 634 434 1313 
Q 434 1759 690 2068 
Q 947 2378 1403 2484 
z
M 1172 3481 
Q 1172 3119 1398 2916 
Q 1625 2713 2034 2713 
Q 2441 2713 2670 2916 
Q 2900 3119 2900 3481 
Q 2900 3844 2670 4047 
Q 2441 4250 2034 4250 
Q 1625 4250 1398 4047 
Q 1172 3844 1172 3481 
z
" transform="scale(0.015625)"/>
       </defs>
       <use xlink:href="#DejaVuSans-30"/>
       <use xlink:href="#DejaVuSans-2e" transform="translate(63.623047 0)"/>
       <use xlink:href="#DejaVuSans-38" transform="translate(95.410156 0)"/>
      </g>
     </g>
    </g>
    <g id="text_5">
     <!-- u -->
     <g transform="translate(195.29125 274.316562) scale(0.1 -0.1)">
      <defs>
       <path id="DejaVuSans-75" d="M 544 1381 
L 544 3500 
L 1119 3500 
L 1119 1403 
Q 1119 906 1312 657 
Q 1506 409 1894 409 
Q 2359 409 2629 706 
Q 2900 1003 2900 1516 
L 2900 3500 
L 3475 3500 
L 3475 0 
L 2900 0 
L 2900 538 
Q 2691 219 2414 64 
Q 2138 -91 1772 -91 
Q 1169 -91 856 284 
Q 544 659 544 1381 
z
M 1991 3584 
L 1991 3584 
z
" transform="scale(0.015625)"/>
      </defs>
      <use xlink:href="#DejaVuSans-75"/>
     </g>
    </g>
   </g>
   <g id="matplotlib.axis_2">
    <g id="ytick_1">
     <g id="line2d_5">
      <defs>
       <path id="m4543a9632b" d="M 0 0 
L -3.5 0 
" style="stroke: #000000; stroke-width: 0.8"/>
      </defs>
      <g>
       <use xlink:href="#m4543a9632b" x="47.72" y="202.221152" style="stroke: #000000; stroke-width: 0.8"/>
      </g>
     </g>
     <g id="text_6">
      <!-- 0.2 -->
      <g transform="translate(24.816875 206.020371) scale(0.1 -0.1)">
       <use xlink:href="#DejaVuSans-30"/>
       <use xlink:href="#DejaVuSans-2e" transform="translate(63.623047 0)"/>
       <use xlink:href="#DejaVuSans-32" transform="translate(95.410156 0)"/>
      </g>
     </g>
    </g>
    <g id="ytick_2">
     <g id="line2d_6">
      <g>
       <use xlink:href="#m4543a9632b" x="47.72" y="158.380384" style="stroke: #000000; stroke-width: 0.8"/>
      </g>
     </g>
     <g id="text_7">
      <!-- 0.4 -->
      <g transform="translate(24.816875 162.179603) scale(0.1 -0.1)">
       <use xlink:href="#DejaVuSans-30"/>
       <use xlink:href="#DejaVuSans-2e" transform="translate(63.623047 0)"/>
       <use xlink:href="#DejaVuSans-34" transform="translate(95.410156 0)"/>
      </g>
     </g>
    </g>
    <g id="ytick_3">
     <g id="line2d_7">
      <g>
       <use xlink:href="#m4543a9632b" x="47.72" y="114.539616" style="stroke: #000000; stroke-width: 0.8"/>
      </g>
     </g>
     <g id="text_8">
      <!-- 0.6 -->
      <g transform="translate(24.816875 118.338835) scale(0.1 -0.1)">
       <use xlink:href="#DejaVuSans-30"/>
       <use xlink:href="#DejaVuSans-2e" transform="translate(63.623047 0)"/>
       <use xlink:href="#DejaVuSans-36" transform="translate(95.410156 0)"/>
      </g>
     </g>
    </g>
    <g id="ytick_4">
     <g id="line2d_8">
      <g>
       <use xlink:href="#m4543a9632b" x="47.72" y="70.698848" style="stroke: #000000; stroke-width: 0.8"/>
      </g>
     </g>
     <g id="text_9">
      <!-- 0.8 -->
      <g transform="translate(24.816875 74.498067) scale(0.1 -0.1)">
       <use xlink:href="#DejaVuSans-30"/>
       <use xlink:href="#DejaVuSans-2e" transform="translate(63.623047 0)"/>
       <use xlink:href="#DejaVuSans-38" transform="translate(95.410156 0)"/>
      </g>
     </g>
    </g>
    <g id="text_10">
     <!-- v -->
     <g transform="translate(18.737188 139.419375) rotate(-90) scale(0.1 -0.1)">
      <defs>
       <path id="DejaVuSans-76" d="M 191 3500 
L 800 3500 
L 1894 563 
L 2988 3500 
L 3597 3500 
L 2284 0 
L 1503 0 
L 191 3500 
z
" transform="scale(0.015625)"/>
      </defs>
      <use xlink:href="#DejaVuSans-76"/>
     </g>
    </g>
   </g>
   <g id="QuadContourSet_1">
    <path d="M 265.05548 246.035835 
L 319.829456 245.918185 
L 329.331691 245.705065 
L 336.242407 245.283644 
L 338.833926 245.03303 
L 342.289284 244.380755 
L 344.016963 243.75802 
L 344.880802 243.279076 
L 345.744642 242.589009 
L 346.060872 242.272206 
L 346.917516 241.016275 
L 347.414252 239.760344 
L 348.070422 237.248481 
L 348.684199 232.224756 
L 348.921769 228.456963 
L 349.083717 221.549341 
L 349.172931 205.222235 
L 349.2 168.059174 
M 131.86452 26.884165 
L 77.090544 27.001815 
L 67.588309 27.214935 
L 60.677593 27.636356 
L 58.086074 27.88697 
L 54.630716 28.539245 
L 52.903037 29.16198 
L 52.039198 29.640924 
L 51.175358 30.330991 
L 50.859128 30.647794 
L 50.002484 31.903725 
L 49.505748 33.159656 
L 48.849578 35.671519 
L 48.235801 40.695244 
L 47.998231 44.463037 
L 47.836283 51.370659 
L 47.747069 67.697765 
L 47.72 104.860826 
L 47.72 104.860826 
" clip-path="url(#pfa7308bb9e)" style="fill: none; stroke: #440154; stroke-width: 1.5"/>
    <path d="M 151.860438 238.097565 
L 166.929857 236.962758 
L 181.615129 235.63397 
L 194.572722 234.236531 
L 206.666476 232.696223 
L 217.03255 231.151696 
L 226.534785 229.512245 
L 235.173181 227.795117 
L 242.947736 226.026819 
L 249.858453 224.24129 
L 256.769169 222.213584 
L 262.816046 220.202874 
L 267.999083 218.270113 
L 273.18212 216.109214 
L 277.685969 214.013754 
L 281.820516 211.882671 
L 286.139713 209.407508 
L 289.757916 207.106132 
L 293.333532 204.594269 
L 296.571741 202.082407 
L 300.215157 198.942579 
L 303.473355 195.802751 
L 306.405398 192.662923 
L 309.055864 189.523095 
L 311.917869 185.755301 
L 314.482908 181.987507 
L 316.793617 178.219713 
L 319.213346 173.823954 
L 321.557135 169.043555 
L 323.58927 164.40447 
L 325.558586 159.380745 
L 327.604011 153.500238 
L 329.462997 147.449398 
L 331.168529 141.169742 
L 332.822492 134.26212 
L 334.403484 126.726533 
L 335.8946 118.56298 
L 337.374454 109.143496 
L 338.71389 99.096046 
L 339.904712 88.42063 
L 340.877668 77.745215 
L 341.627675 67.069799 
L 342.031016 58.278281 
L 342.130029 51.998625 
L 341.991719 46.9749 
L 341.719293 43.835072 
L 341.308105 41.323209 
L 340.790422 39.439312 
L 340.28007 38.183381 
L 339.551854 36.92745 
L 338.439149 35.671519 
L 337.106246 34.702569 
L 336.242407 34.252615 
L 334.514728 33.604397 
L 331.923209 32.993318 
L 328.467851 32.523092 
L 324.148653 32.221309 
L 318.101777 32.045244 
L 309.463381 32.044281 
L 297.369628 32.284289 
L 281.820516 32.821425 
L 264.543725 33.637182 
L 247.266934 34.673065 
L 231.717822 35.816306 
L 217.03255 37.11678 
L 204.074957 38.483063 
L 191.981203 39.987925 
L 181.615129 41.49455 
L 172.112894 43.091866 
L 163.474499 44.761645 
L 155.699943 46.479595 
L 148.717748 48.230831 
L 141.87851 50.174357 
L 135.831633 52.117488 
L 129.784756 54.31278 
L 124.601719 56.433517 
L 119.418682 58.815865 
L 115.099484 61.037329 
L 110.780287 63.512492 
L 107.162084 65.813868 
L 103.586468 68.325731 
L 100.348259 70.837593 
L 96.704843 73.977421 
L 93.446645 77.117249 
L 90.514602 80.257077 
L 87.864136 83.396905 
L 85.002131 87.164699 
L 82.437092 90.932493 
L 80.126383 94.700287 
L 77.706654 99.096046 
L 75.362865 103.876445 
L 73.33073 108.51553 
L 71.361414 113.539255 
L 69.315989 119.419762 
L 67.457003 125.470602 
L 65.751471 131.750258 
L 64.097508 138.65788 
L 62.516516 146.193467 
L 61.0254 154.35702 
L 59.545546 163.776504 
L 58.20611 173.823954 
L 57.015288 184.49937 
L 56.042332 195.174785 
L 55.292325 205.850201 
L 54.888984 214.641719 
L 54.789971 220.921375 
L 54.928281 225.9451 
L 55.200707 229.084928 
L 55.611895 231.596791 
L 56.129578 233.480688 
L 56.63993 234.736619 
L 57.368146 235.99255 
L 58.480851 237.248481 
L 59.813754 238.217431 
L 60.677593 238.667385 
L 62.405272 239.315603 
L 64.996791 239.926682 
L 68.452149 240.396908 
L 72.771347 240.698691 
L 78.818223 240.874756 
L 87.456619 240.875719 
L 99.550372 240.635711 
L 115.099484 240.098575 
L 124.976431 239.658787 
L 124.976431 239.658787 
" clip-path="url(#pfa7308bb9e)" style="fill: none; stroke: #46327e; stroke-width: 1.5"/>
    <path d="M 227.005153 44.284816 
L 216.168711 45.829597 
L 205.352516 47.602865 
L 196.300401 49.292474 
L 187.662006 51.107762 
L 179.02361 53.153864 
L 171.249054 55.225909 
L 164.338338 57.281617 
L 157.427622 59.571881 
L 151.380745 61.79876 
L 145.333868 64.267568 
L 140.150831 66.60601 
L 134.967794 69.181397 
L 129.784756 72.030691 
L 125.465559 74.64645 
L 120.817064 77.745215 
L 116.554962 80.885043 
L 112.507966 84.173253 
L 109.052607 87.253579 
L 105.597249 90.623036 
L 102.367734 94.072321 
L 99.150936 97.840115 
L 96.095014 101.774325 
L 93.110404 106.003668 
L 90.296419 110.399427 
L 87.738707 114.795186 
L 85.089504 119.818911 
L 82.69551 124.842636 
L 80.267821 130.494327 
L 77.954384 136.505152 
L 75.911903 142.425673 
L 73.970013 148.70533 
L 72.069467 155.612951 
L 70.389079 162.520573 
L 68.782954 170.05616 
L 67.396908 177.591748 
L 66.226325 185.127335 
L 65.280169 192.662923 
L 64.640861 199.570544 
L 64.323542 205.222235 
L 64.258194 210.24596 
L 64.404292 214.013754 
L 64.712125 217.153582 
L 65.13494 219.665444 
L 65.791573 222.177307 
L 66.512392 224.061203 
L 67.147547 225.317135 
L 67.953436 226.573066 
L 68.997514 227.828997 
L 70.388323 229.084928 
L 71.907507 230.104927 
L 73.635186 230.980415 
L 76.226705 231.917202 
L 78.818223 232.572048 
L 82.273582 233.165651 
L 86.592779 233.62363 
L 91.775817 233.911403 
L 97.822693 234.021982 
L 105.597249 233.932757 
L 115.099484 233.591535 
L 126.329398 232.952701 
L 138.423152 232.036983 
L 150.516905 230.907513 
L 162.610659 229.56078 
L 173.840573 228.10035 
L 185.070487 226.411863 
L 195.436562 224.619608 
L 204.938797 222.746571 
L 213.577192 220.820343 
L 221.351748 218.874349 
L 229.126304 216.693399 
L 236.03702 214.524824 
L 242.875617 212.129857 
L 248.130774 210.094884 
L 254.17765 207.51081 
L 259.360688 205.058041 
L 264.543725 202.35083 
L 269.361635 199.570544 
L 273.333567 197.058682 
L 277.85818 193.918854 
L 281.957746 190.779026 
L 285.689605 187.639198 
L 289.100479 184.49937 
L 292.229448 181.359542 
L 295.65839 177.591748 
L 298.776288 173.823954 
L 301.688825 169.963452 
L 304.641815 165.660401 
L 307.37905 161.264642 
L 309.869525 156.868883 
L 312.451584 151.845158 
L 314.786975 146.821433 
L 317.157187 141.169742 
L 319.28921 135.518052 
L 321.414139 129.238395 
L 323.3133 122.958739 
L 325.171749 116.051117 
L 326.953917 108.51553 
L 328.5044 100.979943 
L 329.937225 92.81639 
L 331.05937 85.104456 
L 331.901495 77.745215 
L 332.408288 71.465559 
L 332.649351 65.813868 
L 332.635296 61.418109 
L 332.416594 57.650315 
L 332.021373 54.510487 
L 331.489839 51.998625 
L 330.913592 50.114728 
L 330.110628 48.230831 
L 329.331691 46.873358 
L 328.467851 45.699816 
L 327.279459 44.463037 
L 325.649276 43.207106 
L 324.148653 42.347626 
L 322.420974 41.588637 
L 319.829456 40.756963 
L 317.237937 40.17325 
L 313.782579 39.641549 
L 309.463381 39.232375 
L 304.280344 38.980176 
L 297.369628 38.898869 
L 288.731232 39.058932 
L 278.365158 39.500709 
L 267.135244 40.206448 
L 255.04149 41.184071 
L 253.743403 41.301383 
L 253.743403 41.301383 
" clip-path="url(#pfa7308bb9e)" style="fill: none; stroke: #365c8d; stroke-width: 1.5"/>
    <path d="M 181.915544 217.916408 
L 190.253524 216.158105 
L 198.89192 214.113166 
L 206.666476 212.05415 
L 214.441032 209.760011 
L 221.351748 207.496332 
L 228.262464 204.991277 
L 234.309341 202.573562 
L 240.356218 199.914906 
L 246.249999 197.058682 
L 250.986963 194.546819 
L 255.90533 191.706889 
L 260.373826 188.895129 
L 264.950355 185.755301 
L 269.14419 182.615473 
L 273.18212 179.321919 
L 277.238837 175.707851 
L 280.956676 172.088407 
L 284.412034 168.422472 
L 287.882785 164.40447 
L 291.345395 160.008711 
L 294.500077 155.612951 
L 297.383291 151.217192 
L 300.383056 146.193467 
L 303.10424 141.169742 
L 305.577174 136.146017 
L 308.093987 130.494327 
L 310.35846 124.842636 
L 312.392111 119.190946 
L 314.404117 112.911289 
L 316.170316 106.631633 
L 317.69805 100.351977 
L 318.986603 94.072321 
L 319.925607 88.42063 
L 320.629785 82.76894 
L 320.98191 78.373181 
L 321.121516 73.977421 
L 321.021397 70.209628 
L 320.693295 66.776208 
L 320.317871 64.557937 
L 319.690922 62.046074 
L 318.965616 59.999395 
L 318.101777 58.178991 
L 316.979542 56.394384 
L 315.969756 55.138453 
L 314.646418 53.822548 
L 312.918739 52.495539 
L 311.007028 51.370659 
L 308.599542 50.302567 
L 306.008023 49.447562 
L 302.552665 48.636527 
L 299.097307 48.081019 
L 294.778109 47.636799 
L 289.595072 47.364353 
L 283.548195 47.295015 
L 276.637479 47.451946 
L 268.862923 47.854334 
L 260.224527 48.521388 
L 250.662025 49.486762 
L 240.356218 50.771586 
L 229.990143 52.312949 
L 220.487908 53.951983 
L 210.985673 55.825787 
L 202.347278 57.754229 
L 193.708883 59.923618 
L 185.934327 62.109308 
L 179.02361 64.263647 
L 172.112894 66.643948 
L 166.024561 68.953696 
L 159.993504 71.465559 
L 153.972264 74.226614 
L 148.253046 77.117249 
L 143.606189 79.685426 
L 138.423152 82.815024 
L 133.751481 85.908768 
L 129.410546 89.048596 
L 125.423695 92.188424 
L 121.146361 95.868803 
L 117.691003 99.110301 
L 114.011703 102.86384 
L 110.625868 106.631633 
L 107.324928 110.63741 
L 104.18728 114.795186 
L 101.152827 119.190946 
L 98.377065 123.586705 
L 95.485543 128.61043 
L 92.860709 133.634155 
L 90.474127 138.65788 
L 88.044472 144.30957 
L 85.72894 150.317481 
L 83.692752 156.240917 
L 81.78074 162.520573 
L 80.110306 168.800229 
L 78.677013 175.079885 
L 77.490239 181.359542 
L 76.651124 187.011232 
L 76.116049 192.034957 
L 75.849065 196.430716 
L 75.806245 200.19851 
L 75.988501 203.966304 
L 76.371344 207.106132 
L 76.884461 209.617994 
L 77.648626 212.129857 
L 78.446076 214.013754 
L 79.50874 215.89765 
L 80.545903 217.311742 
L 81.541575 218.409513 
L 83.137421 219.805333 
L 84.8651 220.970672 
L 87.239051 222.177307 
L 89.184298 222.931269 
L 91.775817 223.70377 
L 95.231175 224.442724 
L 98.686533 224.946584 
L 103.005731 225.345918 
L 108.188768 225.579983 
L 114.235645 225.617602 
L 121.146361 225.434215 
L 128.920917 225.008605 
L 137.559312 224.320736 
L 147.061547 223.341567 
L 155.316518 222.316385 
L 155.316518 222.316385 
" clip-path="url(#pfa7308bb9e)" style="fill: none; stroke: #277f8e; stroke-width: 1.5"/>
    <path d="M 202.341843 68.119082 
L 195.334419 70.209628 
L 188.525845 72.456306 
L 181.615129 74.976475 
L 175.568252 77.403231 
L 169.521375 80.06196 
L 163.896582 82.76894 
L 158.291461 85.719488 
L 153.108424 88.701711 
L 147.925387 91.960657 
L 143.606189 94.915684 
L 139.286991 98.116767 
L 134.953325 101.607908 
L 130.648596 105.392312 
L 126.738142 109.143496 
L 123.126376 112.911289 
L 119.798266 116.679083 
L 116.724628 120.446877 
L 113.371805 124.922476 
L 110.415495 129.238395 
L 107.656161 133.634155 
L 105.129129 138.029914 
L 102.50196 143.053639 
L 100.132229 148.077364 
L 98.003464 153.101089 
L 96.095014 158.15088 
L 94.367335 163.352579 
L 92.982884 168.172264 
L 91.767472 173.195989 
L 90.807961 178.219713 
L 90.204173 182.615473 
L 89.892138 186.383266 
L 89.810383 190.15106 
L 89.958303 193.290888 
L 90.256259 195.802751 
L 90.752431 198.314613 
L 91.505062 200.826476 
L 92.286908 202.710372 
L 93.312649 204.594269 
L 94.367335 206.105845 
L 95.810942 207.734097 
L 97.216895 208.990029 
L 98.977002 210.24596 
L 101.242711 211.501891 
L 103.005731 212.272096 
L 105.597249 213.167753 
L 108.188768 213.849529 
L 111.644126 214.510749 
L 115.099484 214.957753 
L 119.418682 215.293242 
L 124.601719 215.44252 
L 130.648596 215.356143 
L 136.695473 215.04825 
L 143.606189 214.478205 
L 151.380745 213.599599 
L 159.155301 212.497593 
L 166.929857 211.185905 
L 174.945366 209.617994 
L 183.342942 207.734097 
L 191.117364 205.757346 
L 198.89192 203.539119 
L 205.802636 201.345201 
L 212.713352 198.919066 
L 219.624069 196.232713 
L 225.670946 193.642916 
L 231.762756 190.779026 
L 236.90086 188.138843 
L 242.279296 185.127335 
L 247.40987 181.987507 
L 252.449971 178.614062 
L 256.769169 175.464599 
L 261.213976 171.940057 
L 265.564664 168.172264 
L 269.726762 164.229936 
L 273.212582 160.636676 
L 276.637479 156.808824 
L 280.195372 152.473123 
L 283.548195 147.997524 
L 286.504505 143.681605 
L 289.263839 139.285845 
L 291.790871 134.890086 
L 294.41804 129.866361 
L 296.787771 124.842636 
L 298.916536 119.818911 
L 300.824986 114.76912 
L 302.552665 109.567421 
L 303.937116 104.747736 
L 305.152528 99.724011 
L 306.112039 94.700287 
L 306.715827 90.304527 
L 307.027862 86.536734 
L 307.109617 82.76894 
L 306.961697 79.629112 
L 306.663741 77.117249 
L 306.167569 74.605387 
L 305.414938 72.093524 
L 304.633092 70.209628 
L 303.607351 68.325731 
L 302.552665 66.814155 
L 301.109058 65.185903 
L 299.703105 63.929971 
L 297.942998 62.67404 
L 295.677289 61.418109 
L 293.914269 60.647904 
L 291.322751 59.752247 
L 288.731232 59.070471 
L 285.275874 58.409251 
L 281.820516 57.962247 
L 277.501318 57.626758 
L 272.318281 57.47748 
L 266.271404 57.563857 
L 260.224527 57.87175 
L 253.313811 58.441795 
L 245.539255 59.320401 
L 237.764699 60.422407 
L 229.990143 61.734095 
L 228.43132 62.021381 
L 228.43132 62.021381 
" clip-path="url(#pfa7308bb9e)" style="fill: none; stroke: #1fa187; stroke-width: 1.5"/>
    <path d="M 232.928393 175.74214 
L 236.984897 173.195989 
L 242.083897 169.724211 
L 246.700497 166.288367 
L 250.722292 163.037055 
L 255.04149 159.238655 
L 258.82404 155.612951 
L 262.439853 151.845158 
L 265.765182 148.077364 
L 268.862923 144.262947 
L 272.090721 139.913811 
L 274.909799 135.739451 
L 277.501318 131.517449 
L 279.814736 127.354499 
L 282.008454 122.958739 
L 283.950835 118.56298 
L 285.642919 114.167221 
L 287.0781 109.771461 
L 288.08937 106.003668 
L 288.882796 102.235874 
L 289.429854 98.46808 
L 289.669229 95.328252 
L 289.67358 92.188424 
L 289.474063 89.676562 
L 289.053246 87.164699 
L 288.562459 85.280802 
L 287.867393 83.353813 
L 286.975429 81.513009 
L 285.764185 79.629112 
L 284.412034 78.012136 
L 283.503282 77.117249 
L 281.820516 75.754064 
L 280.036048 74.605387 
L 277.501318 73.345294 
L 274.909799 72.381554 
L 272.318281 71.65353 
L 268.862923 70.960283 
L 265.407564 70.51038 
L 261.088367 70.206371 
L 256.769169 70.132393 
L 251.586132 70.28246 
L 246.403095 70.648382 
L 240.356218 71.304193 
L 234.309341 72.176592 
L 227.398625 73.414665 
L 220.487908 74.895748 
L 213.577192 76.613329 
L 206.666476 78.572183 
L 199.755759 80.781628 
L 193.708883 82.934364 
L 187.662006 85.307178 
L 181.615129 87.921541 
L 175.568252 90.801494 
L 170.385215 93.50506 
L 164.97912 96.584183 
L 159.935103 99.724011 
L 154.836103 103.195789 
L 150.219503 106.631633 
L 146.197708 109.882945 
L 141.87851 113.681345 
L 138.09596 117.307049 
L 134.480147 121.074842 
L 131.154818 124.842636 
L 128.057077 128.657053 
L 124.829279 133.006189 
L 122.010201 137.180549 
L 119.418682 141.402551 
L 117.105264 145.565501 
L 114.911546 149.961261 
L 112.969165 154.35702 
L 111.277081 158.752779 
L 109.8419 163.148539 
L 108.83063 166.916332 
L 108.037204 170.684126 
L 107.490146 174.45192 
L 107.250771 177.591748 
L 107.24642 180.731576 
L 107.445937 183.243438 
L 107.866754 185.755301 
L 108.357541 187.639198 
L 109.052607 189.566187 
L 109.944571 191.406991 
L 111.155815 193.290888 
L 112.507966 194.907864 
L 113.416718 195.802751 
L 115.099484 197.165936 
L 116.883952 198.314613 
L 119.418682 199.574706 
L 122.010201 200.538446 
L 124.601719 201.26647 
L 128.057077 201.959717 
L 131.512436 202.40962 
L 135.831633 202.713629 
L 140.150831 202.787607 
L 145.333868 202.63754 
L 150.516905 202.271618 
L 156.563782 201.615807 
L 162.610659 200.743408 
L 169.521375 199.505335 
L 176.432092 198.024252 
L 183.342808 196.306671 
L 190.253524 194.347817 
L 197.164241 192.138372 
L 203.211117 189.985636 
L 209.247955 187.616951 
L 209.247955 187.616951 
" clip-path="url(#pfa7308bb9e)" style="fill: none; stroke: #4ac16d; stroke-width: 1.5"/>
    <path d="M 158.36656 119.827132 
L 154.836103 123.029841 
L 151.115517 126.726533 
L 147.677885 130.494327 
L 144.570132 134.26212 
L 141.87851 137.879876 
L 139.668277 141.169742 
L 137.405466 144.937536 
L 135.430412 148.70533 
L 134.005213 151.845158 
L 132.79246 154.984986 
L 131.802061 158.124814 
L 131.056611 161.264642 
L 130.648596 163.83017 
L 130.455476 166.288367 
L 130.486243 168.800229 
L 130.687485 170.684126 
L 131.075568 172.568023 
L 131.682066 174.45192 
L 132.566999 176.335817 
L 133.350314 177.591748 
L 134.333224 178.847679 
L 135.831633 180.336698 
L 137.559312 181.642424 
L 139.286991 182.655718 
L 141.01467 183.453411 
L 143.606189 184.360724 
L 146.197708 185.004023 
L 148.789226 185.444915 
L 152.244585 185.789694 
L 155.699943 185.907216 
L 160.01914 185.80138 
L 164.338338 185.458696 
L 168.657536 184.916793 
L 173.840573 184.033297 
L 179.02361 182.918263 
L 184.206648 181.587256 
L 189.389685 180.047498 
L 194.792025 178.219713 
L 200.619599 175.988662 
L 205.802636 173.769124 
L 210.985673 171.31184 
L 216.168711 168.596209 
L 221.250479 165.660401 
L 225.670946 162.859306 
L 229.990143 159.874928 
L 234.309341 156.611365 
L 237.815899 153.729054 
L 241.338416 150.589226 
L 244.675415 147.354096 
L 248.135418 143.681605 
L 251.348843 139.913811 
L 254.248471 136.146017 
L 256.847877 132.378223 
L 259.157138 128.61043 
L 261.088367 125.027515 
L 262.646039 121.702808 
L 263.902588 118.56298 
L 264.938464 115.423152 
L 265.735255 112.283324 
L 266.26542 109.143496 
L 266.464524 106.631633 
L 266.433757 104.119771 
L 266.232515 102.235874 
L 265.844432 100.351977 
L 265.237934 98.46808 
L 264.353001 96.584183 
L 263.569686 95.328252 
L 262.586776 94.072321 
L 261.088367 92.583302 
L 259.360688 91.277576 
L 257.633009 90.264282 
L 255.90533 89.466589 
L 253.313811 88.559276 
L 250.722292 87.915977 
L 248.130774 87.475085 
L 244.675415 87.130306 
L 241.220057 87.012784 
L 236.90086 87.11862 
L 232.581662 87.461304 
L 228.262464 88.003207 
L 223.079427 88.886703 
L 217.89639 90.001737 
L 212.713352 91.332744 
L 207.530315 92.872502 
L 202.127975 94.700287 
L 196.300401 96.931338 
L 191.117364 99.150876 
L 185.934327 101.60816 
L 180.751289 104.323791 
L 179.811848 104.844992 
L 179.811848 104.844992 
" clip-path="url(#pfa7308bb9e)" style="fill: none; stroke: #a0da39; stroke-width: 1.5"/>
    <path d="M 176.494764 136.866558 
L 175.171553 138.65788 
L 173.840573 140.773288 
L 172.976734 142.434429 
L 172.112894 144.637227 
L 171.709796 146.193467 
L 171.495771 148.077364 
L 171.556602 149.333295 
L 171.82071 150.589226 
L 172.349723 151.845158 
L 173.258055 153.101089 
L 173.916026 153.729054 
L 174.792377 154.35702 
L 176.432092 155.152972 
L 178.159771 155.663699 
L 179.88745 155.941728 
L 182.478968 156.061567 
L 185.070487 155.905982 
L 187.662006 155.53621 
L 191.117364 154.756936 
L 194.572722 153.698577 
L 198.02808 152.374827 
L 201.483438 150.794497 
L 204.938797 148.950247 
L 208.394155 146.821433 
L 208.394155 146.821433 
L 211.849513 144.356691 
L 214.441032 142.242522 
L 217.03255 139.84126 
L 219.309165 137.401948 
L 220.838738 135.518052 
L 222.215587 133.568675 
L 223.629558 131.122292 
L 224.470816 129.238395 
L 225.070882 127.354499 
L 225.389922 125.470602 
L 225.416772 124.21467 
L 225.259377 122.958739 
L 224.807106 121.548364 
L 224.174351 120.446877 
L 223.661945 119.818911 
L 223.003974 119.190946 
L 222.127623 118.56298 
L 220.487908 117.767028 
L 218.760229 117.256301 
L 217.03255 116.978272 
L 214.441032 116.858433 
L 211.849513 117.014018 
L 209.257994 117.38379 
L 205.802636 118.163064 
L 202.347278 119.221423 
L 198.89192 120.545173 
L 197.179933 121.296677 
L 197.179933 121.296677 
" clip-path="url(#pfa7308bb9e)" style="fill: none; stroke: #fde725; stroke-width: 1.5"/>
   </g>
   <g id="patch_3">
    <path d="M 47.72 246.04 
L 47.72 26.88 
" style="fill: none; stroke: #000000; stroke-width: 0.8; stroke-linejoin: miter; stroke-linecap: square"/>
   </g>
   <g id="patch_4">
    <path d="M 349.2 246.04 
L 349.2 26.88 
" style="fill: none; stroke: #000000; stroke-width: 0.8; stroke-linejoin: miter; stroke-linecap: square"/>
   </g>
   <g id="patch_5">
    <path d="M 47.72 246.04 
L 349.2 246.04 
" style="fill: none; stroke: #000000; stroke-width: 0.8; stroke-linejoin: miter; stroke-linecap: square"/>
   </g>
   <g id="patch_6">
    <path d="M 47.72 26.88 
L 349.2 26.88 
" style="fill: none; stroke: #000000; stroke-width: 0.8; stroke-linejoin: miter; stroke-linecap: square"/>
   </g>
   <g id="text_11">
    <!-- Gaussian copula (ρ=0.6) — pseudo-density contours -->
    <g transform="translate(40.036562 20.88) scale(0.12 -0.12)">
     <defs>
      <path id="DejaVuSans-47" d="M 3809 666 
L 3809 1919 
L 2778 1919 
L 2778 2438 
L 4434 2438 
L 4434 434 
Q 4069 175 3628 42 
Q 3188 -91 2688 -91 
Q 1594 -91 976 548 
Q 359 1188 359 2328 
Q 359 3472 976 4111 
Q 1594 4750 2688 4750 
Q 3144 4750 3555 4637 
Q 3966 4525 4313 4306 
L 4313 3634 
Q 3963 3931 3569 4081 
Q 3175 4231 2741 4231 
Q 1884 4231 1454 3753 
Q 1025 3275 1025 2328 
Q 1025 1384 1454 906 
Q 1884 428 2741 428 
Q 3075 428 3337 486 
Q 3600 544 3809 666 
z
" transform="scale(0.015625)"/>
      <path id="DejaVuSans-61" d="M 2194 1759 
Q 1497 1759 1228 1600 
Q 959 1441 959 1056 
Q 959 750 1161 570 
Q 1363 391 1709 391 
Q 2188 391 2477 730 
Q 2766 1069 2766 1631 
L 2766 1759 
L 2194 1759 
z
M 3341 1997 
L 3341 0 
L 2766 0 
L 2766 531 
Q 2569 213 2275 61 
Q 1981 -91 1556 -91 
Q 1019 -91 701 211 
Q 384 513 384 1019 
Q 384 1609 779 1909 
Q 1175 2209 1959 2209 
L 2766 2209 
L 2766 2266 
Q 2766 2663 2505 2880 
Q 2244 3097 1772 3097 
Q 1472 3097 1187 3025 
Q 903 2953 641 2809 
L 641 3341 
Q 956 3463 1253 3523 
Q 1550 3584 1831 3584 
Q 2591 3584 2966 3190 
Q 3341 2797 3341 1997 
z
" transform="scale(0.015625)"/>
      <path id="DejaVuSans-73" d="M 2834 3397 
L 2834 2853 
Q 2591 2978 2328 3040 
Q 2066 3103 1784 3103 
Q 1356 3103 1142 2972 
Q 928 2841 928 2578 
Q 928 2378 1081 2264 
Q 1234 2150 1697 2047 
L 1894 2003 
Q 2506 1872 2764 1633 
Q 3022 1394 3022 966 
Q 3022 478 2636 193 
Q 2250 -91 1575 -91 
Q 1294 -91 989 -36 
Q 684 19 347 128 
L 347 722 
Q 666 556 975 473 
Q 1284 391 1588 391 
Q 1994 391 2212 530 
Q 2431 669 2431 922 
Q 2431 1156 2273 1281 
Q 2116 1406 1581 1522 
L 1381 1569 
Q 847 1681 609 1914 
Q 372 2147 372 2553 
Q 372 3047 722 3315 
Q 1072 3584 1716 3584 
Q 2034 3584 2315 3537 
Q 2597 3491 2834 3397 
z
" transform="scale(0.015625)"/>
      <path id="DejaVuSans-69" d="M 603 3500 
L 1178 3500 
L 1178 0 
L 603 0 
L 603 3500 
z
M 603 4863 
L 1178 4863 
L 1178 4134 
L 603 4134 
L 603 4863 
z
" transform="scale(0.015625)"/>
      <path id="DejaVuSans-6e" d="M 3513 2113 
L 3513 0 
L 2938 0 
L 2938 2094 
Q 2938 2591 2744 2837 
Q 2550 3084 2163 3084 
Q 1697 3084 1428 2787 
Q 1159 2491 1159 1978 
L 1159 0 
L 581 0 
L 581 3500 
L 1159 3500 
L 1159 2956 
Q 1366 3272 1645 3428 
Q 1925 3584 2291 3584 
Q 2894 3584 3203 3211 
Q 3513 2838 3513 2113 
z
" transform="scale(0.015625)"/>
      <path id="DejaVuSans-20" transform="scale(0.015625)"/>
      <path id="DejaVuSans-63" d="M 3122 3366 
L 3122 2828 
Q 2878 2963 2633 3030 
Q 2388 3097 2138 3097 
Q 1578 3097 1268 2742 
Q 959 2388 959 1747 
Q 959 1106 1268 751 
Q 1578 397 2138 397 
Q 2388 397 2633 464 
Q 2878 531 3122 666 
L 3122 134 
Q 2881 22 2623 -34 
Q 2366 -91 2075 -91 
Q 1284 -91 818 406 
Q 353 903 353 1747 
Q 353 2603 823 3093 
Q 1294 3584 2113 3584 
Q 2378 3584 2631 3529 
Q 2884 3475 3122 3366 
z
" transform="scale(0.015625)"/>
      <path id="DejaVuSans-6f" d="M 1959 3097 
Q 1497 3097 1228 2736 
Q 959 2375 959 1747 
Q 959 1119 1226 758 
Q 1494 397 1959 397 
Q 2419 397 2687 759 
Q 2956 1122 2956 1747 
Q 2956 2369 2687 2733 
Q 2419 3097 1959 3097 
z
M 1959 3584 
Q 2709 3584 3137 3096 
Q 3566 2609 3566 1747 
Q 3566 888 3137 398 
Q 2709 -91 1959 -91 
Q 1206 -91 779 398 
Q 353 888 353 1747 
Q 353 2609 779 3096 
Q 1206 3584 1959 3584 
z
" transform="scale(0.015625)"/>
      <path id="DejaVuSans-70" d="M 1159 525 
L 1159 -1331 
L 581 -1331 
L 581 3500 
L 1159 3500 
L 1159 2969 
Q 1341 3281 1617 3432 
Q 1894 3584 2278 3584 
Q 2916 3584 3314 3078 
Q 3713 2572 3713 1747 
Q 3713 922 3314 415 
Q 2916 -91 2278 -91 
Q 1894 -91 1617 61 
Q 1341 213 1159 525 
z
M 3116 1747 
Q 3116 2381 2855 2742 
Q 2594 3103 2138 3103 
Q 1681 3103 1420 2742 
Q 1159 2381 1159 1747 
Q 1159 1113 1420 752 
Q 1681 391 2138 391 
Q 2594 391 2855 752 
Q 3116 1113 3116 1747 
z
" transform="scale(0.015625)"/>
      <path id="DejaVuSans-6c" d="M 603 4863 
L 1178 4863 
L 1178 0 
L 603 0 
L 603 4863 
z
" transform="scale(0.015625)"/>
      <path id="DejaVuSans-28" d="M 1984 4856 
Q 1566 4138 1362 3434 
Q 1159 2731 1159 2009 
Q 1159 1288 1364 580 
Q 1569 -128 1984 -844 
L 1484 -844 
Q 1016 -109 783 600 
Q 550 1309 550 2009 
Q 550 2706 781 3412 
Q 1013 4119 1484 4856 
L 1984 4856 
z
" transform="scale(0.015625)"/>
      <path id="DejaVuSans-3c1" d="M 863 2875 
Q 1053 3194 1525 3475 
Q 1709 3584 2278 3584 
Q 2916 3584 3314 3078 
Q 3713 2572 3713 1747 
Q 3713 922 3314 415 
Q 2916 -91 2278 -91 
Q 1894 -91 1617 61 
Q 1341 213 1159 525 
L 1159 -1331 
L 581 -1331 
L 581 1716 
Q 581 2438 863 2875 
z
M 3116 1747 
Q 3116 2381 2855 2742 
Q 2594 3103 2138 3103 
Q 1681 3103 1420 2742 
Q 1159 2381 1159 1747 
Q 1159 1113 1420 752 
Q 1681 391 2138 391 
Q 2594 391 2855 752 
Q 3116 1113 3116 1747 
z
" transform="scale(0.015625)"/>
      <path id="DejaVuSans-3d" d="M 678 2906 
L 4684 2906 
L 4684 2381 
L 678 2381 
L 678 2906 
z
M 678 1631 
L 4684 1631 
L 4684 1100 
L 678 1100 
L 678 1631 
z
" transform="scale(0.015625)"/>
      <path id="DejaVuSans-29" d="M 513 4856 
L 1013 4856 
Q 1481 4119 1714 3412 
Q 1947 2706 1947 2009 
Q 1947 1309 1714 600 
Q 1481 -109 1013 -844 
L 513 -844 
Q 928 -128 1133 580 
Q 1338 1288 1338 2009 
Q 1338 2731 1133 3434 
Q 928 4138 513 4856 
z
" transform="scale(0.015625)"/>
      <path id="DejaVuSans-2014" d="M 313 1978 
L 6088 1978 
L 6088 1528 
L 313 1528 
L 313 1978 
z
" transform="scale(0.015625)"/>
      <path id="DejaVuSans-65" d="M 3597 1894 
L 3597 1613 
L 953 1613 
Q 991 1019 1311 708 
Q 1631 397 2203 397 
Q 2534 397 2845 478 
Q 3156 559 3463 722 
L 3463 178 
Q 3153 47 2828 -22 
Q 2503 -91 2169 -91 
Q 1331 -91 842 396 
Q 353 884 353 1716 
Q 353 2575 817 3079 
Q 1281 3584 2069 3584 
Q 2775 3584 3186 3129 
Q 3597 2675 3597 1894 
z
M 3022 2063 
Q 3016 2534 2758 2815 
Q 2500 3097 2075 3097 
Q 1594 3097 1305 2825 
Q 1016 2553 972 2059 
L 3022 2063 
z
" transform="scale(0.015625)"/>
      <path id="DejaVuSans-64" d="M 2906 2969 
L 2906 4863 
L 3481 4863 
L 3481 0 
L 2906 0 
L 2906 525 
Q 2725 213 2448 61 
Q 2172 -91 1784 -91 
Q 1150 -91 751 415 
Q 353 922 353 1747 
Q 353 2572 751 3078 
Q 1150 3584 1784 3584 
Q 2172 3584 2448 3432 
Q 2725 3281 2906 2969 
z
M 947 1747 
Q 947 1113 1208 752 
Q 1469 391 1925 391 
Q 2381 391 2643 752 
Q 2906 1113 2906 1747 
Q 2906 2381 2643 2742 
Q 2381 3103 1925 3103 
Q 1469 3103 1208 2742 
Q 947 2381 947 1747 
z
" transform="scale(0.015625)"/>
      <path id="DejaVuSans-2d" d="M 313 2009 
L 1997 2009 
L 1997 1497 
L 313 1497 
L 313 2009 
z
" transform="scale(0.015625)"/>
      <path id="DejaVuSans-74" d="M 1172 4494 
L 1172 3500 
L 2356 3500 
L 2356 3053 
L 1172 3053 
L 1172 1153 
Q 1172 725 1289 603 
Q 1406 481 1766 481 
L 2356 481 
L 2356 0 
L 1766 0 
Q 1100 0 847 248 
Q 594 497 594 1153 
L 594 3053 
L 172 3053 
L 172 3500 
L 594 3500 
L 594 4494 
L 1172 4494 
z
" transform="scale(0.015625)"/>
      <path id="DejaVuSans-79" d="M 2059 -325 
Q 1816 -950 1584 -1140 
Q 1353 -1331 966 -1331 
L 506 -1331 
L 506 -850 
L 844 -850 
Q 1081 -850 1212 -737 
Q 1344 -625 1503 -206 
L 1606 56 
L 191 3500 
L 800 3500 
L 1894 763 
L 2988 3500 
L 3597 3500 
L 2059 -325 
z
" transform="scale(0.015625)"/>
      <path id="DejaVuSans-72" d="M 2631 2963 
Q 2534 3019 2420 3045 
Q 2306 3072 2169 3072 
Q 1681 3072 1420 2755 
Q 1159 2438 1159 1844 
L 1159 0 
L 581 0 
L 581 3500 
L 1159 3500 
L 1159 2956 
Q 1341 3275 1631 3429 
Q 1922 3584 2338 3584 
Q 2397 3584 2469 3576 
Q 2541 3569 2628 3553 
L 2631 2963 
z
" transform="scale(0.015625)"/>
     </defs>
     <use xlink:href="#DejaVuSans-47"/>
     <use xlink:href="#DejaVuSans-61" transform="translate(77.490234 0)"/>
     <use xlink:href="#DejaVuSans-75" transform="translate(138.769531 0)"/>
     <use xlink:href="#DejaVuSans-73" transform="translate(202.148438 0)"/>
     <use xlink:href="#DejaVuSans-73" transform="translate(254.248047 0)"/>
     <use xlink:href="#DejaVuSans-69" transform="translate(306.347656 0)"/>
     <use xlink:href="#DejaVuSans-61" transform="translate(334.130859 0)"/>
     <use xlink:href="#DejaVuSans-6e" transform="translate(395.410156 0)"/>
     <use xlink:href="#DejaVuSans-20" transform="translate(458.789062 0)"/>
     <use xlink:href="#DejaVuSans-63" transform="translate(490.576172 0)"/>
     <use xlink:href="#DejaVuSans-6f" transform="translate(545.556641 0)"/>
     <use xlink:href="#DejaVuSans-70" transform="translate(606.738281 0)"/>
     <use xlink:href="#DejaVuSans-75" transform="translate(670.214844 0)"/>
     <use xlink:href="#DejaVuSans-6c" transform="translate(733.59375 0)"/>
     <use xlink:href="#DejaVuSans-61" transform="translate(761.376953 0)"/>
     <use xlink:href="#DejaVuSans-20" transform="translate(822.65625 0)"/>
     <use xlink:href="#DejaVuSans-28" transform="translate(854.443359 0)"/>
     <use xlink:href="#DejaVuSans-3c1" transform="translate(893.457031 0)"/>
     <use xlink:href="#DejaVuSans-3d" transform="translate(956.933594 0)"/>
     <use xlink:href="#DejaVuSans-30" transform="translate(1040.722656 0)"/>
     <use xlink:href="#DejaVuSans-2e" transform="translate(1104.345703 0)"/>
     <use xlink:href="#DejaVuSans-36" transform="translate(1136.132812 0)"/>
     <use xlink:href="#DejaVuSans-29" transform="translate(1199.755859 0)"/>
     <use xlink:href="#DejaVuSans-20" transform="translate(1238.769531 0)"/>
     <use xlink:href="#DejaVuSans-2014" transform="translate(1270.556641 0)"/>
     <use xlink:href="#DejaVuSans-20" transform="translate(1370.556641 0)"/>
     <use xlink:href="#DejaVuSans-70" transform="translate(1402.34375 0)"/>
     <use xlink:href="#DejaVuSans-73" transform="translate(1465.820312 0)"/>
     <use xlink:href="#DejaVuSans-65" transform="translate(1517.919922 0)"/>
     <use xlink:href="#DejaVuSans-75" transform="translate(1579.443359 0)"/>
     <use xlink:href="#DejaVuSans-64" transform="translate(1642.822266 0)"/>
     <use xlink:href="#DejaVuSans-6f" transform="translate(1706.298828 0)"/>
     <use xlink:href="#DejaVuSans-2d" transform="translate(1769.355469 0)"/>
     <use xlink:href="#DejaVuSans-64" transform="translate(1805.439453 0)"/>
     <use xlink:href="#DejaVuSans-65" transform="translate(1868.916016 0)"/>
     <use xlink:href="#DejaVuSans-6e" transform="translate(1930.439453 0)"/>
     <use xlink:href="#DejaVuSans-73" transform="translate(1993.818359 0)"/>
     <use xlink:href="#DejaVuSans-69" transform="translate(2045.917969 0)"/>
     <use xlink:href="#DejaVuSans-74" transform="translate(2073.701172 0)"/>
     <use xlink:href="#DejaVuSans-79" transform="translate(2112.910156 0)"/>
     <use xlink:href="#DejaVuSans-20" transform="translate(2172.089844 0)"/>
     <use xlink:href="#DejaVuSans-63" transform="translate(2203.876953 0)"/>
     <use xlink:href="#DejaVuSans-6f" transform="translate(2258.857422 0)"/>
     <use xlink:href="#DejaVuSans-6e" transform="translate(2320.039062 0)"/>
     <use xlink:href="#DejaVuSans-74" transform="translate(2383.417969 0)"/>
     <use xlink:href="#DejaVuSans-6f" transform="translate(2422.626953 0)"/>
     <use xlink:href="#DejaVuSans-75" transform="translate(2483.808594 0)"/>
     <use xlink:href="#DejaVuSans-72" transform="translate(2547.1875 0)"/>
     <use xlink:href="#DejaVuSans-73" transform="translate(2588.300781 0)"/>
    </g>
   </g>
   <g id="text_12">
    <g clip-path="url(#pfa7308bb9e)">
     <!-- 0.00 -->
     <g style="fill: #440154" transform="translate(242.680285 248.247761) rotate(-0.010465) scale(0.08 -0.08)">
      <use xlink:href="#DejaVuSans-30"/>
      <use xlink:href="#DejaVuSans-2e" transform="translate(63.623047 0)"/>
      <use xlink:href="#DejaVuSans-30" transform="translate(95.410156 0)"/>
      <use xlink:href="#DejaVuSans-30" transform="translate(159.033203 0)"/>
     </g>
    </g>
   </g>
   <g id="text_13">
    <g clip-path="url(#pfa7308bb9e)">
     <!-- 0.00 -->
     <g style="fill: #440154" transform="translate(136.428022 29.090492) rotate(-0.010465) scale(0.08 -0.08)">
      <use xlink:href="#DejaVuSans-30"/>
      <use xlink:href="#DejaVuSans-2e" transform="translate(63.623047 0)"/>
      <use xlink:href="#DejaVuSans-30" transform="translate(95.410156 0)"/>
      <use xlink:href="#DejaVuSans-30" transform="translate(159.033203 0)"/>
     </g>
    </g>
   </g>
   <g id="text_14">
    <g clip-path="url(#pfa7308bb9e)">
     <!-- 0.03 -->
     <g style="fill: #46327e" transform="translate(129.674438 241.712688) rotate(-3.628007) scale(0.08 -0.08)">
      <defs>
       <path id="DejaVuSans-33" d="M 2597 2516 
Q 3050 2419 3304 2112 
Q 3559 1806 3559 1356 
Q 3559 666 3084 287 
Q 2609 -91 1734 -91 
Q 1441 -91 1130 -33 
Q 819 25 488 141 
L 488 750 
Q 750 597 1062 519 
Q 1375 441 1716 441 
Q 2309 441 2620 675 
Q 2931 909 2931 1356 
Q 2931 1769 2642 2001 
Q 2353 2234 1838 2234 
L 1294 2234 
L 1294 2753 
L 1863 2753 
Q 2328 2753 2575 2939 
Q 2822 3125 2822 3475 
Q 2822 3834 2567 4026 
Q 2313 4219 1838 4219 
Q 1578 4219 1281 4162 
Q 984 4106 628 3988 
L 628 4550 
Q 988 4650 1302 4700 
Q 1616 4750 1894 4750 
Q 2613 4750 3031 4423 
Q 3450 4097 3450 3541 
Q 3450 3153 3228 2886 
Q 3006 2619 2597 2516 
z
" transform="scale(0.015625)"/>
      </defs>
      <use xlink:href="#DejaVuSans-30"/>
      <use xlink:href="#DejaVuSans-2e" transform="translate(63.623047 0)"/>
      <use xlink:href="#DejaVuSans-30" transform="translate(95.410156 0)"/>
      <use xlink:href="#DejaVuSans-33" transform="translate(159.033203 0)"/>
     </g>
    </g>
   </g>
   <g id="text_15">
    <g clip-path="url(#pfa7308bb9e)">
     <!-- 0.06 -->
     <g style="fill: #365c8d" transform="translate(231.782222 45.926073) rotate(-6.944709) scale(0.08 -0.08)">
      <use xlink:href="#DejaVuSans-30"/>
      <use xlink:href="#DejaVuSans-2e" transform="translate(63.623047 0)"/>
      <use xlink:href="#DejaVuSans-30" transform="translate(95.410156 0)"/>
      <use xlink:href="#DejaVuSans-36" transform="translate(159.033203 0)"/>
     </g>
    </g>
   </g>
   <g id="text_16">
    <g clip-path="url(#pfa7308bb9e)">
     <!-- 0.08 -->
     <g style="fill: #277f8e" transform="translate(160.285618 224.081737) rotate(-10.240616) scale(0.08 -0.08)">
      <use xlink:href="#DejaVuSans-30"/>
      <use xlink:href="#DejaVuSans-2e" transform="translate(63.623047 0)"/>
      <use xlink:href="#DejaVuSans-30" transform="translate(95.410156 0)"/>
      <use xlink:href="#DejaVuSans-38" transform="translate(159.033203 0)"/>
     </g>
    </g>
   </g>
   <g id="text_17">
    <g clip-path="url(#pfa7308bb9e)">
     <!-- 0.11 -->
     <g style="fill: #1fa187" transform="translate(207.221275 69.119775) rotate(-14.319135) scale(0.08 -0.08)">
      <defs>
       <path id="DejaVuSans-31" d="M 794 531 
L 1825 531 
L 1825 4091 
L 703 3866 
L 703 4441 
L 1819 4666 
L 2450 4666 
L 2450 531 
L 3481 531 
L 3481 0 
L 794 0 
L 794 531 
z
" transform="scale(0.015625)"/>
      </defs>
      <use xlink:href="#DejaVuSans-30"/>
      <use xlink:href="#DejaVuSans-2e" transform="translate(63.623047 0)"/>
      <use xlink:href="#DejaVuSans-31" transform="translate(95.410156 0)"/>
      <use xlink:href="#DejaVuSans-31" transform="translate(159.033203 0)"/>
     </g>
    </g>
   </g>
   <g id="text_18">
    <g clip-path="url(#pfa7308bb9e)">
     <!-- 0.14 -->
     <g style="fill: #4ac16d" transform="translate(214.599541 188.331561) rotate(-28.698001) scale(0.08 -0.08)">
      <use xlink:href="#DejaVuSans-30"/>
      <use xlink:href="#DejaVuSans-2e" transform="translate(63.623047 0)"/>
      <use xlink:href="#DejaVuSans-31" transform="translate(95.410156 0)"/>
      <use xlink:href="#DejaVuSans-34" transform="translate(159.033203 0)"/>
     </g>
    </g>
   </g>
   <g id="text_19">
    <g clip-path="url(#pfa7308bb9e)">
     <!-- 0.17 -->
     <g style="fill: #a0da39" transform="translate(162.915696 118.977101) rotate(-37.341049) scale(0.08 -0.08)">
      <defs>
       <path id="DejaVuSans-37" d="M 525 4666 
L 3525 4666 
L 3525 4397 
L 1831 0 
L 1172 0 
L 2766 4134 
L 525 4134 
L 525 4666 
z
" transform="scale(0.015625)"/>
      </defs>
      <use xlink:href="#DejaVuSans-30"/>
      <use xlink:href="#DejaVuSans-2e" transform="translate(63.623047 0)"/>
      <use xlink:href="#DejaVuSans-31" transform="translate(95.410156 0)"/>
      <use xlink:href="#DejaVuSans-37" transform="translate(159.033203 0)"/>
     </g>
    </g>
   </g>
   <g id="text_20">
    <g clip-path="url(#pfa7308bb9e)">
     <!-- 0.19 -->
     <g style="fill: #fde725" transform="translate(180.341156 135.327552) rotate(-39.256087) scale(0.08 -0.08)">
      <defs>
       <path id="DejaVuSans-39" d="M 703 97 
L 703 672 
Q 941 559 1184 500 
Q 1428 441 1663 441 
Q 2288 441 2617 861 
Q 2947 1281 2994 2138 
Q 2813 1869 2534 1725 
Q 2256 1581 1919 1581 
Q 1219 1581 811 2004 
Q 403 2428 403 3163 
Q 403 3881 828 4315 
Q 1253 4750 1959 4750 
Q 2769 4750 3195 4129 
Q 3622 3509 3622 2328 
Q 3622 1225 3098 567 
Q 2575 -91 1691 -91 
Q 1453 -91 1209 -44 
Q 966 3 703 97 
z
M 1959 2075 
Q 2384 2075 2632 2365 
Q 2881 2656 2881 3163 
Q 2881 3666 2632 3958 
Q 2384 4250 1959 4250 
Q 1534 4250 1286 3958 
Q 1038 3666 1038 3163 
Q 1038 2656 1286 2365 
Q 1534 2075 1959 2075 
z
" transform="scale(0.015625)"/>
      </defs>
      <use xlink:href="#DejaVuSans-30"/>
      <use xlink:href="#DejaVuSans-2e" transform="translate(63.623047 0)"/>
      <use xlink:href="#DejaVuSans-31" transform="translate(95.410156 0)"/>
      <use xlink:href="#DejaVuSans-39" transform="translate(159.033203 0)"/>
     </g>
    </g>
   </g>
  </g>
 </g>
 <defs>
  <clipPath id="pfa7308bb9e">
   <rect x="47.72" y="26.88" width="301.48" height="219.16"/>
  </clipPath>
 </defs>
</svg>
