<?xml version="1.0" encoding="utf-8" standalone="no"?>
<!DOCTYPE svg PUBLIC "-//W3C//DTD SVG 1.1//EN"
  "http://www.w3.org/Graphics/SVG/1.1/DTD/svg11.dtd">
<svg xmlns:xlink="http://www.w3.org/1999/xlink" width="360pt" height="288pt" viewBox="0 0 360 288" xmlns="http://www.w3.org/2000/svg" version="1.1">
 <metadata>
  <rdf:RDF xmlns:dc="http://purl.org/dc/elements/1.1/" xmlns:cc="http://creativecommons.org/ns#" xmlns:rdf="http://www.w3.org/1999/02/22-rdf-syntax-ns#">
   <cc:Work>
    <dc:type rdf:resource="http://purl.org/dc/dcmitype/StillImage"/>
    <dc:date>2025-10-12T22:14:14.782225</dc:date>
    <dc:format>image/svg+xml</dc:format>
    <dc:creator>
     <cc:Agent>
      <dc:title>Matplotlib v3.10.7, https://matplotlib.org/</dc:title>
     </cc:Agent>
    </dc:creator>
   </cc:Work>
  </rdf:RDF>
 </metadata>
 <defs>
  <style type="text/css">*{stroke-linejoin: round; stroke-linecap: butt}</style>
 </defs>
 <g id="figure_1">
  <g id="patch_1">
   <path d="M 0 288 
L 360 288 
L 360 0 
L 0 0 
z
" style="fill: #ffffff"/>
  </g>
  <g id="axes_1">
   <g id="patch_2">
    <path d="M 47.72 246.04 
L 349.2 246.04 
L 349.2 26.88 
L 47.72 26.88 
z
" style="fill: #ffffff"/>
   </g>
   <g id="matplotlib.axis_1">
    <g id="xtick_1">
     <g id="line2d_1">
      <defs>
       <path id="md3666bc0f0" d="M 0 0 
L 0 3.5 
" style="stroke: #000000; stroke-width: 0.8"/>
      </defs>
      <g>
       <use xlink:href="#md3666bc0f0" x="107.997908" y="246.04" style="stroke: #000000; stroke-width: 0.8"/>
      </g>
     </g>
     <g id="text_1">
      <!-- 0.2 -->
      <g transform="translate(100.046345 260.638438) scale(0.1 -0.1)">
       <defs>
        <path id="DejaVuSans-30" d="M 2034 4250 
Q 1547 4250 1301 3770 
Q 1056 3291 1056 2328 
Q 1056 1369 1301 889 
Q 1547 409 2034 409 
Q 2525 409 2770 889 
Q 3016 1369 3016 2328 
Q 3016 3291 2770 3770 
Q 2525 4250 2034 4250 
z
M 2034 4750 
Q 2819 4750 3233 4129 
Q 3647 3509 3647 2328 
Q 3647 1150 3233 529 
Q 2819 -91 2034 -91 
Q 1250 -91 836 529 
Q 422 1150 422 2328 
Q 422 3509 836 4129 
Q 1250 4750 2034 4750 
z
" transform="scale(0.015625)"/>
        <path id="DejaVuSans-2e" d="M 684 794 
L 1344 794 
L 1344 0 
L 684 0 
L 684 794 
z
" transform="scale(0.015625)"/>
        <path id="DejaVuSans-32" d="M 1228 531 
L 3431 531 
L 3431 0 
L 469 0 
L 469 531 
Q 828 903 1448 1529 
Q 2069 2156 2228 2338 
Q 2531 2678 2651 2914 
Q 2772 3150 2772 3378 
Q 2772 3750 2511 3984 
Q 2250 4219 1831 4219 
Q 1534 4219 1204 4116 
Q 875 4013 500 3803 
L 500 4441 
Q 881 4594 1212 4672 
Q 1544 4750 1819 4750 
Q 2544 4750 2975 4387 
Q 3406 4025 3406 3419 
Q 3406 3131 3298 2873 
Q 3191 2616 2906 2266 
Q 2828 2175 2409 1742 
Q 1991 1309 1228 531 
z
" transform="scale(0.015625)"/>
       </defs>
       <use xlink:href="#DejaVuSans-30"/>
       <use xlink:href="#DejaVuSans-2e" transform="translate(63.623047 0)"/>
       <use xlink:href="#DejaVuSans-32" transform="translate(95.410156 0)"/>
      </g>
     </g>
    </g>
    <g id="xtick_2">
     <g id="line2d_2">
      <g>
       <use xlink:href="#md3666bc0f0" x="168.305969" y="246.04" style="stroke: #000000; stroke-width: 0.8"/>
      </g>
     </g>
     <g id="text_2">
      <!-- 0.4 -->
      <g transform="translate(160.354407 260.638438) scale(0.1 -0.1)">
       <defs>
        <path id="DejaVuSans-34" d="M 2419 4116 
L 825 1625 
L 2419 1625 
L 2419 4116 
z
M 2253 4666 
L 3047 4666 
L 3047 1625 
L 3713 1625 
L 3713 1100 
L 3047 1100 
L 3047 0 
L 2419 0 
L 2419 1100 
L 313 1100 
L 313 1709 
L 2253 4666 
z
" transform="scale(0.015625)"/>
       </defs>
       <use xlink:href="#DejaVuSans-30"/>
       <use xlink:href="#DejaVuSans-2e" transform="translate(63.623047 0)"/>
       <use xlink:href="#DejaVuSans-34" transform="translate(95.410156 0)"/>
      </g>
     </g>
    </g>
    <g id="xtick_3">
     <g id="line2d_3">
      <g>
       <use xlink:href="#md3666bc0f0" x="228.614031" y="246.04" style="stroke: #000000; stroke-width: 0.8"/>
      </g>
     </g>
     <g id="text_3">
      <!-- 0.6 -->
      <g transform="translate(220.662468 260.638438) scale(0.1 -0.1)">
       <defs>
        <path id="DejaVuSans-36" d="M 2113 2584 
Q 1688 2584 1439 2293 
Q 1191 2003 1191 1497 
Q 1191 994 1439 701 
Q 1688 409 2113 409 
Q 2538 409 2786 701 
Q 3034 994 3034 1497 
Q 3034 2003 2786 2293 
Q 2538 2584 2113 2584 
z
M 3366 4563 
L 3366 3988 
Q 3128 4100 2886 4159 
Q 2644 4219 2406 4219 
Q 1781 4219 1451 3797 
Q 1122 3375 1075 2522 
Q 1259 2794 1537 2939 
Q 1816 3084 2150 3084 
Q 2853 3084 3261 2657 
Q 3669 2231 3669 1497 
Q 3669 778 3244 343 
Q 2819 -91 2113 -91 
Q 1303 -91 875 529 
Q 447 1150 447 2328 
Q 447 3434 972 4092 
Q 1497 4750 2381 4750 
Q 2619 4750 2861 4703 
Q 3103 4656 3366 4563 
z
" transform="scale(0.015625)"/>
       </defs>
       <use xlink:href="#DejaVuSans-30"/>
       <use xlink:href="#DejaVuSans-2e" transform="translate(63.623047 0)"/>
       <use xlink:href="#DejaVuSans-36" transform="translate(95.410156 0)"/>
      </g>
     </g>
    </g>
    <g id="xtick_4">
     <g id="line2d_4">
      <g>
       <use xlink:href="#md3666bc0f0" x="288.922092" y="246.04" style="stroke: #000000; stroke-width: 0.8"/>
      </g>
     </g>
     <g id="text_4">
      <!-- 0.8 -->
      <g transform="translate(280.97053 260.638438) scale(0.1 -0.1)">
       <defs>
        <path id="DejaVuSans-38" d="M 2034 2216 
Q 1584 2216 1326 1975 
Q 1069 1734 1069 1313 
Q 1069 891 1326 650 
Q 1584 409 2034 409 
Q 2484 409 2743 651 
Q 3003 894 3003 1313 
Q 3003 1734 2745 1975 
Q 2488 2216 2034 2216 
z
M 1403 2484 
Q 997 2584 770 2862 
Q 544 3141 544 3541 
Q 544 4100 942 4425 
Q 1341 4750 2034 4750 
Q 2731 4750 3128 4425 
Q 3525 4100 3525 3541 
Q 3525 3141 3298 2862 
Q 3072 2584 2669 2484 
Q 3125 2378 3379 2068 
Q 3634 1759 3634 1313 
Q 3634 634 3220 271 
Q 2806 -91 2034 -91 
Q 1263 -91 848 271 
Q 434 634 434 1313 
Q 434 1759 690 2068 
Q 947 2378 1403 2484 
z
M 1172 3481 
Q 1172 3119 1398 2916 
Q 1625 2713 2034 2713 
Q 2441 2713 2670 2916 
Q 2900 3119 2900 3481 
Q 2900 3844 2670 4047 
Q 2441 4250 2034 4250 
Q 1625 4250 1398 4047 
Q 1172 3844 1172 3481 
z
" transform="scale(0.015625)"/>
       </defs>
       <use xlink:href="#DejaVuSans-30"/>
       <use xlink:href="#DejaVuSans-2e" transform="translate(63.623047 0)"/>
       <use xlink:href="#DejaVuSans-38" transform="translate(95.410156 0)"/>
      </g>
     </g>
    </g>
    <g id="text_5">
     <!-- u -->
     <g transform="translate(195.29125 274.316562) scale(0.1 -0.1)">
      <defs>
       <path id="DejaVuSans-75" d="M 544 1381 
L 544 3500 
L 1119 3500 
L 1119 1403 
Q 1119 906 1312 657 
Q 1506 409 1894 409 
Q 2359 409 2629 706 
Q 2900 1003 2900 1516 
L 2900 3500 
L 3475 3500 
L 3475 0 
L 2900 0 
L 2900 538 
Q 2691 219 2414 64 
Q 2138 -91 1772 -91 
Q 1169 -91 856 284 
Q 544 659 544 1381 
z
M 1991 3584 
L 1991 3584 
z
" transform="scale(0.015625)"/>
      </defs>
      <use xlink:href="#DejaVuSans-75"/>
     </g>
    </g>
   </g>
   <g id="matplotlib.axis_2">
    <g id="ytick_1">
     <g id="line2d_5">
      <defs>
       <path id="m41db9dc6e8" d="M 0 0 
L -3.5 0 
" style="stroke: #000000; stroke-width: 0.8"/>
      </defs>
      <g>
       <use xlink:href="#m41db9dc6e8" x="47.72" y="202.221152" style="stroke: #000000; stroke-width: 0.8"/>
      </g>
     </g>
     <g id="text_6">
      <!-- 0.2 -->
      <g transform="translate(24.816875 206.020371) scale(0.1 -0.1)">
       <use xlink:href="#DejaVuSans-30"/>
       <use xlink:href="#DejaVuSans-2e" transform="translate(63.623047 0)"/>
       <use xlink:href="#DejaVuSans-32" transform="translate(95.410156 0)"/>
      </g>
     </g>
    </g>
    <g id="ytick_2">
     <g id="line2d_6">
      <g>
       <use xlink:href="#m41db9dc6e8" x="47.72" y="158.380384" style="stroke: #000000; stroke-width: 0.8"/>
      </g>
     </g>
     <g id="text_7">
      <!-- 0.4 -->
      <g transform="translate(24.816875 162.179603) scale(0.1 -0.1)">
       <use xlink:href="#DejaVuSans-30"/>
       <use xlink:href="#DejaVuSans-2e" transform="translate(63.623047 0)"/>
       <use xlink:href="#DejaVuSans-34" transform="translate(95.410156 0)"/>
      </g>
     </g>
    </g>
    <g id="ytick_3">
     <g id="line2d_7">
      <g>
       <use xlink:href="#m41db9dc6e8" x="47.72" y="114.539616" style="stroke: #000000; stroke-width: 0.8"/>
      </g>
     </g>
     <g id="text_8">
      <!-- 0.6 -->
      <g transform="translate(24.816875 118.338835) scale(0.1 -0.1)">
       <use xlink:href="#DejaVuSans-30"/>
       <use xlink:href="#DejaVuSans-2e" transform="translate(63.623047 0)"/>
       <use xlink:href="#DejaVuSans-36" transform="translate(95.410156 0)"/>
      </g>
     </g>
    </g>
    <g id="ytick_4">
     <g id="line2d_8">
      <g>
       <use xlink:href="#m41db9dc6e8" x="47.72" y="70.698848" style="stroke: #000000; stroke-width: 0.8"/>
      </g>
     </g>
     <g id="text_9">
      <!-- 0.8 -->
      <g transform="translate(24.816875 74.498067) scale(0.1 -0.1)">
       <use xlink:href="#DejaVuSans-30"/>
       <use xlink:href="#DejaVuSans-2e" transform="translate(63.623047 0)"/>
       <use xlink:href="#DejaVuSans-38" transform="translate(95.410156 0)"/>
      </g>
     </g>
    </g>
    <g id="text_10">
     <!-- v -->
     <g transform="translate(18.737188 139.419375) rotate(-90) scale(0.1 -0.1)">
      <defs>
       <path id="DejaVuSans-76" d="M 191 3500 
L 800 3500 
L 1894 563 
L 2988 3500 
L 3597 3500 
L 2284 0 
L 1503 0 
L 191 3500 
z
" transform="scale(0.015625)"/>
      </defs>
      <use xlink:href="#DejaVuSans-76"/>
     </g>
    </g>
   </g>
   <g id="QuadContourSet_1">
    <path d="M 77.843877 26.88 
L 77.952066 53.267157 
L 78.25543 75.256455 
L 78.724614 93.58087 
L 79.337725 108.973378 
L 80.089017 122.166957 
L 80.937563 133.161605 
L 81.898156 142.690301 
L 82.931658 150.753043 
L 84.018595 157.587647 
L 85.258625 163.946622 
L 86.467199 169.077458 
L 87.915425 174.208294 
L 89.40231 178.606154 
L 91.076656 182.768595 
L 92.571818 185.93592 
L 94.166229 188.867826 
L 96.118127 191.954371 
L 98.171874 194.731639 
L 100.151304 197.044393 
L 102.193018 199.129498 
L 104.673581 201.328428 
L 107.209365 203.272401 
L 109.787515 204.993311 
L 112.283911 206.459264 
L 115.275719 208.000837 
L 119.308896 209.780312 
L 123.342074 211.288259 
L 127.375251 212.581082 
L 132.416722 213.957595 
L 138.466488 215.334816 
L 144.516254 216.480056 
L 151.574314 217.591918 
L 159.640669 218.634958 
L 169.39647 219.652843 
L 179.806555 220.518525 
L 192.914381 221.371472 
L 208.038796 222.117657 
L 226.188094 222.774492 
L 247.702349 223.317726 
L 273.577926 223.739087 
L 304.83505 224.020321 
L 317.279584 224.08169 
M 338.772101 224.135591 
L 349.2 224.141536 
L 349.2 224.141536 
" clip-path="url(#pa150ac9e23)" style="fill: none; stroke: #440154; stroke-width: 1.5"/>
    <path d="M 107.997908 26.88 
L 108.10777 43.005485 
L 108.430169 57.665017 
L 108.914935 70.125619 
L 109.594908 81.853244 
L 110.413865 92.114916 
L 111.324209 100.910635 
L 112.368539 108.973378 
L 113.53273 116.303144 
L 114.79527 122.899933 
L 116.12582 128.763746 
L 117.48487 133.894582 
L 119.06299 139.025418 
L 120.624744 143.423278 
L 122.418184 147.821137 
L 124.350368 151.938775 
L 126.366957 155.691462 
L 128.383545 158.99416 
L 130.400134 161.927833 
L 132.518478 164.679599 
L 135.06217 167.611505 
L 137.458194 170.064551 
L 140.483077 172.807336 
L 143.50796 175.220977 
L 146.532843 177.362863 
L 149.662958 179.33913 
L 153.606538 181.53806 
L 157.62408 183.500453 
L 161.657258 185.238045 
L 166.698729 187.137223 
L 172.004893 188.867826 
L 177.789967 190.498006 
L 183.839732 191.968618 
L 190.897793 193.437847 
L 198.964147 194.854266 
L 207.030502 196.044898 
L 216.105151 197.167343 
L 226.188094 198.19763 
L 238.287625 199.194306 
L 251.395452 200.041224 
L 266.519866 200.783888 
L 283.66087 201.389713 
L 302.818462 201.837977 
L 325.000936 202.125419 
L 326.305763 202.135825 
M 347.895362 202.220852 
L 349.2 202.221152 
L 349.2 202.221152 
" clip-path="url(#pa150ac9e23)" style="fill: none; stroke: #472d7b; stroke-width: 1.5"/>
    <path d="M 138.151939 26.88 
L 138.266093 38.607625 
L 138.574435 48.869298 
L 139.067019 58.397993 
L 139.730363 67.193712 
L 140.546957 75.256455 
L 141.494286 82.586221 
L 142.673505 89.915987 
L 143.970477 96.512776 
L 145.346005 102.376589 
L 146.752499 107.507425 
L 148.381406 112.638261 
L 149.984824 117.03612 
L 151.811822 121.43398 
L 153.901522 125.831839 
L 155.878216 129.496722 
L 158.106187 133.161605 
L 160.648963 136.854515 
L 162.895718 139.758395 
L 165.690435 142.983887 
L 168.249575 145.622207 
L 170.731906 147.938254 
L 174.096717 150.753043 
L 177.034862 152.951973 
L 180.814849 155.481803 
L 184.848027 157.868809 
L 188.881204 159.985168 
L 192.914381 161.873143 
L 197.955853 163.961601 
L 202.997324 165.795086 
L 208.695346 167.611505 
L 214.088562 169.119686 
L 220.138328 170.604654 
L 227.196388 172.104375 
L 235.262742 173.562516 
L 243.329097 174.793988 
L 252.403746 175.954902 
L 262.486689 177.013829 
L 273.577926 177.947004 
L 285.677458 178.737467 
L 298.785284 179.373643 
L 313.909699 179.874374 
L 318.289861 179.979141 
M 339.779788 180.272991 
L 349.2 180.300768 
L 349.2 180.300768 
" clip-path="url(#pa150ac9e23)" style="fill: none; stroke: #3b528b; stroke-width: 1.5"/>
    <path d="M 168.30597 26.88 
L 168.417027 35.675719 
L 168.730174 43.738462 
L 169.274543 51.801204 
L 170.000038 59.13097 
L 170.869587 65.727759 
L 171.976476 72.324548 
L 173.190894 78.188361 
L 174.459109 83.319197 
L 175.948611 88.450033 
L 177.694165 93.58087 
L 179.426917 97.978729 
L 181.413081 102.376589 
L 183.291795 106.041472 
L 185.405169 109.706355 
L 187.87291 113.491768 
L 190.489891 117.03612 
L 192.914617 119.968027 
L 195.939264 123.231624 
L 198.964147 126.134222 
L 202.024115 128.763746 
L 205.013913 131.079269 
L 208.038796 133.204303 
L 212.071973 135.745322 
L 216.105151 138.003082 
L 220.138328 140.02003 
L 225.179799 142.253847 
L 230.221271 144.217107 
L 235.262742 145.950171 
L 241.312508 147.772732 
L 247.362274 149.355857 
L 254.420334 150.947216 
L 261.478395 152.305238 
L 269.544749 153.615487 
L 277.611104 154.706628 
L 286.685753 155.71212 
L 297.056288 156.616856 
L 307.859933 157.325329 
L 319.959465 157.878511 
L 327.316278 158.106987 
M 348.903361 158.380216 
L 349.2 158.380384 
L 349.2 158.380384 
" clip-path="url(#pa150ac9e23)" style="fill: none; stroke: #2c728e; stroke-width: 1.5"/>
    <path d="M 198.460001 26.88 
L 198.562321 33.476789 
L 198.881972 40.073579 
L 199.368534 45.937391 
L 200.067853 51.801204 
L 201.006403 57.665017 
L 202.049452 62.795853 
L 203.327709 67.926689 
L 204.635402 72.324548 
L 206.165507 76.722408 
L 207.949233 81.120268 
L 209.656955 84.785151 
L 211.594071 88.450033 
L 213.793563 92.114916 
L 216.105151 95.51602 
L 218.550105 98.711706 
L 221.146622 101.73691 
L 224.171505 104.868664 
L 227.196388 107.65329 
L 230.596546 110.439331 
L 234.254448 113.098432 
L 237.279331 115.07332 
L 241.312508 117.438109 
L 245.345686 119.540224 
L 249.415278 121.43398 
L 254.420334 123.494153 
L 259.461806 125.313311 
L 264.503278 126.912225 
L 270.553043 128.581379 
L 276.602809 130.016043 
L 283.66087 131.436148 
L 290.71893 132.62133 
L 298.785284 133.728855 
L 307.048126 134.627559 
L 315.926288 135.363812 
L 319.312007 135.588047 
M 340.784128 136.395924 
L 349.2 136.459999 
L 349.2 136.459999 
" clip-path="url(#pa150ac9e23)" style="fill: none; stroke: #21918c; stroke-width: 1.5"/>
    <path d="M 228.614033 26.88 
L 228.714321 32.010836 
L 229.02427 37.141672 
L 229.562901 42.272508 
L 230.224277 46.670368 
L 231.089176 51.068227 
L 232.23786 55.67464 
L 233.522642 59.863946 
L 234.858626 63.528829 
L 236.416492 67.193712 
L 238.287625 70.975342 
L 240.319938 74.523478 
L 242.320803 77.584035 
L 244.381704 80.387291 
L 246.806285 83.319197 
L 249.546628 86.251104 
L 252.658623 89.18301 
L 255.428629 91.50178 
L 258.453512 93.772792 
L 261.478395 95.813001 
L 265.511572 98.228098 
L 269.544749 100.349803 
L 273.933051 102.376589 
L 278.619398 104.266699 
L 283.6963 106.041472 
L 288.702341 107.552849 
L 294.185671 108.973378 
L 299.793579 110.20669 
L 305.843344 111.318555 
L 312.901405 112.365569 
L 319.959465 113.176607 
L 327.017525 113.779376 
L 328.386276 113.873692 
L 328.386276 113.873692 
" clip-path="url(#pa150ac9e23)" style="fill: none; stroke: #28ae80; stroke-width: 1.5"/>
    <path d="M 258.768065 26.88 
L 258.89097 31.27786 
L 259.269126 35.675719 
L 259.79472 39.340602 
L 260.528272 43.005485 
L 261.489421 46.670368 
L 262.702595 50.335251 
L 264.19801 54.000134 
L 265.622929 56.93204 
L 267.528161 60.270941 
L 269.192911 62.795853 
L 271.40629 65.727759 
L 273.577926 68.239451 
L 276.156289 70.858595 
L 278.619398 73.064702 
L 281.644281 75.452156 
L 284.669164 77.550499 
L 288.125704 79.654314 
L 291.727224 81.569509 
L 295.760401 83.431909 
L 299.793579 85.040918 
L 303.826756 86.433078 
L 308.868227 87.909888 
L 314.140066 89.18301 
L 318.951171 90.135026 
L 321.364992 90.543282 
M 342.82889 92.519509 
L 349.2 92.61923 
L 349.2 92.61923 
" clip-path="url(#pa150ac9e23)" style="fill: none; stroke: #5ec962; stroke-width: 1.5"/>
    <path d="M 288.922098 26.88 
L 288.928526 27.612977 
L 288.947175 28.345953 
L 288.978183 29.07893 
L 289.021704 29.811906 
L 289.0779 30.544883 
L 289.146951 31.27786 
L 289.229045 32.010836 
L 289.324388 32.743813 
L 289.433197 33.476789 
L 289.555704 34.209766 
L 289.692154 34.942742 
L 289.710635 35.032919 
L 289.842901 35.675719 
L 290.008185 36.408696 
L 290.188292 37.141672 
L 290.383536 37.874649 
L 290.594246 38.607625 
L 290.71893 39.011961 
L 290.820916 39.340602 
L 291.06402 40.073579 
L 291.323783 40.806555 
L 291.600612 41.539532 
L 291.727224 41.855964 
L 291.895311 42.272508 
L 292.208363 43.005485 
L 292.53997 43.738462 
L 292.735518 44.148527 
L 292.891096 44.471438 
L 293.262551 45.204415 
L 293.654312 45.937391 
L 293.743813 46.097406 
L 294.068219 46.670368 
L 294.504191 47.403344 
L 294.752107 47.801471 
L 294.963494 48.136321 
L 295.447224 48.869298 
L 295.760401 49.323105 
L 295.956016 49.602274 
L 296.491551 50.335251 
L 296.768696 50.699044 
L 297.054723 51.068227 
L 297.646656 51.801204 
L 297.77699 51.956707 
L 298.270024 52.534181 
L 298.785284 53.113505 
L 298.924657 53.267157 
L 299.613995 54.000134 
L 299.793579 54.184409 
L 300.339855 54.73311 
L 300.801873 55.18052 
L 301.103505 55.466087 
L 301.810167 56.112063 
L 301.90764 56.199064 
L 302.756038 56.93204 
L 302.818462 56.98433 
L 303.652187 57.665017 
L 303.826756 57.803178 
L 304.598866 58.397993 
L 304.83505 58.57462 
L 305.600374 59.13097 
L 305.843344 59.302664 
L 306.661582 59.863946 
L 306.851639 59.990849 
L 307.788002 60.596923 
L 307.859933 60.642302 
L 308.868227 61.259042 
L 308.987906 61.3299 
L 309.876522 61.843606 
L 310.269352 62.062876 
L 310.884816 62.398739 
L 311.639618 62.795853 
L 311.89311 62.926401 
L 312.901405 63.427513 
L 313.112771 63.528829 
L 313.909699 63.903396 
L 314.704081 64.261806 
L 314.917993 64.356552 
L 315.853323 64.755717 
M 336.594167 69.969135 
L 337.100468 70.029468 
L 337.984715 70.125619 
L 338.108763 70.139053 
L 339.117057 70.238245 
L 340.125351 70.327301 
L 341.133645 70.4064 
L 342.14194 70.475709 
L 343.150234 70.535388 
L 344.158528 70.585584 
L 345.166823 70.626436 
L 346.175117 70.658073 
L 347.183411 70.680614 
L 348.191706 70.694171 
L 349.2 70.698844 
" clip-path="url(#pa150ac9e23)" style="fill: none; stroke: #addc30; stroke-width: 1.5"/>
    <path d="M 319.076136 26.88 
L 319.091457 27.612977 
L 319.135945 28.345953 
L 319.210053 29.07893 
L 319.314341 29.811906 
L 319.449479 30.544883 
L 319.616244 31.27786 
L 319.815517 32.010836 
L 319.941151 32.407737 
M 334.355062 46.204831 
L 335.08388 46.477153 
L 335.647706 46.670368 
L 336.092174 46.819069 
L 337.100468 47.127935 
L 338.096748 47.403344 
L 338.108763 47.406604 
L 339.117057 47.655273 
L 340.125351 47.876605 
L 341.133645 48.071594 
L 341.516368 48.136321 
L 342.14194 48.240964 
L 343.150234 48.385824 
L 344.158528 48.507054 
L 345.166823 48.605292 
L 346.175117 48.681104 
L 347.183411 48.734976 
L 348.191706 48.767317 
L 349.2 48.778454 
" clip-path="url(#pa150ac9e23)" style="fill: none; stroke: #fde725; stroke-width: 1.5"/>
   </g>
   <g id="patch_3">
    <path d="M 47.72 246.04 
L 47.72 26.88 
" style="fill: none; stroke: #000000; stroke-width: 0.8; stroke-linejoin: miter; stroke-linecap: square"/>
   </g>
   <g id="patch_4">
    <path d="M 349.2 246.04 
L 349.2 26.88 
" style="fill: none; stroke: #000000; stroke-width: 0.8; stroke-linejoin: miter; stroke-linecap: square"/>
   </g>
   <g id="patch_5">
    <path d="M 47.72 246.04 
L 349.2 246.04 
" style="fill: none; stroke: #000000; stroke-width: 0.8; stroke-linejoin: miter; stroke-linecap: square"/>
   </g>
   <g id="patch_6">
    <path d="M 47.72 26.88 
L 349.2 26.88 
" style="fill: none; stroke: #000000; stroke-width: 0.8; stroke-linejoin: miter; stroke-linecap: square"/>
   </g>
   <g id="text_11">
    <!-- Gumbel copula contours (θ=2) -->
    <g transform="translate(105.960625 20.88) scale(0.12 -0.12)">
     <defs>
      <path id="DejaVuSans-47" d="M 3809 666 
L 3809 1919 
L 2778 1919 
L 2778 2438 
L 4434 2438 
L 4434 434 
Q 4069 175 3628 42 
Q 3188 -91 2688 -91 
Q 1594 -91 976 548 
Q 359 1188 359 2328 
Q 359 3472 976 4111 
Q 1594 4750 2688 4750 
Q 3144 4750 3555 4637 
Q 3966 4525 4313 4306 
L 4313 3634 
Q 3963 3931 3569 4081 
Q 3175 4231 2741 4231 
Q 1884 4231 1454 3753 
Q 1025 3275 1025 2328 
Q 1025 1384 1454 906 
Q 1884 428 2741 428 
Q 3075 428 3337 486 
Q 3600 544 3809 666 
z
" transform="scale(0.015625)"/>
      <path id="DejaVuSans-6d" d="M 3328 2828 
Q 3544 3216 3844 3400 
Q 4144 3584 4550 3584 
Q 5097 3584 5394 3201 
Q 5691 2819 5691 2113 
L 5691 0 
L 5113 0 
L 5113 2094 
Q 5113 2597 4934 2840 
Q 4756 3084 4391 3084 
Q 3944 3084 3684 2787 
Q 3425 2491 3425 1978 
L 3425 0 
L 2847 0 
L 2847 2094 
Q 2847 2600 2669 2842 
Q 2491 3084 2119 3084 
Q 1678 3084 1418 2786 
Q 1159 2488 1159 1978 
L 1159 0 
L 581 0 
L 581 3500 
L 1159 3500 
L 1159 2956 
Q 1356 3278 1631 3431 
Q 1906 3584 2284 3584 
Q 2666 3584 2933 3390 
Q 3200 3197 3328 2828 
z
" transform="scale(0.015625)"/>
      <path id="DejaVuSans-62" d="M 3116 1747 
Q 3116 2381 2855 2742 
Q 2594 3103 2138 3103 
Q 1681 3103 1420 2742 
Q 1159 2381 1159 1747 
Q 1159 1113 1420 752 
Q 1681 391 2138 391 
Q 2594 391 2855 752 
Q 3116 1113 3116 1747 
z
M 1159 2969 
Q 1341 3281 1617 3432 
Q 1894 3584 2278 3584 
Q 2916 3584 3314 3078 
Q 3713 2572 3713 1747 
Q 3713 922 3314 415 
Q 2916 -91 2278 -91 
Q 1894 -91 1617 61 
Q 1341 213 1159 525 
L 1159 0 
L 581 0 
L 581 4863 
L 1159 4863 
L 1159 2969 
z
" transform="scale(0.015625)"/>
      <path id="DejaVuSans-65" d="M 3597 1894 
L 3597 1613 
L 953 1613 
Q 991 1019 1311 708 
Q 1631 397 2203 397 
Q 2534 397 2845 478 
Q 3156 559 3463 722 
L 3463 178 
Q 3153 47 2828 -22 
Q 2503 -91 2169 -91 
Q 1331 -91 842 396 
Q 353 884 353 1716 
Q 353 2575 817 3079 
Q 1281 3584 2069 3584 
Q 2775 3584 3186 3129 
Q 3597 2675 3597 1894 
z
M 3022 2063 
Q 3016 2534 2758 2815 
Q 2500 3097 2075 3097 
Q 1594 3097 1305 2825 
Q 1016 2553 972 2059 
L 3022 2063 
z
" transform="scale(0.015625)"/>
      <path id="DejaVuSans-6c" d="M 603 4863 
L 1178 4863 
L 1178 0 
L 603 0 
L 603 4863 
z
" transform="scale(0.015625)"/>
      <path id="DejaVuSans-20" transform="scale(0.015625)"/>
      <path id="DejaVuSans-63" d="M 3122 3366 
L 3122 2828 
Q 2878 2963 2633 3030 
Q 2388 3097 2138 3097 
Q 1578 3097 1268 2742 
Q 959 2388 959 1747 
Q 959 1106 1268 751 
Q 1578 397 2138 397 
Q 2388 397 2633 464 
Q 2878 531 3122 666 
L 3122 134 
Q 2881 22 2623 -34 
Q 2366 -91 2075 -91 
Q 1284 -91 818 406 
Q 353 903 353 1747 
Q 353 2603 823 3093 
Q 1294 3584 2113 3584 
Q 2378 3584 2631 3529 
Q 2884 3475 3122 3366 
z
" transform="scale(0.015625)"/>
      <path id="DejaVuSans-6f" d="M 1959 3097 
Q 1497 3097 1228 2736 
Q 959 2375 959 1747 
Q 959 1119 1226 758 
Q 1494 397 1959 397 
Q 2419 397 2687 759 
Q 2956 1122 2956 1747 
Q 2956 2369 2687 2733 
Q 2419 3097 1959 3097 
z
M 1959 3584 
Q 2709 3584 3137 3096 
Q 3566 2609 3566 1747 
Q 3566 888 3137 398 
Q 2709 -91 1959 -91 
Q 1206 -91 779 398 
Q 353 888 353 1747 
Q 353 2609 779 3096 
Q 1206 3584 1959 3584 
z
" transform="scale(0.015625)"/>
      <path id="DejaVuSans-70" d="M 1159 525 
L 1159 -1331 
L 581 -1331 
L 581 3500 
L 1159 3500 
L 1159 2969 
Q 1341 3281 1617 3432 
Q 1894 3584 2278 3584 
Q 2916 3584 3314 3078 
Q 3713 2572 3713 1747 
Q 3713 922 3314 415 
Q 2916 -91 2278 -91 
Q 1894 -91 1617 61 
Q 1341 213 1159 525 
z
M 3116 1747 
Q 3116 2381 2855 2742 
Q 2594 3103 2138 3103 
Q 1681 3103 1420 2742 
Q 1159 2381 1159 1747 
Q 1159 1113 1420 752 
Q 1681 391 2138 391 
Q 2594 391 2855 752 
Q 3116 1113 3116 1747 
z
" transform="scale(0.015625)"/>
      <path id="DejaVuSans-61" d="M 2194 1759 
Q 1497 1759 1228 1600 
Q 959 1441 959 1056 
Q 959 750 1161 570 
Q 1363 391 1709 391 
Q 2188 391 2477 730 
Q 2766 1069 2766 1631 
L 2766 1759 
L 2194 1759 
z
M 3341 1997 
L 3341 0 
L 2766 0 
L 2766 531 
Q 2569 213 2275 61 
Q 1981 -91 1556 -91 
Q 1019 -91 701 211 
Q 384 513 384 1019 
Q 384 1609 779 1909 
Q 1175 2209 1959 2209 
L 2766 2209 
L 2766 2266 
Q 2766 2663 2505 2880 
Q 2244 3097 1772 3097 
Q 1472 3097 1187 3025 
Q 903 2953 641 2809 
L 641 3341 
Q 956 3463 1253 3523 
Q 1550 3584 1831 3584 
Q 2591 3584 2966 3190 
Q 3341 2797 3341 1997 
z
" transform="scale(0.015625)"/>
      <path id="DejaVuSans-6e" d="M 3513 2113 
L 3513 0 
L 2938 0 
L 2938 2094 
Q 2938 2591 2744 2837 
Q 2550 3084 2163 3084 
Q 1697 3084 1428 2787 
Q 1159 2491 1159 1978 
L 1159 0 
L 581 0 
L 581 3500 
L 1159 3500 
L 1159 2956 
Q 1366 3272 1645 3428 
Q 1925 3584 2291 3584 
Q 2894 3584 3203 3211 
Q 3513 2838 3513 2113 
z
" transform="scale(0.015625)"/>
      <path id="DejaVuSans-74" d="M 1172 4494 
L 1172 3500 
L 2356 3500 
L 2356 3053 
L 1172 3053 
L 1172 1153 
Q 1172 725 1289 603 
Q 1406 481 1766 481 
L 2356 481 
L 2356 0 
L 1766 0 
Q 1100 0 847 248 
Q 594 497 594 1153 
L 594 3053 
L 172 3053 
L 172 3500 
L 594 3500 
L 594 4494 
L 1172 4494 
z
" transform="scale(0.015625)"/>
      <path id="DejaVuSans-72" d="M 2631 2963 
Q 2534 3019 2420 3045 
Q 2306 3072 2169 3072 
Q 1681 3072 1420 2755 
Q 1159 2438 1159 1844 
L 1159 0 
L 581 0 
L 581 3500 
L 1159 3500 
L 1159 2956 
Q 1341 3275 1631 3429 
Q 1922 3584 2338 3584 
Q 2397 3584 2469 3576 
Q 2541 3569 2628 3553 
L 2631 2963 
z
" transform="scale(0.015625)"/>
      <path id="DejaVuSans-73" d="M 2834 3397 
L 2834 2853 
Q 2591 2978 2328 3040 
Q 2066 3103 1784 3103 
Q 1356 3103 1142 2972 
Q 928 2841 928 2578 
Q 928 2378 1081 2264 
Q 1234 2150 1697 2047 
L 1894 2003 
Q 2506 1872 2764 1633 
Q 3022 1394 3022 966 
Q 3022 478 2636 193 
Q 2250 -91 1575 -91 
Q 1294 -91 989 -36 
Q 684 19 347 128 
L 347 722 
Q 666 556 975 473 
Q 1284 391 1588 391 
Q 1994 391 2212 530 
Q 2431 669 2431 922 
Q 2431 1156 2273 1281 
Q 2116 1406 1581 1522 
L 1381 1569 
Q 847 1681 609 1914 
Q 372 2147 372 2553 
Q 372 3047 722 3315 
Q 1072 3584 1716 3584 
Q 2034 3584 2315 3537 
Q 2597 3491 2834 3397 
z
" transform="scale(0.015625)"/>
      <path id="DejaVuSans-28" d="M 1984 4856 
Q 1566 4138 1362 3434 
Q 1159 2731 1159 2009 
Q 1159 1288 1364 580 
Q 1569 -128 1984 -844 
L 1484 -844 
Q 1016 -109 783 600 
Q 550 1309 550 2009 
Q 550 2706 781 3412 
Q 1013 4119 1484 4856 
L 1984 4856 
z
" transform="scale(0.015625)"/>
      <path id="DejaVuSans-3b8" d="M 2953 2219 
L 963 2219 
Q 1009 1284 1225 888 
Q 1494 400 1959 400 
Q 2428 400 2688 891 
Q 2916 1322 2953 2219 
z
M 2944 2750 
Q 2856 3638 2688 3950 
Q 2419 4444 1959 4444 
Q 1481 4444 1228 3956 
Q 1028 3563 969 2750 
L 2944 2750 
z
M 1959 4913 
Q 2709 4913 3138 4250 
Q 3566 3591 3566 2422 
Q 3566 1256 3138 594 
Q 2709 -72 1959 -72 
Q 1206 -72 781 594 
Q 353 1256 353 2422 
Q 353 3591 781 4250 
Q 1206 4913 1959 4913 
z
" transform="scale(0.015625)"/>
      <path id="DejaVuSans-3d" d="M 678 2906 
L 4684 2906 
L 4684 2381 
L 678 2381 
L 678 2906 
z
M 678 1631 
L 4684 1631 
L 4684 1100 
L 678 1100 
L 678 1631 
z
" transform="scale(0.015625)"/>
      <path id="DejaVuSans-29" d="M 513 4856 
L 1013 4856 
Q 1481 4119 1714 3412 
Q 1947 2706 1947 2009 
Q 1947 1309 1714 600 
Q 1481 -109 1013 -844 
L 513 -844 
Q 928 -128 1133 580 
Q 1338 1288 1338 2009 
Q 1338 2731 1133 3434 
Q 928 4138 513 4856 
z
" transform="scale(0.015625)"/>
     </defs>
     <use xlink:href="#DejaVuSans-47"/>
     <use xlink:href="#DejaVuSans-75" transform="translate(77.490234 0)"/>
     <use xlink:href="#DejaVuSans-6d" transform="translate(140.869141 0)"/>
     <use xlink:href="#DejaVuSans-62" transform="translate(238.28125 0)"/>
     <use xlink:href="#DejaVuSans-65" transform="translate(301.757812 0)"/>
     <use xlink:href="#DejaVuSans-6c" transform="translate(363.28125 0)"/>
     <use xlink:href="#DejaVuSans-20" transform="translate(391.064453 0)"/>
     <use xlink:href="#DejaVuSans-63" transform="translate(422.851562 0)"/>
     <use xlink:href="#DejaVuSans-6f" transform="translate(477.832031 0)"/>
     <use xlink:href="#DejaVuSans-70" transform="translate(539.013672 0)"/>
     <use xlink:href="#DejaVuSans-75" transform="translate(602.490234 0)"/>
     <use xlink:href="#DejaVuSans-6c" transform="translate(665.869141 0)"/>
     <use xlink:href="#DejaVuSans-61" transform="translate(693.652344 0)"/>
     <use xlink:href="#DejaVuSans-20" transform="translate(754.931641 0)"/>
     <use xlink:href="#DejaVuSans-63" transform="translate(786.71875 0)"/>
     <use xlink:href="#DejaVuSans-6f" transform="translate(841.699219 0)"/>
     <use xlink:href="#DejaVuSans-6e" transform="translate(902.880859 0)"/>
     <use xlink:href="#DejaVuSans-74" transform="translate(966.259766 0)"/>
     <use xlink:href="#DejaVuSans-6f" transform="translate(1005.46875 0)"/>
     <use xlink:href="#DejaVuSans-75" transform="translate(1066.650391 0)"/>
     <use xlink:href="#DejaVuSans-72" transform="translate(1130.029297 0)"/>
     <use xlink:href="#DejaVuSans-73" transform="translate(1171.142578 0)"/>
     <use xlink:href="#DejaVuSans-20" transform="translate(1223.242188 0)"/>
     <use xlink:href="#DejaVuSans-28" transform="translate(1255.029297 0)"/>
     <use xlink:href="#DejaVuSans-3b8" transform="translate(1294.042969 0)"/>
     <use xlink:href="#DejaVuSans-3d" transform="translate(1355.224609 0)"/>
     <use xlink:href="#DejaVuSans-32" transform="translate(1439.013672 0)"/>
     <use xlink:href="#DejaVuSans-29" transform="translate(1502.636719 0)"/>
    </g>
   </g>
   <g id="text_12">
    <g clip-path="url(#pa150ac9e23)">
     <!-- 0.1 -->
     <g style="fill: #440154" transform="translate(321.658579 226.30637) rotate(-359.843913) scale(0.08 -0.08)">
      <defs>
       <path id="DejaVuSans-31" d="M 794 531 
L 1825 531 
L 1825 4091 
L 703 3866 
L 703 4441 
L 1819 4666 
L 2450 4666 
L 2450 531 
L 3481 531 
L 3481 0 
L 794 0 
L 794 531 
z
" transform="scale(0.015625)"/>
      </defs>
      <use xlink:href="#DejaVuSans-30"/>
      <use xlink:href="#DejaVuSans-2e" transform="translate(63.623047 0)"/>
      <use xlink:href="#DejaVuSans-31" transform="translate(95.410156 0)"/>
     </g>
    </g>
   </g>
   <g id="text_13">
    <g clip-path="url(#pa150ac9e23)">
     <!-- 0.2 -->
     <g style="fill: #472d7b" transform="translate(330.729871 204.37856) rotate(-359.755887) scale(0.08 -0.08)">
      <use xlink:href="#DejaVuSans-30"/>
      <use xlink:href="#DejaVuSans-2e" transform="translate(63.623047 0)"/>
      <use xlink:href="#DejaVuSans-32" transform="translate(95.410156 0)"/>
     </g>
    </g>
   </g>
   <g id="text_14">
    <g clip-path="url(#pa150ac9e23)">
     <!-- 0.3 -->
     <g style="fill: #3b528b" transform="translate(322.640801 182.282121) rotate(-359.149598) scale(0.08 -0.08)">
      <defs>
       <path id="DejaVuSans-33" d="M 2597 2516 
Q 3050 2419 3304 2112 
Q 3559 1806 3559 1356 
Q 3559 666 3084 287 
Q 2609 -91 1734 -91 
Q 1441 -91 1130 -33 
Q 819 25 488 141 
L 488 750 
Q 750 597 1062 519 
Q 1375 441 1716 441 
Q 2309 441 2620 675 
Q 2931 909 2931 1356 
Q 2931 1769 2642 2001 
Q 2353 2234 1838 2234 
L 1294 2234 
L 1294 2753 
L 1863 2753 
Q 2328 2753 2575 2939 
Q 2822 3125 2822 3475 
Q 2822 3834 2567 4026 
Q 2313 4219 1838 4219 
Q 1578 4219 1281 4162 
Q 984 4106 628 3988 
L 628 4550 
Q 988 4650 1302 4700 
Q 1616 4750 1894 4750 
Q 2613 4750 3031 4423 
Q 3450 4097 3450 3541 
Q 3450 3153 3228 2886 
Q 3006 2619 2597 2516 
z
" transform="scale(0.015625)"/>
      </defs>
      <use xlink:href="#DejaVuSans-30"/>
      <use xlink:href="#DejaVuSans-2e" transform="translate(63.623047 0)"/>
      <use xlink:href="#DejaVuSans-33" transform="translate(95.410156 0)"/>
     </g>
    </g>
   </g>
   <g id="text_15">
    <g clip-path="url(#pa150ac9e23)">
     <!-- 0.4 -->
     <g style="fill: #2c728e" transform="translate(331.717923 160.433072) rotate(-359.216539) scale(0.08 -0.08)">
      <use xlink:href="#DejaVuSans-30"/>
      <use xlink:href="#DejaVuSans-2e" transform="translate(63.623047 0)"/>
      <use xlink:href="#DejaVuSans-34" transform="translate(95.410156 0)"/>
     </g>
    </g>
   </g>
   <g id="text_16">
    <g clip-path="url(#pa150ac9e23)">
     <!-- 0.5 -->
     <g style="fill: #21918c" transform="translate(323.596453 138.063268) rotate(-357.663562) scale(0.08 -0.08)">
      <defs>
       <path id="DejaVuSans-35" d="M 691 4666 
L 3169 4666 
L 3169 4134 
L 1269 4134 
L 1269 2991 
Q 1406 3038 1543 3061 
Q 1681 3084 1819 3084 
Q 2600 3084 3056 2656 
Q 3513 2228 3513 1497 
Q 3513 744 3044 326 
Q 2575 -91 1722 -91 
Q 1428 -91 1123 -41 
Q 819 9 494 109 
L 494 744 
Q 775 591 1075 516 
Q 1375 441 1709 441 
Q 2250 441 2565 725 
Q 2881 1009 2881 1497 
Q 2881 1984 2565 2268 
Q 2250 2553 1709 2553 
Q 1456 2553 1204 2497 
Q 953 2441 691 2322 
L 691 4666 
z
" transform="scale(0.015625)"/>
      </defs>
      <use xlink:href="#DejaVuSans-30"/>
      <use xlink:href="#DejaVuSans-2e" transform="translate(63.623047 0)"/>
      <use xlink:href="#DejaVuSans-35" transform="translate(95.410156 0)"/>
     </g>
    </g>
   </g>
   <g id="text_17">
    <g clip-path="url(#pa150ac9e23)">
     <!-- 0.6 -->
     <g style="fill: #28ae80" transform="translate(332.685686 116.383544) rotate(-358.087712) scale(0.08 -0.08)">
      <use xlink:href="#DejaVuSans-30"/>
      <use xlink:href="#DejaVuSans-2e" transform="translate(63.623047 0)"/>
      <use xlink:href="#DejaVuSans-36" transform="translate(95.410156 0)"/>
     </g>
    </g>
   </g>
   <g id="text_18">
    <g clip-path="url(#pa150ac9e23)">
     <!-- 0.7 -->
     <g style="fill: #5ec962" transform="translate(325.510325 93.439255) rotate(-354.313669) scale(0.08 -0.08)">
      <defs>
       <path id="DejaVuSans-37" d="M 525 4666 
L 3525 4666 
L 3525 4397 
L 1831 0 
L 1172 0 
L 2766 4134 
L 525 4134 
L 525 4666 
z
" transform="scale(0.015625)"/>
      </defs>
      <use xlink:href="#DejaVuSans-30"/>
      <use xlink:href="#DejaVuSans-2e" transform="translate(63.623047 0)"/>
      <use xlink:href="#DejaVuSans-37" transform="translate(95.410156 0)"/>
     </g>
    </g>
   </g>
   <g id="text_19">
    <g clip-path="url(#pa150ac9e23)">
     <!-- 0.8 -->
     <g style="fill: #addc30" transform="translate(319.291802 68.532211) rotate(-344.808062) scale(0.08 -0.08)">
      <use xlink:href="#DejaVuSans-30"/>
      <use xlink:href="#DejaVuSans-2e" transform="translate(63.623047 0)"/>
      <use xlink:href="#DejaVuSans-38" transform="translate(95.410156 0)"/>
     </g>
    </g>
   </g>
   <g id="text_20">
    <g clip-path="url(#pa150ac9e23)">
     <!-- 0.9 -->
     <g style="fill: #fde725" transform="translate(319.381231 37.790054) rotate(-314.247168) scale(0.08 -0.08)">
      <defs>
       <path id="DejaVuSans-39" d="M 703 97 
L 703 672 
Q 941 559 1184 500 
Q 1428 441 1663 441 
Q 2288 441 2617 861 
Q 2947 1281 2994 2138 
Q 2813 1869 2534 1725 
Q 2256 1581 1919 1581 
Q 1219 1581 811 2004 
Q 403 2428 403 3163 
Q 403 3881 828 4315 
Q 1253 4750 1959 4750 
Q 2769 4750 3195 4129 
Q 3622 3509 3622 2328 
Q 3622 1225 3098 567 
Q 2575 -91 1691 -91 
Q 1453 -91 1209 -44 
Q 966 3 703 97 
z
M 1959 2075 
Q 2384 2075 2632 2365 
Q 2881 2656 2881 3163 
Q 2881 3666 2632 3958 
Q 2384 4250 1959 4250 
Q 1534 4250 1286 3958 
Q 1038 3666 1038 3163 
Q 1038 2656 1286 2365 
Q 1534 2075 1959 2075 
z
" transform="scale(0.015625)"/>
      </defs>
      <use xlink:href="#DejaVuSans-30"/>
      <use xlink:href="#DejaVuSans-2e" transform="translate(63.623047 0)"/>
      <use xlink:href="#DejaVuSans-39" transform="translate(95.410156 0)"/>
     </g>
    </g>
   </g>
  </g>
 </g>
 <defs>
  <clipPath id="pa150ac9e23">
   <rect x="47.72" y="26.88" width="301.48" height="219.16"/>
  </clipPath>
 </defs>
</svg>
