<?xml version="1.0" encoding="utf-8" standalone="no"?>
<!DOCTYPE svg PUBLIC "-//W3C//DTD SVG 1.1//EN"
  "http://www.w3.org/Graphics/SVG/1.1/DTD/svg11.dtd">
<svg xmlns:xlink="http://www.w3.org/1999/xlink" width="360pt" height="288pt" viewBox="0 0 360 288" xmlns="http://www.w3.org/2000/svg" version="1.1">
 <metadata>
  <rdf:RDF xmlns:dc="http://purl.org/dc/elements/1.1/" xmlns:cc="http://creativecommons.org/ns#" xmlns:rdf="http://www.w3.org/1999/02/22-rdf-syntax-ns#">
   <cc:Work>
    <dc:type rdf:resource="http://purl.org/dc/dcmitype/StillImage"/>
    <dc:date>2025-10-12T22:06:48.419351</dc:date>
    <dc:format>image/svg+xml</dc:format>
    <dc:creator>
     <cc:Agent>
      <dc:title>Matplotlib v3.10.7, https://matplotlib.org/</dc:title>
     </cc:Agent>
    </dc:creator>
   </cc:Work>
  </rdf:RDF>
 </metadata>
 <defs>
  <style type="text/css">*{stroke-linejoin: round; stroke-linecap: butt}</style>
 </defs>
 <g id="figure_1">
  <g id="patch_1">
   <path d="M 0 288 
L 360 288 
L 360 0 
L 0 0 
z
" style="fill: #ffffff"/>
  </g>
  <g id="axes_1">
   <g id="patch_2">
    <path d="M 47.72 246.04 
L 349.2 246.04 
L 349.2 26.88 
L 47.72 26.88 
z
" style="fill: #ffffff"/>
   </g>
   <g id="matplotlib.axis_1">
    <g id="xtick_1">
     <g id="line2d_1">
      <defs>
       <path id="md825d7b084" d="M 0 0 
L 0 3.5 
" style="stroke: #000000; stroke-width: 0.8"/>
      </defs>
      <g>
       <use xlink:href="#md825d7b084" x="107.997908" y="246.04" style="stroke: #000000; stroke-width: 0.8"/>
      </g>
     </g>
     <g id="text_1">
      <!-- 0.2 -->
      <g transform="translate(100.046345 260.638438) scale(0.1 -0.1)">
       <defs>
        <path id="DejaVuSans-30" d="M 2034 4250 
Q 1547 4250 1301 3770 
Q 1056 3291 1056 2328 
Q 1056 1369 1301 889 
Q 1547 409 2034 409 
Q 2525 409 2770 889 
Q 3016 1369 3016 2328 
Q 3016 3291 2770 3770 
Q 2525 4250 2034 4250 
z
M 2034 4750 
Q 2819 4750 3233 4129 
Q 3647 3509 3647 2328 
Q 3647 1150 3233 529 
Q 2819 -91 2034 -91 
Q 1250 -91 836 529 
Q 422 1150 422 2328 
Q 422 3509 836 4129 
Q 1250 4750 2034 4750 
z
" transform="scale(0.015625)"/>
        <path id="DejaVuSans-2e" d="M 684 794 
L 1344 794 
L 1344 0 
L 684 0 
L 684 794 
z
" transform="scale(0.015625)"/>
        <path id="DejaVuSans-32" d="M 1228 531 
L 3431 531 
L 3431 0 
L 469 0 
L 469 531 
Q 828 903 1448 1529 
Q 2069 2156 2228 2338 
Q 2531 2678 2651 2914 
Q 2772 3150 2772 3378 
Q 2772 3750 2511 3984 
Q 2250 4219 1831 4219 
Q 1534 4219 1204 4116 
Q 875 4013 500 3803 
L 500 4441 
Q 881 4594 1212 4672 
Q 1544 4750 1819 4750 
Q 2544 4750 2975 4387 
Q 3406 4025 3406 3419 
Q 3406 3131 3298 2873 
Q 3191 2616 2906 2266 
Q 2828 2175 2409 1742 
Q 1991 1309 1228 531 
z
" transform="scale(0.015625)"/>
       </defs>
       <use xlink:href="#DejaVuSans-30"/>
       <use xlink:href="#DejaVuSans-2e" transform="translate(63.623047 0)"/>
       <use xlink:href="#DejaVuSans-32" transform="translate(95.410156 0)"/>
      </g>
     </g>
    </g>
    <g id="xtick_2">
     <g id="line2d_2">
      <g>
       <use xlink:href="#md825d7b084" x="168.305969" y="246.04" style="stroke: #000000; stroke-width: 0.8"/>
      </g>
     </g>
     <g id="text_2">
      <!-- 0.4 -->
      <g transform="translate(160.354407 260.638438) scale(0.1 -0.1)">
       <defs>
        <path id="DejaVuSans-34" d="M 2419 4116 
L 825 1625 
L 2419 1625 
L 2419 4116 
z
M 2253 4666 
L 3047 4666 
L 3047 1625 
L 3713 1625 
L 3713 1100 
L 3047 1100 
L 3047 0 
L 2419 0 
L 2419 1100 
L 313 1100 
L 313 1709 
L 2253 4666 
z
" transform="scale(0.015625)"/>
       </defs>
       <use xlink:href="#DejaVuSans-30"/>
       <use xlink:href="#DejaVuSans-2e" transform="translate(63.623047 0)"/>
       <use xlink:href="#DejaVuSans-34" transform="translate(95.410156 0)"/>
      </g>
     </g>
    </g>
    <g id="xtick_3">
     <g id="line2d_3">
      <g>
       <use xlink:href="#md825d7b084" x="228.614031" y="246.04" style="stroke: #000000; stroke-width: 0.8"/>
      </g>
     </g>
     <g id="text_3">
      <!-- 0.6 -->
      <g transform="translate(220.662468 260.638438) scale(0.1 -0.1)">
       <defs>
        <path id="DejaVuSans-36" d="M 2113 2584 
Q 1688 2584 1439 2293 
Q 1191 2003 1191 1497 
Q 1191 994 1439 701 
Q 1688 409 2113 409 
Q 2538 409 2786 701 
Q 3034 994 3034 1497 
Q 3034 2003 2786 2293 
Q 2538 2584 2113 2584 
z
M 3366 4563 
L 3366 3988 
Q 3128 4100 2886 4159 
Q 2644 4219 2406 4219 
Q 1781 4219 1451 3797 
Q 1122 3375 1075 2522 
Q 1259 2794 1537 2939 
Q 1816 3084 2150 3084 
Q 2853 3084 3261 2657 
Q 3669 2231 3669 1497 
Q 3669 778 3244 343 
Q 2819 -91 2113 -91 
Q 1303 -91 875 529 
Q 447 1150 447 2328 
Q 447 3434 972 4092 
Q 1497 4750 2381 4750 
Q 2619 4750 2861 4703 
Q 3103 4656 3366 4563 
z
" transform="scale(0.015625)"/>
       </defs>
       <use xlink:href="#DejaVuSans-30"/>
       <use xlink:href="#DejaVuSans-2e" transform="translate(63.623047 0)"/>
       <use xlink:href="#DejaVuSans-36" transform="translate(95.410156 0)"/>
      </g>
     </g>
    </g>
    <g id="xtick_4">
     <g id="line2d_4">
      <g>
       <use xlink:href="#md825d7b084" x="288.922092" y="246.04" style="stroke: #000000; stroke-width: 0.8"/>
      </g>
     </g>
     <g id="text_4">
      <!-- 0.8 -->
      <g transform="translate(280.97053 260.638438) scale(0.1 -0.1)">
       <defs>
        <path id="DejaVuSans-38" d="M 2034 2216 
Q 1584 2216 1326 1975 
Q 1069 1734 1069 1313 
Q 1069 891 1326 650 
Q 1584 409 2034 409 
Q 2484 409 2743 651 
Q 3003 894 3003 1313 
Q 3003 1734 2745 1975 
Q 2488 2216 2034 2216 
z
M 1403 2484 
Q 997 2584 770 2862 
Q 544 3141 544 3541 
Q 544 4100 942 4425 
Q 1341 4750 2034 4750 
Q 2731 4750 3128 4425 
Q 3525 4100 3525 3541 
Q 3525 3141 3298 2862 
Q 3072 2584 2669 2484 
Q 3125 2378 3379 2068 
Q 3634 1759 3634 1313 
Q 3634 634 3220 271 
Q 2806 -91 2034 -91 
Q 1263 -91 848 271 
Q 434 634 434 1313 
Q 434 1759 690 2068 
Q 947 2378 1403 2484 
z
M 1172 3481 
Q 1172 3119 1398 2916 
Q 1625 2713 2034 2713 
Q 2441 2713 2670 2916 
Q 2900 3119 2900 3481 
Q 2900 3844 2670 4047 
Q 2441 4250 2034 4250 
Q 1625 4250 1398 4047 
Q 1172 3844 1172 3481 
z
" transform="scale(0.015625)"/>
       </defs>
       <use xlink:href="#DejaVuSans-30"/>
       <use xlink:href="#DejaVuSans-2e" transform="translate(63.623047 0)"/>
       <use xlink:href="#DejaVuSans-38" transform="translate(95.410156 0)"/>
      </g>
     </g>
    </g>
    <g id="text_5">
     <!-- u -->
     <g transform="translate(195.29125 274.316562) scale(0.1 -0.1)">
      <defs>
       <path id="DejaVuSans-75" d="M 544 1381 
L 544 3500 
L 1119 3500 
L 1119 1403 
Q 1119 906 1312 657 
Q 1506 409 1894 409 
Q 2359 409 2629 706 
Q 2900 1003 2900 1516 
L 2900 3500 
L 3475 3500 
L 3475 0 
L 2900 0 
L 2900 538 
Q 2691 219 2414 64 
Q 2138 -91 1772 -91 
Q 1169 -91 856 284 
Q 544 659 544 1381 
z
M 1991 3584 
L 1991 3584 
z
" transform="scale(0.015625)"/>
      </defs>
      <use xlink:href="#DejaVuSans-75"/>
     </g>
    </g>
   </g>
   <g id="matplotlib.axis_2">
    <g id="ytick_1">
     <g id="line2d_5">
      <defs>
       <path id="m2a986846ef" d="M 0 0 
L -3.5 0 
" style="stroke: #000000; stroke-width: 0.8"/>
      </defs>
      <g>
       <use xlink:href="#m2a986846ef" x="47.72" y="202.221152" style="stroke: #000000; stroke-width: 0.8"/>
      </g>
     </g>
     <g id="text_6">
      <!-- 0.2 -->
      <g transform="translate(24.816875 206.020371) scale(0.1 -0.1)">
       <use xlink:href="#DejaVuSans-30"/>
       <use xlink:href="#DejaVuSans-2e" transform="translate(63.623047 0)"/>
       <use xlink:href="#DejaVuSans-32" transform="translate(95.410156 0)"/>
      </g>
     </g>
    </g>
    <g id="ytick_2">
     <g id="line2d_6">
      <g>
       <use xlink:href="#m2a986846ef" x="47.72" y="158.380384" style="stroke: #000000; stroke-width: 0.8"/>
      </g>
     </g>
     <g id="text_7">
      <!-- 0.4 -->
      <g transform="translate(24.816875 162.179603) scale(0.1 -0.1)">
       <use xlink:href="#DejaVuSans-30"/>
       <use xlink:href="#DejaVuSans-2e" transform="translate(63.623047 0)"/>
       <use xlink:href="#DejaVuSans-34" transform="translate(95.410156 0)"/>
      </g>
     </g>
    </g>
    <g id="ytick_3">
     <g id="line2d_7">
      <g>
       <use xlink:href="#m2a986846ef" x="47.72" y="114.539616" style="stroke: #000000; stroke-width: 0.8"/>
      </g>
     </g>
     <g id="text_8">
      <!-- 0.6 -->
      <g transform="translate(24.816875 118.338835) scale(0.1 -0.1)">
       <use xlink:href="#DejaVuSans-30"/>
       <use xlink:href="#DejaVuSans-2e" transform="translate(63.623047 0)"/>
       <use xlink:href="#DejaVuSans-36" transform="translate(95.410156 0)"/>
      </g>
     </g>
    </g>
    <g id="ytick_4">
     <g id="line2d_8">
      <g>
       <use xlink:href="#m2a986846ef" x="47.72" y="70.698848" style="stroke: #000000; stroke-width: 0.8"/>
      </g>
     </g>
     <g id="text_9">
      <!-- 0.8 -->
      <g transform="translate(24.816875 74.498067) scale(0.1 -0.1)">
       <use xlink:href="#DejaVuSans-30"/>
       <use xlink:href="#DejaVuSans-2e" transform="translate(63.623047 0)"/>
       <use xlink:href="#DejaVuSans-38" transform="translate(95.410156 0)"/>
      </g>
     </g>
    </g>
    <g id="text_10">
     <!-- v -->
     <g transform="translate(18.737188 139.419375) rotate(-90) scale(0.1 -0.1)">
      <defs>
       <path id="DejaVuSans-76" d="M 191 3500 
L 800 3500 
L 1894 563 
L 2988 3500 
L 3597 3500 
L 2284 0 
L 1503 0 
L 191 3500 
z
" transform="scale(0.015625)"/>
      </defs>
      <use xlink:href="#DejaVuSans-76"/>
     </g>
    </g>
   </g>
   <g id="QuadContourSet_1">
    <path d="M 349.2 122.406053 
L 342.14194 122.293652 
L 335.08388 121.955806 
L 328.025819 121.389066 
L 320.967759 120.583934 
L 313.909699 119.529399 
L 307.859933 118.415936 
L 301.56577 117.03612 
L 295.760401 115.548689 
L 289.710635 113.757695 
L 284.233623 111.905284 
L 279.627692 110.158987 
L 274.586221 108.029499 
L 269.544749 105.644868 
L 264.749508 103.109565 
L 260.4701 100.595485 
L 256.43543 97.978729 
L 252.351479 95.046823 
L 248.370569 91.869926 
L 245.314598 89.18301 
L 242.269063 86.251104 
L 239.985873 83.858617 
M 228.171936 67.490804 
L 226.188094 63.663216 
L 224.461288 59.863946 
L 223.007128 56.199064 
L 221.521053 51.801204 
L 220.29937 47.403344 
L 219.330145 43.005485 
L 218.602741 38.607625 
L 218.107719 34.209766 
L 217.843629 29.811906 
L 217.792834 26.88 
L 217.792834 26.88 
" clip-path="url(#p1708a29b07)" style="fill: none; stroke: #440154; stroke-width: 1.5"/>
    <path d="M 349.2 158.379613 
L 340.125351 158.273044 
L 331.050702 157.952745 
L 321.976054 157.413677 
L 312.901405 156.646941 
L 304.83505 155.763665 
L 296.768696 154.67848 
L 292.230185 153.973228 
M 271.16075 149.69285 
L 264.503278 147.944876 
L 258.453512 146.161231 
L 252.356182 144.156254 
L 246.35398 141.954374 
L 240.304214 139.476605 
L 234.504259 136.826488 
L 230.133457 134.627559 
L 224.832967 131.695652 
L 220.043956 128.763746 
L 215.694319 125.831839 
L 211.722901 122.899933 
L 208.038796 119.931269 
L 203.941561 116.303144 
L 200.198463 112.638261 
L 196.947559 109.136994 
L 193.922676 105.565555 
L 190.897793 101.638066 
L 187.850167 97.245753 
L 185.114832 92.847893 
L 182.661221 88.450033 
L 180.463555 84.052174 
L 178.497836 79.654314 
L 176.472793 74.523478 
L 174.711739 69.392642 
L 173.196028 64.261806 
L 171.90557 59.13097 
L 170.731906 53.489259 
L 169.842735 48.136321 
L 169.107985 42.272508 
L 168.6125 36.408696 
L 168.352493 30.544883 
L 168.307029 26.88 
L 168.307029 26.88 
" clip-path="url(#p1708a29b07)" style="fill: none; stroke: #472d7b; stroke-width: 1.5"/>
    <path d="M 349.2 183.400063 
L 338.108763 183.297624 
L 327.017525 182.99003 
L 319.591343 182.664506 
M 298.163268 181.16334 
L 288.702341 180.210657 
L 278.619398 178.974661 
L 269.544749 177.648625 
L 260.4701 176.095684 
L 252.403746 174.501804 
L 244.337391 172.681231 
L 237.279331 170.876426 
L 230.221271 168.848917 
L 223.163211 166.566537 
L 217.113445 164.378623 
L 211.063679 161.945816 
L 205.68675 159.548763 
L 200.980736 157.244165 
L 195.738788 154.417926 
L 190.827202 151.48602 
L 186.375635 148.554114 
L 182.319413 145.622207 
L 178.60823 142.690301 
L 174.765084 139.364588 
L 171.317988 136.093512 
L 167.707023 132.328267 
L 164.599598 128.763746 
L 161.657258 125.066155 
L 158.509838 120.701003 
L 155.607492 116.230071 
L 153.074827 111.905284 
L 150.56602 107.154641 
L 148.302376 102.376589 
L 146.129086 97.245753 
L 144.194633 92.114916 
L 142.246635 86.251104 
L 140.483077 80.134452 
L 139.085327 74.523478 
L 137.68489 67.926689 
L 136.527026 61.3299 
L 135.595043 54.73311 
L 134.87478 48.136321 
L 134.308812 40.806555 
L 133.982913 33.476789 
L 133.888498 26.88 
L 133.888498 26.88 
" clip-path="url(#p1708a29b07)" style="fill: none; stroke: #3b528b; stroke-width: 1.5"/>
    <path d="M 349.2 202.220426 
L 335.793032 202.122548 
M 314.21307 201.544636 
L 301.810167 200.964959 
L 288.702341 200.137141 
L 276.300469 199.129498 
L 264.503278 197.940329 
L 253.41204 196.590407 
L 243.329097 195.137969 
L 234.254448 193.61887 
L 225.179799 191.867651 
L 217.113445 190.083043 
L 209.362754 188.134849 
L 202.997324 186.334799 
L 196.947559 184.433614 
L 190.773367 182.271037 
L 184.848027 179.952056 
L 179.806555 177.762376 
L 174.765084 175.342011 
L 169.723612 172.656478 
L 164.922 169.810435 
L 160.648963 167.003126 
L 156.615786 164.077524 
L 153.590903 161.681846 
L 150.261624 158.815786 
L 147.142686 155.88388 
L 144.279629 152.951973 
L 141.017983 149.28709 
L 138.064004 145.622207 
L 135.378353 141.957324 
L 132.416722 137.479668 
L 129.85143 133.161605 
L 127.375251 128.534275 
L 125.025075 123.63291 
L 122.825376 118.502074 
L 120.859947 113.371237 
L 118.865817 107.507425 
L 117.108065 101.643612 
L 115.380059 95.046823 
L 113.886676 88.450033 
L 112.4691 81.120268 
L 111.242542 73.53603 
L 110.21075 65.727759 
L 109.36958 57.665017 
L 108.738861 49.602274 
L 108.274206 40.806555 
L 108.036288 32.010836 
L 107.998907 26.88 
L 107.998907 26.88 
" clip-path="url(#p1708a29b07)" style="fill: none; stroke: #2c728e; stroke-width: 1.5"/>
    <path d="M 330.387951 216.56911 
L 313.909699 216.25223 
L 296.768696 215.702718 
L 280.635987 214.958367 
L 265.511572 214.031829 
L 252.403746 213.021063 
L 239.29592 211.77962 
L 228.204682 210.517111 
L 218.121739 209.168345 
L 208.038796 207.590195 
L 198.964147 205.935673 
L 190.897793 204.24191 
L 182.831438 202.293978 
L 176.635871 200.595452 
L 170.731906 198.780742 
L 164.68214 196.691073 
L 159.61808 194.731639 
L 154.525893 192.532709 
L 149.557726 190.128644 
L 145.524548 187.958084 
L 141.491371 185.557676 
L 137.458194 182.890612 
L 133.425017 179.908752 
L 130.062639 177.140201 
L 126.844457 174.208294 
L 123.930477 171.276388 
L 121.279509 168.344482 
L 118.287932 164.679599 
L 115.605172 161.014716 
L 113.18494 157.349833 
L 110.582548 152.951973 
L 108.217659 148.470766 
L 105.853884 143.423278 
L 103.725701 138.292441 
L 101.835041 133.161605 
L 99.923897 127.297793 
L 98.134716 121.036415 
L 96.585855 114.837191 
L 94.99451 107.507425 
L 93.506675 99.444682 
L 92.251598 91.38194 
L 91.113795 82.586221 
L 90.188804 73.790502 
L 89.398796 64.261806 
L 88.768734 54.000134 
L 88.327691 43.005485 
L 88.113091 32.010836 
L 88.08886 26.88 
L 88.08886 26.88 
" clip-path="url(#p1708a29b07)" style="fill: none; stroke: #21918c; stroke-width: 1.5"/>
    <path d="M 349.2 227.761222 
L 335.74681 227.723245 
M 314.2557 227.49888 
L 292.735518 227.063651 
L 273.577926 226.470665 
L 255.428629 225.699833 
L 238.924971 224.783679 
L 224.171505 223.74517 
L 210.789817 222.584749 
L 198.964147 221.336408 
L 188.881204 220.069275 
L 179.806555 218.730907 
L 170.731906 217.159297 
L 162.665552 215.520688 
L 155.607492 213.856449 
L 149.557726 212.219082 
L 143.50796 210.345679 
L 138.466488 208.568123 
L 133.209058 206.459264 
L 128.383545 204.247022 
L 124.186048 202.061405 
L 120.317191 199.788933 
L 117.083458 197.663545 
L 114.069133 195.464615 
L 111.242542 193.179816 
L 108.092987 190.333779 
L 105.192776 187.382128 
L 102.641717 184.469967 
L 100.151304 181.292811 
L 97.76452 177.873177 
L 95.489035 174.208294 
L 93.461645 170.543411 
L 91.645499 166.878528 
L 89.702853 162.480669 
L 87.71179 157.349833 
L 85.967296 152.218997 
L 84.228215 146.355184 
L 82.713529 140.491371 
L 81.232715 133.894582 
L 79.818912 126.564816 
L 78.498669 118.502074 
L 77.28785 109.706355 
L 76.201569 100.177659 
L 75.251034 89.915987 
L 74.444675 78.921338 
L 73.755084 66.460736 
L 73.254303 53.267157 
L 72.949783 39.340602 
L 72.86458 26.88 
L 72.86458 26.88 
" clip-path="url(#p1708a29b07)" style="fill: none; stroke: #28ae80; stroke-width: 1.5"/>
    <path d="M 330.33878 235.92215 
L 300.801873 235.68982 
L 272.569632 235.246767 
L 248.370569 234.655352 
L 227.196388 233.926998 
L 209.04709 233.091994 
L 193.922676 232.196749 
L 180.814849 231.221783 
L 168.715318 230.105802 
L 158.632375 228.96629 
L 149.472213 227.715585 
L 141.491371 226.404024 
L 134.433311 225.025633 
L 128.383545 223.635738 
L 123.342074 222.293432 
L 118.300602 220.742954 
L 114.267425 219.319014 
L 109.677837 217.453913 
L 106.20107 215.827238 
L 102.398231 213.78903 
L 99.14301 211.779896 
L 96.118127 209.644792 
L 93.952063 207.925217 
L 91.076656 205.343788 
L 88.603649 202.794381 
L 86.122943 199.862475 
L 84.018595 197.011733 
L 82.002007 193.895552 
L 79.985418 190.318048 
L 77.968829 186.164017 
L 76.336815 182.271037 
L 74.731562 177.873177 
L 73.121618 172.742341 
L 71.739699 167.611505 
L 70.386026 161.747692 
L 69.090054 155.150903 
L 67.876241 147.821137 
L 66.672234 139.025418 
L 65.604564 129.496722 
L 64.610969 118.502074 
L 63.723663 106.041472 
L 62.933025 91.38194 
L 62.36099 76.722408 
L 61.895401 59.13097 
L 61.646193 41.539532 
L 61.582794 26.88 
L 61.582794 26.88 
" clip-path="url(#p1708a29b07)" style="fill: none; stroke: #5ec962; stroke-width: 1.5"/>
    <path d="M 349.2 241.632736 
L 317.64647 241.581244 
M 296.056877 241.484544 
L 255.428629 241.146828 
L 223.163211 240.6778 
L 195.939264 240.065212 
L 173.756789 239.32702 
L 156.615786 238.523066 
L 142.499666 237.623252 
L 131.408428 236.690799 
L 122.333779 235.710365 
L 114.267425 234.599211 
L 108.217659 233.56693 
L 102.167893 232.289434 
L 98.134716 231.261792 
L 93.701723 229.914515 
L 89.718799 228.448562 
L 86.035184 226.806693 
L 83.010301 225.188168 
L 80.993712 223.937288 
L 78.977124 222.514206 
L 76.404113 220.385819 
L 74.876111 218.919866 
L 72.886634 216.720936 
L 70.910769 214.129878 
L 69.276477 211.5901 
L 67.674338 208.658194 
L 66.316266 205.726288 
L 64.861003 202.013861 
L 63.458132 197.663545 
L 62.280987 193.265686 
L 61.141929 188.134849 
L 60.074276 182.271037 
L 59.096876 175.674247 
L 58.217086 168.344482 
L 57.370515 159.548763 
L 56.543203 148.554114 
L 55.75191 134.627559 
L 55.070783 117.769097 
L 54.548258 99.444682 
L 54.116964 75.989431 
L 53.847746 48.869298 
L 53.782703 26.88 
L 53.782703 26.88 
" clip-path="url(#p1708a29b07)" style="fill: none; stroke: #addc30; stroke-width: 1.5"/>
    <path d="M 349.2 244.932142 
L 334.78757 244.929618 
M 313.197717 244.916299 
L 228.204682 244.730659 
L 178.798261 244.434019 
L 143.50796 243.989889 
L 124.350368 243.565929 
L 108.217659 243.000763 
L 96.118127 242.317376 
L 88.051773 241.628797 
L 82.002007 240.893977 
L 76.960535 240.042565 
L 72.927358 239.113302 
L 69.902475 238.193197 
L 67.466801 237.244281 
L 65.869298 236.479618 
L 63.494342 235.045351 
L 61.641825 233.579398 
L 60.189984 232.113445 
L 58.811237 230.359789 
L 57.632153 228.448562 
L 56.561077 226.249632 
L 55.4604 223.317726 
L 54.610881 220.385819 
L 53.652903 215.98796 
L 52.761472 210.282157 
L 52.034904 203.527358 
L 51.515002 196.930569 
L 50.901609 185.93592 
L 50.495112 174.941271 
L 50.012067 155.150903 
L 49.662684 131.695652 
L 49.383956 91.38194 
L 49.247807 37.874649 
L 49.243987 26.88 
L 49.243987 26.88 
" clip-path="url(#p1708a29b07)" style="fill: none; stroke: #fde725; stroke-width: 1.5"/>
   </g>
   <g id="patch_3">
    <path d="M 47.72 246.04 
L 47.72 26.88 
" style="fill: none; stroke: #000000; stroke-width: 0.8; stroke-linejoin: miter; stroke-linecap: square"/>
   </g>
   <g id="patch_4">
    <path d="M 349.2 246.04 
L 349.2 26.88 
" style="fill: none; stroke: #000000; stroke-width: 0.8; stroke-linejoin: miter; stroke-linecap: square"/>
   </g>
   <g id="patch_5">
    <path d="M 47.72 246.04 
L 349.2 246.04 
" style="fill: none; stroke: #000000; stroke-width: 0.8; stroke-linejoin: miter; stroke-linecap: square"/>
   </g>
   <g id="patch_6">
    <path d="M 47.72 26.88 
L 349.2 26.88 
" style="fill: none; stroke: #000000; stroke-width: 0.8; stroke-linejoin: miter; stroke-linecap: square"/>
   </g>
   <g id="text_11">
    <!-- Joe copula contours (θ=2) -->
    <g transform="translate(120.29125 20.88) scale(0.12 -0.12)">
     <defs>
      <path id="DejaVuSans-4a" d="M 628 4666 
L 1259 4666 
L 1259 325 
Q 1259 -519 939 -900 
Q 619 -1281 -91 -1281 
L -331 -1281 
L -331 -750 
L -134 -750 
Q 284 -750 456 -515 
Q 628 -281 628 325 
L 628 4666 
z
" transform="scale(0.015625)"/>
      <path id="DejaVuSans-6f" d="M 1959 3097 
Q 1497 3097 1228 2736 
Q 959 2375 959 1747 
Q 959 1119 1226 758 
Q 1494 397 1959 397 
Q 2419 397 2687 759 
Q 2956 1122 2956 1747 
Q 2956 2369 2687 2733 
Q 2419 3097 1959 3097 
z
M 1959 3584 
Q 2709 3584 3137 3096 
Q 3566 2609 3566 1747 
Q 3566 888 3137 398 
Q 2709 -91 1959 -91 
Q 1206 -91 779 398 
Q 353 888 353 1747 
Q 353 2609 779 3096 
Q 1206 3584 1959 3584 
z
" transform="scale(0.015625)"/>
      <path id="DejaVuSans-65" d="M 3597 1894 
L 3597 1613 
L 953 1613 
Q 991 1019 1311 708 
Q 1631 397 2203 397 
Q 2534 397 2845 478 
Q 3156 559 3463 722 
L 3463 178 
Q 3153 47 2828 -22 
Q 2503 -91 2169 -91 
Q 1331 -91 842 396 
Q 353 884 353 1716 
Q 353 2575 817 3079 
Q 1281 3584 2069 3584 
Q 2775 3584 3186 3129 
Q 3597 2675 3597 1894 
z
M 3022 2063 
Q 3016 2534 2758 2815 
Q 2500 3097 2075 3097 
Q 1594 3097 1305 2825 
Q 1016 2553 972 2059 
L 3022 2063 
z
" transform="scale(0.015625)"/>
      <path id="DejaVuSans-20" transform="scale(0.015625)"/>
      <path id="DejaVuSans-63" d="M 3122 3366 
L 3122 2828 
Q 2878 2963 2633 3030 
Q 2388 3097 2138 3097 
Q 1578 3097 1268 2742 
Q 959 2388 959 1747 
Q 959 1106 1268 751 
Q 1578 397 2138 397 
Q 2388 397 2633 464 
Q 2878 531 3122 666 
L 3122 134 
Q 2881 22 2623 -34 
Q 2366 -91 2075 -91 
Q 1284 -91 818 406 
Q 353 903 353 1747 
Q 353 2603 823 3093 
Q 1294 3584 2113 3584 
Q 2378 3584 2631 3529 
Q 2884 3475 3122 3366 
z
" transform="scale(0.015625)"/>
      <path id="DejaVuSans-70" d="M 1159 525 
L 1159 -1331 
L 581 -1331 
L 581 3500 
L 1159 3500 
L 1159 2969 
Q 1341 3281 1617 3432 
Q 1894 3584 2278 3584 
Q 2916 3584 3314 3078 
Q 3713 2572 3713 1747 
Q 3713 922 3314 415 
Q 2916 -91 2278 -91 
Q 1894 -91 1617 61 
Q 1341 213 1159 525 
z
M 3116 1747 
Q 3116 2381 2855 2742 
Q 2594 3103 2138 3103 
Q 1681 3103 1420 2742 
Q 1159 2381 1159 1747 
Q 1159 1113 1420 752 
Q 1681 391 2138 391 
Q 2594 391 2855 752 
Q 3116 1113 3116 1747 
z
" transform="scale(0.015625)"/>
      <path id="DejaVuSans-6c" d="M 603 4863 
L 1178 4863 
L 1178 0 
L 603 0 
L 603 4863 
z
" transform="scale(0.015625)"/>
      <path id="DejaVuSans-61" d="M 2194 1759 
Q 1497 1759 1228 1600 
Q 959 1441 959 1056 
Q 959 750 1161 570 
Q 1363 391 1709 391 
Q 2188 391 2477 730 
Q 2766 1069 2766 1631 
L 2766 1759 
L 2194 1759 
z
M 3341 1997 
L 3341 0 
L 2766 0 
L 2766 531 
Q 2569 213 2275 61 
Q 1981 -91 1556 -91 
Q 1019 -91 701 211 
Q 384 513 384 1019 
Q 384 1609 779 1909 
Q 1175 2209 1959 2209 
L 2766 2209 
L 2766 2266 
Q 2766 2663 2505 2880 
Q 2244 3097 1772 3097 
Q 1472 3097 1187 3025 
Q 903 2953 641 2809 
L 641 3341 
Q 956 3463 1253 3523 
Q 1550 3584 1831 3584 
Q 2591 3584 2966 3190 
Q 3341 2797 3341 1997 
z
" transform="scale(0.015625)"/>
      <path id="DejaVuSans-6e" d="M 3513 2113 
L 3513 0 
L 2938 0 
L 2938 2094 
Q 2938 2591 2744 2837 
Q 2550 3084 2163 3084 
Q 1697 3084 1428 2787 
Q 1159 2491 1159 1978 
L 1159 0 
L 581 0 
L 581 3500 
L 1159 3500 
L 1159 2956 
Q 1366 3272 1645 3428 
Q 1925 3584 2291 3584 
Q 2894 3584 3203 3211 
Q 3513 2838 3513 2113 
z
" transform="scale(0.015625)"/>
      <path id="DejaVuSans-74" d="M 1172 4494 
L 1172 3500 
L 2356 3500 
L 2356 3053 
L 1172 3053 
L 1172 1153 
Q 1172 725 1289 603 
Q 1406 481 1766 481 
L 2356 481 
L 2356 0 
L 1766 0 
Q 1100 0 847 248 
Q 594 497 594 1153 
L 594 3053 
L 172 3053 
L 172 3500 
L 594 3500 
L 594 4494 
L 1172 4494 
z
" transform="scale(0.015625)"/>
      <path id="DejaVuSans-72" d="M 2631 2963 
Q 2534 3019 2420 3045 
Q 2306 3072 2169 3072 
Q 1681 3072 1420 2755 
Q 1159 2438 1159 1844 
L 1159 0 
L 581 0 
L 581 3500 
L 1159 3500 
L 1159 2956 
Q 1341 3275 1631 3429 
Q 1922 3584 2338 3584 
Q 2397 3584 2469 3576 
Q 2541 3569 2628 3553 
L 2631 2963 
z
" transform="scale(0.015625)"/>
      <path id="DejaVuSans-73" d="M 2834 3397 
L 2834 2853 
Q 2591 2978 2328 3040 
Q 2066 3103 1784 3103 
Q 1356 3103 1142 2972 
Q 928 2841 928 2578 
Q 928 2378 1081 2264 
Q 1234 2150 1697 2047 
L 1894 2003 
Q 2506 1872 2764 1633 
Q 3022 1394 3022 966 
Q 3022 478 2636 193 
Q 2250 -91 1575 -91 
Q 1294 -91 989 -36 
Q 684 19 347 128 
L 347 722 
Q 666 556 975 473 
Q 1284 391 1588 391 
Q 1994 391 2212 530 
Q 2431 669 2431 922 
Q 2431 1156 2273 1281 
Q 2116 1406 1581 1522 
L 1381 1569 
Q 847 1681 609 1914 
Q 372 2147 372 2553 
Q 372 3047 722 3315 
Q 1072 3584 1716 3584 
Q 2034 3584 2315 3537 
Q 2597 3491 2834 3397 
z
" transform="scale(0.015625)"/>
      <path id="DejaVuSans-28" d="M 1984 4856 
Q 1566 4138 1362 3434 
Q 1159 2731 1159 2009 
Q 1159 1288 1364 580 
Q 1569 -128 1984 -844 
L 1484 -844 
Q 1016 -109 783 600 
Q 550 1309 550 2009 
Q 550 2706 781 3412 
Q 1013 4119 1484 4856 
L 1984 4856 
z
" transform="scale(0.015625)"/>
      <path id="DejaVuSans-3b8" d="M 2953 2219 
L 963 2219 
Q 1009 1284 1225 888 
Q 1494 400 1959 400 
Q 2428 400 2688 891 
Q 2916 1322 2953 2219 
z
M 2944 2750 
Q 2856 3638 2688 3950 
Q 2419 4444 1959 4444 
Q 1481 4444 1228 3956 
Q 1028 3563 969 2750 
L 2944 2750 
z
M 1959 4913 
Q 2709 4913 3138 4250 
Q 3566 3591 3566 2422 
Q 3566 1256 3138 594 
Q 2709 -72 1959 -72 
Q 1206 -72 781 594 
Q 353 1256 353 2422 
Q 353 3591 781 4250 
Q 1206 4913 1959 4913 
z
" transform="scale(0.015625)"/>
      <path id="DejaVuSans-3d" d="M 678 2906 
L 4684 2906 
L 4684 2381 
L 678 2381 
L 678 2906 
z
M 678 1631 
L 4684 1631 
L 4684 1100 
L 678 1100 
L 678 1631 
z
" transform="scale(0.015625)"/>
      <path id="DejaVuSans-29" d="M 513 4856 
L 1013 4856 
Q 1481 4119 1714 3412 
Q 1947 2706 1947 2009 
Q 1947 1309 1714 600 
Q 1481 -109 1013 -844 
L 513 -844 
Q 928 -128 1133 580 
Q 1338 1288 1338 2009 
Q 1338 2731 1133 3434 
Q 928 4138 513 4856 
z
" transform="scale(0.015625)"/>
     </defs>
     <use xlink:href="#DejaVuSans-4a"/>
     <use xlink:href="#DejaVuSans-6f" transform="translate(29.492188 0)"/>
     <use xlink:href="#DejaVuSans-65" transform="translate(90.673828 0)"/>
     <use xlink:href="#DejaVuSans-20" transform="translate(152.197266 0)"/>
     <use xlink:href="#DejaVuSans-63" transform="translate(183.984375 0)"/>
     <use xlink:href="#DejaVuSans-6f" transform="translate(238.964844 0)"/>
     <use xlink:href="#DejaVuSans-70" transform="translate(300.146484 0)"/>
     <use xlink:href="#DejaVuSans-75" transform="translate(363.623047 0)"/>
     <use xlink:href="#DejaVuSans-6c" transform="translate(427.001953 0)"/>
     <use xlink:href="#DejaVuSans-61" transform="translate(454.785156 0)"/>
     <use xlink:href="#DejaVuSans-20" transform="translate(516.064453 0)"/>
     <use xlink:href="#DejaVuSans-63" transform="translate(547.851562 0)"/>
     <use xlink:href="#DejaVuSans-6f" transform="translate(602.832031 0)"/>
     <use xlink:href="#DejaVuSans-6e" transform="translate(664.013672 0)"/>
     <use xlink:href="#DejaVuSans-74" transform="translate(727.392578 0)"/>
     <use xlink:href="#DejaVuSans-6f" transform="translate(766.601562 0)"/>
     <use xlink:href="#DejaVuSans-75" transform="translate(827.783203 0)"/>
     <use xlink:href="#DejaVuSans-72" transform="translate(891.162109 0)"/>
     <use xlink:href="#DejaVuSans-73" transform="translate(932.275391 0)"/>
     <use xlink:href="#DejaVuSans-20" transform="translate(984.375 0)"/>
     <use xlink:href="#DejaVuSans-28" transform="translate(1016.162109 0)"/>
     <use xlink:href="#DejaVuSans-3b8" transform="translate(1055.175781 0)"/>
     <use xlink:href="#DejaVuSans-3d" transform="translate(1116.357422 0)"/>
     <use xlink:href="#DejaVuSans-32" transform="translate(1200.146484 0)"/>
     <use xlink:href="#DejaVuSans-29" transform="translate(1263.769531 0)"/>
    </g>
   </g>
   <g id="text_12">
    <g clip-path="url(#p1708a29b07)">
     <!-- 0.1 -->
     <g style="fill: #440154" transform="translate(228.211133 71.896354) rotate(-303.425859) scale(0.08 -0.08)">
      <defs>
       <path id="DejaVuSans-31" d="M 794 531 
L 1825 531 
L 1825 4091 
L 703 3866 
L 703 4441 
L 1819 4666 
L 2450 4666 
L 2450 531 
L 3481 531 
L 3481 0 
L 794 0 
L 794 531 
z
" transform="scale(0.015625)"/>
      </defs>
      <use xlink:href="#DejaVuSans-30"/>
      <use xlink:href="#DejaVuSans-2e" transform="translate(63.623047 0)"/>
      <use xlink:href="#DejaVuSans-31" transform="translate(95.410156 0)"/>
     </g>
    </g>
   </g>
   <g id="text_13">
    <g clip-path="url(#p1708a29b07)">
     <!-- 0.2 -->
     <g style="fill: #472d7b" transform="translate(274.95607 152.822119) rotate(-347.503104) scale(0.08 -0.08)">
      <use xlink:href="#DejaVuSans-30"/>
      <use xlink:href="#DejaVuSans-2e" transform="translate(63.623047 0)"/>
      <use xlink:href="#DejaVuSans-32" transform="translate(95.410156 0)"/>
     </g>
    </g>
   </g>
   <g id="text_14">
    <g clip-path="url(#p1708a29b07)">
     <!-- 0.3 -->
     <g style="fill: #3b528b" transform="translate(302.357269 183.738541) rotate(-355.630091) scale(0.08 -0.08)">
      <defs>
       <path id="DejaVuSans-33" d="M 2597 2516 
Q 3050 2419 3304 2112 
Q 3559 1806 3559 1356 
Q 3559 666 3084 287 
Q 2609 -91 1734 -91 
Q 1441 -91 1130 -33 
Q 819 25 488 141 
L 488 750 
Q 750 597 1062 519 
Q 1375 441 1716 441 
Q 2309 441 2620 675 
Q 2931 909 2931 1356 
Q 2931 1769 2642 2001 
Q 2353 2234 1838 2234 
L 1294 2234 
L 1294 2753 
L 1863 2753 
Q 2328 2753 2575 2939 
Q 2822 3125 2822 3475 
Q 2822 3834 2567 4026 
Q 2313 4219 1838 4219 
Q 1578 4219 1281 4162 
Q 984 4106 628 3988 
L 628 4550 
Q 988 4650 1302 4700 
Q 1616 4750 1894 4750 
Q 2613 4750 3031 4423 
Q 3450 4097 3450 3541 
Q 3450 3153 3228 2886 
Q 3006 2619 2597 2516 
z
" transform="scale(0.015625)"/>
      </defs>
      <use xlink:href="#DejaVuSans-30"/>
      <use xlink:href="#DejaVuSans-2e" transform="translate(63.623047 0)"/>
      <use xlink:href="#DejaVuSans-33" transform="translate(95.410156 0)"/>
     </g>
    </g>
   </g>
   <g id="text_15">
    <g clip-path="url(#p1708a29b07)">
     <!-- 0.4 -->
     <g style="fill: #2c728e" transform="translate(318.577794 203.919977) rotate(-358.322585) scale(0.08 -0.08)">
      <use xlink:href="#DejaVuSans-30"/>
      <use xlink:href="#DejaVuSans-2e" transform="translate(63.623047 0)"/>
      <use xlink:href="#DejaVuSans-34" transform="translate(95.410156 0)"/>
     </g>
    </g>
   </g>
   <g id="text_16">
    <g clip-path="url(#p1708a29b07)">
     <!-- 0.5 -->
     <g style="fill: #21918c" transform="translate(334.758796 218.838905) rotate(-359.643837) scale(0.08 -0.08)">
      <defs>
       <path id="DejaVuSans-35" d="M 691 4666 
L 3169 4666 
L 3169 4134 
L 1269 4134 
L 1269 2991 
Q 1406 3038 1543 3061 
Q 1681 3084 1819 3084 
Q 2600 3084 3056 2656 
Q 3513 2228 3513 1497 
Q 3513 744 3044 326 
Q 2575 -91 1722 -91 
Q 1428 -91 1123 -41 
Q 819 9 494 109 
L 494 744 
Q 775 591 1075 516 
Q 1375 441 1709 441 
Q 2250 441 2565 725 
Q 2881 1009 2881 1497 
Q 2881 1984 2565 2268 
Q 2250 2553 1709 2553 
Q 1456 2553 1204 2497 
Q 953 2441 691 2322 
L 691 4666 
z
" transform="scale(0.015625)"/>
      </defs>
      <use xlink:href="#DejaVuSans-30"/>
      <use xlink:href="#DejaVuSans-2e" transform="translate(63.623047 0)"/>
      <use xlink:href="#DejaVuSans-35" transform="translate(95.410156 0)"/>
     </g>
    </g>
   </g>
   <g id="text_17">
    <g clip-path="url(#p1708a29b07)">
     <!-- 0.6 -->
     <g style="fill: #28ae80" transform="translate(318.614913 229.77133) rotate(-359.346239) scale(0.08 -0.08)">
      <use xlink:href="#DejaVuSans-30"/>
      <use xlink:href="#DejaVuSans-2e" transform="translate(63.623047 0)"/>
      <use xlink:href="#DejaVuSans-36" transform="translate(95.410156 0)"/>
     </g>
    </g>
   </g>
   <g id="text_18">
    <g clip-path="url(#p1708a29b07)">
     <!-- 0.7 -->
     <g style="fill: #5ec962" transform="translate(334.767998 238.149885) rotate(-359.885546) scale(0.08 -0.08)">
      <defs>
       <path id="DejaVuSans-37" d="M 525 4666 
L 3525 4666 
L 3525 4397 
L 1831 0 
L 1172 0 
L 2766 4134 
L 525 4134 
L 525 4666 
z
" transform="scale(0.015625)"/>
      </defs>
      <use xlink:href="#DejaVuSans-30"/>
      <use xlink:href="#DejaVuSans-2e" transform="translate(63.623047 0)"/>
      <use xlink:href="#DejaVuSans-37" transform="translate(95.410156 0)"/>
     </g>
    </g>
   </g>
   <g id="text_19">
    <g clip-path="url(#p1708a29b07)">
     <!-- 0.8 -->
     <g style="fill: #addc30" transform="translate(300.479667 243.715789) rotate(-359.719744) scale(0.08 -0.08)">
      <use xlink:href="#DejaVuSans-30"/>
      <use xlink:href="#DejaVuSans-2e" transform="translate(63.623047 0)"/>
      <use xlink:href="#DejaVuSans-38" transform="translate(95.410156 0)"/>
     </g>
    </g>
   </g>
   <g id="text_20">
    <g clip-path="url(#p1708a29b07)">
     <!-- 0.9 -->
     <g style="fill: #fde725" transform="translate(317.629906 247.127628) rotate(-359.961399) scale(0.08 -0.08)">
      <defs>
       <path id="DejaVuSans-39" d="M 703 97 
L 703 672 
Q 941 559 1184 500 
Q 1428 441 1663 441 
Q 2288 441 2617 861 
Q 2947 1281 2994 2138 
Q 2813 1869 2534 1725 
Q 2256 1581 1919 1581 
Q 1219 1581 811 2004 
Q 403 2428 403 3163 
Q 403 3881 828 4315 
Q 1253 4750 1959 4750 
Q 2769 4750 3195 4129 
Q 3622 3509 3622 2328 
Q 3622 1225 3098 567 
Q 2575 -91 1691 -91 
Q 1453 -91 1209 -44 
Q 966 3 703 97 
z
M 1959 2075 
Q 2384 2075 2632 2365 
Q 2881 2656 2881 3163 
Q 2881 3666 2632 3958 
Q 2384 4250 1959 4250 
Q 1534 4250 1286 3958 
Q 1038 3666 1038 3163 
Q 1038 2656 1286 2365 
Q 1534 2075 1959 2075 
z
" transform="scale(0.015625)"/>
      </defs>
      <use xlink:href="#DejaVuSans-30"/>
      <use xlink:href="#DejaVuSans-2e" transform="translate(63.623047 0)"/>
      <use xlink:href="#DejaVuSans-39" transform="translate(95.410156 0)"/>
     </g>
    </g>
   </g>
  </g>
 </g>
 <defs>
  <clipPath id="p1708a29b07">
   <rect x="47.72" y="26.88" width="301.48" height="219.16"/>
  </clipPath>
 </defs>
</svg>
