<?xml version="1.0" encoding="utf-8" standalone="no"?>
<!DOCTYPE svg PUBLIC "-//W3C//DTD SVG 1.1//EN"
  "http://www.w3.org/Graphics/SVG/1.1/DTD/svg11.dtd">
<svg xmlns:xlink="http://www.w3.org/1999/xlink" width="360pt" height="288pt" viewBox="0 0 360 288" xmlns="http://www.w3.org/2000/svg" version="1.1">
 <metadata>
  <rdf:RDF xmlns:dc="http://purl.org/dc/elements/1.1/" xmlns:cc="http://creativecommons.org/ns#" xmlns:rdf="http://www.w3.org/1999/02/22-rdf-syntax-ns#">
   <cc:Work>
    <dc:type rdf:resource="http://purl.org/dc/dcmitype/StillImage"/>
    <dc:date>2025-10-12T22:06:49.215924</dc:date>
    <dc:format>image/svg+xml</dc:format>
    <dc:creator>
     <cc:Agent>
      <dc:title>Matplotlib v3.10.7, https://matplotlib.org/</dc:title>
     </cc:Agent>
    </dc:creator>
   </cc:Work>
  </rdf:RDF>
 </metadata>
 <defs>
  <style type="text/css">*{stroke-linejoin: round; stroke-linecap: butt}</style>
 </defs>
 <g id="figure_1">
  <g id="patch_1">
   <path d="M 0 288 
L 360 288 
L 360 0 
L 0 0 
z
" style="fill: #ffffff"/>
  </g>
  <g id="axes_1">
   <g id="patch_2">
    <path d="M 47.72 246.04 
L 349.2 246.04 
L 349.2 26.88 
L 47.72 26.88 
z
" style="fill: #ffffff"/>
   </g>
   <g id="matplotlib.axis_1">
    <g id="xtick_1">
     <g id="line2d_1">
      <defs>
       <path id="m632ce91e8c" d="M 0 0 
L 0 3.5 
" style="stroke: #000000; stroke-width: 0.8"/>
      </defs>
      <g>
       <use xlink:href="#m632ce91e8c" x="107.997908" y="246.04" style="stroke: #000000; stroke-width: 0.8"/>
      </g>
     </g>
     <g id="text_1">
      <!-- 0.2 -->
      <g transform="translate(100.046345 260.638438) scale(0.1 -0.1)">
       <defs>
        <path id="DejaVuSans-30" d="M 2034 4250 
Q 1547 4250 1301 3770 
Q 1056 3291 1056 2328 
Q 1056 1369 1301 889 
Q 1547 409 2034 409 
Q 2525 409 2770 889 
Q 3016 1369 3016 2328 
Q 3016 3291 2770 3770 
Q 2525 4250 2034 4250 
z
M 2034 4750 
Q 2819 4750 3233 4129 
Q 3647 3509 3647 2328 
Q 3647 1150 3233 529 
Q 2819 -91 2034 -91 
Q 1250 -91 836 529 
Q 422 1150 422 2328 
Q 422 3509 836 4129 
Q 1250 4750 2034 4750 
z
" transform="scale(0.015625)"/>
        <path id="DejaVuSans-2e" d="M 684 794 
L 1344 794 
L 1344 0 
L 684 0 
L 684 794 
z
" transform="scale(0.015625)"/>
        <path id="DejaVuSans-32" d="M 1228 531 
L 3431 531 
L 3431 0 
L 469 0 
L 469 531 
Q 828 903 1448 1529 
Q 2069 2156 2228 2338 
Q 2531 2678 2651 2914 
Q 2772 3150 2772 3378 
Q 2772 3750 2511 3984 
Q 2250 4219 1831 4219 
Q 1534 4219 1204 4116 
Q 875 4013 500 3803 
L 500 4441 
Q 881 4594 1212 4672 
Q 1544 4750 1819 4750 
Q 2544 4750 2975 4387 
Q 3406 4025 3406 3419 
Q 3406 3131 3298 2873 
Q 3191 2616 2906 2266 
Q 2828 2175 2409 1742 
Q 1991 1309 1228 531 
z
" transform="scale(0.015625)"/>
       </defs>
       <use xlink:href="#DejaVuSans-30"/>
       <use xlink:href="#DejaVuSans-2e" transform="translate(63.623047 0)"/>
       <use xlink:href="#DejaVuSans-32" transform="translate(95.410156 0)"/>
      </g>
     </g>
    </g>
    <g id="xtick_2">
     <g id="line2d_2">
      <g>
       <use xlink:href="#m632ce91e8c" x="168.305969" y="246.04" style="stroke: #000000; stroke-width: 0.8"/>
      </g>
     </g>
     <g id="text_2">
      <!-- 0.4 -->
      <g transform="translate(160.354407 260.638438) scale(0.1 -0.1)">
       <defs>
        <path id="DejaVuSans-34" d="M 2419 4116 
L 825 1625 
L 2419 1625 
L 2419 4116 
z
M 2253 4666 
L 3047 4666 
L 3047 1625 
L 3713 1625 
L 3713 1100 
L 3047 1100 
L 3047 0 
L 2419 0 
L 2419 1100 
L 313 1100 
L 313 1709 
L 2253 4666 
z
" transform="scale(0.015625)"/>
       </defs>
       <use xlink:href="#DejaVuSans-30"/>
       <use xlink:href="#DejaVuSans-2e" transform="translate(63.623047 0)"/>
       <use xlink:href="#DejaVuSans-34" transform="translate(95.410156 0)"/>
      </g>
     </g>
    </g>
    <g id="xtick_3">
     <g id="line2d_3">
      <g>
       <use xlink:href="#m632ce91e8c" x="228.614031" y="246.04" style="stroke: #000000; stroke-width: 0.8"/>
      </g>
     </g>
     <g id="text_3">
      <!-- 0.6 -->
      <g transform="translate(220.662468 260.638438) scale(0.1 -0.1)">
       <defs>
        <path id="DejaVuSans-36" d="M 2113 2584 
Q 1688 2584 1439 2293 
Q 1191 2003 1191 1497 
Q 1191 994 1439 701 
Q 1688 409 2113 409 
Q 2538 409 2786 701 
Q 3034 994 3034 1497 
Q 3034 2003 2786 2293 
Q 2538 2584 2113 2584 
z
M 3366 4563 
L 3366 3988 
Q 3128 4100 2886 4159 
Q 2644 4219 2406 4219 
Q 1781 4219 1451 3797 
Q 1122 3375 1075 2522 
Q 1259 2794 1537 2939 
Q 1816 3084 2150 3084 
Q 2853 3084 3261 2657 
Q 3669 2231 3669 1497 
Q 3669 778 3244 343 
Q 2819 -91 2113 -91 
Q 1303 -91 875 529 
Q 447 1150 447 2328 
Q 447 3434 972 4092 
Q 1497 4750 2381 4750 
Q 2619 4750 2861 4703 
Q 3103 4656 3366 4563 
z
" transform="scale(0.015625)"/>
       </defs>
       <use xlink:href="#DejaVuSans-30"/>
       <use xlink:href="#DejaVuSans-2e" transform="translate(63.623047 0)"/>
       <use xlink:href="#DejaVuSans-36" transform="translate(95.410156 0)"/>
      </g>
     </g>
    </g>
    <g id="xtick_4">
     <g id="line2d_4">
      <g>
       <use xlink:href="#m632ce91e8c" x="288.922092" y="246.04" style="stroke: #000000; stroke-width: 0.8"/>
      </g>
     </g>
     <g id="text_4">
      <!-- 0.8 -->
      <g transform="translate(280.97053 260.638438) scale(0.1 -0.1)">
       <defs>
        <path id="DejaVuSans-38" d="M 2034 2216 
Q 1584 2216 1326 1975 
Q 1069 1734 1069 1313 
Q 1069 891 1326 650 
Q 1584 409 2034 409 
Q 2484 409 2743 651 
Q 3003 894 3003 1313 
Q 3003 1734 2745 1975 
Q 2488 2216 2034 2216 
z
M 1403 2484 
Q 997 2584 770 2862 
Q 544 3141 544 3541 
Q 544 4100 942 4425 
Q 1341 4750 2034 4750 
Q 2731 4750 3128 4425 
Q 3525 4100 3525 3541 
Q 3525 3141 3298 2862 
Q 3072 2584 2669 2484 
Q 3125 2378 3379 2068 
Q 3634 1759 3634 1313 
Q 3634 634 3220 271 
Q 2806 -91 2034 -91 
Q 1263 -91 848 271 
Q 434 634 434 1313 
Q 434 1759 690 2068 
Q 947 2378 1403 2484 
z
M 1172 3481 
Q 1172 3119 1398 2916 
Q 1625 2713 2034 2713 
Q 2441 2713 2670 2916 
Q 2900 3119 2900 3481 
Q 2900 3844 2670 4047 
Q 2441 4250 2034 4250 
Q 1625 4250 1398 4047 
Q 1172 3844 1172 3481 
z
" transform="scale(0.015625)"/>
       </defs>
       <use xlink:href="#DejaVuSans-30"/>
       <use xlink:href="#DejaVuSans-2e" transform="translate(63.623047 0)"/>
       <use xlink:href="#DejaVuSans-38" transform="translate(95.410156 0)"/>
      </g>
     </g>
    </g>
    <g id="text_5">
     <!-- u -->
     <g transform="translate(195.29125 274.316562) scale(0.1 -0.1)">
      <defs>
       <path id="DejaVuSans-75" d="M 544 1381 
L 544 3500 
L 1119 3500 
L 1119 1403 
Q 1119 906 1312 657 
Q 1506 409 1894 409 
Q 2359 409 2629 706 
Q 2900 1003 2900 1516 
L 2900 3500 
L 3475 3500 
L 3475 0 
L 2900 0 
L 2900 538 
Q 2691 219 2414 64 
Q 2138 -91 1772 -91 
Q 1169 -91 856 284 
Q 544 659 544 1381 
z
M 1991 3584 
L 1991 3584 
z
" transform="scale(0.015625)"/>
      </defs>
      <use xlink:href="#DejaVuSans-75"/>
     </g>
    </g>
   </g>
   <g id="matplotlib.axis_2">
    <g id="ytick_1">
     <g id="line2d_5">
      <defs>
       <path id="m4f288d7f5c" d="M 0 0 
L -3.5 0 
" style="stroke: #000000; stroke-width: 0.8"/>
      </defs>
      <g>
       <use xlink:href="#m4f288d7f5c" x="47.72" y="202.221152" style="stroke: #000000; stroke-width: 0.8"/>
      </g>
     </g>
     <g id="text_6">
      <!-- 0.2 -->
      <g transform="translate(24.816875 206.020371) scale(0.1 -0.1)">
       <use xlink:href="#DejaVuSans-30"/>
       <use xlink:href="#DejaVuSans-2e" transform="translate(63.623047 0)"/>
       <use xlink:href="#DejaVuSans-32" transform="translate(95.410156 0)"/>
      </g>
     </g>
    </g>
    <g id="ytick_2">
     <g id="line2d_6">
      <g>
       <use xlink:href="#m4f288d7f5c" x="47.72" y="158.380384" style="stroke: #000000; stroke-width: 0.8"/>
      </g>
     </g>
     <g id="text_7">
      <!-- 0.4 -->
      <g transform="translate(24.816875 162.179603) scale(0.1 -0.1)">
       <use xlink:href="#DejaVuSans-30"/>
       <use xlink:href="#DejaVuSans-2e" transform="translate(63.623047 0)"/>
       <use xlink:href="#DejaVuSans-34" transform="translate(95.410156 0)"/>
      </g>
     </g>
    </g>
    <g id="ytick_3">
     <g id="line2d_7">
      <g>
       <use xlink:href="#m4f288d7f5c" x="47.72" y="114.539616" style="stroke: #000000; stroke-width: 0.8"/>
      </g>
     </g>
     <g id="text_8">
      <!-- 0.6 -->
      <g transform="translate(24.816875 118.338835) scale(0.1 -0.1)">
       <use xlink:href="#DejaVuSans-30"/>
       <use xlink:href="#DejaVuSans-2e" transform="translate(63.623047 0)"/>
       <use xlink:href="#DejaVuSans-36" transform="translate(95.410156 0)"/>
      </g>
     </g>
    </g>
    <g id="ytick_4">
     <g id="line2d_8">
      <g>
       <use xlink:href="#m4f288d7f5c" x="47.72" y="70.698848" style="stroke: #000000; stroke-width: 0.8"/>
      </g>
     </g>
     <g id="text_9">
      <!-- 0.8 -->
      <g transform="translate(24.816875 74.498067) scale(0.1 -0.1)">
       <use xlink:href="#DejaVuSans-30"/>
       <use xlink:href="#DejaVuSans-2e" transform="translate(63.623047 0)"/>
       <use xlink:href="#DejaVuSans-38" transform="translate(95.410156 0)"/>
      </g>
     </g>
    </g>
    <g id="text_10">
     <!-- v -->
     <g transform="translate(18.737188 139.419375) rotate(-90) scale(0.1 -0.1)">
      <defs>
       <path id="DejaVuSans-76" d="M 191 3500 
L 800 3500 
L 1894 563 
L 2988 3500 
L 3597 3500 
L 2284 0 
L 1503 0 
L 191 3500 
z
" transform="scale(0.015625)"/>
      </defs>
      <use xlink:href="#DejaVuSans-76"/>
     </g>
    </g>
   </g>
   <g id="QuadContourSet_1">
    <path d="M 78.327714 41.834718 
L 79.217153 64.261806 
L 80.188905 83.319197 
L 81.182072 98.711706 
L 82.24205 111.905284 
L 83.408142 123.63291 
L 84.566751 133.161605 
L 85.862478 141.957324 
L 87.162045 149.28709 
L 88.55619 155.88388 
L 90.068361 161.902237 
L 91.542341 166.878528 
L 93.093244 171.372554 
L 94.825666 175.674247 
L 96.540464 179.33913 
L 98.531223 183.004013 
L 100.370283 185.93592 
L 102.481682 188.867826 
L 104.929928 191.799732 
L 107.209365 194.164961 
L 109.434944 196.197592 
L 112.250836 198.449106 
L 115.358384 200.595452 
L 118.300602 202.362638 
L 121.935988 204.260334 
L 125.358662 205.811645 
L 129.391839 207.402411 
L 134.433311 209.102931 
L 139.474783 210.550107 
L 145.524548 212.025434 
L 151.574314 213.277011 
L 158.663552 214.522007 
L 166.698729 215.70757 
L 175.773378 216.826602 
L 186.864615 217.954333 
L 198.964147 218.960432 
L 214.088562 219.977131 
L 231.229565 220.896331 
L 251.395452 221.753097 
L 275.594515 222.55736 
L 305.843344 223.328772 
L 343.150234 224.043301 
L 349.2 224.14106 
L 349.2 224.14106 
" clip-path="url(#p0f842fe5f4)" style="fill: none; stroke: #440154; stroke-width: 1.5"/>
    <path d="M 107.999344 26.88 
L 109.225953 43.872575 
L 110.491021 58.397993 
L 111.785279 70.858595 
L 113.134629 81.853244 
L 114.619328 92.114916 
L 116.11214 100.910635 
L 117.706821 108.973378 
L 119.391959 116.303144 
L 121.148585 122.899933 
L 122.946712 128.763746 
L 124.744341 133.894582 
L 126.798313 139.025418 
L 128.807133 143.423278 
L 130.692289 147.088161 
L 132.806992 150.753043 
L 135.195477 154.417926 
L 137.458194 157.500898 
L 139.735433 160.281739 
L 142.499666 163.292319 
L 145.524548 166.201897 
L 148.549431 168.776388 
L 151.861393 171.276388 
L 155.607492 173.769426 
L 159.640669 176.125853 
L 163.673846 178.201643 
L 167.770976 180.072107 
L 172.748495 182.075308 
L 177.789967 183.856268 
L 183.839732 185.723539 
L 190.093903 187.401873 
L 196.947559 189.002269 
L 205.013913 190.628136 
L 213.080268 192.030216 
L 222.154916 193.393377 
L 233.246154 194.814732 
L 245.345686 196.124601 
L 258.453512 197.323457 
L 273.577926 198.487028 
L 291.727224 199.645944 
L 311.89311 200.705202 
L 327.323964 201.391001 
M 348.895216 202.209513 
L 349.2 202.220108 
L 349.2 202.220108 
" clip-path="url(#p0f842fe5f4)" style="fill: none; stroke: #472d7b; stroke-width: 1.5"/>
    <path d="M 138.154319 26.88 
L 139.617366 39.340602 
L 141.119875 50.335251 
L 142.746565 60.596923 
L 144.355044 69.392642 
L 146.043845 77.455385 
L 147.796502 84.785151 
L 149.589021 91.38194 
L 151.574314 97.811528 
L 153.422417 103.109565 
L 155.431289 108.240401 
L 157.62408 113.214507 
L 159.640669 117.302305 
L 161.911367 121.43398 
L 164.155432 125.098863 
L 166.698729 128.826788 
L 169.451799 132.428629 
L 171.944533 135.360535 
L 174.765084 138.355929 
L 177.789967 141.242965 
L 181.202299 144.156254 
L 184.848027 146.930397 
L 188.30539 149.28709 
L 191.906087 151.500988 
L 195.939264 153.730757 
L 200.288574 155.88388 
L 205.276223 158.082809 
L 210.055385 159.961033 
L 215.125894 161.747692 
L 221.146622 163.635787 
L 227.551868 165.412575 
L 234.254448 167.058434 
L 242.320803 168.799824 
L 251.395452 170.503379 
L 260.619454 172.009365 
L 271.561338 173.55811 
L 283.66087 175.02949 
L 296.88407 176.407224 
L 311.89311 177.740895 
L 320.33697 178.403241 
M 341.770419 179.858175 
L 349.2 180.299037 
L 349.2 180.299037 
" clip-path="url(#p0f842fe5f4)" style="fill: none; stroke: #3b528b; stroke-width: 1.5"/>
    <path d="M 168.309517 26.88 
L 169.957443 36.408696 
L 171.740201 45.4333 
L 173.500271 53.267157 
L 175.363744 60.596923 
L 177.255685 67.193712 
L 179.392038 73.790502 
L 181.536803 79.654314 
L 183.839732 85.244124 
L 185.993867 89.915987 
L 188.247375 94.313846 
L 190.757302 98.711706 
L 193.078391 102.376589 
L 195.939264 106.44122 
L 198.491597 109.706355 
L 201.007446 112.638261 
L 204.005619 115.809141 
L 207.030502 118.702182 
L 210.181485 121.43398 
L 214.088562 124.479003 
L 218.141169 127.297793 
L 222.154916 129.800118 
L 226.188094 132.068214 
L 230.221271 134.12374 
L 235.262742 136.437031 
L 240.304214 138.507768 
L 246.35398 140.722831 
L 252.403746 142.690475 
L 259.461806 144.724624 
L 266.519866 146.524216 
L 274.586221 148.34234 
L 283.66087 150.136421 
L 293.743813 151.874414 
L 304.83505 153.534307 
L 316.934582 155.101999 
L 328.386344 156.395884 
L 328.386344 156.395884 
" clip-path="url(#p0f842fe5f4)" style="fill: none; stroke: #2c728e; stroke-width: 1.5"/>
    <path d="M 198.465027 26.88 
L 200.434992 34.942742 
L 202.463289 42.272508 
L 204.520905 48.869298 
L 206.56978 54.73311 
L 208.864327 60.596923 
L 211.110269 65.727759 
L 213.619807 70.858595 
L 216.105151 75.409309 
L 218.682582 79.654314 
L 221.146622 83.325882 
L 224.171505 87.389154 
L 226.860112 90.648963 
L 229.509431 93.58087 
L 232.409736 96.512776 
L 235.598942 99.444682 
L 239.29592 102.514027 
L 243.329097 105.517259 
L 247.403191 108.240401 
L 251.395452 110.649245 
L 255.428629 112.858869 
L 260.4701 115.348956 
L 265.511572 117.580778 
L 270.553043 119.592424 
L 276.602809 121.759253 
L 282.652575 123.696933 
L 289.710635 125.713282 
L 296.768696 127.508068 
L 304.83505 129.332084 
L 308.42513 130.076004 
M 329.529978 133.781261 
L 340.58987 135.360535 
L 349.2 136.456346 
L 349.2 136.456346 
" clip-path="url(#p0f842fe5f4)" style="fill: none; stroke: #21918c; stroke-width: 1.5"/>
    <path d="M 228.620991 26.88 
L 230.844693 33.476789 
L 233.063947 39.340602 
L 235.262742 44.55094 
L 237.634094 49.602274 
L 239.923347 54.000134 
L 242.456718 58.397993 
L 245.275628 62.795853 
L 247.879631 66.460736 
L 250.753277 70.125619 
L 253.941103 73.790502 
L 256.753643 76.722408 
L 259.835808 79.654314 
L 263.494983 82.80497 
L 266.980093 85.518127 
L 270.553043 88.048437 
L 274.599875 90.648963 
L 278.619398 92.989633 
L 283.66087 95.634084 
L 288.702341 98.001726 
L 293.853884 100.177659 
L 299.793579 102.427517 
L 306.15288 104.575518 
L 312.901405 106.607339 
L 319.959465 108.502142 
L 328.084708 110.439331 
L 330.637579 111.000572 
L 330.637579 111.000572 
" clip-path="url(#p0f842fe5f4)" style="fill: none; stroke: #28ae80; stroke-width: 1.5"/>
    <path d="M 258.777658 26.88 
L 261.150729 32.010836 
L 263.494983 36.569658 
L 265.90558 40.806555 
L 268.68453 45.204415 
L 271.561338 49.28847 
L 274.083853 52.534181 
L 277.225737 56.199064 
L 279.997617 59.13097 
L 283.034896 62.062876 
L 286.685753 65.250965 
L 290.074197 67.926689 
L 294.18413 70.858595 
L 297.77699 73.178824 
L 301.810167 75.55009 
L 305.843344 77.707296 
L 310.884816 80.144386 
L 315.926288 82.334191 
L 320.967759 84.312538 
L 325.658072 85.988215 
M 346.244021 91.912509 
L 349.2 92.612255 
L 349.2 92.612255 
" clip-path="url(#p0f842fe5f4)" style="fill: none; stroke: #5ec962; stroke-width: 1.5"/>
    <path d="M 288.935498 26.88 
L 289.388092 27.612977 
L 289.710635 28.126477 
L 289.849246 28.345953 
L 290.319235 29.07893 
L 290.71893 29.691112 
L 290.798256 29.811906 
L 291.286669 30.544883 
L 291.727224 31.193841 
L 291.784616 31.27786 
L 292.292558 32.010836 
L 292.735518 32.638196 
L 292.810585 32.743813 
L 293.339238 33.476789 
L 293.743813 34.02755 
L 293.878605 34.209766 
L 294.429236 34.942742 
L 294.752107 35.36511 
L 294.991317 35.675719 
L 295.565279 36.408696 
L 295.760401 36.653917 
L 296.151571 37.141672 
L 296.750313 37.874649 
L 296.768696 37.896839 
L 297.362445 38.607625 
L 297.77699 39.094874 
L 297.987858 39.340602 
L 298.627255 40.073579 
L 298.785284 40.251919 
L 299.281223 40.806555 
L 299.793579 41.369414 
L 299.949887 41.539532 
L 300.634112 42.272508 
L 300.801873 42.449405 
L 301.334438 43.005485 
L 301.810167 43.493692 
L 302.051109 43.738462 
L 302.784804 44.471438 
L 302.818462 44.504584 
L 303.536679 45.204415 
L 303.826756 45.482376 
L 304.306812 45.937391 
L 304.83505 46.429884 
L 305.095899 46.670368 
L 305.843344 47.348352 
L 305.904675 47.403344 
L 306.734305 48.136321 
L 306.851639 48.238422 
L 307.5854 48.869298 
L 307.859933 49.101689 
L 308.458624 49.602274 
L 308.868227 49.939555 
L 309.35488 50.335251 
L 309.876522 50.753071 
L 310.275116 51.068227 
L 310.884816 51.543244 
L 311.220333 51.801204 
L 311.89311 52.311041 
L 312.191583 52.534181 
L 312.901405 53.057385 
L 313.18997 53.267157 
L 313.909699 53.78316 
L 314.216653 54.000134 
L 314.917993 54.489207 
L 315.272847 54.73311 
L 315.926288 55.17633 
L 316.359822 55.466087 
L 316.934582 55.845293 
L 317.478907 56.199064 
L 317.942876 56.496823 
L 318.631489 56.93204 
L 318.951171 57.131611 
L 319.819014 57.665017 
L 319.959465 57.750312 
L 320.967759 58.353409 
L 321.043408 58.397993 
L 321.976054 58.941347 
L 322.306866 59.13097 
L 322.984348 59.514971 
L 323.610274 59.863946 
L 323.992642 60.074817 
L 324.955341 60.596923 
L 325.000936 60.62139 
L 326.009231 61.154748 
L 326.34594 61.3299 
L 327.017525 61.67573 
L 327.782477 62.062876 
L 328.025819 62.18483 
L 329.034114 62.682225 
L 329.268131 62.795853 
L 330.042408 63.168308 
L 330.805375 63.528829 
L 331.050702 63.643708 
L 332.058997 64.108516 
L 332.397024 64.261806 
L 333.067291 64.563158 
L 333.267511 64.651543 
" clip-path="url(#p0f842fe5f4)" style="fill: none; stroke: #addc30; stroke-width: 1.5"/>
    <path d="M 319.095515 26.88 
L 319.752024 27.612977 
L 319.959465 27.840455 
L 320.424618 28.345953 
L 320.967759 28.924728 
L 321.113839 29.07893 
L 321.820378 29.811906 
L 321.976054 29.970644 
L 322.544921 30.544883 
L 322.984348 30.980164 
L 323.288052 31.27786 
L 323.992642 31.955797 
L 324.050473 32.010836 
L 324.833186 32.743813 
L 325.000936 32.89821 
L 325.636877 33.476789 
L 326.009231 33.809614 
L 326.462319 34.209766 
L 327.017525 34.69167 
L 327.31041 34.942742 
L 328.025819 35.545686 
L 328.182107 35.675719 
L 329.034114 36.372913 
L 329.078428 36.408696 
L 330.00057 37.141672 
L 330.042408 37.174418 
L 330.472119 37.506085 
M 348.42664 48.398319 
L 349.2 48.764367 
" clip-path="url(#p0f842fe5f4)" style="fill: none; stroke: #fde725; stroke-width: 1.5"/>
   </g>
   <g id="patch_3">
    <path d="M 47.72 246.04 
L 47.72 26.88 
" style="fill: none; stroke: #000000; stroke-width: 0.8; stroke-linejoin: miter; stroke-linecap: square"/>
   </g>
   <g id="patch_4">
    <path d="M 349.2 246.04 
L 349.2 26.88 
" style="fill: none; stroke: #000000; stroke-width: 0.8; stroke-linejoin: miter; stroke-linecap: square"/>
   </g>
   <g id="patch_5">
    <path d="M 47.72 246.04 
L 349.2 246.04 
" style="fill: none; stroke: #000000; stroke-width: 0.8; stroke-linejoin: miter; stroke-linecap: square"/>
   </g>
   <g id="patch_6">
    <path d="M 47.72 26.88 
L 349.2 26.88 
" style="fill: none; stroke: #000000; stroke-width: 0.8; stroke-linejoin: miter; stroke-linecap: square"/>
   </g>
   <g id="text_11">
    <!-- Plackett copula contours (θ=5) -->
    <g transform="translate(105.510625 20.88) scale(0.12 -0.12)">
     <defs>
      <path id="DejaVuSans-50" d="M 1259 4147 
L 1259 2394 
L 2053 2394 
Q 2494 2394 2734 2622 
Q 2975 2850 2975 3272 
Q 2975 3691 2734 3919 
Q 2494 4147 2053 4147 
L 1259 4147 
z
M 628 4666 
L 2053 4666 
Q 2838 4666 3239 4311 
Q 3641 3956 3641 3272 
Q 3641 2581 3239 2228 
Q 2838 1875 2053 1875 
L 1259 1875 
L 1259 0 
L 628 0 
L 628 4666 
z
" transform="scale(0.015625)"/>
      <path id="DejaVuSans-6c" d="M 603 4863 
L 1178 4863 
L 1178 0 
L 603 0 
L 603 4863 
z
" transform="scale(0.015625)"/>
      <path id="DejaVuSans-61" d="M 2194 1759 
Q 1497 1759 1228 1600 
Q 959 1441 959 1056 
Q 959 750 1161 570 
Q 1363 391 1709 391 
Q 2188 391 2477 730 
Q 2766 1069 2766 1631 
L 2766 1759 
L 2194 1759 
z
M 3341 1997 
L 3341 0 
L 2766 0 
L 2766 531 
Q 2569 213 2275 61 
Q 1981 -91 1556 -91 
Q 1019 -91 701 211 
Q 384 513 384 1019 
Q 384 1609 779 1909 
Q 1175 2209 1959 2209 
L 2766 2209 
L 2766 2266 
Q 2766 2663 2505 2880 
Q 2244 3097 1772 3097 
Q 1472 3097 1187 3025 
Q 903 2953 641 2809 
L 641 3341 
Q 956 3463 1253 3523 
Q 1550 3584 1831 3584 
Q 2591 3584 2966 3190 
Q 3341 2797 3341 1997 
z
" transform="scale(0.015625)"/>
      <path id="DejaVuSans-63" d="M 3122 3366 
L 3122 2828 
Q 2878 2963 2633 3030 
Q 2388 3097 2138 3097 
Q 1578 3097 1268 2742 
Q 959 2388 959 1747 
Q 959 1106 1268 751 
Q 1578 397 2138 397 
Q 2388 397 2633 464 
Q 2878 531 3122 666 
L 3122 134 
Q 2881 22 2623 -34 
Q 2366 -91 2075 -91 
Q 1284 -91 818 406 
Q 353 903 353 1747 
Q 353 2603 823 3093 
Q 1294 3584 2113 3584 
Q 2378 3584 2631 3529 
Q 2884 3475 3122 3366 
z
" transform="scale(0.015625)"/>
      <path id="DejaVuSans-6b" d="M 581 4863 
L 1159 4863 
L 1159 1991 
L 2875 3500 
L 3609 3500 
L 1753 1863 
L 3688 0 
L 2938 0 
L 1159 1709 
L 1159 0 
L 581 0 
L 581 4863 
z
" transform="scale(0.015625)"/>
      <path id="DejaVuSans-65" d="M 3597 1894 
L 3597 1613 
L 953 1613 
Q 991 1019 1311 708 
Q 1631 397 2203 397 
Q 2534 397 2845 478 
Q 3156 559 3463 722 
L 3463 178 
Q 3153 47 2828 -22 
Q 2503 -91 2169 -91 
Q 1331 -91 842 396 
Q 353 884 353 1716 
Q 353 2575 817 3079 
Q 1281 3584 2069 3584 
Q 2775 3584 3186 3129 
Q 3597 2675 3597 1894 
z
M 3022 2063 
Q 3016 2534 2758 2815 
Q 2500 3097 2075 3097 
Q 1594 3097 1305 2825 
Q 1016 2553 972 2059 
L 3022 2063 
z
" transform="scale(0.015625)"/>
      <path id="DejaVuSans-74" d="M 1172 4494 
L 1172 3500 
L 2356 3500 
L 2356 3053 
L 1172 3053 
L 1172 1153 
Q 1172 725 1289 603 
Q 1406 481 1766 481 
L 2356 481 
L 2356 0 
L 1766 0 
Q 1100 0 847 248 
Q 594 497 594 1153 
L 594 3053 
L 172 3053 
L 172 3500 
L 594 3500 
L 594 4494 
L 1172 4494 
z
" transform="scale(0.015625)"/>
      <path id="DejaVuSans-20" transform="scale(0.015625)"/>
      <path id="DejaVuSans-6f" d="M 1959 3097 
Q 1497 3097 1228 2736 
Q 959 2375 959 1747 
Q 959 1119 1226 758 
Q 1494 397 1959 397 
Q 2419 397 2687 759 
Q 2956 1122 2956 1747 
Q 2956 2369 2687 2733 
Q 2419 3097 1959 3097 
z
M 1959 3584 
Q 2709 3584 3137 3096 
Q 3566 2609 3566 1747 
Q 3566 888 3137 398 
Q 2709 -91 1959 -91 
Q 1206 -91 779 398 
Q 353 888 353 1747 
Q 353 2609 779 3096 
Q 1206 3584 1959 3584 
z
" transform="scale(0.015625)"/>
      <path id="DejaVuSans-70" d="M 1159 525 
L 1159 -1331 
L 581 -1331 
L 581 3500 
L 1159 3500 
L 1159 2969 
Q 1341 3281 1617 3432 
Q 1894 3584 2278 3584 
Q 2916 3584 3314 3078 
Q 3713 2572 3713 1747 
Q 3713 922 3314 415 
Q 2916 -91 2278 -91 
Q 1894 -91 1617 61 
Q 1341 213 1159 525 
z
M 3116 1747 
Q 3116 2381 2855 2742 
Q 2594 3103 2138 3103 
Q 1681 3103 1420 2742 
Q 1159 2381 1159 1747 
Q 1159 1113 1420 752 
Q 1681 391 2138 391 
Q 2594 391 2855 752 
Q 3116 1113 3116 1747 
z
" transform="scale(0.015625)"/>
      <path id="DejaVuSans-6e" d="M 3513 2113 
L 3513 0 
L 2938 0 
L 2938 2094 
Q 2938 2591 2744 2837 
Q 2550 3084 2163 3084 
Q 1697 3084 1428 2787 
Q 1159 2491 1159 1978 
L 1159 0 
L 581 0 
L 581 3500 
L 1159 3500 
L 1159 2956 
Q 1366 3272 1645 3428 
Q 1925 3584 2291 3584 
Q 2894 3584 3203 3211 
Q 3513 2838 3513 2113 
z
" transform="scale(0.015625)"/>
      <path id="DejaVuSans-72" d="M 2631 2963 
Q 2534 3019 2420 3045 
Q 2306 3072 2169 3072 
Q 1681 3072 1420 2755 
Q 1159 2438 1159 1844 
L 1159 0 
L 581 0 
L 581 3500 
L 1159 3500 
L 1159 2956 
Q 1341 3275 1631 3429 
Q 1922 3584 2338 3584 
Q 2397 3584 2469 3576 
Q 2541 3569 2628 3553 
L 2631 2963 
z
" transform="scale(0.015625)"/>
      <path id="DejaVuSans-73" d="M 2834 3397 
L 2834 2853 
Q 2591 2978 2328 3040 
Q 2066 3103 1784 3103 
Q 1356 3103 1142 2972 
Q 928 2841 928 2578 
Q 928 2378 1081 2264 
Q 1234 2150 1697 2047 
L 1894 2003 
Q 2506 1872 2764 1633 
Q 3022 1394 3022 966 
Q 3022 478 2636 193 
Q 2250 -91 1575 -91 
Q 1294 -91 989 -36 
Q 684 19 347 128 
L 347 722 
Q 666 556 975 473 
Q 1284 391 1588 391 
Q 1994 391 2212 530 
Q 2431 669 2431 922 
Q 2431 1156 2273 1281 
Q 2116 1406 1581 1522 
L 1381 1569 
Q 847 1681 609 1914 
Q 372 2147 372 2553 
Q 372 3047 722 3315 
Q 1072 3584 1716 3584 
Q 2034 3584 2315 3537 
Q 2597 3491 2834 3397 
z
" transform="scale(0.015625)"/>
      <path id="DejaVuSans-28" d="M 1984 4856 
Q 1566 4138 1362 3434 
Q 1159 2731 1159 2009 
Q 1159 1288 1364 580 
Q 1569 -128 1984 -844 
L 1484 -844 
Q 1016 -109 783 600 
Q 550 1309 550 2009 
Q 550 2706 781 3412 
Q 1013 4119 1484 4856 
L 1984 4856 
z
" transform="scale(0.015625)"/>
      <path id="DejaVuSans-3b8" d="M 2953 2219 
L 963 2219 
Q 1009 1284 1225 888 
Q 1494 400 1959 400 
Q 2428 400 2688 891 
Q 2916 1322 2953 2219 
z
M 2944 2750 
Q 2856 3638 2688 3950 
Q 2419 4444 1959 4444 
Q 1481 4444 1228 3956 
Q 1028 3563 969 2750 
L 2944 2750 
z
M 1959 4913 
Q 2709 4913 3138 4250 
Q 3566 3591 3566 2422 
Q 3566 1256 3138 594 
Q 2709 -72 1959 -72 
Q 1206 -72 781 594 
Q 353 1256 353 2422 
Q 353 3591 781 4250 
Q 1206 4913 1959 4913 
z
" transform="scale(0.015625)"/>
      <path id="DejaVuSans-3d" d="M 678 2906 
L 4684 2906 
L 4684 2381 
L 678 2381 
L 678 2906 
z
M 678 1631 
L 4684 1631 
L 4684 1100 
L 678 1100 
L 678 1631 
z
" transform="scale(0.015625)"/>
      <path id="DejaVuSans-35" d="M 691 4666 
L 3169 4666 
L 3169 4134 
L 1269 4134 
L 1269 2991 
Q 1406 3038 1543 3061 
Q 1681 3084 1819 3084 
Q 2600 3084 3056 2656 
Q 3513 2228 3513 1497 
Q 3513 744 3044 326 
Q 2575 -91 1722 -91 
Q 1428 -91 1123 -41 
Q 819 9 494 109 
L 494 744 
Q 775 591 1075 516 
Q 1375 441 1709 441 
Q 2250 441 2565 725 
Q 2881 1009 2881 1497 
Q 2881 1984 2565 2268 
Q 2250 2553 1709 2553 
Q 1456 2553 1204 2497 
Q 953 2441 691 2322 
L 691 4666 
z
" transform="scale(0.015625)"/>
      <path id="DejaVuSans-29" d="M 513 4856 
L 1013 4856 
Q 1481 4119 1714 3412 
Q 1947 2706 1947 2009 
Q 1947 1309 1714 600 
Q 1481 -109 1013 -844 
L 513 -844 
Q 928 -128 1133 580 
Q 1338 1288 1338 2009 
Q 1338 2731 1133 3434 
Q 928 4138 513 4856 
z
" transform="scale(0.015625)"/>
     </defs>
     <use xlink:href="#DejaVuSans-50"/>
     <use xlink:href="#DejaVuSans-6c" transform="translate(60.302734 0)"/>
     <use xlink:href="#DejaVuSans-61" transform="translate(88.085938 0)"/>
     <use xlink:href="#DejaVuSans-63" transform="translate(149.365234 0)"/>
     <use xlink:href="#DejaVuSans-6b" transform="translate(204.345703 0)"/>
     <use xlink:href="#DejaVuSans-65" transform="translate(258.630859 0)"/>
     <use xlink:href="#DejaVuSans-74" transform="translate(320.154297 0)"/>
     <use xlink:href="#DejaVuSans-74" transform="translate(359.363281 0)"/>
     <use xlink:href="#DejaVuSans-20" transform="translate(398.572266 0)"/>
     <use xlink:href="#DejaVuSans-63" transform="translate(430.359375 0)"/>
     <use xlink:href="#DejaVuSans-6f" transform="translate(485.339844 0)"/>
     <use xlink:href="#DejaVuSans-70" transform="translate(546.521484 0)"/>
     <use xlink:href="#DejaVuSans-75" transform="translate(609.998047 0)"/>
     <use xlink:href="#DejaVuSans-6c" transform="translate(673.376953 0)"/>
     <use xlink:href="#DejaVuSans-61" transform="translate(701.160156 0)"/>
     <use xlink:href="#DejaVuSans-20" transform="translate(762.439453 0)"/>
     <use xlink:href="#DejaVuSans-63" transform="translate(794.226562 0)"/>
     <use xlink:href="#DejaVuSans-6f" transform="translate(849.207031 0)"/>
     <use xlink:href="#DejaVuSans-6e" transform="translate(910.388672 0)"/>
     <use xlink:href="#DejaVuSans-74" transform="translate(973.767578 0)"/>
     <use xlink:href="#DejaVuSans-6f" transform="translate(1012.976562 0)"/>
     <use xlink:href="#DejaVuSans-75" transform="translate(1074.158203 0)"/>
     <use xlink:href="#DejaVuSans-72" transform="translate(1137.537109 0)"/>
     <use xlink:href="#DejaVuSans-73" transform="translate(1178.650391 0)"/>
     <use xlink:href="#DejaVuSans-20" transform="translate(1230.75 0)"/>
     <use xlink:href="#DejaVuSans-28" transform="translate(1262.537109 0)"/>
     <use xlink:href="#DejaVuSans-3b8" transform="translate(1301.550781 0)"/>
     <use xlink:href="#DejaVuSans-3d" transform="translate(1362.732422 0)"/>
     <use xlink:href="#DejaVuSans-35" transform="translate(1446.521484 0)"/>
     <use xlink:href="#DejaVuSans-29" transform="translate(1510.144531 0)"/>
    </g>
   </g>
   <g id="text_12">
    <g clip-path="url(#p0f842fe5f4)">
     <!-- 0.1 -->
     <g style="fill: #440154" transform="translate(75.611052 25.716245) rotate(-271.660988) scale(0.08 -0.08)">
      <defs>
       <path id="DejaVuSans-31" d="M 794 531 
L 1825 531 
L 1825 4091 
L 703 3866 
L 703 4441 
L 1819 4666 
L 2450 4666 
L 2450 531 
L 3481 531 
L 3481 0 
L 794 0 
L 794 531 
z
" transform="scale(0.015625)"/>
      </defs>
      <use xlink:href="#DejaVuSans-30"/>
      <use xlink:href="#DejaVuSans-2e" transform="translate(63.623047 0)"/>
      <use xlink:href="#DejaVuSans-31" transform="translate(95.410156 0)"/>
     </g>
    </g>
   </g>
   <g id="text_13">
    <g clip-path="url(#p0f842fe5f4)">
     <!-- 0.2 -->
     <g style="fill: #472d7b" transform="translate(331.661566 203.760703) rotate(-357.626997) scale(0.08 -0.08)">
      <use xlink:href="#DejaVuSans-30"/>
      <use xlink:href="#DejaVuSans-2e" transform="translate(63.623047 0)"/>
      <use xlink:href="#DejaVuSans-32" transform="translate(95.410156 0)"/>
     </g>
    </g>
   </g>
   <g id="text_14">
    <g clip-path="url(#p0f842fe5f4)">
     <!-- 0.3 -->
     <g style="fill: #3b528b" transform="translate(324.543703 180.898868) rotate(-355.761696) scale(0.08 -0.08)">
      <defs>
       <path id="DejaVuSans-33" d="M 2597 2516 
Q 3050 2419 3304 2112 
Q 3559 1806 3559 1356 
Q 3559 666 3084 287 
Q 2609 -91 1734 -91 
Q 1441 -91 1130 -33 
Q 819 25 488 141 
L 488 750 
Q 750 597 1062 519 
Q 1375 441 1716 441 
Q 2309 441 2620 675 
Q 2931 909 2931 1356 
Q 2931 1769 2642 2001 
Q 2353 2234 1838 2234 
L 1294 2234 
L 1294 2753 
L 1863 2753 
Q 2328 2753 2575 2939 
Q 2822 3125 2822 3475 
Q 2822 3834 2567 4026 
Q 2313 4219 1838 4219 
Q 1578 4219 1281 4162 
Q 984 4106 628 3988 
L 628 4550 
Q 988 4650 1302 4700 
Q 1616 4750 1894 4750 
Q 2613 4750 3031 4423 
Q 3450 4097 3450 3541 
Q 3450 3153 3228 2886 
Q 3006 2619 2597 2516 
z
" transform="scale(0.015625)"/>
      </defs>
      <use xlink:href="#DejaVuSans-30"/>
      <use xlink:href="#DejaVuSans-2e" transform="translate(63.623047 0)"/>
      <use xlink:href="#DejaVuSans-33" transform="translate(95.410156 0)"/>
     </g>
    </g>
   </g>
   <g id="text_15">
    <g clip-path="url(#p0f842fe5f4)">
     <!-- 0.4 -->
     <g style="fill: #2c728e" transform="translate(332.562201 159.010871) rotate(-354.085581) scale(0.08 -0.08)">
      <use xlink:href="#DejaVuSans-30"/>
      <use xlink:href="#DejaVuSans-2e" transform="translate(63.623047 0)"/>
      <use xlink:href="#DejaVuSans-34" transform="translate(95.410156 0)"/>
     </g>
    </g>
   </g>
   <g id="text_16">
    <g clip-path="url(#p0f842fe5f4)">
     <!-- 0.5 -->
     <g style="fill: #21918c" transform="translate(312.288304 133.026038) rotate(-349.161944) scale(0.08 -0.08)">
      <use xlink:href="#DejaVuSans-30"/>
      <use xlink:href="#DejaVuSans-2e" transform="translate(63.623047 0)"/>
      <use xlink:href="#DejaVuSans-35" transform="translate(95.410156 0)"/>
     </g>
    </g>
   </g>
   <g id="text_17">
    <g clip-path="url(#p0f842fe5f4)">
     <!-- 0.6 -->
     <g style="fill: #28ae80" transform="translate(334.459242 113.996721) rotate(-348.451649) scale(0.08 -0.08)">
      <use xlink:href="#DejaVuSans-30"/>
      <use xlink:href="#DejaVuSans-2e" transform="translate(63.623047 0)"/>
      <use xlink:href="#DejaVuSans-36" transform="translate(95.410156 0)"/>
     </g>
    </g>
   </g>
   <g id="text_18">
    <g clip-path="url(#p0f842fe5f4)">
     <!-- 0.7 -->
     <g style="fill: #5ec962" transform="translate(329.140435 89.386479) rotate(-342.593675) scale(0.08 -0.08)">
      <defs>
       <path id="DejaVuSans-37" d="M 525 4666 
L 3525 4666 
L 3525 4397 
L 1831 0 
L 1172 0 
L 2766 4134 
L 525 4134 
L 525 4666 
z
" transform="scale(0.015625)"/>
      </defs>
      <use xlink:href="#DejaVuSans-30"/>
      <use xlink:href="#DejaVuSans-2e" transform="translate(63.623047 0)"/>
      <use xlink:href="#DejaVuSans-37" transform="translate(95.410156 0)"/>
     </g>
    </g>
   </g>
   <g id="text_19">
    <g clip-path="url(#p0f842fe5f4)">
     <!-- 0.8 -->
     <g style="fill: #addc30" transform="translate(336.423897 68.309808) rotate(-338.239139) scale(0.08 -0.08)">
      <use xlink:href="#DejaVuSans-30"/>
      <use xlink:href="#DejaVuSans-2e" transform="translate(63.623047 0)"/>
      <use xlink:href="#DejaVuSans-38" transform="translate(95.410156 0)"/>
     </g>
    </g>
   </g>
   <g id="text_20">
    <g clip-path="url(#p0f842fe5f4)">
     <!-- 0.9 -->
     <g style="fill: #fde725" transform="translate(332.593325 41.741913) rotate(-326.526607) scale(0.08 -0.08)">
      <defs>
       <path id="DejaVuSans-39" d="M 703 97 
L 703 672 
Q 941 559 1184 500 
Q 1428 441 1663 441 
Q 2288 441 2617 861 
Q 2947 1281 2994 2138 
Q 2813 1869 2534 1725 
Q 2256 1581 1919 1581 
Q 1219 1581 811 2004 
Q 403 2428 403 3163 
Q 403 3881 828 4315 
Q 1253 4750 1959 4750 
Q 2769 4750 3195 4129 
Q 3622 3509 3622 2328 
Q 3622 1225 3098 567 
Q 2575 -91 1691 -91 
Q 1453 -91 1209 -44 
Q 966 3 703 97 
z
M 1959 2075 
Q 2384 2075 2632 2365 
Q 2881 2656 2881 3163 
Q 2881 3666 2632 3958 
Q 2384 4250 1959 4250 
Q 1534 4250 1286 3958 
Q 1038 3666 1038 3163 
Q 1038 2656 1286 2365 
Q 1534 2075 1959 2075 
z
" transform="scale(0.015625)"/>
      </defs>
      <use xlink:href="#DejaVuSans-30"/>
      <use xlink:href="#DejaVuSans-2e" transform="translate(63.623047 0)"/>
      <use xlink:href="#DejaVuSans-39" transform="translate(95.410156 0)"/>
     </g>
    </g>
   </g>
  </g>
 </g>
 <defs>
  <clipPath id="p0f842fe5f4">
   <rect x="47.72" y="26.88" width="301.48" height="219.16"/>
  </clipPath>
 </defs>
</svg>
