<?xml version="1.0" encoding="utf-8" standalone="no"?>
<!DOCTYPE svg PUBLIC "-//W3C//DTD SVG 1.1//EN"
  "http://www.w3.org/Graphics/SVG/1.1/DTD/svg11.dtd">
<svg xmlns:xlink="http://www.w3.org/1999/xlink" width="360pt" height="288pt" viewBox="0 0 360 288" xmlns="http://www.w3.org/2000/svg" version="1.1">
 <metadata>
  <rdf:RDF xmlns:dc="http://purl.org/dc/elements/1.1/" xmlns:cc="http://creativecommons.org/ns#" xmlns:rdf="http://www.w3.org/1999/02/22-rdf-syntax-ns#">
   <cc:Work>
    <dc:type rdf:resource="http://purl.org/dc/dcmitype/StillImage"/>
    <dc:date>2025-10-12T22:47:50.814642</dc:date>
    <dc:format>image/svg+xml</dc:format>
    <dc:creator>
     <cc:Agent>
      <dc:title>Matplotlib v3.10.7, https://matplotlib.org/</dc:title>
     </cc:Agent>
    </dc:creator>
   </cc:Work>
  </rdf:RDF>
 </metadata>
 <defs>
  <style type="text/css">*{stroke-linejoin: round; stroke-linecap: butt}</style>
 </defs>
 <g id="figure_1">
  <g id="patch_1">
   <path d="M 0 288 
L 360 288 
L 360 0 
L 0 0 
z
" style="fill: #ffffff"/>
  </g>
  <g id="axes_1">
   <g id="patch_2">
    <path d="M 47.72 246.04 
L 349.2 246.04 
L 349.2 26.88 
L 47.72 26.88 
z
" style="fill: #ffffff"/>
   </g>
   <g id="matplotlib.axis_1">
    <g id="xtick_1">
     <g id="line2d_1">
      <defs>
       <path id="mb452c686d1" d="M 0 0 
L 0 3.5 
" style="stroke: #000000; stroke-width: 0.8"/>
      </defs>
      <g>
       <use xlink:href="#mb452c686d1" x="107.997908" y="246.04" style="stroke: #000000; stroke-width: 0.8"/>
      </g>
     </g>
     <g id="text_1">
      <!-- 0.2 -->
      <g transform="translate(100.046345 260.638438) scale(0.1 -0.1)">
       <defs>
        <path id="DejaVuSans-30" d="M 2034 4250 
Q 1547 4250 1301 3770 
Q 1056 3291 1056 2328 
Q 1056 1369 1301 889 
Q 1547 409 2034 409 
Q 2525 409 2770 889 
Q 3016 1369 3016 2328 
Q 3016 3291 2770 3770 
Q 2525 4250 2034 4250 
z
M 2034 4750 
Q 2819 4750 3233 4129 
Q 3647 3509 3647 2328 
Q 3647 1150 3233 529 
Q 2819 -91 2034 -91 
Q 1250 -91 836 529 
Q 422 1150 422 2328 
Q 422 3509 836 4129 
Q 1250 4750 2034 4750 
z
" transform="scale(0.015625)"/>
        <path id="DejaVuSans-2e" d="M 684 794 
L 1344 794 
L 1344 0 
L 684 0 
L 684 794 
z
" transform="scale(0.015625)"/>
        <path id="DejaVuSans-32" d="M 1228 531 
L 3431 531 
L 3431 0 
L 469 0 
L 469 531 
Q 828 903 1448 1529 
Q 2069 2156 2228 2338 
Q 2531 2678 2651 2914 
Q 2772 3150 2772 3378 
Q 2772 3750 2511 3984 
Q 2250 4219 1831 4219 
Q 1534 4219 1204 4116 
Q 875 4013 500 3803 
L 500 4441 
Q 881 4594 1212 4672 
Q 1544 4750 1819 4750 
Q 2544 4750 2975 4387 
Q 3406 4025 3406 3419 
Q 3406 3131 3298 2873 
Q 3191 2616 2906 2266 
Q 2828 2175 2409 1742 
Q 1991 1309 1228 531 
z
" transform="scale(0.015625)"/>
       </defs>
       <use xlink:href="#DejaVuSans-30"/>
       <use xlink:href="#DejaVuSans-2e" transform="translate(63.623047 0)"/>
       <use xlink:href="#DejaVuSans-32" transform="translate(95.410156 0)"/>
      </g>
     </g>
    </g>
    <g id="xtick_2">
     <g id="line2d_2">
      <g>
       <use xlink:href="#mb452c686d1" x="168.305969" y="246.04" style="stroke: #000000; stroke-width: 0.8"/>
      </g>
     </g>
     <g id="text_2">
      <!-- 0.4 -->
      <g transform="translate(160.354407 260.638438) scale(0.1 -0.1)">
       <defs>
        <path id="DejaVuSans-34" d="M 2419 4116 
L 825 1625 
L 2419 1625 
L 2419 4116 
z
M 2253 4666 
L 3047 4666 
L 3047 1625 
L 3713 1625 
L 3713 1100 
L 3047 1100 
L 3047 0 
L 2419 0 
L 2419 1100 
L 313 1100 
L 313 1709 
L 2253 4666 
z
" transform="scale(0.015625)"/>
       </defs>
       <use xlink:href="#DejaVuSans-30"/>
       <use xlink:href="#DejaVuSans-2e" transform="translate(63.623047 0)"/>
       <use xlink:href="#DejaVuSans-34" transform="translate(95.410156 0)"/>
      </g>
     </g>
    </g>
    <g id="xtick_3">
     <g id="line2d_3">
      <g>
       <use xlink:href="#mb452c686d1" x="228.614031" y="246.04" style="stroke: #000000; stroke-width: 0.8"/>
      </g>
     </g>
     <g id="text_3">
      <!-- 0.6 -->
      <g transform="translate(220.662468 260.638438) scale(0.1 -0.1)">
       <defs>
        <path id="DejaVuSans-36" d="M 2113 2584 
Q 1688 2584 1439 2293 
Q 1191 2003 1191 1497 
Q 1191 994 1439 701 
Q 1688 409 2113 409 
Q 2538 409 2786 701 
Q 3034 994 3034 1497 
Q 3034 2003 2786 2293 
Q 2538 2584 2113 2584 
z
M 3366 4563 
L 3366 3988 
Q 3128 4100 2886 4159 
Q 2644 4219 2406 4219 
Q 1781 4219 1451 3797 
Q 1122 3375 1075 2522 
Q 1259 2794 1537 2939 
Q 1816 3084 2150 3084 
Q 2853 3084 3261 2657 
Q 3669 2231 3669 1497 
Q 3669 778 3244 343 
Q 2819 -91 2113 -91 
Q 1303 -91 875 529 
Q 447 1150 447 2328 
Q 447 3434 972 4092 
Q 1497 4750 2381 4750 
Q 2619 4750 2861 4703 
Q 3103 4656 3366 4563 
z
" transform="scale(0.015625)"/>
       </defs>
       <use xlink:href="#DejaVuSans-30"/>
       <use xlink:href="#DejaVuSans-2e" transform="translate(63.623047 0)"/>
       <use xlink:href="#DejaVuSans-36" transform="translate(95.410156 0)"/>
      </g>
     </g>
    </g>
    <g id="xtick_4">
     <g id="line2d_4">
      <g>
       <use xlink:href="#mb452c686d1" x="288.922092" y="246.04" style="stroke: #000000; stroke-width: 0.8"/>
      </g>
     </g>
     <g id="text_4">
      <!-- 0.8 -->
      <g transform="translate(280.97053 260.638438) scale(0.1 -0.1)">
       <defs>
        <path id="DejaVuSans-38" d="M 2034 2216 
Q 1584 2216 1326 1975 
Q 1069 1734 1069 1313 
Q 1069 891 1326 650 
Q 1584 409 2034 409 
Q 2484 409 2743 651 
Q 3003 894 3003 1313 
Q 3003 1734 2745 1975 
Q 2488 2216 2034 2216 
z
M 1403 2484 
Q 997 2584 770 2862 
Q 544 3141 544 3541 
Q 544 4100 942 4425 
Q 1341 4750 2034 4750 
Q 2731 4750 3128 4425 
Q 3525 4100 3525 3541 
Q 3525 3141 3298 2862 
Q 3072 2584 2669 2484 
Q 3125 2378 3379 2068 
Q 3634 1759 3634 1313 
Q 3634 634 3220 271 
Q 2806 -91 2034 -91 
Q 1263 -91 848 271 
Q 434 634 434 1313 
Q 434 1759 690 2068 
Q 947 2378 1403 2484 
z
M 1172 3481 
Q 1172 3119 1398 2916 
Q 1625 2713 2034 2713 
Q 2441 2713 2670 2916 
Q 2900 3119 2900 3481 
Q 2900 3844 2670 4047 
Q 2441 4250 2034 4250 
Q 1625 4250 1398 4047 
Q 1172 3844 1172 3481 
z
" transform="scale(0.015625)"/>
       </defs>
       <use xlink:href="#DejaVuSans-30"/>
       <use xlink:href="#DejaVuSans-2e" transform="translate(63.623047 0)"/>
       <use xlink:href="#DejaVuSans-38" transform="translate(95.410156 0)"/>
      </g>
     </g>
    </g>
    <g id="text_5">
     <!-- u -->
     <g transform="translate(195.29125 274.316562) scale(0.1 -0.1)">
      <defs>
       <path id="DejaVuSans-75" d="M 544 1381 
L 544 3500 
L 1119 3500 
L 1119 1403 
Q 1119 906 1312 657 
Q 1506 409 1894 409 
Q 2359 409 2629 706 
Q 2900 1003 2900 1516 
L 2900 3500 
L 3475 3500 
L 3475 0 
L 2900 0 
L 2900 538 
Q 2691 219 2414 64 
Q 2138 -91 1772 -91 
Q 1169 -91 856 284 
Q 544 659 544 1381 
z
M 1991 3584 
L 1991 3584 
z
" transform="scale(0.015625)"/>
      </defs>
      <use xlink:href="#DejaVuSans-75"/>
     </g>
    </g>
   </g>
   <g id="matplotlib.axis_2">
    <g id="ytick_1">
     <g id="line2d_5">
      <defs>
       <path id="m24c8654b30" d="M 0 0 
L -3.5 0 
" style="stroke: #000000; stroke-width: 0.8"/>
      </defs>
      <g>
       <use xlink:href="#m24c8654b30" x="47.72" y="202.221152" style="stroke: #000000; stroke-width: 0.8"/>
      </g>
     </g>
     <g id="text_6">
      <!-- 0.2 -->
      <g transform="translate(24.816875 206.020371) scale(0.1 -0.1)">
       <use xlink:href="#DejaVuSans-30"/>
       <use xlink:href="#DejaVuSans-2e" transform="translate(63.623047 0)"/>
       <use xlink:href="#DejaVuSans-32" transform="translate(95.410156 0)"/>
      </g>
     </g>
    </g>
    <g id="ytick_2">
     <g id="line2d_6">
      <g>
       <use xlink:href="#m24c8654b30" x="47.72" y="158.380384" style="stroke: #000000; stroke-width: 0.8"/>
      </g>
     </g>
     <g id="text_7">
      <!-- 0.4 -->
      <g transform="translate(24.816875 162.179603) scale(0.1 -0.1)">
       <use xlink:href="#DejaVuSans-30"/>
       <use xlink:href="#DejaVuSans-2e" transform="translate(63.623047 0)"/>
       <use xlink:href="#DejaVuSans-34" transform="translate(95.410156 0)"/>
      </g>
     </g>
    </g>
    <g id="ytick_3">
     <g id="line2d_7">
      <g>
       <use xlink:href="#m24c8654b30" x="47.72" y="114.539616" style="stroke: #000000; stroke-width: 0.8"/>
      </g>
     </g>
     <g id="text_8">
      <!-- 0.6 -->
      <g transform="translate(24.816875 118.338835) scale(0.1 -0.1)">
       <use xlink:href="#DejaVuSans-30"/>
       <use xlink:href="#DejaVuSans-2e" transform="translate(63.623047 0)"/>
       <use xlink:href="#DejaVuSans-36" transform="translate(95.410156 0)"/>
      </g>
     </g>
    </g>
    <g id="ytick_4">
     <g id="line2d_8">
      <g>
       <use xlink:href="#m24c8654b30" x="47.72" y="70.698848" style="stroke: #000000; stroke-width: 0.8"/>
      </g>
     </g>
     <g id="text_9">
      <!-- 0.8 -->
      <g transform="translate(24.816875 74.498067) scale(0.1 -0.1)">
       <use xlink:href="#DejaVuSans-30"/>
       <use xlink:href="#DejaVuSans-2e" transform="translate(63.623047 0)"/>
       <use xlink:href="#DejaVuSans-38" transform="translate(95.410156 0)"/>
      </g>
     </g>
    </g>
    <g id="text_10">
     <!-- v -->
     <g transform="translate(18.737188 139.419375) rotate(-90) scale(0.1 -0.1)">
      <defs>
       <path id="DejaVuSans-76" d="M 191 3500 
L 800 3500 
L 1894 563 
L 2988 3500 
L 3597 3500 
L 2284 0 
L 1503 0 
L 191 3500 
z
" transform="scale(0.015625)"/>
      </defs>
      <use xlink:href="#DejaVuSans-76"/>
     </g>
    </g>
   </g>
   <g id="QuadContourSet_1">
    <path d="M 77.843877 26.88 
L 77.956389 49.602274 
L 78.266326 68.659666 
L 78.741178 84.785151 
L 79.365961 98.711706 
L 80.100186 110.439331 
L 80.993712 121.15416 
L 81.970275 130.229699 
L 83.059691 138.292441 
L 84.285428 145.622207 
L 85.472154 151.48602 
L 86.891506 157.349833 
L 88.374551 162.480669 
L 89.869282 166.878528 
L 91.309329 170.543411 
L 93.093244 174.473067 
L 94.881589 177.873177 
L 96.645163 180.805084 
L 98.656039 183.73699 
L 100.966104 186.668896 
L 103.176187 189.120376 
L 105.192776 191.110497 
L 108.217659 193.733213 
L 110.485501 195.464615 
L 113.741434 197.663545 
L 117.292308 199.74715 
L 120.353284 201.328428 
L 124.350368 203.148624 
L 129.025264 204.993311 
L 133.425017 206.503759 
L 138.466488 208.017272 
L 144.516254 209.587688 
L 151.574314 211.152138 
L 158.632375 212.490151 
L 166.698729 213.801893 
L 175.773378 215.059751 
L 186.864615 216.355669 
L 198.964147 217.537809 
L 213.080268 218.686264 
L 229.212977 219.770966 
L 248.370569 220.825566 
L 270.553043 221.815487 
L 296.768696 222.755067 
L 318.292176 223.389275 
M 339.776674 223.928648 
L 349.2 224.140879 
L 349.2 224.140879 
" clip-path="url(#p981ac7e583)" style="fill: none; stroke: #440154; stroke-width: 1.5"/>
    <path d="M 107.997908 26.88 
L 108.113759 40.806555 
L 108.441221 53.267157 
L 108.9448 64.261806 
L 109.63669 74.523478 
L 110.437022 83.319197 
L 111.374263 91.38194 
L 112.429608 98.711706 
L 113.718356 106.041472 
L 115.118619 112.638261 
L 116.59402 118.502074 
L 118.097174 123.63291 
L 119.836022 128.763746 
L 121.547507 133.161605 
L 123.500465 137.559465 
L 125.358662 141.252367 
L 127.416838 144.889231 
L 129.75855 148.554114 
L 131.856339 151.48602 
L 134.433311 154.711955 
L 136.782609 157.349833 
L 139.690574 160.281739 
L 142.963754 163.213645 
L 145.697049 165.412575 
L 149.557726 168.1952 
L 153.223241 170.543411 
L 157.05289 172.742341 
L 161.332317 174.941271 
L 165.690435 176.945048 
L 170.731906 179.014579 
L 175.773378 180.860882 
L 181.823144 182.830403 
L 187.87291 184.576576 
L 194.93097 186.379875 
L 202.997324 188.187226 
L 211.063679 189.772477 
L 220.138328 191.338947 
L 230.221271 192.85911 
L 241.312508 194.313569 
L 254.420334 195.795863 
L 268.536455 197.163163 
L 284.669164 198.495667 
L 302.818462 199.763848 
L 322.984348 200.949052 
L 327.329751 201.17872 
M 348.890284 202.206272 
L 349.2 202.219837 
L 349.2 202.219837 
" clip-path="url(#p981ac7e583)" style="fill: none; stroke: #472d7b; stroke-width: 1.5"/>
    <path d="M 138.151939 26.88 
L 138.258537 36.408696 
L 138.563341 45.204415 
L 139.096935 54.000134 
L 139.819278 62.062876 
L 140.701382 69.392642 
L 141.708496 75.989431 
L 142.950398 82.586221 
L 144.283012 88.450033 
L 145.653509 93.58087 
L 147.244273 98.711706 
L 149.089349 103.842542 
L 150.904844 108.240401 
L 152.970346 112.638261 
L 154.91059 116.303144 
L 157.079038 119.968027 
L 159.640669 123.821125 
L 162.237754 127.297793 
L 164.68214 130.244856 
L 167.707023 133.526925 
L 170.731906 136.473044 
L 173.756789 139.137097 
L 177.303878 141.957324 
L 180.814849 144.476262 
L 184.849245 147.088161 
L 188.881204 149.44144 
L 192.914381 151.577449 
L 197.955853 153.986071 
L 202.997324 156.14841 
L 209.04709 158.469827 
L 215.096856 160.540324 
L 222.154916 162.690925 
L 229.516049 164.679599 
L 237.279331 166.542458 
L 245.745431 168.344482 
L 254.420334 169.983241 
L 264.503278 171.667222 
L 275.594515 173.291957 
L 287.694047 174.840013 
L 300.801873 176.299814 
L 315.926288 177.754779 
L 320.346495 178.140188 
M 341.7625 179.79557 
L 349.2 180.298795 
L 349.2 180.298795 
" clip-path="url(#p981ac7e583)" style="fill: none; stroke: #3b528b; stroke-width: 1.5"/>
    <path d="M 168.30597 26.88 
L 168.415472 34.209766 
L 168.759226 41.539532 
L 169.292876 48.136321 
L 170.065933 54.73311 
L 170.979851 60.596923 
L 172.135708 66.460736 
L 173.371648 71.591572 
L 174.845341 76.722408 
L 176.322684 81.120268 
L 178.0232 85.518127 
L 179.976486 89.915987 
L 181.823144 93.582284 
L 183.892686 97.245753 
L 186.216033 100.910635 
L 188.881204 104.648807 
L 191.763524 108.240401 
L 194.382808 111.172308 
L 197.273183 114.104214 
L 200.47084 117.03612 
L 204.017542 119.968027 
L 208.038796 122.951162 
L 212.377636 125.831839 
L 216.105151 128.0712 
L 221.146622 130.806866 
L 226.188094 133.25782 
L 231.229565 135.468148 
L 237.279331 137.851796 
L 243.329097 139.987109 
L 250.387157 142.213835 
L 257.445217 144.200029 
L 265.511572 146.221944 
L 273.577926 148.020514 
L 282.652575 149.818945 
L 292.735518 151.582091 
L 303.826756 153.282515 
L 313.491598 154.592092 
M 334.914925 157.034317 
L 349.2 158.377753 
L 349.2 158.377753 
" clip-path="url(#p981ac7e583)" style="fill: none; stroke: #2c728e; stroke-width: 1.5"/>
    <path d="M 198.460002 26.88 
L 198.57518 32.743813 
L 198.932897 38.607625 
L 199.463793 43.738462 
L 200.218396 48.869298 
L 201.2202 54.000134 
L 202.296913 58.397993 
L 203.597138 62.795853 
L 205.145926 67.193712 
L 206.648198 70.858595 
L 208.364314 74.523478 
L 210.318416 78.188361 
L 212.539003 81.853244 
L 215.096856 85.569241 
L 217.31889 88.450033 
L 220.138328 91.733318 
L 223.163211 94.880653 
L 226.188094 97.709771 
L 229.212977 100.275396 
L 232.908166 103.109565 
L 236.271037 105.447449 
L 240.715592 108.240401 
L 245.345686 110.848046 
L 250.387157 113.39461 
L 255.428629 115.683527 
L 260.50856 117.769097 
L 266.519866 119.992871 
L 273.093722 122.166957 
L 279.627692 124.102109 
L 286.685753 125.976494 
L 294.752107 127.884843 
L 302.818462 129.58082 
L 311.89311 131.273055 
L 322.449255 132.998033 
M 343.715065 135.837811 
L 349.2 136.456711 
L 349.2 136.456711 
" clip-path="url(#p981ac7e583)" style="fill: none; stroke: #21918c; stroke-width: 1.5"/>
    <path d="M 228.614033 26.88 
L 228.719061 31.27786 
L 229.041564 35.675719 
L 229.597917 40.073579 
L 230.407793 44.471438 
L 231.293355 48.136321 
L 232.387826 51.801204 
L 233.71043 55.466087 
L 235.283539 59.13097 
L 237.134646 62.795853 
L 238.837021 65.727759 
L 240.756934 68.659666 
L 242.917217 71.591572 
L 245.345686 74.52531 
L 248.370569 77.757912 
L 251.395452 80.623389 
L 254.576385 83.319197 
L 258.457037 86.251104 
L 262.486689 88.957222 
L 266.519866 91.384032 
L 270.56572 93.58087 
L 275.594515 96.033477 
L 280.635987 98.232439 
L 285.677458 100.211563 
L 291.837938 102.376589 
L 297.77699 104.239629 
L 304.83505 106.211065 
L 311.89311 107.957898 
L 319.959465 109.72089 
L 329.034114 111.451792 
L 330.266662 111.668364 
L 330.266662 111.668364 
" clip-path="url(#p981ac7e583)" style="fill: none; stroke: #28ae80; stroke-width: 1.5"/>
    <path d="M 258.768066 26.88 
L 258.889778 30.544883 
L 259.261495 34.209766 
L 259.899902 37.874649 
L 260.616249 40.806555 
L 261.528985 43.738462 
L 262.653164 46.670368 
L 264.006429 49.602274 
L 265.609395 52.534181 
L 267.528161 55.524438 
L 269.670805 58.397993 
L 272.195802 61.3299 
L 274.586221 63.766704 
L 277.611104 66.490995 
L 280.635987 68.897198 
L 283.66087 71.051145 
L 286.784403 73.057525 
L 290.71893 75.324061 
L 294.872091 77.455385 
L 299.793579 79.695558 
L 305.179293 81.853244 
L 309.876522 83.526846 
L 311.172041 83.957659 
M 331.891145 89.470448 
L 338.108763 90.72381 
L 346.175117 92.138699 
L 349.2 92.614627 
L 349.2 92.614627 
" clip-path="url(#p981ac7e583)" style="fill: none; stroke: #5ec962; stroke-width: 1.5"/>
    <path d="M 288.9221 26.88 
L 288.931283 27.612977 
L 288.957924 28.345953 
L 289.002219 29.07893 
L 289.064383 29.811906 
L 289.144648 30.544883 
L 289.243259 31.27786 
L 289.360481 32.010836 
L 289.496593 32.743813 
L 289.65189 33.476789 
L 289.710635 33.723751 
L 289.826763 34.209766 
L 290.021552 34.942742 
L 290.236576 35.675719 
L 290.472201 36.408696 
L 290.71893 37.113608 
L 290.728819 37.141672 
L 291.007221 37.874649 
L 291.307532 38.607625 
L 291.630178 39.340602 
L 291.727224 39.54757 
L 291.976144 40.073579 
L 292.345716 40.806555 
L 292.735518 41.532798 
L 292.739171 41.539532 
L 293.158212 42.272508 
L 293.602331 43.005485 
L 293.743813 43.227643 
L 294.073203 43.738462 
L 294.570924 44.471438 
L 294.752107 44.726175 
L 295.096984 45.204415 
L 295.651514 45.937391 
L 295.760401 46.07548 
L 296.236636 46.670368 
L 296.768696 47.305601 
L 296.851883 47.403344 
L 297.50001 48.136321 
L 297.77699 48.437396 
L 298.181227 48.869298 
L 298.785284 49.49009 
L 298.896433 49.602274 
L 299.648149 50.335251 
L 299.793579 50.472387 
L 300.437681 51.068227 
L 300.801873 51.394094 
L 301.266024 51.801204 
L 301.810167 52.263695 
L 302.135056 52.534181 
L 302.818462 53.08651 
L 303.046814 53.267157 
L 303.826756 53.867145 
L 304.003492 54.000134 
L 304.83505 54.609597 
L 305.00745 54.73311 
L 305.843344 55.317334 
L 306.061207 55.466087 
L 306.851639 55.993375 
L 307.167448 56.199064 
L 307.859933 56.640349 
L 308.329013 56.93204 
L 308.868227 57.260554 
L 309.5489 57.665017 
L 309.876522 57.855999 
L 310.83026 58.397993 
L 310.884816 58.428446 
L 311.89311 58.978421 
L 312.180089 59.13097 
L 312.901405 59.508205 
L 313.60003 59.863946 
L 313.909699 60.019253 
L 314.917993 60.51221 
L 315.095593 60.596923 
L 315.926288 60.98776 
L 316.673925 61.3299 
L 316.934582 61.447672 
L 317.942876 61.89203 
L 318.340867 62.062876 
L 318.951171 62.321882 
L 319.959465 62.738174 
L 320.102619 62.795853 
L 320.967759 63.140886 
L 321.969145 63.528829 
L 321.976054 63.531481 
L 322.984348 63.909542 
L 323.951877 64.261806 
L 323.992642 64.276524 
L 325.000936 64.632075 
L 326.009231 64.977367 
L 326.061329 64.994783 
L 327.017525 65.312166 
L 328.025819 65.637384 
L 328.313241 65.727759 
L 329.034114 65.95303 
L 330.042408 66.259636 
L 330.721984 66.460736 
L 331.050702 66.557488 
L 331.724259 66.75074 
" clip-path="url(#p981ac7e583)" style="fill: none; stroke: #addc30; stroke-width: 1.5"/>
    <path d="M 319.076142 26.88 
L 319.098028 27.612977 
L 319.161573 28.345953 
L 319.267394 29.07893 
L 319.416242 29.811906 
L 319.608978 30.544883 
L 319.846563 31.27786 
L 319.959465 31.571555 
L 320.130478 32.010836 
L 320.462124 32.743813 
L 320.842521 33.476789 
L 320.967759 33.692228 
L 321.274516 34.209766 
L 321.759284 34.942742 
L 321.976054 35.240883 
L 322.299965 35.675719 
L 322.898137 36.408696 
L 322.984348 36.506694 
L 323.55922 37.141672 
L 323.992642 37.585311 
L 324.284399 37.874649 
L 325.000936 38.538559 
L 325.07809 38.607625 
L 325.946555 39.340602 
L 326.009231 39.390759 
L 326.89523 40.073579 
L 327.017525 40.16333 
L 327.204574 40.295234 
M 346.785202 48.263338 
L 347.183411 48.353192 
L 348.191706 48.568662 
L 349.2 48.77254 
" clip-path="url(#p981ac7e583)" style="fill: none; stroke: #fde725; stroke-width: 1.5"/>
   </g>
   <g id="patch_3">
    <path d="M 47.72 246.04 
L 47.72 26.88 
" style="fill: none; stroke: #000000; stroke-width: 0.8; stroke-linejoin: miter; stroke-linecap: square"/>
   </g>
   <g id="patch_4">
    <path d="M 349.2 246.04 
L 349.2 26.88 
" style="fill: none; stroke: #000000; stroke-width: 0.8; stroke-linejoin: miter; stroke-linecap: square"/>
   </g>
   <g id="patch_5">
    <path d="M 47.72 246.04 
L 349.2 246.04 
" style="fill: none; stroke: #000000; stroke-width: 0.8; stroke-linejoin: miter; stroke-linecap: square"/>
   </g>
   <g id="patch_6">
    <path d="M 47.72 26.88 
L 349.2 26.88 
" style="fill: none; stroke: #000000; stroke-width: 0.8; stroke-linejoin: miter; stroke-linecap: square"/>
   </g>
   <g id="text_11">
    <!-- Tawn copula contours (θ=2, α=0.7, β=1) -->
    <g transform="translate(75.536875 20.88) scale(0.12 -0.12)">
     <defs>
      <path id="DejaVuSans-54" d="M -19 4666 
L 3928 4666 
L 3928 4134 
L 2272 4134 
L 2272 0 
L 1638 0 
L 1638 4134 
L -19 4134 
L -19 4666 
z
" transform="scale(0.015625)"/>
      <path id="DejaVuSans-61" d="M 2194 1759 
Q 1497 1759 1228 1600 
Q 959 1441 959 1056 
Q 959 750 1161 570 
Q 1363 391 1709 391 
Q 2188 391 2477 730 
Q 2766 1069 2766 1631 
L 2766 1759 
L 2194 1759 
z
M 3341 1997 
L 3341 0 
L 2766 0 
L 2766 531 
Q 2569 213 2275 61 
Q 1981 -91 1556 -91 
Q 1019 -91 701 211 
Q 384 513 384 1019 
Q 384 1609 779 1909 
Q 1175 2209 1959 2209 
L 2766 2209 
L 2766 2266 
Q 2766 2663 2505 2880 
Q 2244 3097 1772 3097 
Q 1472 3097 1187 3025 
Q 903 2953 641 2809 
L 641 3341 
Q 956 3463 1253 3523 
Q 1550 3584 1831 3584 
Q 2591 3584 2966 3190 
Q 3341 2797 3341 1997 
z
" transform="scale(0.015625)"/>
      <path id="DejaVuSans-77" d="M 269 3500 
L 844 3500 
L 1563 769 
L 2278 3500 
L 2956 3500 
L 3675 769 
L 4391 3500 
L 4966 3500 
L 4050 0 
L 3372 0 
L 2619 2869 
L 1863 0 
L 1184 0 
L 269 3500 
z
" transform="scale(0.015625)"/>
      <path id="DejaVuSans-6e" d="M 3513 2113 
L 3513 0 
L 2938 0 
L 2938 2094 
Q 2938 2591 2744 2837 
Q 2550 3084 2163 3084 
Q 1697 3084 1428 2787 
Q 1159 2491 1159 1978 
L 1159 0 
L 581 0 
L 581 3500 
L 1159 3500 
L 1159 2956 
Q 1366 3272 1645 3428 
Q 1925 3584 2291 3584 
Q 2894 3584 3203 3211 
Q 3513 2838 3513 2113 
z
" transform="scale(0.015625)"/>
      <path id="DejaVuSans-20" transform="scale(0.015625)"/>
      <path id="DejaVuSans-63" d="M 3122 3366 
L 3122 2828 
Q 2878 2963 2633 3030 
Q 2388 3097 2138 3097 
Q 1578 3097 1268 2742 
Q 959 2388 959 1747 
Q 959 1106 1268 751 
Q 1578 397 2138 397 
Q 2388 397 2633 464 
Q 2878 531 3122 666 
L 3122 134 
Q 2881 22 2623 -34 
Q 2366 -91 2075 -91 
Q 1284 -91 818 406 
Q 353 903 353 1747 
Q 353 2603 823 3093 
Q 1294 3584 2113 3584 
Q 2378 3584 2631 3529 
Q 2884 3475 3122 3366 
z
" transform="scale(0.015625)"/>
      <path id="DejaVuSans-6f" d="M 1959 3097 
Q 1497 3097 1228 2736 
Q 959 2375 959 1747 
Q 959 1119 1226 758 
Q 1494 397 1959 397 
Q 2419 397 2687 759 
Q 2956 1122 2956 1747 
Q 2956 2369 2687 2733 
Q 2419 3097 1959 3097 
z
M 1959 3584 
Q 2709 3584 3137 3096 
Q 3566 2609 3566 1747 
Q 3566 888 3137 398 
Q 2709 -91 1959 -91 
Q 1206 -91 779 398 
Q 353 888 353 1747 
Q 353 2609 779 3096 
Q 1206 3584 1959 3584 
z
" transform="scale(0.015625)"/>
      <path id="DejaVuSans-70" d="M 1159 525 
L 1159 -1331 
L 581 -1331 
L 581 3500 
L 1159 3500 
L 1159 2969 
Q 1341 3281 1617 3432 
Q 1894 3584 2278 3584 
Q 2916 3584 3314 3078 
Q 3713 2572 3713 1747 
Q 3713 922 3314 415 
Q 2916 -91 2278 -91 
Q 1894 -91 1617 61 
Q 1341 213 1159 525 
z
M 3116 1747 
Q 3116 2381 2855 2742 
Q 2594 3103 2138 3103 
Q 1681 3103 1420 2742 
Q 1159 2381 1159 1747 
Q 1159 1113 1420 752 
Q 1681 391 2138 391 
Q 2594 391 2855 752 
Q 3116 1113 3116 1747 
z
" transform="scale(0.015625)"/>
      <path id="DejaVuSans-6c" d="M 603 4863 
L 1178 4863 
L 1178 0 
L 603 0 
L 603 4863 
z
" transform="scale(0.015625)"/>
      <path id="DejaVuSans-74" d="M 1172 4494 
L 1172 3500 
L 2356 3500 
L 2356 3053 
L 1172 3053 
L 1172 1153 
Q 1172 725 1289 603 
Q 1406 481 1766 481 
L 2356 481 
L 2356 0 
L 1766 0 
Q 1100 0 847 248 
Q 594 497 594 1153 
L 594 3053 
L 172 3053 
L 172 3500 
L 594 3500 
L 594 4494 
L 1172 4494 
z
" transform="scale(0.015625)"/>
      <path id="DejaVuSans-72" d="M 2631 2963 
Q 2534 3019 2420 3045 
Q 2306 3072 2169 3072 
Q 1681 3072 1420 2755 
Q 1159 2438 1159 1844 
L 1159 0 
L 581 0 
L 581 3500 
L 1159 3500 
L 1159 2956 
Q 1341 3275 1631 3429 
Q 1922 3584 2338 3584 
Q 2397 3584 2469 3576 
Q 2541 3569 2628 3553 
L 2631 2963 
z
" transform="scale(0.015625)"/>
      <path id="DejaVuSans-73" d="M 2834 3397 
L 2834 2853 
Q 2591 2978 2328 3040 
Q 2066 3103 1784 3103 
Q 1356 3103 1142 2972 
Q 928 2841 928 2578 
Q 928 2378 1081 2264 
Q 1234 2150 1697 2047 
L 1894 2003 
Q 2506 1872 2764 1633 
Q 3022 1394 3022 966 
Q 3022 478 2636 193 
Q 2250 -91 1575 -91 
Q 1294 -91 989 -36 
Q 684 19 347 128 
L 347 722 
Q 666 556 975 473 
Q 1284 391 1588 391 
Q 1994 391 2212 530 
Q 2431 669 2431 922 
Q 2431 1156 2273 1281 
Q 2116 1406 1581 1522 
L 1381 1569 
Q 847 1681 609 1914 
Q 372 2147 372 2553 
Q 372 3047 722 3315 
Q 1072 3584 1716 3584 
Q 2034 3584 2315 3537 
Q 2597 3491 2834 3397 
z
" transform="scale(0.015625)"/>
      <path id="DejaVuSans-28" d="M 1984 4856 
Q 1566 4138 1362 3434 
Q 1159 2731 1159 2009 
Q 1159 1288 1364 580 
Q 1569 -128 1984 -844 
L 1484 -844 
Q 1016 -109 783 600 
Q 550 1309 550 2009 
Q 550 2706 781 3412 
Q 1013 4119 1484 4856 
L 1984 4856 
z
" transform="scale(0.015625)"/>
      <path id="DejaVuSans-3b8" d="M 2953 2219 
L 963 2219 
Q 1009 1284 1225 888 
Q 1494 400 1959 400 
Q 2428 400 2688 891 
Q 2916 1322 2953 2219 
z
M 2944 2750 
Q 2856 3638 2688 3950 
Q 2419 4444 1959 4444 
Q 1481 4444 1228 3956 
Q 1028 3563 969 2750 
L 2944 2750 
z
M 1959 4913 
Q 2709 4913 3138 4250 
Q 3566 3591 3566 2422 
Q 3566 1256 3138 594 
Q 2709 -72 1959 -72 
Q 1206 -72 781 594 
Q 353 1256 353 2422 
Q 353 3591 781 4250 
Q 1206 4913 1959 4913 
z
" transform="scale(0.015625)"/>
      <path id="DejaVuSans-3d" d="M 678 2906 
L 4684 2906 
L 4684 2381 
L 678 2381 
L 678 2906 
z
M 678 1631 
L 4684 1631 
L 4684 1100 
L 678 1100 
L 678 1631 
z
" transform="scale(0.015625)"/>
      <path id="DejaVuSans-2c" d="M 750 794 
L 1409 794 
L 1409 256 
L 897 -744 
L 494 -744 
L 750 256 
L 750 794 
z
" transform="scale(0.015625)"/>
      <path id="DejaVuSans-3b1" d="M 2644 1628 
L 2506 2350 
Q 2366 3091 1809 3091 
Q 1391 3091 1200 2747 
Q 959 2316 959 1747 
Q 959 1059 1194 731 
Q 1431 397 1809 397 
Q 2228 397 2453 1063 
L 2644 1628 
z
M 2966 2584 
L 3275 3500 
L 3788 3500 
L 3147 1603 
L 3272 919 
Q 3300 766 3409 638 
Q 3538 488 3638 488 
L 3913 488 
L 3913 0 
L 3569 0 
Q 3275 0 3013 263 
Q 2884 394 2831 669 
Q 2688 322 2394 50 
Q 2256 -78 1809 -78 
Q 1075 -78 719 397 
Q 353 888 353 1747 
Q 353 2666 750 3097 
Q 1191 3578 1809 3578 
Q 2781 3578 2966 2584 
z
" transform="scale(0.015625)"/>
      <path id="DejaVuSans-37" d="M 525 4666 
L 3525 4666 
L 3525 4397 
L 1831 0 
L 1172 0 
L 2766 4134 
L 525 4134 
L 525 4666 
z
" transform="scale(0.015625)"/>
      <path id="DejaVuSans-3b2" d="M 1178 216 
L 1178 -1331 
L 600 -1331 
L 600 3478 
Q 600 4903 1931 4903 
Q 3288 4903 3288 3700 
Q 3288 2844 2750 2531 
Q 3625 2250 3625 1416 
Q 3625 -66 2119 -66 
Q 1456 -66 1178 216 
z
M 1178 966 
Q 1525 425 2141 425 
Q 3041 425 3041 1406 
Q 3041 2288 1591 2219 
L 1591 2750 
Q 2725 2750 2725 3750 
Q 2725 4434 1994 4434 
Q 1178 4434 1178 3459 
L 1178 966 
z
" transform="scale(0.015625)"/>
      <path id="DejaVuSans-31" d="M 794 531 
L 1825 531 
L 1825 4091 
L 703 3866 
L 703 4441 
L 1819 4666 
L 2450 4666 
L 2450 531 
L 3481 531 
L 3481 0 
L 794 0 
L 794 531 
z
" transform="scale(0.015625)"/>
      <path id="DejaVuSans-29" d="M 513 4856 
L 1013 4856 
Q 1481 4119 1714 3412 
Q 1947 2706 1947 2009 
Q 1947 1309 1714 600 
Q 1481 -109 1013 -844 
L 513 -844 
Q 928 -128 1133 580 
Q 1338 1288 1338 2009 
Q 1338 2731 1133 3434 
Q 928 4138 513 4856 
z
" transform="scale(0.015625)"/>
     </defs>
     <use xlink:href="#DejaVuSans-54"/>
     <use xlink:href="#DejaVuSans-61" transform="translate(44.583984 0)"/>
     <use xlink:href="#DejaVuSans-77" transform="translate(105.863281 0)"/>
     <use xlink:href="#DejaVuSans-6e" transform="translate(187.650391 0)"/>
     <use xlink:href="#DejaVuSans-20" transform="translate(251.029297 0)"/>
     <use xlink:href="#DejaVuSans-63" transform="translate(282.816406 0)"/>
     <use xlink:href="#DejaVuSans-6f" transform="translate(337.796875 0)"/>
     <use xlink:href="#DejaVuSans-70" transform="translate(398.978516 0)"/>
     <use xlink:href="#DejaVuSans-75" transform="translate(462.455078 0)"/>
     <use xlink:href="#DejaVuSans-6c" transform="translate(525.833984 0)"/>
     <use xlink:href="#DejaVuSans-61" transform="translate(553.617188 0)"/>
     <use xlink:href="#DejaVuSans-20" transform="translate(614.896484 0)"/>
     <use xlink:href="#DejaVuSans-63" transform="translate(646.683594 0)"/>
     <use xlink:href="#DejaVuSans-6f" transform="translate(701.664062 0)"/>
     <use xlink:href="#DejaVuSans-6e" transform="translate(762.845703 0)"/>
     <use xlink:href="#DejaVuSans-74" transform="translate(826.224609 0)"/>
     <use xlink:href="#DejaVuSans-6f" transform="translate(865.433594 0)"/>
     <use xlink:href="#DejaVuSans-75" transform="translate(926.615234 0)"/>
     <use xlink:href="#DejaVuSans-72" transform="translate(989.994141 0)"/>
     <use xlink:href="#DejaVuSans-73" transform="translate(1031.107422 0)"/>
     <use xlink:href="#DejaVuSans-20" transform="translate(1083.207031 0)"/>
     <use xlink:href="#DejaVuSans-28" transform="translate(1114.994141 0)"/>
     <use xlink:href="#DejaVuSans-3b8" transform="translate(1154.007812 0)"/>
     <use xlink:href="#DejaVuSans-3d" transform="translate(1215.189453 0)"/>
     <use xlink:href="#DejaVuSans-32" transform="translate(1298.978516 0)"/>
     <use xlink:href="#DejaVuSans-2c" transform="translate(1362.601562 0)"/>
     <use xlink:href="#DejaVuSans-20" transform="translate(1394.388672 0)"/>
     <use xlink:href="#DejaVuSans-3b1" transform="translate(1426.175781 0)"/>
     <use xlink:href="#DejaVuSans-3d" transform="translate(1492.09375 0)"/>
     <use xlink:href="#DejaVuSans-30" transform="translate(1575.882812 0)"/>
     <use xlink:href="#DejaVuSans-2e" transform="translate(1639.505859 0)"/>
     <use xlink:href="#DejaVuSans-37" transform="translate(1671.292969 0)"/>
     <use xlink:href="#DejaVuSans-2c" transform="translate(1734.916016 0)"/>
     <use xlink:href="#DejaVuSans-20" transform="translate(1766.703125 0)"/>
     <use xlink:href="#DejaVuSans-3b2" transform="translate(1798.490234 0)"/>
     <use xlink:href="#DejaVuSans-3d" transform="translate(1862.308594 0)"/>
     <use xlink:href="#DejaVuSans-31" transform="translate(1946.097656 0)"/>
     <use xlink:href="#DejaVuSans-29" transform="translate(2009.720703 0)"/>
    </g>
   </g>
   <g id="text_12">
    <g clip-path="url(#p981ac7e583)">
     <!-- 0.1 -->
     <g style="fill: #440154" transform="translate(322.614735 225.701594) rotate(-358.429007) scale(0.08 -0.08)">
      <use xlink:href="#DejaVuSans-30"/>
      <use xlink:href="#DejaVuSans-2e" transform="translate(63.623047 0)"/>
      <use xlink:href="#DejaVuSans-31" transform="translate(95.410156 0)"/>
     </g>
    </g>
   </g>
   <g id="text_13">
    <g clip-path="url(#p981ac7e583)">
     <!-- 0.2 -->
     <g style="fill: #472d7b" transform="translate(331.641355 203.588321) rotate(-357.020064) scale(0.08 -0.08)">
      <use xlink:href="#DejaVuSans-30"/>
      <use xlink:href="#DejaVuSans-2e" transform="translate(63.623047 0)"/>
      <use xlink:href="#DejaVuSans-32" transform="translate(95.410156 0)"/>
     </g>
    </g>
   </g>
   <g id="text_14">
    <g clip-path="url(#p981ac7e583)">
     <!-- 0.3 -->
     <g style="fill: #3b528b" transform="translate(324.526328 180.673569) rotate(-355.175398) scale(0.08 -0.08)">
      <defs>
       <path id="DejaVuSans-33" d="M 2597 2516 
Q 3050 2419 3304 2112 
Q 3559 1806 3559 1356 
Q 3559 666 3084 287 
Q 2609 -91 1734 -91 
Q 1441 -91 1130 -33 
Q 819 25 488 141 
L 488 750 
Q 750 597 1062 519 
Q 1375 441 1716 441 
Q 2309 441 2620 675 
Q 2931 909 2931 1356 
Q 2931 1769 2642 2001 
Q 2353 2234 1838 2234 
L 1294 2234 
L 1294 2753 
L 1863 2753 
Q 2328 2753 2575 2939 
Q 2822 3125 2822 3475 
Q 2822 3834 2567 4026 
Q 2313 4219 1838 4219 
Q 1578 4219 1281 4162 
Q 984 4106 628 3988 
L 628 4550 
Q 988 4650 1302 4700 
Q 1616 4750 1894 4750 
Q 2613 4750 3031 4423 
Q 3450 4097 3450 3541 
Q 3450 3153 3228 2886 
Q 3006 2619 2597 2516 
z
" transform="scale(0.015625)"/>
      </defs>
      <use xlink:href="#DejaVuSans-30"/>
      <use xlink:href="#DejaVuSans-2e" transform="translate(63.623047 0)"/>
      <use xlink:href="#DejaVuSans-33" transform="translate(95.410156 0)"/>
     </g>
    </g>
   </g>
   <g id="text_15">
    <g clip-path="url(#p981ac7e583)">
     <!-- 0.4 -->
     <g style="fill: #2c728e" transform="translate(317.608454 157.288947) rotate(-352.906562) scale(0.08 -0.08)">
      <use xlink:href="#DejaVuSans-30"/>
      <use xlink:href="#DejaVuSans-2e" transform="translate(63.623047 0)"/>
      <use xlink:href="#DejaVuSans-34" transform="translate(95.410156 0)"/>
     </g>
    </g>
   </g>
   <g id="text_16">
    <g clip-path="url(#p981ac7e583)">
     <!-- 0.5 -->
     <g style="fill: #21918c" transform="translate(326.454214 135.778088) rotate(-351.709506) scale(0.08 -0.08)">
      <defs>
       <path id="DejaVuSans-35" d="M 691 4666 
L 3169 4666 
L 3169 4134 
L 1269 4134 
L 1269 2991 
Q 1406 3038 1543 3061 
Q 1681 3084 1819 3084 
Q 2600 3084 3056 2656 
Q 3513 2228 3513 1497 
Q 3513 744 3044 326 
Q 2575 -91 1722 -91 
Q 1428 -91 1123 -41 
Q 819 9 494 109 
L 494 744 
Q 775 591 1075 516 
Q 1375 441 1709 441 
Q 2250 441 2565 725 
Q 2881 1009 2881 1497 
Q 2881 1984 2565 2268 
Q 2250 2553 1709 2553 
Q 1456 2553 1204 2497 
Q 953 2441 691 2322 
L 691 4666 
z
" transform="scale(0.015625)"/>
      </defs>
      <use xlink:href="#DejaVuSans-30"/>
      <use xlink:href="#DejaVuSans-2e" transform="translate(63.623047 0)"/>
      <use xlink:href="#DejaVuSans-35" transform="translate(95.410156 0)"/>
     </g>
    </g>
   </g>
   <g id="text_17">
    <g clip-path="url(#p981ac7e583)">
     <!-- 0.6 -->
     <g style="fill: #28ae80" transform="translate(334.217166 114.530051) rotate(-350.77196) scale(0.08 -0.08)">
      <use xlink:href="#DejaVuSans-30"/>
      <use xlink:href="#DejaVuSans-2e" transform="translate(63.623047 0)"/>
      <use xlink:href="#DejaVuSans-36" transform="translate(95.410156 0)"/>
     </g>
    </g>
   </g>
   <g id="text_18">
    <g clip-path="url(#p981ac7e583)">
     <!-- 0.7 -->
     <g style="fill: #5ec962" transform="translate(314.721123 87.334967) rotate(-343.849171) scale(0.08 -0.08)">
      <use xlink:href="#DejaVuSans-30"/>
      <use xlink:href="#DejaVuSans-2e" transform="translate(63.623047 0)"/>
      <use xlink:href="#DejaVuSans-37" transform="translate(95.410156 0)"/>
     </g>
    </g>
   </g>
   <g id="text_19">
    <g clip-path="url(#p981ac7e583)">
     <!-- 0.8 -->
     <g style="fill: #addc30" transform="translate(335.444958 70.028661) rotate(-346.823099) scale(0.08 -0.08)">
      <use xlink:href="#DejaVuSans-30"/>
      <use xlink:href="#DejaVuSans-2e" transform="translate(63.623047 0)"/>
      <use xlink:href="#DejaVuSans-38" transform="translate(95.410156 0)"/>
     </g>
    </g>
   </g>
   <g id="text_20">
    <g clip-path="url(#p981ac7e583)">
     <!-- 0.9 -->
     <g style="fill: #fde725" transform="translate(329.819023 44.703567) rotate(-336.5963) scale(0.08 -0.08)">
      <defs>
       <path id="DejaVuSans-39" d="M 703 97 
L 703 672 
Q 941 559 1184 500 
Q 1428 441 1663 441 
Q 2288 441 2617 861 
Q 2947 1281 2994 2138 
Q 2813 1869 2534 1725 
Q 2256 1581 1919 1581 
Q 1219 1581 811 2004 
Q 403 2428 403 3163 
Q 403 3881 828 4315 
Q 1253 4750 1959 4750 
Q 2769 4750 3195 4129 
Q 3622 3509 3622 2328 
Q 3622 1225 3098 567 
Q 2575 -91 1691 -91 
Q 1453 -91 1209 -44 
Q 966 3 703 97 
z
M 1959 2075 
Q 2384 2075 2632 2365 
Q 2881 2656 2881 3163 
Q 2881 3666 2632 3958 
Q 2384 4250 1959 4250 
Q 1534 4250 1286 3958 
Q 1038 3666 1038 3163 
Q 1038 2656 1286 2365 
Q 1534 2075 1959 2075 
z
" transform="scale(0.015625)"/>
      </defs>
      <use xlink:href="#DejaVuSans-30"/>
      <use xlink:href="#DejaVuSans-2e" transform="translate(63.623047 0)"/>
      <use xlink:href="#DejaVuSans-39" transform="translate(95.410156 0)"/>
     </g>
    </g>
   </g>
  </g>
 </g>
 <defs>
  <clipPath id="p981ac7e583">
   <rect x="47.72" y="26.88" width="301.48" height="219.16"/>
  </clipPath>
 </defs>
</svg>
