<?xml version="1.0" encoding="utf-8" standalone="no"?>
<!DOCTYPE svg PUBLIC "-//W3C//DTD SVG 1.1//EN"
  "http://www.w3.org/Graphics/SVG/1.1/DTD/svg11.dtd">
<svg xmlns:xlink="http://www.w3.org/1999/xlink" width="576pt" height="216pt" viewBox="0 0 576 216" xmlns="http://www.w3.org/2000/svg" version="1.1">
 <metadata>
  <rdf:RDF xmlns:dc="http://purl.org/dc/elements/1.1/" xmlns:cc="http://creativecommons.org/ns#" xmlns:rdf="http://www.w3.org/1999/02/22-rdf-syntax-ns#">
   <cc:Work>
    <dc:type rdf:resource="http://purl.org/dc/dcmitype/StillImage"/>
    <dc:date>2025-10-13T14:36:30.557099</dc:date>
    <dc:format>image/svg+xml</dc:format>
    <dc:creator>
     <cc:Agent>
      <dc:title>Matplotlib v3.10.7, https://matplotlib.org/</dc:title>
     </cc:Agent>
    </dc:creator>
   </cc:Work>
  </rdf:RDF>
 </metadata>
 <defs>
  <style type="text/css">*{stroke-linejoin: round; stroke-linecap: butt}</style>
 </defs>
 <g id="figure_1">
  <g id="patch_1">
   <path d="M 0 216 
L 576 216 
L 576 0 
L 0 0 
z
" style="fill: #ffffff"/>
  </g>
  <g id="axes_1">
   <g id="patch_2">
    <path d="M 47.72 174.04 
L 282.6 174.04 
L 282.6 26.88 
L 47.72 26.88 
z
" style="fill: #ffffff"/>
   </g>
   <g id="patch_3">
    <path d="M 58.396364 174.04 
L 63.734545 174.04 
L 63.734545 56.361033 
L 58.396364 56.361033 
z
" clip-path="url(#p04b4d3206e)" style="fill: #1f77b4; opacity: 0.85"/>
   </g>
   <g id="patch_4">
    <path d="M 63.734545 174.04 
L 69.072727 174.04 
L 69.072727 51.86635 
L 63.734545 51.86635 
z
" clip-path="url(#p04b4d3206e)" style="fill: #1f77b4; opacity: 0.85"/>
   </g>
   <g id="patch_5">
    <path d="M 69.072727 174.04 
L 74.410909 174.04 
L 74.410909 60.038501 
L 69.072727 60.038501 
z
" clip-path="url(#p04b4d3206e)" style="fill: #1f77b4; opacity: 0.85"/>
   </g>
   <g id="patch_6">
    <path d="M 74.410909 174.04 
L 79.749091 174.04 
L 79.749091 43.6942 
L 74.410909 43.6942 
z
" clip-path="url(#p04b4d3206e)" style="fill: #1f77b4; opacity: 0.85"/>
   </g>
   <g id="patch_7">
    <path d="M 79.749091 174.04 
L 85.087273 174.04 
L 85.087273 49.006097 
L 79.749091 49.006097 
z
" clip-path="url(#p04b4d3206e)" style="fill: #1f77b4; opacity: 0.85"/>
   </g>
   <g id="patch_8">
    <path d="M 85.087273 174.04 
L 90.425455 174.04 
L 90.425455 42.876985 
L 85.087273 42.876985 
z
" clip-path="url(#p04b4d3206e)" style="fill: #1f77b4; opacity: 0.85"/>
   </g>
   <g id="patch_9">
    <path d="M 90.425455 174.04 
L 95.763636 174.04 
L 95.763636 55.952425 
L 90.425455 55.952425 
z
" clip-path="url(#p04b4d3206e)" style="fill: #1f77b4; opacity: 0.85"/>
   </g>
   <g id="patch_10">
    <path d="M 95.763636 174.04 
L 101.101818 174.04 
L 101.101818 48.188882 
L 95.763636 48.188882 
z
" clip-path="url(#p04b4d3206e)" style="fill: #1f77b4; opacity: 0.85"/>
   </g>
   <g id="patch_11">
    <path d="M 101.101818 174.04 
L 106.44 174.04 
L 106.44 55.13521 
L 101.101818 55.13521 
z
" clip-path="url(#p04b4d3206e)" style="fill: #1f77b4; opacity: 0.85"/>
   </g>
   <g id="patch_12">
    <path d="M 106.44 174.04 
L 111.778182 174.04 
L 111.778182 50.640528 
L 106.44 50.640528 
z
" clip-path="url(#p04b4d3206e)" style="fill: #1f77b4; opacity: 0.85"/>
   </g>
   <g id="patch_13">
    <path d="M 111.778182 174.04 
L 117.116364 174.04 
L 117.116364 44.102807 
L 111.778182 44.102807 
z
" clip-path="url(#p04b4d3206e)" style="fill: #1f77b4; opacity: 0.85"/>
   </g>
   <g id="patch_14">
    <path d="M 117.116364 174.04 
L 122.454545 174.04 
L 122.454545 57.178248 
L 117.116364 57.178248 
z
" clip-path="url(#p04b4d3206e)" style="fill: #1f77b4; opacity: 0.85"/>
   </g>
   <g id="patch_15">
    <path d="M 122.454545 174.04 
L 127.792727 174.04 
L 127.792727 65.759006 
L 122.454545 65.759006 
z
" clip-path="url(#p04b4d3206e)" style="fill: #1f77b4; opacity: 0.85"/>
   </g>
   <g id="patch_16">
    <path d="M 127.792727 174.04 
L 133.130909 174.04 
L 133.130909 51.457743 
L 127.792727 51.457743 
z
" clip-path="url(#p04b4d3206e)" style="fill: #1f77b4; opacity: 0.85"/>
   </g>
   <g id="patch_17">
    <path d="M 133.130909 174.04 
L 138.469091 174.04 
L 138.469091 33.887619 
L 133.130909 33.887619 
z
" clip-path="url(#p04b4d3206e)" style="fill: #1f77b4; opacity: 0.85"/>
   </g>
   <g id="patch_18">
    <path d="M 138.469091 174.04 
L 143.807273 174.04 
L 143.807273 42.05977 
L 138.469091 42.05977 
z
" clip-path="url(#p04b4d3206e)" style="fill: #1f77b4; opacity: 0.85"/>
   </g>
   <g id="patch_19">
    <path d="M 143.807273 174.04 
L 149.145455 174.04 
L 149.145455 48.188882 
L 143.807273 48.188882 
z
" clip-path="url(#p04b4d3206e)" style="fill: #1f77b4; opacity: 0.85"/>
   </g>
   <g id="patch_20">
    <path d="M 149.145455 174.04 
L 154.483636 174.04 
L 154.483636 61.672931 
L 149.145455 61.672931 
z
" clip-path="url(#p04b4d3206e)" style="fill: #1f77b4; opacity: 0.85"/>
   </g>
   <g id="patch_21">
    <path d="M 154.483636 174.04 
L 159.821818 174.04 
L 159.821818 44.511415 
L 154.483636 44.511415 
z
" clip-path="url(#p04b4d3206e)" style="fill: #1f77b4; opacity: 0.85"/>
   </g>
   <g id="patch_22">
    <path d="M 159.821818 174.04 
L 165.16 174.04 
L 165.16 45.737237 
L 159.821818 45.737237 
z
" clip-path="url(#p04b4d3206e)" style="fill: #1f77b4; opacity: 0.85"/>
   </g>
   <g id="patch_23">
    <path d="M 165.16 174.04 
L 170.498182 174.04 
L 170.498182 42.876985 
L 165.16 42.876985 
z
" clip-path="url(#p04b4d3206e)" style="fill: #1f77b4; opacity: 0.85"/>
   </g>
   <g id="patch_24">
    <path d="M 170.498182 174.04 
L 175.836364 174.04 
L 175.836364 64.533183 
L 170.498182 64.533183 
z
" clip-path="url(#p04b4d3206e)" style="fill: #1f77b4; opacity: 0.85"/>
   </g>
   <g id="patch_25">
    <path d="M 175.836364 174.04 
L 181.174545 174.04 
L 181.174545 53.50078 
L 175.836364 53.50078 
z
" clip-path="url(#p04b4d3206e)" style="fill: #1f77b4; opacity: 0.85"/>
   </g>
   <g id="patch_26">
    <path d="M 181.174545 174.04 
L 186.512727 174.04 
L 186.512727 53.50078 
L 181.174545 53.50078 
z
" clip-path="url(#p04b4d3206e)" style="fill: #1f77b4; opacity: 0.85"/>
   </g>
   <g id="patch_27">
    <path d="M 186.512727 174.04 
L 191.850909 174.04 
L 191.850909 54.317995 
L 186.512727 54.317995 
z
" clip-path="url(#p04b4d3206e)" style="fill: #1f77b4; opacity: 0.85"/>
   </g>
   <g id="patch_28">
    <path d="M 191.850909 174.04 
L 197.189091 174.04 
L 197.189091 57.178248 
L 191.850909 57.178248 
z
" clip-path="url(#p04b4d3206e)" style="fill: #1f77b4; opacity: 0.85"/>
   </g>
   <g id="patch_29">
    <path d="M 197.189091 174.04 
L 202.527273 174.04 
L 202.527273 49.006097 
L 197.189091 49.006097 
z
" clip-path="url(#p04b4d3206e)" style="fill: #1f77b4; opacity: 0.85"/>
   </g>
   <g id="patch_30">
    <path d="M 202.527273 174.04 
L 207.865455 174.04 
L 207.865455 47.371667 
L 202.527273 47.371667 
z
" clip-path="url(#p04b4d3206e)" style="fill: #1f77b4; opacity: 0.85"/>
   </g>
   <g id="patch_31">
    <path d="M 207.865455 174.04 
L 213.203636 174.04 
L 213.203636 50.640528 
L 207.865455 50.640528 
z
" clip-path="url(#p04b4d3206e)" style="fill: #1f77b4; opacity: 0.85"/>
   </g>
   <g id="patch_32">
    <path d="M 213.203636 174.04 
L 218.541818 174.04 
L 218.541818 52.274958 
L 213.203636 52.274958 
z
" clip-path="url(#p04b4d3206e)" style="fill: #1f77b4; opacity: 0.85"/>
   </g>
   <g id="patch_33">
    <path d="M 218.541818 174.04 
L 223.88 174.04 
L 223.88 56.76964 
L 218.541818 56.76964 
z
" clip-path="url(#p04b4d3206e)" style="fill: #1f77b4; opacity: 0.85"/>
   </g>
   <g id="patch_34">
    <path d="M 223.88 174.04 
L 229.218182 174.04 
L 229.218182 55.952425 
L 223.88 55.952425 
z
" clip-path="url(#p04b4d3206e)" style="fill: #1f77b4; opacity: 0.85"/>
   </g>
   <g id="patch_35">
    <path d="M 229.218182 174.04 
L 234.556364 174.04 
L 234.556364 46.96306 
L 229.218182 46.96306 
z
" clip-path="url(#p04b4d3206e)" style="fill: #1f77b4; opacity: 0.85"/>
   </g>
   <g id="patch_36">
    <path d="M 234.556364 174.04 
L 239.894545 174.04 
L 239.894545 44.102807 
L 234.556364 44.102807 
z
" clip-path="url(#p04b4d3206e)" style="fill: #1f77b4; opacity: 0.85"/>
   </g>
   <g id="patch_37">
    <path d="M 239.894545 174.04 
L 245.232727 174.04 
L 245.232727 59.629893 
L 239.894545 59.629893 
z
" clip-path="url(#p04b4d3206e)" style="fill: #1f77b4; opacity: 0.85"/>
   </g>
   <g id="patch_38">
    <path d="M 245.232727 174.04 
L 250.570909 174.04 
L 250.570909 44.102807 
L 245.232727 44.102807 
z
" clip-path="url(#p04b4d3206e)" style="fill: #1f77b4; opacity: 0.85"/>
   </g>
   <g id="patch_39">
    <path d="M 250.570909 174.04 
L 255.909091 174.04 
L 255.909091 45.737237 
L 250.570909 45.737237 
z
" clip-path="url(#p04b4d3206e)" style="fill: #1f77b4; opacity: 0.85"/>
   </g>
   <g id="patch_40">
    <path d="M 255.909091 174.04 
L 261.247273 174.04 
L 261.247273 60.447108 
L 255.909091 60.447108 
z
" clip-path="url(#p04b4d3206e)" style="fill: #1f77b4; opacity: 0.85"/>
   </g>
   <g id="patch_41">
    <path d="M 261.247273 174.04 
L 266.585455 174.04 
L 266.585455 53.50078 
L 261.247273 53.50078 
z
" clip-path="url(#p04b4d3206e)" style="fill: #1f77b4; opacity: 0.85"/>
   </g>
   <g id="patch_42">
    <path d="M 266.585455 174.04 
L 271.923636 174.04 
L 271.923636 57.586855 
L 266.585455 57.586855 
z
" clip-path="url(#p04b4d3206e)" style="fill: #1f77b4; opacity: 0.85"/>
   </g>
   <g id="matplotlib.axis_1">
    <g id="xtick_1">
     <g id="line2d_1">
      <defs>
       <path id="m6153d42725" d="M 0 0 
L 0 3.5 
" style="stroke: #000000; stroke-width: 0.8"/>
      </defs>
      <g>
       <use xlink:href="#m6153d42725" x="58.383898" y="174.04" style="stroke: #000000; stroke-width: 0.8"/>
      </g>
     </g>
     <g id="text_1">
      <!-- 0.0 -->
      <g transform="translate(50.432336 188.638438) scale(0.1 -0.1)">
       <defs>
        <path id="DejaVuSans-30" d="M 2034 4250 
Q 1547 4250 1301 3770 
Q 1056 3291 1056 2328 
Q 1056 1369 1301 889 
Q 1547 409 2034 409 
Q 2525 409 2770 889 
Q 3016 1369 3016 2328 
Q 3016 3291 2770 3770 
Q 2525 4250 2034 4250 
z
M 2034 4750 
Q 2819 4750 3233 4129 
Q 3647 3509 3647 2328 
Q 3647 1150 3233 529 
Q 2819 -91 2034 -91 
Q 1250 -91 836 529 
Q 422 1150 422 2328 
Q 422 3509 836 4129 
Q 1250 4750 2034 4750 
z
" transform="scale(0.015625)"/>
        <path id="DejaVuSans-2e" d="M 684 794 
L 1344 794 
L 1344 0 
L 684 0 
L 684 794 
z
" transform="scale(0.015625)"/>
       </defs>
       <use xlink:href="#DejaVuSans-30"/>
       <use xlink:href="#DejaVuSans-2e" transform="translate(63.623047 0)"/>
       <use xlink:href="#DejaVuSans-30" transform="translate(95.410156 0)"/>
      </g>
     </g>
    </g>
    <g id="xtick_2">
     <g id="line2d_2">
      <g>
       <use xlink:href="#m6153d42725" x="101.091986" y="174.04" style="stroke: #000000; stroke-width: 0.8"/>
      </g>
     </g>
     <g id="text_2">
      <!-- 0.2 -->
      <g transform="translate(93.140423 188.638438) scale(0.1 -0.1)">
       <defs>
        <path id="DejaVuSans-32" d="M 1228 531 
L 3431 531 
L 3431 0 
L 469 0 
L 469 531 
Q 828 903 1448 1529 
Q 2069 2156 2228 2338 
Q 2531 2678 2651 2914 
Q 2772 3150 2772 3378 
Q 2772 3750 2511 3984 
Q 2250 4219 1831 4219 
Q 1534 4219 1204 4116 
Q 875 4013 500 3803 
L 500 4441 
Q 881 4594 1212 4672 
Q 1544 4750 1819 4750 
Q 2544 4750 2975 4387 
Q 3406 4025 3406 3419 
Q 3406 3131 3298 2873 
Q 3191 2616 2906 2266 
Q 2828 2175 2409 1742 
Q 1991 1309 1228 531 
z
" transform="scale(0.015625)"/>
       </defs>
       <use xlink:href="#DejaVuSans-30"/>
       <use xlink:href="#DejaVuSans-2e" transform="translate(63.623047 0)"/>
       <use xlink:href="#DejaVuSans-32" transform="translate(95.410156 0)"/>
      </g>
     </g>
    </g>
    <g id="xtick_3">
     <g id="line2d_3">
      <g>
       <use xlink:href="#m6153d42725" x="143.800073" y="174.04" style="stroke: #000000; stroke-width: 0.8"/>
      </g>
     </g>
     <g id="text_3">
      <!-- 0.4 -->
      <g transform="translate(135.84851 188.638438) scale(0.1 -0.1)">
       <defs>
        <path id="DejaVuSans-34" d="M 2419 4116 
L 825 1625 
L 2419 1625 
L 2419 4116 
z
M 2253 4666 
L 3047 4666 
L 3047 1625 
L 3713 1625 
L 3713 1100 
L 3047 1100 
L 3047 0 
L 2419 0 
L 2419 1100 
L 313 1100 
L 313 1709 
L 2253 4666 
z
" transform="scale(0.015625)"/>
       </defs>
       <use xlink:href="#DejaVuSans-30"/>
       <use xlink:href="#DejaVuSans-2e" transform="translate(63.623047 0)"/>
       <use xlink:href="#DejaVuSans-34" transform="translate(95.410156 0)"/>
      </g>
     </g>
    </g>
    <g id="xtick_4">
     <g id="line2d_4">
      <g>
       <use xlink:href="#m6153d42725" x="186.50816" y="174.04" style="stroke: #000000; stroke-width: 0.8"/>
      </g>
     </g>
     <g id="text_4">
      <!-- 0.6 -->
      <g transform="translate(178.556598 188.638438) scale(0.1 -0.1)">
       <defs>
        <path id="DejaVuSans-36" d="M 2113 2584 
Q 1688 2584 1439 2293 
Q 1191 2003 1191 1497 
Q 1191 994 1439 701 
Q 1688 409 2113 409 
Q 2538 409 2786 701 
Q 3034 994 3034 1497 
Q 3034 2003 2786 2293 
Q 2538 2584 2113 2584 
z
M 3366 4563 
L 3366 3988 
Q 3128 4100 2886 4159 
Q 2644 4219 2406 4219 
Q 1781 4219 1451 3797 
Q 1122 3375 1075 2522 
Q 1259 2794 1537 2939 
Q 1816 3084 2150 3084 
Q 2853 3084 3261 2657 
Q 3669 2231 3669 1497 
Q 3669 778 3244 343 
Q 2819 -91 2113 -91 
Q 1303 -91 875 529 
Q 447 1150 447 2328 
Q 447 3434 972 4092 
Q 1497 4750 2381 4750 
Q 2619 4750 2861 4703 
Q 3103 4656 3366 4563 
z
" transform="scale(0.015625)"/>
       </defs>
       <use xlink:href="#DejaVuSans-30"/>
       <use xlink:href="#DejaVuSans-2e" transform="translate(63.623047 0)"/>
       <use xlink:href="#DejaVuSans-36" transform="translate(95.410156 0)"/>
      </g>
     </g>
    </g>
    <g id="xtick_5">
     <g id="line2d_5">
      <g>
       <use xlink:href="#m6153d42725" x="229.216247" y="174.04" style="stroke: #000000; stroke-width: 0.8"/>
      </g>
     </g>
     <g id="text_5">
      <!-- 0.8 -->
      <g transform="translate(221.264685 188.638438) scale(0.1 -0.1)">
       <defs>
        <path id="DejaVuSans-38" d="M 2034 2216 
Q 1584 2216 1326 1975 
Q 1069 1734 1069 1313 
Q 1069 891 1326 650 
Q 1584 409 2034 409 
Q 2484 409 2743 651 
Q 3003 894 3003 1313 
Q 3003 1734 2745 1975 
Q 2488 2216 2034 2216 
z
M 1403 2484 
Q 997 2584 770 2862 
Q 544 3141 544 3541 
Q 544 4100 942 4425 
Q 1341 4750 2034 4750 
Q 2731 4750 3128 4425 
Q 3525 4100 3525 3541 
Q 3525 3141 3298 2862 
Q 3072 2584 2669 2484 
Q 3125 2378 3379 2068 
Q 3634 1759 3634 1313 
Q 3634 634 3220 271 
Q 2806 -91 2034 -91 
Q 1263 -91 848 271 
Q 434 634 434 1313 
Q 434 1759 690 2068 
Q 947 2378 1403 2484 
z
M 1172 3481 
Q 1172 3119 1398 2916 
Q 1625 2713 2034 2713 
Q 2441 2713 2670 2916 
Q 2900 3119 2900 3481 
Q 2900 3844 2670 4047 
Q 2441 4250 2034 4250 
Q 1625 4250 1398 4047 
Q 1172 3844 1172 3481 
z
" transform="scale(0.015625)"/>
       </defs>
       <use xlink:href="#DejaVuSans-30"/>
       <use xlink:href="#DejaVuSans-2e" transform="translate(63.623047 0)"/>
       <use xlink:href="#DejaVuSans-38" transform="translate(95.410156 0)"/>
      </g>
     </g>
    </g>
    <g id="xtick_6">
     <g id="line2d_6">
      <g>
       <use xlink:href="#m6153d42725" x="271.924335" y="174.04" style="stroke: #000000; stroke-width: 0.8"/>
      </g>
     </g>
     <g id="text_6">
      <!-- 1.0 -->
      <g transform="translate(263.972772 188.638438) scale(0.1 -0.1)">
       <defs>
        <path id="DejaVuSans-31" d="M 794 531 
L 1825 531 
L 1825 4091 
L 703 3866 
L 703 4441 
L 1819 4666 
L 2450 4666 
L 2450 531 
L 3481 531 
L 3481 0 
L 794 0 
L 794 531 
z
" transform="scale(0.015625)"/>
       </defs>
       <use xlink:href="#DejaVuSans-31"/>
       <use xlink:href="#DejaVuSans-2e" transform="translate(63.623047 0)"/>
       <use xlink:href="#DejaVuSans-30" transform="translate(95.410156 0)"/>
      </g>
     </g>
    </g>
    <g id="text_7">
     <!-- V1 -->
     <g transform="translate(158.558437 202.316563) scale(0.1 -0.1)">
      <defs>
       <path id="DejaVuSans-56" d="M 1831 0 
L 50 4666 
L 709 4666 
L 2188 738 
L 3669 4666 
L 4325 4666 
L 2547 0 
L 1831 0 
z
" transform="scale(0.015625)"/>
      </defs>
      <use xlink:href="#DejaVuSans-56"/>
      <use xlink:href="#DejaVuSans-31" transform="translate(68.408203 0)"/>
     </g>
    </g>
   </g>
   <g id="matplotlib.axis_2">
    <g id="ytick_1">
     <g id="line2d_7">
      <defs>
       <path id="m83ed1b8323" d="M 0 0 
L -3.5 0 
" style="stroke: #000000; stroke-width: 0.8"/>
      </defs>
      <g>
       <use xlink:href="#m83ed1b8323" x="47.72" y="174.04" style="stroke: #000000; stroke-width: 0.8"/>
      </g>
     </g>
     <g id="text_8">
      <!-- 0.0 -->
      <g transform="translate(24.816875 177.839219) scale(0.1 -0.1)">
       <use xlink:href="#DejaVuSans-30"/>
       <use xlink:href="#DejaVuSans-2e" transform="translate(63.623047 0)"/>
       <use xlink:href="#DejaVuSans-30" transform="translate(95.410156 0)"/>
      </g>
     </g>
    </g>
    <g id="ytick_2">
     <g id="line2d_8">
      <g>
       <use xlink:href="#m83ed1b8323" x="47.72" y="149.52506" style="stroke: #000000; stroke-width: 0.8"/>
      </g>
     </g>
     <g id="text_9">
      <!-- 0.2 -->
      <g transform="translate(24.816875 153.324279) scale(0.1 -0.1)">
       <use xlink:href="#DejaVuSans-30"/>
       <use xlink:href="#DejaVuSans-2e" transform="translate(63.623047 0)"/>
       <use xlink:href="#DejaVuSans-32" transform="translate(95.410156 0)"/>
      </g>
     </g>
    </g>
    <g id="ytick_3">
     <g id="line2d_9">
      <g>
       <use xlink:href="#m83ed1b8323" x="47.72" y="125.01012" style="stroke: #000000; stroke-width: 0.8"/>
      </g>
     </g>
     <g id="text_10">
      <!-- 0.4 -->
      <g transform="translate(24.816875 128.809338) scale(0.1 -0.1)">
       <use xlink:href="#DejaVuSans-30"/>
       <use xlink:href="#DejaVuSans-2e" transform="translate(63.623047 0)"/>
       <use xlink:href="#DejaVuSans-34" transform="translate(95.410156 0)"/>
      </g>
     </g>
    </g>
    <g id="ytick_4">
     <g id="line2d_10">
      <g>
       <use xlink:href="#m83ed1b8323" x="47.72" y="100.495179" style="stroke: #000000; stroke-width: 0.8"/>
      </g>
     </g>
     <g id="text_11">
      <!-- 0.6 -->
      <g transform="translate(24.816875 104.294398) scale(0.1 -0.1)">
       <use xlink:href="#DejaVuSans-30"/>
       <use xlink:href="#DejaVuSans-2e" transform="translate(63.623047 0)"/>
       <use xlink:href="#DejaVuSans-36" transform="translate(95.410156 0)"/>
      </g>
     </g>
    </g>
    <g id="ytick_5">
     <g id="line2d_11">
      <g>
       <use xlink:href="#m83ed1b8323" x="47.72" y="75.980239" style="stroke: #000000; stroke-width: 0.8"/>
      </g>
     </g>
     <g id="text_12">
      <!-- 0.8 -->
      <g transform="translate(24.816875 79.779458) scale(0.1 -0.1)">
       <use xlink:href="#DejaVuSans-30"/>
       <use xlink:href="#DejaVuSans-2e" transform="translate(63.623047 0)"/>
       <use xlink:href="#DejaVuSans-38" transform="translate(95.410156 0)"/>
      </g>
     </g>
    </g>
    <g id="ytick_6">
     <g id="line2d_12">
      <g>
       <use xlink:href="#m83ed1b8323" x="47.72" y="51.465299" style="stroke: #000000; stroke-width: 0.8"/>
      </g>
     </g>
     <g id="text_13">
      <!-- 1.0 -->
      <g transform="translate(24.816875 55.264518) scale(0.1 -0.1)">
       <use xlink:href="#DejaVuSans-31"/>
       <use xlink:href="#DejaVuSans-2e" transform="translate(63.623047 0)"/>
       <use xlink:href="#DejaVuSans-30" transform="translate(95.410156 0)"/>
      </g>
     </g>
    </g>
    <g id="ytick_7">
     <g id="line2d_13">
      <g>
       <use xlink:href="#m83ed1b8323" x="47.72" y="26.950359" style="stroke: #000000; stroke-width: 0.8"/>
      </g>
     </g>
     <g id="text_14">
      <!-- 1.2 -->
      <g transform="translate(24.816875 30.749578) scale(0.1 -0.1)">
       <use xlink:href="#DejaVuSans-31"/>
       <use xlink:href="#DejaVuSans-2e" transform="translate(63.623047 0)"/>
       <use xlink:href="#DejaVuSans-32" transform="translate(95.410156 0)"/>
      </g>
     </g>
    </g>
    <g id="text_15">
     <!-- density -->
     <g transform="translate(18.737187 118.792812) rotate(-90) scale(0.1 -0.1)">
      <defs>
       <path id="DejaVuSans-64" d="M 2906 2969 
L 2906 4863 
L 3481 4863 
L 3481 0 
L 2906 0 
L 2906 525 
Q 2725 213 2448 61 
Q 2172 -91 1784 -91 
Q 1150 -91 751 415 
Q 353 922 353 1747 
Q 353 2572 751 3078 
Q 1150 3584 1784 3584 
Q 2172 3584 2448 3432 
Q 2725 3281 2906 2969 
z
M 947 1747 
Q 947 1113 1208 752 
Q 1469 391 1925 391 
Q 2381 391 2643 752 
Q 2906 1113 2906 1747 
Q 2906 2381 2643 2742 
Q 2381 3103 1925 3103 
Q 1469 3103 1208 2742 
Q 947 2381 947 1747 
z
" transform="scale(0.015625)"/>
       <path id="DejaVuSans-65" d="M 3597 1894 
L 3597 1613 
L 953 1613 
Q 991 1019 1311 708 
Q 1631 397 2203 397 
Q 2534 397 2845 478 
Q 3156 559 3463 722 
L 3463 178 
Q 3153 47 2828 -22 
Q 2503 -91 2169 -91 
Q 1331 -91 842 396 
Q 353 884 353 1716 
Q 353 2575 817 3079 
Q 1281 3584 2069 3584 
Q 2775 3584 3186 3129 
Q 3597 2675 3597 1894 
z
M 3022 2063 
Q 3016 2534 2758 2815 
Q 2500 3097 2075 3097 
Q 1594 3097 1305 2825 
Q 1016 2553 972 2059 
L 3022 2063 
z
" transform="scale(0.015625)"/>
       <path id="DejaVuSans-6e" d="M 3513 2113 
L 3513 0 
L 2938 0 
L 2938 2094 
Q 2938 2591 2744 2837 
Q 2550 3084 2163 3084 
Q 1697 3084 1428 2787 
Q 1159 2491 1159 1978 
L 1159 0 
L 581 0 
L 581 3500 
L 1159 3500 
L 1159 2956 
Q 1366 3272 1645 3428 
Q 1925 3584 2291 3584 
Q 2894 3584 3203 3211 
Q 3513 2838 3513 2113 
z
" transform="scale(0.015625)"/>
       <path id="DejaVuSans-73" d="M 2834 3397 
L 2834 2853 
Q 2591 2978 2328 3040 
Q 2066 3103 1784 3103 
Q 1356 3103 1142 2972 
Q 928 2841 928 2578 
Q 928 2378 1081 2264 
Q 1234 2150 1697 2047 
L 1894 2003 
Q 2506 1872 2764 1633 
Q 3022 1394 3022 966 
Q 3022 478 2636 193 
Q 2250 -91 1575 -91 
Q 1294 -91 989 -36 
Q 684 19 347 128 
L 347 722 
Q 666 556 975 473 
Q 1284 391 1588 391 
Q 1994 391 2212 530 
Q 2431 669 2431 922 
Q 2431 1156 2273 1281 
Q 2116 1406 1581 1522 
L 1381 1569 
Q 847 1681 609 1914 
Q 372 2147 372 2553 
Q 372 3047 722 3315 
Q 1072 3584 1716 3584 
Q 2034 3584 2315 3537 
Q 2597 3491 2834 3397 
z
" transform="scale(0.015625)"/>
       <path id="DejaVuSans-69" d="M 603 3500 
L 1178 3500 
L 1178 0 
L 603 0 
L 603 3500 
z
M 603 4863 
L 1178 4863 
L 1178 4134 
L 603 4134 
L 603 4863 
z
" transform="scale(0.015625)"/>
       <path id="DejaVuSans-74" d="M 1172 4494 
L 1172 3500 
L 2356 3500 
L 2356 3053 
L 1172 3053 
L 1172 1153 
Q 1172 725 1289 603 
Q 1406 481 1766 481 
L 2356 481 
L 2356 0 
L 1766 0 
Q 1100 0 847 248 
Q 594 497 594 1153 
L 594 3053 
L 172 3053 
L 172 3500 
L 594 3500 
L 594 4494 
L 1172 4494 
z
" transform="scale(0.015625)"/>
       <path id="DejaVuSans-79" d="M 2059 -325 
Q 1816 -950 1584 -1140 
Q 1353 -1331 966 -1331 
L 506 -1331 
L 506 -850 
L 844 -850 
Q 1081 -850 1212 -737 
Q 1344 -625 1503 -206 
L 1606 56 
L 191 3500 
L 800 3500 
L 1894 763 
L 2988 3500 
L 3597 3500 
L 2059 -325 
z
" transform="scale(0.015625)"/>
      </defs>
      <use xlink:href="#DejaVuSans-64"/>
      <use xlink:href="#DejaVuSans-65" transform="translate(63.476562 0)"/>
      <use xlink:href="#DejaVuSans-6e" transform="translate(125 0)"/>
      <use xlink:href="#DejaVuSans-73" transform="translate(188.378906 0)"/>
      <use xlink:href="#DejaVuSans-69" transform="translate(240.478516 0)"/>
      <use xlink:href="#DejaVuSans-74" transform="translate(268.261719 0)"/>
      <use xlink:href="#DejaVuSans-79" transform="translate(307.470703 0)"/>
     </g>
    </g>
   </g>
   <g id="line2d_14">
    <path d="M 47.72 51.465299 
L 282.6 51.465299 
" clip-path="url(#p04b4d3206e)" style="fill: none; stroke-dasharray: 5.55,2.4; stroke-dashoffset: 0; stroke: #1f77b4; stroke-width: 1.5"/>
   </g>
   <g id="patch_43">
    <path d="M 47.72 174.04 
L 47.72 26.88 
" style="fill: none; stroke: #000000; stroke-width: 0.8; stroke-linejoin: miter; stroke-linecap: square"/>
   </g>
   <g id="patch_44">
    <path d="M 282.6 174.04 
L 282.6 26.88 
" style="fill: none; stroke: #000000; stroke-width: 0.8; stroke-linejoin: miter; stroke-linecap: square"/>
   </g>
   <g id="patch_45">
    <path d="M 47.72 174.04 
L 282.6 174.04 
" style="fill: none; stroke: #000000; stroke-width: 0.8; stroke-linejoin: miter; stroke-linecap: square"/>
   </g>
   <g id="patch_46">
    <path d="M 47.72 26.88 
L 282.6 26.88 
" style="fill: none; stroke: #000000; stroke-width: 0.8; stroke-linejoin: miter; stroke-linecap: square"/>
   </g>
   <g id="text_16">
    <!-- PIT component ~ Uniform(0,1) -->
    <g transform="translate(73.34125 20.88) scale(0.12 -0.12)">
     <defs>
      <path id="DejaVuSans-50" d="M 1259 4147 
L 1259 2394 
L 2053 2394 
Q 2494 2394 2734 2622 
Q 2975 2850 2975 3272 
Q 2975 3691 2734 3919 
Q 2494 4147 2053 4147 
L 1259 4147 
z
M 628 4666 
L 2053 4666 
Q 2838 4666 3239 4311 
Q 3641 3956 3641 3272 
Q 3641 2581 3239 2228 
Q 2838 1875 2053 1875 
L 1259 1875 
L 1259 0 
L 628 0 
L 628 4666 
z
" transform="scale(0.015625)"/>
      <path id="DejaVuSans-49" d="M 628 4666 
L 1259 4666 
L 1259 0 
L 628 0 
L 628 4666 
z
" transform="scale(0.015625)"/>
      <path id="DejaVuSans-54" d="M -19 4666 
L 3928 4666 
L 3928 4134 
L 2272 4134 
L 2272 0 
L 1638 0 
L 1638 4134 
L -19 4134 
L -19 4666 
z
" transform="scale(0.015625)"/>
      <path id="DejaVuSans-20" transform="scale(0.015625)"/>
      <path id="DejaVuSans-63" d="M 3122 3366 
L 3122 2828 
Q 2878 2963 2633 3030 
Q 2388 3097 2138 3097 
Q 1578 3097 1268 2742 
Q 959 2388 959 1747 
Q 959 1106 1268 751 
Q 1578 397 2138 397 
Q 2388 397 2633 464 
Q 2878 531 3122 666 
L 3122 134 
Q 2881 22 2623 -34 
Q 2366 -91 2075 -91 
Q 1284 -91 818 406 
Q 353 903 353 1747 
Q 353 2603 823 3093 
Q 1294 3584 2113 3584 
Q 2378 3584 2631 3529 
Q 2884 3475 3122 3366 
z
" transform="scale(0.015625)"/>
      <path id="DejaVuSans-6f" d="M 1959 3097 
Q 1497 3097 1228 2736 
Q 959 2375 959 1747 
Q 959 1119 1226 758 
Q 1494 397 1959 397 
Q 2419 397 2687 759 
Q 2956 1122 2956 1747 
Q 2956 2369 2687 2733 
Q 2419 3097 1959 3097 
z
M 1959 3584 
Q 2709 3584 3137 3096 
Q 3566 2609 3566 1747 
Q 3566 888 3137 398 
Q 2709 -91 1959 -91 
Q 1206 -91 779 398 
Q 353 888 353 1747 
Q 353 2609 779 3096 
Q 1206 3584 1959 3584 
z
" transform="scale(0.015625)"/>
      <path id="DejaVuSans-6d" d="M 3328 2828 
Q 3544 3216 3844 3400 
Q 4144 3584 4550 3584 
Q 5097 3584 5394 3201 
Q 5691 2819 5691 2113 
L 5691 0 
L 5113 0 
L 5113 2094 
Q 5113 2597 4934 2840 
Q 4756 3084 4391 3084 
Q 3944 3084 3684 2787 
Q 3425 2491 3425 1978 
L 3425 0 
L 2847 0 
L 2847 2094 
Q 2847 2600 2669 2842 
Q 2491 3084 2119 3084 
Q 1678 3084 1418 2786 
Q 1159 2488 1159 1978 
L 1159 0 
L 581 0 
L 581 3500 
L 1159 3500 
L 1159 2956 
Q 1356 3278 1631 3431 
Q 1906 3584 2284 3584 
Q 2666 3584 2933 3390 
Q 3200 3197 3328 2828 
z
" transform="scale(0.015625)"/>
      <path id="DejaVuSans-70" d="M 1159 525 
L 1159 -1331 
L 581 -1331 
L 581 3500 
L 1159 3500 
L 1159 2969 
Q 1341 3281 1617 3432 
Q 1894 3584 2278 3584 
Q 2916 3584 3314 3078 
Q 3713 2572 3713 1747 
Q 3713 922 3314 415 
Q 2916 -91 2278 -91 
Q 1894 -91 1617 61 
Q 1341 213 1159 525 
z
M 3116 1747 
Q 3116 2381 2855 2742 
Q 2594 3103 2138 3103 
Q 1681 3103 1420 2742 
Q 1159 2381 1159 1747 
Q 1159 1113 1420 752 
Q 1681 391 2138 391 
Q 2594 391 2855 752 
Q 3116 1113 3116 1747 
z
" transform="scale(0.015625)"/>
      <path id="DejaVuSans-7e" d="M 4684 2553 
L 4684 1997 
Q 4356 1750 4076 1644 
Q 3797 1538 3494 1538 
Q 3150 1538 2694 1722 
Q 2659 1734 2644 1741 
Q 2622 1750 2575 1766 
Q 2091 1959 1797 1959 
Q 1522 1959 1253 1839 
Q 984 1719 678 1459 
L 678 2016 
Q 1006 2263 1286 2370 
Q 1566 2478 1869 2478 
Q 2213 2478 2672 2291 
Q 2703 2278 2719 2272 
Q 2744 2263 2788 2247 
Q 3272 2053 3566 2053 
Q 3834 2053 4098 2172 
Q 4363 2291 4684 2553 
z
" transform="scale(0.015625)"/>
      <path id="DejaVuSans-55" d="M 556 4666 
L 1191 4666 
L 1191 1831 
Q 1191 1081 1462 751 
Q 1734 422 2344 422 
Q 2950 422 3222 751 
Q 3494 1081 3494 1831 
L 3494 4666 
L 4128 4666 
L 4128 1753 
Q 4128 841 3676 375 
Q 3225 -91 2344 -91 
Q 1459 -91 1007 375 
Q 556 841 556 1753 
L 556 4666 
z
" transform="scale(0.015625)"/>
      <path id="DejaVuSans-66" d="M 2375 4863 
L 2375 4384 
L 1825 4384 
Q 1516 4384 1395 4259 
Q 1275 4134 1275 3809 
L 1275 3500 
L 2222 3500 
L 2222 3053 
L 1275 3053 
L 1275 0 
L 697 0 
L 697 3053 
L 147 3053 
L 147 3500 
L 697 3500 
L 697 3744 
Q 697 4328 969 4595 
Q 1241 4863 1831 4863 
L 2375 4863 
z
" transform="scale(0.015625)"/>
      <path id="DejaVuSans-72" d="M 2631 2963 
Q 2534 3019 2420 3045 
Q 2306 3072 2169 3072 
Q 1681 3072 1420 2755 
Q 1159 2438 1159 1844 
L 1159 0 
L 581 0 
L 581 3500 
L 1159 3500 
L 1159 2956 
Q 1341 3275 1631 3429 
Q 1922 3584 2338 3584 
Q 2397 3584 2469 3576 
Q 2541 3569 2628 3553 
L 2631 2963 
z
" transform="scale(0.015625)"/>
      <path id="DejaVuSans-28" d="M 1984 4856 
Q 1566 4138 1362 3434 
Q 1159 2731 1159 2009 
Q 1159 1288 1364 580 
Q 1569 -128 1984 -844 
L 1484 -844 
Q 1016 -109 783 600 
Q 550 1309 550 2009 
Q 550 2706 781 3412 
Q 1013 4119 1484 4856 
L 1984 4856 
z
" transform="scale(0.015625)"/>
      <path id="DejaVuSans-2c" d="M 750 794 
L 1409 794 
L 1409 256 
L 897 -744 
L 494 -744 
L 750 256 
L 750 794 
z
" transform="scale(0.015625)"/>
      <path id="DejaVuSans-29" d="M 513 4856 
L 1013 4856 
Q 1481 4119 1714 3412 
Q 1947 2706 1947 2009 
Q 1947 1309 1714 600 
Q 1481 -109 1013 -844 
L 513 -844 
Q 928 -128 1133 580 
Q 1338 1288 1338 2009 
Q 1338 2731 1133 3434 
Q 928 4138 513 4856 
z
" transform="scale(0.015625)"/>
     </defs>
     <use xlink:href="#DejaVuSans-50"/>
     <use xlink:href="#DejaVuSans-49" transform="translate(60.302734 0)"/>
     <use xlink:href="#DejaVuSans-54" transform="translate(89.794922 0)"/>
     <use xlink:href="#DejaVuSans-20" transform="translate(150.878906 0)"/>
     <use xlink:href="#DejaVuSans-63" transform="translate(182.666016 0)"/>
     <use xlink:href="#DejaVuSans-6f" transform="translate(237.646484 0)"/>
     <use xlink:href="#DejaVuSans-6d" transform="translate(298.828125 0)"/>
     <use xlink:href="#DejaVuSans-70" transform="translate(396.240234 0)"/>
     <use xlink:href="#DejaVuSans-6f" transform="translate(459.716797 0)"/>
     <use xlink:href="#DejaVuSans-6e" transform="translate(520.898438 0)"/>
     <use xlink:href="#DejaVuSans-65" transform="translate(584.277344 0)"/>
     <use xlink:href="#DejaVuSans-6e" transform="translate(645.800781 0)"/>
     <use xlink:href="#DejaVuSans-74" transform="translate(709.179688 0)"/>
     <use xlink:href="#DejaVuSans-20" transform="translate(748.388672 0)"/>
     <use xlink:href="#DejaVuSans-7e" transform="translate(780.175781 0)"/>
     <use xlink:href="#DejaVuSans-20" transform="translate(863.964844 0)"/>
     <use xlink:href="#DejaVuSans-55" transform="translate(895.751953 0)"/>
     <use xlink:href="#DejaVuSans-6e" transform="translate(968.945312 0)"/>
     <use xlink:href="#DejaVuSans-69" transform="translate(1032.324219 0)"/>
     <use xlink:href="#DejaVuSans-66" transform="translate(1060.107422 0)"/>
     <use xlink:href="#DejaVuSans-6f" transform="translate(1095.3125 0)"/>
     <use xlink:href="#DejaVuSans-72" transform="translate(1156.494141 0)"/>
     <use xlink:href="#DejaVuSans-6d" transform="translate(1195.857422 0)"/>
     <use xlink:href="#DejaVuSans-28" transform="translate(1293.269531 0)"/>
     <use xlink:href="#DejaVuSans-30" transform="translate(1332.283203 0)"/>
     <use xlink:href="#DejaVuSans-2c" transform="translate(1395.90625 0)"/>
     <use xlink:href="#DejaVuSans-31" transform="translate(1427.693359 0)"/>
     <use xlink:href="#DejaVuSans-29" transform="translate(1491.316406 0)"/>
    </g>
   </g>
  </g>
  <g id="axes_2">
   <g id="patch_47">
    <path d="M 330.32 174.04 
L 565.2 174.04 
L 565.2 26.88 
L 330.32 26.88 
z
" style="fill: #ffffff"/>
   </g>
   <g id="patch_48">
    <path d="M 340.996364 174.04 
L 346.334545 174.04 
L 346.334545 39.030826 
L 340.996364 39.030826 
z
" clip-path="url(#p3485edb410)" style="fill: #1f77b4; opacity: 0.85"/>
   </g>
   <g id="patch_49">
    <path d="M 346.334545 174.04 
L 351.672727 174.04 
L 351.672727 41.602429 
L 346.334545 41.602429 
z
" clip-path="url(#p3485edb410)" style="fill: #1f77b4; opacity: 0.85"/>
   </g>
   <g id="patch_50">
    <path d="M 351.672727 174.04 
L 357.010909 174.04 
L 357.010909 47.602837 
L 351.672727 47.602837 
z
" clip-path="url(#p3485edb410)" style="fill: #1f77b4; opacity: 0.85"/>
   </g>
   <g id="patch_51">
    <path d="M 357.010909 174.04 
L 362.349091 174.04 
L 362.349091 40.316627 
L 357.010909 40.316627 
z
" clip-path="url(#p3485edb410)" style="fill: #1f77b4; opacity: 0.85"/>
   </g>
   <g id="patch_52">
    <path d="M 362.349091 174.04 
L 367.687273 174.04 
L 367.687273 45.031233 
L 362.349091 45.031233 
z
" clip-path="url(#p3485edb410)" style="fill: #1f77b4; opacity: 0.85"/>
   </g>
   <g id="patch_53">
    <path d="M 367.687273 174.04 
L 373.025455 174.04 
L 373.025455 45.459834 
L 367.687273 45.459834 
z
" clip-path="url(#p3485edb410)" style="fill: #1f77b4; opacity: 0.85"/>
   </g>
   <g id="patch_54">
    <path d="M 373.025455 174.04 
L 378.363636 174.04 
L 378.363636 48.888638 
L 373.025455 48.888638 
z
" clip-path="url(#p3485edb410)" style="fill: #1f77b4; opacity: 0.85"/>
   </g>
   <g id="patch_55">
    <path d="M 378.363636 174.04 
L 383.701818 174.04 
L 383.701818 49.317239 
L 378.363636 49.317239 
z
" clip-path="url(#p3485edb410)" style="fill: #1f77b4; opacity: 0.85"/>
   </g>
   <g id="patch_56">
    <path d="M 383.701818 174.04 
L 389.04 174.04 
L 389.04 38.602225 
L 383.701818 38.602225 
z
" clip-path="url(#p3485edb410)" style="fill: #1f77b4; opacity: 0.85"/>
   </g>
   <g id="patch_57">
    <path d="M 389.04 174.04 
L 394.378182 174.04 
L 394.378182 50.17444 
L 389.04 50.17444 
z
" clip-path="url(#p3485edb410)" style="fill: #1f77b4; opacity: 0.85"/>
   </g>
   <g id="patch_58">
    <path d="M 394.378182 174.04 
L 399.716364 174.04 
L 399.716364 51.460242 
L 394.378182 51.460242 
z
" clip-path="url(#p3485edb410)" style="fill: #1f77b4; opacity: 0.85"/>
   </g>
   <g id="patch_59">
    <path d="M 399.716364 174.04 
L 405.054545 174.04 
L 405.054545 43.745432 
L 399.716364 43.745432 
z
" clip-path="url(#p3485edb410)" style="fill: #1f77b4; opacity: 0.85"/>
   </g>
   <g id="patch_60">
    <path d="M 405.054545 174.04 
L 410.392727 174.04 
L 410.392727 47.602837 
L 405.054545 47.602837 
z
" clip-path="url(#p3485edb410)" style="fill: #1f77b4; opacity: 0.85"/>
   </g>
   <g id="patch_61">
    <path d="M 410.392727 174.04 
L 415.730909 174.04 
L 415.730909 37.316423 
L 410.392727 37.316423 
z
" clip-path="url(#p3485edb410)" style="fill: #1f77b4; opacity: 0.85"/>
   </g>
   <g id="patch_62">
    <path d="M 415.730909 174.04 
L 421.069091 174.04 
L 421.069091 35.602021 
L 415.730909 35.602021 
z
" clip-path="url(#p3485edb410)" style="fill: #1f77b4; opacity: 0.85"/>
   </g>
   <g id="patch_63">
    <path d="M 421.069091 174.04 
L 426.407273 174.04 
L 426.407273 42.888231 
L 421.069091 42.888231 
z
" clip-path="url(#p3485edb410)" style="fill: #1f77b4; opacity: 0.85"/>
   </g>
   <g id="patch_64">
    <path d="M 426.407273 174.04 
L 431.745455 174.04 
L 431.745455 52.317443 
L 426.407273 52.317443 
z
" clip-path="url(#p3485edb410)" style="fill: #1f77b4; opacity: 0.85"/>
   </g>
   <g id="patch_65">
    <path d="M 431.745455 174.04 
L 437.083636 174.04 
L 437.083636 36.887823 
L 431.745455 36.887823 
z
" clip-path="url(#p3485edb410)" style="fill: #1f77b4; opacity: 0.85"/>
   </g>
   <g id="patch_66">
    <path d="M 437.083636 174.04 
L 442.421818 174.04 
L 442.421818 50.17444 
L 437.083636 50.17444 
z
" clip-path="url(#p3485edb410)" style="fill: #1f77b4; opacity: 0.85"/>
   </g>
   <g id="patch_67">
    <path d="M 442.421818 174.04 
L 447.76 174.04 
L 447.76 52.746043 
L 442.421818 52.746043 
z
" clip-path="url(#p3485edb410)" style="fill: #1f77b4; opacity: 0.85"/>
   </g>
   <g id="patch_68">
    <path d="M 447.76 174.04 
L 453.098182 174.04 
L 453.098182 43.745432 
L 447.76 43.745432 
z
" clip-path="url(#p3485edb410)" style="fill: #1f77b4; opacity: 0.85"/>
   </g>
   <g id="patch_69">
    <path d="M 453.098182 174.04 
L 458.436364 174.04 
L 458.436364 42.888231 
L 453.098182 42.888231 
z
" clip-path="url(#p3485edb410)" style="fill: #1f77b4; opacity: 0.85"/>
   </g>
   <g id="patch_70">
    <path d="M 458.436364 174.04 
L 463.774545 174.04 
L 463.774545 36.887823 
L 458.436364 36.887823 
z
" clip-path="url(#p3485edb410)" style="fill: #1f77b4; opacity: 0.85"/>
   </g>
   <g id="patch_71">
    <path d="M 463.774545 174.04 
L 469.112727 174.04 
L 469.112727 38.602225 
L 463.774545 38.602225 
z
" clip-path="url(#p3485edb410)" style="fill: #1f77b4; opacity: 0.85"/>
   </g>
   <g id="patch_72">
    <path d="M 469.112727 174.04 
L 474.450909 174.04 
L 474.450909 53.603245 
L 469.112727 53.603245 
z
" clip-path="url(#p3485edb410)" style="fill: #1f77b4; opacity: 0.85"/>
   </g>
   <g id="patch_73">
    <path d="M 474.450909 174.04 
L 479.789091 174.04 
L 479.789091 44.174032 
L 474.450909 44.174032 
z
" clip-path="url(#p3485edb410)" style="fill: #1f77b4; opacity: 0.85"/>
   </g>
   <g id="patch_74">
    <path d="M 479.789091 174.04 
L 485.127273 174.04 
L 485.127273 55.317647 
L 479.789091 55.317647 
z
" clip-path="url(#p3485edb410)" style="fill: #1f77b4; opacity: 0.85"/>
   </g>
   <g id="patch_75">
    <path d="M 485.127273 174.04 
L 490.465455 174.04 
L 490.465455 33.887619 
L 485.127273 33.887619 
z
" clip-path="url(#p3485edb410)" style="fill: #1f77b4; opacity: 0.85"/>
   </g>
   <g id="patch_76">
    <path d="M 490.465455 174.04 
L 495.803636 174.04 
L 495.803636 36.030622 
L 490.465455 36.030622 
z
" clip-path="url(#p3485edb410)" style="fill: #1f77b4; opacity: 0.85"/>
   </g>
   <g id="patch_77">
    <path d="M 495.803636 174.04 
L 501.141818 174.04 
L 501.141818 44.602633 
L 495.803636 44.602633 
z
" clip-path="url(#p3485edb410)" style="fill: #1f77b4; opacity: 0.85"/>
   </g>
   <g id="patch_78">
    <path d="M 501.141818 174.04 
L 506.48 174.04 
L 506.48 42.03103 
L 501.141818 42.03103 
z
" clip-path="url(#p3485edb410)" style="fill: #1f77b4; opacity: 0.85"/>
   </g>
   <g id="patch_79">
    <path d="M 506.48 174.04 
L 511.818182 174.04 
L 511.818182 61.318054 
L 506.48 61.318054 
z
" clip-path="url(#p3485edb410)" style="fill: #1f77b4; opacity: 0.85"/>
   </g>
   <g id="patch_80">
    <path d="M 511.818182 174.04 
L 517.156364 174.04 
L 517.156364 40.745228 
L 511.818182 40.745228 
z
" clip-path="url(#p3485edb410)" style="fill: #1f77b4; opacity: 0.85"/>
   </g>
   <g id="patch_81">
    <path d="M 517.156364 174.04 
L 522.494545 174.04 
L 522.494545 59.603652 
L 517.156364 59.603652 
z
" clip-path="url(#p3485edb410)" style="fill: #1f77b4; opacity: 0.85"/>
   </g>
   <g id="patch_82">
    <path d="M 522.494545 174.04 
L 527.832727 174.04 
L 527.832727 39.888027 
L 522.494545 39.888027 
z
" clip-path="url(#p3485edb410)" style="fill: #1f77b4; opacity: 0.85"/>
   </g>
   <g id="patch_83">
    <path d="M 527.832727 174.04 
L 533.170909 174.04 
L 533.170909 48.031437 
L 527.832727 48.031437 
z
" clip-path="url(#p3485edb410)" style="fill: #1f77b4; opacity: 0.85"/>
   </g>
   <g id="patch_84">
    <path d="M 533.170909 174.04 
L 538.509091 174.04 
L 538.509091 51.460242 
L 533.170909 51.460242 
z
" clip-path="url(#p3485edb410)" style="fill: #1f77b4; opacity: 0.85"/>
   </g>
   <g id="patch_85">
    <path d="M 538.509091 174.04 
L 543.847273 174.04 
L 543.847273 45.459834 
L 538.509091 45.459834 
z
" clip-path="url(#p3485edb410)" style="fill: #1f77b4; opacity: 0.85"/>
   </g>
   <g id="patch_86">
    <path d="M 543.847273 174.04 
L 549.185455 174.04 
L 549.185455 44.174032 
L 543.847273 44.174032 
z
" clip-path="url(#p3485edb410)" style="fill: #1f77b4; opacity: 0.85"/>
   </g>
   <g id="patch_87">
    <path d="M 549.185455 174.04 
L 554.523636 174.04 
L 554.523636 59.175052 
L 549.185455 59.175052 
z
" clip-path="url(#p3485edb410)" style="fill: #1f77b4; opacity: 0.85"/>
   </g>
   <g id="matplotlib.axis_3">
    <g id="xtick_7">
     <g id="line2d_15">
      <g>
       <use xlink:href="#m6153d42725" x="340.989055" y="174.04" style="stroke: #000000; stroke-width: 0.8"/>
      </g>
     </g>
     <g id="text_17">
      <!-- 0.0 -->
      <g transform="translate(333.037493 188.638438) scale(0.1 -0.1)">
       <use xlink:href="#DejaVuSans-30"/>
       <use xlink:href="#DejaVuSans-2e" transform="translate(63.623047 0)"/>
       <use xlink:href="#DejaVuSans-30" transform="translate(95.410156 0)"/>
      </g>
     </g>
    </g>
    <g id="xtick_8">
     <g id="line2d_16">
      <g>
       <use xlink:href="#m6153d42725" x="383.696309" y="174.04" style="stroke: #000000; stroke-width: 0.8"/>
      </g>
     </g>
     <g id="text_18">
      <!-- 0.2 -->
      <g transform="translate(375.744746 188.638438) scale(0.1 -0.1)">
       <use xlink:href="#DejaVuSans-30"/>
       <use xlink:href="#DejaVuSans-2e" transform="translate(63.623047 0)"/>
       <use xlink:href="#DejaVuSans-32" transform="translate(95.410156 0)"/>
      </g>
     </g>
    </g>
    <g id="xtick_9">
     <g id="line2d_17">
      <g>
       <use xlink:href="#m6153d42725" x="426.403563" y="174.04" style="stroke: #000000; stroke-width: 0.8"/>
      </g>
     </g>
     <g id="text_19">
      <!-- 0.4 -->
      <g transform="translate(418.452 188.638438) scale(0.1 -0.1)">
       <use xlink:href="#DejaVuSans-30"/>
       <use xlink:href="#DejaVuSans-2e" transform="translate(63.623047 0)"/>
       <use xlink:href="#DejaVuSans-34" transform="translate(95.410156 0)"/>
      </g>
     </g>
    </g>
    <g id="xtick_10">
     <g id="line2d_18">
      <g>
       <use xlink:href="#m6153d42725" x="469.110816" y="174.04" style="stroke: #000000; stroke-width: 0.8"/>
      </g>
     </g>
     <g id="text_20">
      <!-- 0.6 -->
      <g transform="translate(461.159254 188.638438) scale(0.1 -0.1)">
       <use xlink:href="#DejaVuSans-30"/>
       <use xlink:href="#DejaVuSans-2e" transform="translate(63.623047 0)"/>
       <use xlink:href="#DejaVuSans-36" transform="translate(95.410156 0)"/>
      </g>
     </g>
    </g>
    <g id="xtick_11">
     <g id="line2d_19">
      <g>
       <use xlink:href="#m6153d42725" x="511.81807" y="174.04" style="stroke: #000000; stroke-width: 0.8"/>
      </g>
     </g>
     <g id="text_21">
      <!-- 0.8 -->
      <g transform="translate(503.866507 188.638438) scale(0.1 -0.1)">
       <use xlink:href="#DejaVuSans-30"/>
       <use xlink:href="#DejaVuSans-2e" transform="translate(63.623047 0)"/>
       <use xlink:href="#DejaVuSans-38" transform="translate(95.410156 0)"/>
      </g>
     </g>
    </g>
    <g id="xtick_12">
     <g id="line2d_20">
      <g>
       <use xlink:href="#m6153d42725" x="554.525323" y="174.04" style="stroke: #000000; stroke-width: 0.8"/>
      </g>
     </g>
     <g id="text_22">
      <!-- 1.0 -->
      <g transform="translate(546.573761 188.638438) scale(0.1 -0.1)">
       <use xlink:href="#DejaVuSans-31"/>
       <use xlink:href="#DejaVuSans-2e" transform="translate(63.623047 0)"/>
       <use xlink:href="#DejaVuSans-30" transform="translate(95.410156 0)"/>
      </g>
     </g>
    </g>
    <g id="text_23">
     <!-- V2 -->
     <g transform="translate(441.158438 202.316563) scale(0.1 -0.1)">
      <use xlink:href="#DejaVuSans-56"/>
      <use xlink:href="#DejaVuSans-32" transform="translate(68.408203 0)"/>
     </g>
    </g>
   </g>
   <g id="matplotlib.axis_4">
    <g id="ytick_8">
     <g id="line2d_21">
      <g>
       <use xlink:href="#m83ed1b8323" x="330.32" y="174.04" style="stroke: #000000; stroke-width: 0.8"/>
      </g>
     </g>
     <g id="text_24">
      <!-- 0.0 -->
      <g transform="translate(307.416875 177.839219) scale(0.1 -0.1)">
       <use xlink:href="#DejaVuSans-30"/>
       <use xlink:href="#DejaVuSans-2e" transform="translate(63.623047 0)"/>
       <use xlink:href="#DejaVuSans-30" transform="translate(95.410156 0)"/>
      </g>
     </g>
    </g>
    <g id="ytick_9">
     <g id="line2d_22">
      <g>
       <use xlink:href="#m83ed1b8323" x="330.32" y="148.32505" style="stroke: #000000; stroke-width: 0.8"/>
      </g>
     </g>
     <g id="text_25">
      <!-- 0.2 -->
      <g transform="translate(307.416875 152.124269) scale(0.1 -0.1)">
       <use xlink:href="#DejaVuSans-30"/>
       <use xlink:href="#DejaVuSans-2e" transform="translate(63.623047 0)"/>
       <use xlink:href="#DejaVuSans-32" transform="translate(95.410156 0)"/>
      </g>
     </g>
    </g>
    <g id="ytick_10">
     <g id="line2d_23">
      <g>
       <use xlink:href="#m83ed1b8323" x="330.32" y="122.6101" style="stroke: #000000; stroke-width: 0.8"/>
      </g>
     </g>
     <g id="text_26">
      <!-- 0.4 -->
      <g transform="translate(307.416875 126.409319) scale(0.1 -0.1)">
       <use xlink:href="#DejaVuSans-30"/>
       <use xlink:href="#DejaVuSans-2e" transform="translate(63.623047 0)"/>
       <use xlink:href="#DejaVuSans-34" transform="translate(95.410156 0)"/>
      </g>
     </g>
    </g>
    <g id="ytick_11">
     <g id="line2d_24">
      <g>
       <use xlink:href="#m83ed1b8323" x="330.32" y="96.89515" style="stroke: #000000; stroke-width: 0.8"/>
      </g>
     </g>
     <g id="text_27">
      <!-- 0.6 -->
      <g transform="translate(307.416875 100.694369) scale(0.1 -0.1)">
       <use xlink:href="#DejaVuSans-30"/>
       <use xlink:href="#DejaVuSans-2e" transform="translate(63.623047 0)"/>
       <use xlink:href="#DejaVuSans-36" transform="translate(95.410156 0)"/>
      </g>
     </g>
    </g>
    <g id="ytick_12">
     <g id="line2d_25">
      <g>
       <use xlink:href="#m83ed1b8323" x="330.32" y="71.1802" style="stroke: #000000; stroke-width: 0.8"/>
      </g>
     </g>
     <g id="text_28">
      <!-- 0.8 -->
      <g transform="translate(307.416875 74.979419) scale(0.1 -0.1)">
       <use xlink:href="#DejaVuSans-30"/>
       <use xlink:href="#DejaVuSans-2e" transform="translate(63.623047 0)"/>
       <use xlink:href="#DejaVuSans-38" transform="translate(95.410156 0)"/>
      </g>
     </g>
    </g>
    <g id="ytick_13">
     <g id="line2d_26">
      <g>
       <use xlink:href="#m83ed1b8323" x="330.32" y="45.46525" style="stroke: #000000; stroke-width: 0.8"/>
      </g>
     </g>
     <g id="text_29">
      <!-- 1.0 -->
      <g transform="translate(307.416875 49.264469) scale(0.1 -0.1)">
       <use xlink:href="#DejaVuSans-31"/>
       <use xlink:href="#DejaVuSans-2e" transform="translate(63.623047 0)"/>
       <use xlink:href="#DejaVuSans-30" transform="translate(95.410156 0)"/>
      </g>
     </g>
    </g>
    <g id="text_30">
     <!-- density -->
     <g transform="translate(301.337188 118.792812) rotate(-90) scale(0.1 -0.1)">
      <use xlink:href="#DejaVuSans-64"/>
      <use xlink:href="#DejaVuSans-65" transform="translate(63.476562 0)"/>
      <use xlink:href="#DejaVuSans-6e" transform="translate(125 0)"/>
      <use xlink:href="#DejaVuSans-73" transform="translate(188.378906 0)"/>
      <use xlink:href="#DejaVuSans-69" transform="translate(240.478516 0)"/>
      <use xlink:href="#DejaVuSans-74" transform="translate(268.261719 0)"/>
      <use xlink:href="#DejaVuSans-79" transform="translate(307.470703 0)"/>
     </g>
    </g>
   </g>
   <g id="line2d_27">
    <path d="M 330.32 45.46525 
L 565.2 45.46525 
" clip-path="url(#p3485edb410)" style="fill: none; stroke-dasharray: 5.55,2.4; stroke-dashoffset: 0; stroke: #1f77b4; stroke-width: 1.5"/>
   </g>
   <g id="patch_88">
    <path d="M 330.32 174.04 
L 330.32 26.88 
" style="fill: none; stroke: #000000; stroke-width: 0.8; stroke-linejoin: miter; stroke-linecap: square"/>
   </g>
   <g id="patch_89">
    <path d="M 565.2 174.04 
L 565.2 26.88 
" style="fill: none; stroke: #000000; stroke-width: 0.8; stroke-linejoin: miter; stroke-linecap: square"/>
   </g>
   <g id="patch_90">
    <path d="M 330.32 174.04 
L 565.2 174.04 
" style="fill: none; stroke: #000000; stroke-width: 0.8; stroke-linejoin: miter; stroke-linecap: square"/>
   </g>
   <g id="patch_91">
    <path d="M 330.32 26.88 
L 565.2 26.88 
" style="fill: none; stroke: #000000; stroke-width: 0.8; stroke-linejoin: miter; stroke-linecap: square"/>
   </g>
   <g id="text_31">
    <!-- PIT component ~ Uniform(0,1) -->
    <g transform="translate(355.94125 20.88) scale(0.12 -0.12)">
     <use xlink:href="#DejaVuSans-50"/>
     <use xlink:href="#DejaVuSans-49" transform="translate(60.302734 0)"/>
     <use xlink:href="#DejaVuSans-54" transform="translate(89.794922 0)"/>
     <use xlink:href="#DejaVuSans-20" transform="translate(150.878906 0)"/>
     <use xlink:href="#DejaVuSans-63" transform="translate(182.666016 0)"/>
     <use xlink:href="#DejaVuSans-6f" transform="translate(237.646484 0)"/>
     <use xlink:href="#DejaVuSans-6d" transform="translate(298.828125 0)"/>
     <use xlink:href="#DejaVuSans-70" transform="translate(396.240234 0)"/>
     <use xlink:href="#DejaVuSans-6f" transform="translate(459.716797 0)"/>
     <use xlink:href="#DejaVuSans-6e" transform="translate(520.898438 0)"/>
     <use xlink:href="#DejaVuSans-65" transform="translate(584.277344 0)"/>
     <use xlink:href="#DejaVuSans-6e" transform="translate(645.800781 0)"/>
     <use xlink:href="#DejaVuSans-74" transform="translate(709.179688 0)"/>
     <use xlink:href="#DejaVuSans-20" transform="translate(748.388672 0)"/>
     <use xlink:href="#DejaVuSans-7e" transform="translate(780.175781 0)"/>
     <use xlink:href="#DejaVuSans-20" transform="translate(863.964844 0)"/>
     <use xlink:href="#DejaVuSans-55" transform="translate(895.751953 0)"/>
     <use xlink:href="#DejaVuSans-6e" transform="translate(968.945312 0)"/>
     <use xlink:href="#DejaVuSans-69" transform="translate(1032.324219 0)"/>
     <use xlink:href="#DejaVuSans-66" transform="translate(1060.107422 0)"/>
     <use xlink:href="#DejaVuSans-6f" transform="translate(1095.3125 0)"/>
     <use xlink:href="#DejaVuSans-72" transform="translate(1156.494141 0)"/>
     <use xlink:href="#DejaVuSans-6d" transform="translate(1195.857422 0)"/>
     <use xlink:href="#DejaVuSans-28" transform="translate(1293.269531 0)"/>
     <use xlink:href="#DejaVuSans-30" transform="translate(1332.283203 0)"/>
     <use xlink:href="#DejaVuSans-2c" transform="translate(1395.90625 0)"/>
     <use xlink:href="#DejaVuSans-31" transform="translate(1427.693359 0)"/>
     <use xlink:href="#DejaVuSans-29" transform="translate(1491.316406 0)"/>
    </g>
   </g>
  </g>
 </g>
 <defs>
  <clipPath id="p04b4d3206e">
   <rect x="47.72" y="26.88" width="234.88" height="147.16"/>
  </clipPath>
  <clipPath id="p3485edb410">
   <rect x="330.32" y="26.88" width="234.88" height="147.16"/>
  </clipPath>
 </defs>
</svg>
