<?xml version="1.0" encoding="utf-8" standalone="no"?>
<!DOCTYPE svg PUBLIC "-//W3C//DTD SVG 1.1//EN"
  "http://www.w3.org/Graphics/SVG/1.1/DTD/svg11.dtd">
<svg xmlns:xlink="http://www.w3.org/1999/xlink" width="576pt" height="288pt" viewBox="0 0 576 288" xmlns="http://www.w3.org/2000/svg" version="1.1">
 <metadata>
  <rdf:RDF xmlns:dc="http://purl.org/dc/elements/1.1/" xmlns:cc="http://creativecommons.org/ns#" xmlns:rdf="http://www.w3.org/1999/02/22-rdf-syntax-ns#">
   <cc:Work>
    <dc:type rdf:resource="http://purl.org/dc/dcmitype/StillImage"/>
    <dc:date>2025-10-12T18:12:58.758953</dc:date>
    <dc:format>image/svg+xml</dc:format>
    <dc:creator>
     <cc:Agent>
      <dc:title>Matplotlib v3.10.7, https://matplotlib.org/</dc:title>
     </cc:Agent>
    </dc:creator>
   </cc:Work>
  </rdf:RDF>
 </metadata>
 <defs>
  <style type="text/css">*{stroke-linejoin: round; stroke-linecap: butt}</style>
 </defs>
 <g id="figure_1">
  <g id="patch_1">
   <path d="M 0 288 
L 576 288 
L 576 0 
L 0 0 
z
" style="fill: #ffffff"/>
  </g>
  <g id="axes_1">
   <g id="patch_2">
    <path d="M 38.52 104.776 
L 138.312 104.776 
L 138.312 60.4384 
L 38.52 60.4384 
L 38.52 104.776 
z
" clip-path="url(#peb1aecea96)" style="fill: none; stroke: #000000; stroke-width: 1.5; stroke-linejoin: miter"/>
   </g>
   <g id="patch_3">
    <path d="M 38.52 176.2088 
L 138.312 176.2088 
L 138.312 131.8712 
L 38.52 131.8712 
L 38.52 176.2088 
z
" clip-path="url(#peb1aecea96)" style="fill: none; stroke: #000000; stroke-width: 1.5; stroke-linejoin: miter"/>
   </g>
   <g id="patch_4">
    <path d="M 38.52 247.6416 
L 138.312 247.6416 
L 138.312 203.304 
L 38.52 203.304 
L 38.52 247.6416 
z
" clip-path="url(#peb1aecea96)" style="fill: none; stroke: #000000; stroke-width: 1.5; stroke-linejoin: miter"/>
   </g>
   <g id="patch_5">
    <path d="M 188.208 198.3776 
L 326.808 198.3776 
L 326.808 94.9232 
L 188.208 94.9232 
L 188.208 198.3776 
z
" clip-path="url(#peb1aecea96)" style="fill: none; stroke: #000000; stroke-width: 1.5; stroke-linejoin: miter"/>
   </g>
   <g id="patch_6">
    <path d="M 365.616 173.7456 
L 531.936 173.7456 
L 531.936 119.5552 
L 365.616 119.5552 
L 365.616 173.7456 
z
" clip-path="url(#peb1aecea96)" style="fill: none; stroke: #000000; stroke-width: 1.5; stroke-linejoin: miter"/>
   </g>
   <g id="patch_7">
    <path d="M 199.296 82.6072 
L 188.208 85.0704 
L 188.208 82.73036 
L 138.312 82.73036 
L 138.312 82.48404 
L 188.208 82.48404 
L 188.208 80.144 
z
" clip-path="url(#peb1aecea96)" style="fill: #1f77b4; stroke: #000000; stroke-linejoin: miter"/>
   </g>
   <g id="patch_8">
    <path d="M 199.296 154.04 
L 188.208 156.5032 
L 188.208 154.16316 
L 138.312 154.16316 
L 138.312 153.91684 
L 188.208 153.91684 
L 188.208 151.5768 
z
" clip-path="url(#peb1aecea96)" style="fill: #1f77b4; stroke: #000000; stroke-linejoin: miter"/>
   </g>
   <g id="patch_9">
    <path d="M 199.296 225.4728 
L 188.208 227.936 
L 188.208 225.59596 
L 138.312 225.59596 
L 138.312 225.34964 
L 188.208 225.34964 
L 188.208 223.0096 
z
" clip-path="url(#peb1aecea96)" style="fill: #1f77b4; stroke: #000000; stroke-linejoin: miter"/>
   </g>
   <g id="patch_10">
    <path d="M 376.704 146.6504 
L 365.616 149.1136 
L 365.616 146.77356 
L 326.808 146.77356 
L 326.808 146.52724 
L 365.616 146.52724 
L 365.616 144.1872 
z
" clip-path="url(#peb1aecea96)" style="fill: #1f77b4; stroke: #000000; stroke-linejoin: miter"/>
   </g>
   <g id="text_1">
    <!-- $F_1(x_1)$ -->
    <g transform="translate(73.916 85.366575) scale(0.1 -0.1)">
     <defs>
      <path id="DejaVuSans-Oblique-46" d="M 1081 4666 
L 3756 4666 
L 3653 4134 
L 1606 4134 
L 1338 2759 
L 3188 2759 
L 3084 2228 
L 1234 2228 
L 800 0 
L 172 0 
L 1081 4666 
z
" transform="scale(0.015625)"/>
      <path id="DejaVuSans-31" d="M 794 531 
L 1825 531 
L 1825 4091 
L 703 3866 
L 703 4441 
L 1819 4666 
L 2450 4666 
L 2450 531 
L 3481 531 
L 3481 0 
L 794 0 
L 794 531 
z
" transform="scale(0.015625)"/>
      <path id="DejaVuSans-28" d="M 1984 4856 
Q 1566 4138 1362 3434 
Q 1159 2731 1159 2009 
Q 1159 1288 1364 580 
Q 1569 -128 1984 -844 
L 1484 -844 
Q 1016 -109 783 600 
Q 550 1309 550 2009 
Q 550 2706 781 3412 
Q 1013 4119 1484 4856 
L 1984 4856 
z
" transform="scale(0.015625)"/>
      <path id="DejaVuSans-Oblique-78" d="M 3841 3500 
L 2234 1784 
L 3219 0 
L 2559 0 
L 1819 1388 
L 531 0 
L -166 0 
L 1556 1844 
L 641 3500 
L 1300 3500 
L 1972 2234 
L 3144 3500 
L 3841 3500 
z
" transform="scale(0.015625)"/>
      <path id="DejaVuSans-29" d="M 513 4856 
L 1013 4856 
Q 1481 4119 1714 3412 
Q 1947 2706 1947 2009 
Q 1947 1309 1714 600 
Q 1481 -109 1013 -844 
L 513 -844 
Q 928 -128 1133 580 
Q 1338 1288 1338 2009 
Q 1338 2731 1133 3434 
Q 928 4138 513 4856 
z
" transform="scale(0.015625)"/>
     </defs>
     <use xlink:href="#DejaVuSans-Oblique-46" transform="translate(0 0.125)"/>
     <use xlink:href="#DejaVuSans-31" transform="translate(57.519531 -16.28125) scale(0.7)"/>
     <use xlink:href="#DejaVuSans-28" transform="translate(104.790039 0.125)"/>
     <use xlink:href="#DejaVuSans-Oblique-78" transform="translate(143.803711 0.125)"/>
     <use xlink:href="#DejaVuSans-31" transform="translate(202.983398 -16.28125) scale(0.7)"/>
     <use xlink:href="#DejaVuSans-29" transform="translate(250.253906 0.125)"/>
    </g>
   </g>
   <g id="text_2">
    <!-- $F_2(x_2)$ -->
    <g transform="translate(73.916 156.799375) scale(0.1 -0.1)">
     <defs>
      <path id="DejaVuSans-32" d="M 1228 531 
L 3431 531 
L 3431 0 
L 469 0 
L 469 531 
Q 828 903 1448 1529 
Q 2069 2156 2228 2338 
Q 2531 2678 2651 2914 
Q 2772 3150 2772 3378 
Q 2772 3750 2511 3984 
Q 2250 4219 1831 4219 
Q 1534 4219 1204 4116 
Q 875 4013 500 3803 
L 500 4441 
Q 881 4594 1212 4672 
Q 1544 4750 1819 4750 
Q 2544 4750 2975 4387 
Q 3406 4025 3406 3419 
Q 3406 3131 3298 2873 
Q 3191 2616 2906 2266 
Q 2828 2175 2409 1742 
Q 1991 1309 1228 531 
z
" transform="scale(0.015625)"/>
     </defs>
     <use xlink:href="#DejaVuSans-Oblique-46" transform="translate(0 0.125)"/>
     <use xlink:href="#DejaVuSans-32" transform="translate(57.519531 -16.28125) scale(0.7)"/>
     <use xlink:href="#DejaVuSans-28" transform="translate(104.790039 0.125)"/>
     <use xlink:href="#DejaVuSans-Oblique-78" transform="translate(143.803711 0.125)"/>
     <use xlink:href="#DejaVuSans-32" transform="translate(202.983398 -16.28125) scale(0.7)"/>
     <use xlink:href="#DejaVuSans-29" transform="translate(250.253906 0.125)"/>
    </g>
   </g>
   <g id="text_3">
    <!-- $F_3(x_3)$ -->
    <g transform="translate(73.916 228.232175) scale(0.1 -0.1)">
     <defs>
      <path id="DejaVuSans-33" d="M 2597 2516 
Q 3050 2419 3304 2112 
Q 3559 1806 3559 1356 
Q 3559 666 3084 287 
Q 2609 -91 1734 -91 
Q 1441 -91 1130 -33 
Q 819 25 488 141 
L 488 750 
Q 750 597 1062 519 
Q 1375 441 1716 441 
Q 2309 441 2620 675 
Q 2931 909 2931 1356 
Q 2931 1769 2642 2001 
Q 2353 2234 1838 2234 
L 1294 2234 
L 1294 2753 
L 1863 2753 
Q 2328 2753 2575 2939 
Q 2822 3125 2822 3475 
Q 2822 3834 2567 4026 
Q 2313 4219 1838 4219 
Q 1578 4219 1281 4162 
Q 984 4106 628 3988 
L 628 4550 
Q 988 4650 1302 4700 
Q 1616 4750 1894 4750 
Q 2613 4750 3031 4423 
Q 3450 4097 3450 3541 
Q 3450 3153 3228 2886 
Q 3006 2619 2597 2516 
z
" transform="scale(0.015625)"/>
     </defs>
     <use xlink:href="#DejaVuSans-Oblique-46" transform="translate(0 0.125)"/>
     <use xlink:href="#DejaVuSans-33" transform="translate(57.519531 -16.28125) scale(0.7)"/>
     <use xlink:href="#DejaVuSans-28" transform="translate(104.790039 0.125)"/>
     <use xlink:href="#DejaVuSans-Oblique-78" transform="translate(143.803711 0.125)"/>
     <use xlink:href="#DejaVuSans-33" transform="translate(202.983398 -16.28125) scale(0.7)"/>
     <use xlink:href="#DejaVuSans-29" transform="translate(250.253906 0.125)"/>
    </g>
   </g>
   <g id="text_4">
    <!-- Copula $C(u_1,\ldots,u_d)$ -->
    <g transform="translate(209.958 149.4004) scale(0.1 -0.1)">
     <defs>
      <path id="DejaVuSans-43" d="M 4122 4306 
L 4122 3641 
Q 3803 3938 3442 4084 
Q 3081 4231 2675 4231 
Q 1875 4231 1450 3742 
Q 1025 3253 1025 2328 
Q 1025 1406 1450 917 
Q 1875 428 2675 428 
Q 3081 428 3442 575 
Q 3803 722 4122 1019 
L 4122 359 
Q 3791 134 3420 21 
Q 3050 -91 2638 -91 
Q 1578 -91 968 557 
Q 359 1206 359 2328 
Q 359 3453 968 4101 
Q 1578 4750 2638 4750 
Q 3056 4750 3426 4639 
Q 3797 4528 4122 4306 
z
" transform="scale(0.015625)"/>
      <path id="DejaVuSans-6f" d="M 1959 3097 
Q 1497 3097 1228 2736 
Q 959 2375 959 1747 
Q 959 1119 1226 758 
Q 1494 397 1959 397 
Q 2419 397 2687 759 
Q 2956 1122 2956 1747 
Q 2956 2369 2687 2733 
Q 2419 3097 1959 3097 
z
M 1959 3584 
Q 2709 3584 3137 3096 
Q 3566 2609 3566 1747 
Q 3566 888 3137 398 
Q 2709 -91 1959 -91 
Q 1206 -91 779 398 
Q 353 888 353 1747 
Q 353 2609 779 3096 
Q 1206 3584 1959 3584 
z
" transform="scale(0.015625)"/>
      <path id="DejaVuSans-70" d="M 1159 525 
L 1159 -1331 
L 581 -1331 
L 581 3500 
L 1159 3500 
L 1159 2969 
Q 1341 3281 1617 3432 
Q 1894 3584 2278 3584 
Q 2916 3584 3314 3078 
Q 3713 2572 3713 1747 
Q 3713 922 3314 415 
Q 2916 -91 2278 -91 
Q 1894 -91 1617 61 
Q 1341 213 1159 525 
z
M 3116 1747 
Q 3116 2381 2855 2742 
Q 2594 3103 2138 3103 
Q 1681 3103 1420 2742 
Q 1159 2381 1159 1747 
Q 1159 1113 1420 752 
Q 1681 391 2138 391 
Q 2594 391 2855 752 
Q 3116 1113 3116 1747 
z
" transform="scale(0.015625)"/>
      <path id="DejaVuSans-75" d="M 544 1381 
L 544 3500 
L 1119 3500 
L 1119 1403 
Q 1119 906 1312 657 
Q 1506 409 1894 409 
Q 2359 409 2629 706 
Q 2900 1003 2900 1516 
L 2900 3500 
L 3475 3500 
L 3475 0 
L 2900 0 
L 2900 538 
Q 2691 219 2414 64 
Q 2138 -91 1772 -91 
Q 1169 -91 856 284 
Q 544 659 544 1381 
z
M 1991 3584 
L 1991 3584 
z
" transform="scale(0.015625)"/>
      <path id="DejaVuSans-6c" d="M 603 4863 
L 1178 4863 
L 1178 0 
L 603 0 
L 603 4863 
z
" transform="scale(0.015625)"/>
      <path id="DejaVuSans-61" d="M 2194 1759 
Q 1497 1759 1228 1600 
Q 959 1441 959 1056 
Q 959 750 1161 570 
Q 1363 391 1709 391 
Q 2188 391 2477 730 
Q 2766 1069 2766 1631 
L 2766 1759 
L 2194 1759 
z
M 3341 1997 
L 3341 0 
L 2766 0 
L 2766 531 
Q 2569 213 2275 61 
Q 1981 -91 1556 -91 
Q 1019 -91 701 211 
Q 384 513 384 1019 
Q 384 1609 779 1909 
Q 1175 2209 1959 2209 
L 2766 2209 
L 2766 2266 
Q 2766 2663 2505 2880 
Q 2244 3097 1772 3097 
Q 1472 3097 1187 3025 
Q 903 2953 641 2809 
L 641 3341 
Q 956 3463 1253 3523 
Q 1550 3584 1831 3584 
Q 2591 3584 2966 3190 
Q 3341 2797 3341 1997 
z
" transform="scale(0.015625)"/>
      <path id="DejaVuSans-20" transform="scale(0.015625)"/>
      <path id="DejaVuSans-Oblique-43" d="M 4447 4306 
L 4319 3641 
Q 4019 3944 3683 4091 
Q 3347 4238 2956 4238 
Q 2422 4238 2017 3981 
Q 1613 3725 1319 3200 
Q 1131 2863 1032 2486 
Q 934 2109 934 1728 
Q 934 1091 1264 756 
Q 1594 422 2222 422 
Q 2656 422 3056 561 
Q 3456 700 3834 978 
L 3688 231 
Q 3316 72 2936 -9 
Q 2556 -91 2175 -91 
Q 1278 -91 773 396 
Q 269 884 269 1753 
Q 269 2309 461 2846 
Q 653 3384 1013 3828 
Q 1394 4300 1883 4525 
Q 2372 4750 3022 4750 
Q 3422 4750 3780 4639 
Q 4138 4528 4447 4306 
z
" transform="scale(0.015625)"/>
      <path id="DejaVuSans-Oblique-75" d="M 428 1388 
L 838 3500 
L 1416 3500 
L 1006 1409 
Q 975 1256 961 1147 
Q 947 1038 947 966 
Q 947 700 1109 554 
Q 1272 409 1569 409 
Q 2031 409 2368 721 
Q 2706 1034 2809 1563 
L 3194 3500 
L 3769 3500 
L 3091 0 
L 2516 0 
L 2631 550 
Q 2388 244 2052 76 
Q 1716 -91 1338 -91 
Q 878 -91 622 161 
Q 366 413 366 863 
Q 366 956 381 1097 
Q 397 1238 428 1388 
z
" transform="scale(0.015625)"/>
      <path id="DejaVuSans-2c" d="M 750 794 
L 1409 794 
L 1409 256 
L 897 -744 
L 494 -744 
L 750 256 
L 750 794 
z
" transform="scale(0.015625)"/>
      <path id="DejaVuSans-2026" d="M 2869 794 
L 3531 794 
L 3531 0 
L 2869 0 
L 2869 794 
z
M 4997 794 
L 5663 794 
L 5663 0 
L 4997 0 
L 4997 794 
z
M 738 794 
L 1403 794 
L 1403 0 
L 738 0 
L 738 794 
z
" transform="scale(0.015625)"/>
      <path id="DejaVuSans-Oblique-64" d="M 2675 525 
Q 2444 222 2128 65 
Q 1813 -91 1428 -91 
Q 903 -91 598 267 
Q 294 625 294 1247 
Q 294 1766 478 2236 
Q 663 2706 1013 3078 
Q 1244 3325 1534 3454 
Q 1825 3584 2144 3584 
Q 2481 3584 2739 3421 
Q 2997 3259 3138 2956 
L 3513 4863 
L 4091 4863 
L 3144 0 
L 2566 0 
L 2675 525 
z
M 891 1350 
Q 891 897 1095 644 
Q 1300 391 1663 391 
Q 1931 391 2161 520 
Q 2391 650 2566 903 
Q 2750 1166 2856 1509 
Q 2963 1853 2963 2188 
Q 2963 2622 2758 2865 
Q 2553 3109 2194 3109 
Q 1922 3109 1687 2981 
Q 1453 2853 1288 2613 
Q 1106 2353 998 2009 
Q 891 1666 891 1350 
z
" transform="scale(0.015625)"/>
     </defs>
     <use xlink:href="#DejaVuSans-43" transform="translate(0 0.015625)"/>
     <use xlink:href="#DejaVuSans-6f" transform="translate(69.824219 0.015625)"/>
     <use xlink:href="#DejaVuSans-70" transform="translate(131.005859 0.015625)"/>
     <use xlink:href="#DejaVuSans-75" transform="translate(194.482422 0.015625)"/>
     <use xlink:href="#DejaVuSans-6c" transform="translate(257.861328 0.015625)"/>
     <use xlink:href="#DejaVuSans-61" transform="translate(285.644531 0.015625)"/>
     <use xlink:href="#DejaVuSans-20" transform="translate(346.923828 0.015625)"/>
     <use xlink:href="#DejaVuSans-Oblique-43" transform="translate(378.710938 0.015625)"/>
     <use xlink:href="#DejaVuSans-28" transform="translate(448.535156 0.015625)"/>
     <use xlink:href="#DejaVuSans-Oblique-75" transform="translate(487.548828 0.015625)"/>
     <use xlink:href="#DejaVuSans-31" transform="translate(550.927734 -16.390625) scale(0.7)"/>
     <use xlink:href="#DejaVuSans-2c" transform="translate(598.198242 0.015625)"/>
     <use xlink:href="#DejaVuSans-2026" transform="translate(649.467773 0.015625)"/>
     <use xlink:href="#DejaVuSans-2c" transform="translate(749.467773 0.015625)"/>
     <use xlink:href="#DejaVuSans-Oblique-75" transform="translate(800.737305 0.015625)"/>
     <use xlink:href="#DejaVuSans-Oblique-64" transform="translate(864.116211 -16.390625) scale(0.7)"/>
     <use xlink:href="#DejaVuSans-29" transform="translate(911.28418 0.015625)"/>
    </g>
   </g>
   <g id="text_5">
    <!-- $F(x_1,\ldots,x_d)$ -->
    <g transform="translate(421.226 149.409775) scale(0.1 -0.1)">
     <use xlink:href="#DejaVuSans-Oblique-46" transform="translate(0 0.125)"/>
     <use xlink:href="#DejaVuSans-28" transform="translate(57.519531 0.125)"/>
     <use xlink:href="#DejaVuSans-Oblique-78" transform="translate(96.533203 0.125)"/>
     <use xlink:href="#DejaVuSans-31" transform="translate(155.712891 -16.28125) scale(0.7)"/>
     <use xlink:href="#DejaVuSans-2c" transform="translate(202.983398 0.125)"/>
     <use xlink:href="#DejaVuSans-2026" transform="translate(254.25293 0.125)"/>
     <use xlink:href="#DejaVuSans-2c" transform="translate(354.25293 0.125)"/>
     <use xlink:href="#DejaVuSans-Oblique-78" transform="translate(405.522461 0.125)"/>
     <use xlink:href="#DejaVuSans-Oblique-64" transform="translate(464.702148 -16.28125) scale(0.7)"/>
     <use xlink:href="#DejaVuSans-29" transform="translate(511.870117 0.125)"/>
    </g>
   </g>
   <g id="text_6">
    <!-- Sklar’s theorem: composition of marginals with a copula -->
    <g transform="translate(118.793438 20.88) scale(0.12 -0.12)">
     <defs>
      <path id="DejaVuSans-53" d="M 3425 4513 
L 3425 3897 
Q 3066 4069 2747 4153 
Q 2428 4238 2131 4238 
Q 1616 4238 1336 4038 
Q 1056 3838 1056 3469 
Q 1056 3159 1242 3001 
Q 1428 2844 1947 2747 
L 2328 2669 
Q 3034 2534 3370 2195 
Q 3706 1856 3706 1288 
Q 3706 609 3251 259 
Q 2797 -91 1919 -91 
Q 1588 -91 1214 -16 
Q 841 59 441 206 
L 441 856 
Q 825 641 1194 531 
Q 1563 422 1919 422 
Q 2459 422 2753 634 
Q 3047 847 3047 1241 
Q 3047 1584 2836 1778 
Q 2625 1972 2144 2069 
L 1759 2144 
Q 1053 2284 737 2584 
Q 422 2884 422 3419 
Q 422 4038 858 4394 
Q 1294 4750 2059 4750 
Q 2388 4750 2728 4690 
Q 3069 4631 3425 4513 
z
" transform="scale(0.015625)"/>
      <path id="DejaVuSans-6b" d="M 581 4863 
L 1159 4863 
L 1159 1991 
L 2875 3500 
L 3609 3500 
L 1753 1863 
L 3688 0 
L 2938 0 
L 1159 1709 
L 1159 0 
L 581 0 
L 581 4863 
z
" transform="scale(0.015625)"/>
      <path id="DejaVuSans-72" d="M 2631 2963 
Q 2534 3019 2420 3045 
Q 2306 3072 2169 3072 
Q 1681 3072 1420 2755 
Q 1159 2438 1159 1844 
L 1159 0 
L 581 0 
L 581 3500 
L 1159 3500 
L 1159 2956 
Q 1341 3275 1631 3429 
Q 1922 3584 2338 3584 
Q 2397 3584 2469 3576 
Q 2541 3569 2628 3553 
L 2631 2963 
z
" transform="scale(0.015625)"/>
      <path id="DejaVuSans-2019" d="M 813 4666 
L 1472 4666 
L 1472 4191 
L 959 3194 
L 556 3194 
L 813 4191 
L 813 4666 
z
" transform="scale(0.015625)"/>
      <path id="DejaVuSans-73" d="M 2834 3397 
L 2834 2853 
Q 2591 2978 2328 3040 
Q 2066 3103 1784 3103 
Q 1356 3103 1142 2972 
Q 928 2841 928 2578 
Q 928 2378 1081 2264 
Q 1234 2150 1697 2047 
L 1894 2003 
Q 2506 1872 2764 1633 
Q 3022 1394 3022 966 
Q 3022 478 2636 193 
Q 2250 -91 1575 -91 
Q 1294 -91 989 -36 
Q 684 19 347 128 
L 347 722 
Q 666 556 975 473 
Q 1284 391 1588 391 
Q 1994 391 2212 530 
Q 2431 669 2431 922 
Q 2431 1156 2273 1281 
Q 2116 1406 1581 1522 
L 1381 1569 
Q 847 1681 609 1914 
Q 372 2147 372 2553 
Q 372 3047 722 3315 
Q 1072 3584 1716 3584 
Q 2034 3584 2315 3537 
Q 2597 3491 2834 3397 
z
" transform="scale(0.015625)"/>
      <path id="DejaVuSans-74" d="M 1172 4494 
L 1172 3500 
L 2356 3500 
L 2356 3053 
L 1172 3053 
L 1172 1153 
Q 1172 725 1289 603 
Q 1406 481 1766 481 
L 2356 481 
L 2356 0 
L 1766 0 
Q 1100 0 847 248 
Q 594 497 594 1153 
L 594 3053 
L 172 3053 
L 172 3500 
L 594 3500 
L 594 4494 
L 1172 4494 
z
" transform="scale(0.015625)"/>
      <path id="DejaVuSans-68" d="M 3513 2113 
L 3513 0 
L 2938 0 
L 2938 2094 
Q 2938 2591 2744 2837 
Q 2550 3084 2163 3084 
Q 1697 3084 1428 2787 
Q 1159 2491 1159 1978 
L 1159 0 
L 581 0 
L 581 4863 
L 1159 4863 
L 1159 2956 
Q 1366 3272 1645 3428 
Q 1925 3584 2291 3584 
Q 2894 3584 3203 3211 
Q 3513 2838 3513 2113 
z
" transform="scale(0.015625)"/>
      <path id="DejaVuSans-65" d="M 3597 1894 
L 3597 1613 
L 953 1613 
Q 991 1019 1311 708 
Q 1631 397 2203 397 
Q 2534 397 2845 478 
Q 3156 559 3463 722 
L 3463 178 
Q 3153 47 2828 -22 
Q 2503 -91 2169 -91 
Q 1331 -91 842 396 
Q 353 884 353 1716 
Q 353 2575 817 3079 
Q 1281 3584 2069 3584 
Q 2775 3584 3186 3129 
Q 3597 2675 3597 1894 
z
M 3022 2063 
Q 3016 2534 2758 2815 
Q 2500 3097 2075 3097 
Q 1594 3097 1305 2825 
Q 1016 2553 972 2059 
L 3022 2063 
z
" transform="scale(0.015625)"/>
      <path id="DejaVuSans-6d" d="M 3328 2828 
Q 3544 3216 3844 3400 
Q 4144 3584 4550 3584 
Q 5097 3584 5394 3201 
Q 5691 2819 5691 2113 
L 5691 0 
L 5113 0 
L 5113 2094 
Q 5113 2597 4934 2840 
Q 4756 3084 4391 3084 
Q 3944 3084 3684 2787 
Q 3425 2491 3425 1978 
L 3425 0 
L 2847 0 
L 2847 2094 
Q 2847 2600 2669 2842 
Q 2491 3084 2119 3084 
Q 1678 3084 1418 2786 
Q 1159 2488 1159 1978 
L 1159 0 
L 581 0 
L 581 3500 
L 1159 3500 
L 1159 2956 
Q 1356 3278 1631 3431 
Q 1906 3584 2284 3584 
Q 2666 3584 2933 3390 
Q 3200 3197 3328 2828 
z
" transform="scale(0.015625)"/>
      <path id="DejaVuSans-3a" d="M 750 794 
L 1409 794 
L 1409 0 
L 750 0 
L 750 794 
z
M 750 3309 
L 1409 3309 
L 1409 2516 
L 750 2516 
L 750 3309 
z
" transform="scale(0.015625)"/>
      <path id="DejaVuSans-63" d="M 3122 3366 
L 3122 2828 
Q 2878 2963 2633 3030 
Q 2388 3097 2138 3097 
Q 1578 3097 1268 2742 
Q 959 2388 959 1747 
Q 959 1106 1268 751 
Q 1578 397 2138 397 
Q 2388 397 2633 464 
Q 2878 531 3122 666 
L 3122 134 
Q 2881 22 2623 -34 
Q 2366 -91 2075 -91 
Q 1284 -91 818 406 
Q 353 903 353 1747 
Q 353 2603 823 3093 
Q 1294 3584 2113 3584 
Q 2378 3584 2631 3529 
Q 2884 3475 3122 3366 
z
" transform="scale(0.015625)"/>
      <path id="DejaVuSans-69" d="M 603 3500 
L 1178 3500 
L 1178 0 
L 603 0 
L 603 3500 
z
M 603 4863 
L 1178 4863 
L 1178 4134 
L 603 4134 
L 603 4863 
z
" transform="scale(0.015625)"/>
      <path id="DejaVuSans-6e" d="M 3513 2113 
L 3513 0 
L 2938 0 
L 2938 2094 
Q 2938 2591 2744 2837 
Q 2550 3084 2163 3084 
Q 1697 3084 1428 2787 
Q 1159 2491 1159 1978 
L 1159 0 
L 581 0 
L 581 3500 
L 1159 3500 
L 1159 2956 
Q 1366 3272 1645 3428 
Q 1925 3584 2291 3584 
Q 2894 3584 3203 3211 
Q 3513 2838 3513 2113 
z
" transform="scale(0.015625)"/>
      <path id="DejaVuSans-66" d="M 2375 4863 
L 2375 4384 
L 1825 4384 
Q 1516 4384 1395 4259 
Q 1275 4134 1275 3809 
L 1275 3500 
L 2222 3500 
L 2222 3053 
L 1275 3053 
L 1275 0 
L 697 0 
L 697 3053 
L 147 3053 
L 147 3500 
L 697 3500 
L 697 3744 
Q 697 4328 969 4595 
Q 1241 4863 1831 4863 
L 2375 4863 
z
" transform="scale(0.015625)"/>
      <path id="DejaVuSans-67" d="M 2906 1791 
Q 2906 2416 2648 2759 
Q 2391 3103 1925 3103 
Q 1463 3103 1205 2759 
Q 947 2416 947 1791 
Q 947 1169 1205 825 
Q 1463 481 1925 481 
Q 2391 481 2648 825 
Q 2906 1169 2906 1791 
z
M 3481 434 
Q 3481 -459 3084 -895 
Q 2688 -1331 1869 -1331 
Q 1566 -1331 1297 -1286 
Q 1028 -1241 775 -1147 
L 775 -588 
Q 1028 -725 1275 -790 
Q 1522 -856 1778 -856 
Q 2344 -856 2625 -561 
Q 2906 -266 2906 331 
L 2906 616 
Q 2728 306 2450 153 
Q 2172 0 1784 0 
Q 1141 0 747 490 
Q 353 981 353 1791 
Q 353 2603 747 3093 
Q 1141 3584 1784 3584 
Q 2172 3584 2450 3431 
Q 2728 3278 2906 2969 
L 2906 3500 
L 3481 3500 
L 3481 434 
z
" transform="scale(0.015625)"/>
      <path id="DejaVuSans-77" d="M 269 3500 
L 844 3500 
L 1563 769 
L 2278 3500 
L 2956 3500 
L 3675 769 
L 4391 3500 
L 4966 3500 
L 4050 0 
L 3372 0 
L 2619 2869 
L 1863 0 
L 1184 0 
L 269 3500 
z
" transform="scale(0.015625)"/>
     </defs>
     <use xlink:href="#DejaVuSans-53"/>
     <use xlink:href="#DejaVuSans-6b" transform="translate(63.476562 0)"/>
     <use xlink:href="#DejaVuSans-6c" transform="translate(121.386719 0)"/>
     <use xlink:href="#DejaVuSans-61" transform="translate(149.169922 0)"/>
     <use xlink:href="#DejaVuSans-72" transform="translate(210.449219 0)"/>
     <use xlink:href="#DejaVuSans-2019" transform="translate(251.5625 0)"/>
     <use xlink:href="#DejaVuSans-73" transform="translate(283.349609 0)"/>
     <use xlink:href="#DejaVuSans-20" transform="translate(335.449219 0)"/>
     <use xlink:href="#DejaVuSans-74" transform="translate(367.236328 0)"/>
     <use xlink:href="#DejaVuSans-68" transform="translate(406.445312 0)"/>
     <use xlink:href="#DejaVuSans-65" transform="translate(469.824219 0)"/>
     <use xlink:href="#DejaVuSans-6f" transform="translate(531.347656 0)"/>
     <use xlink:href="#DejaVuSans-72" transform="translate(592.529297 0)"/>
     <use xlink:href="#DejaVuSans-65" transform="translate(631.392578 0)"/>
     <use xlink:href="#DejaVuSans-6d" transform="translate(692.916016 0)"/>
     <use xlink:href="#DejaVuSans-3a" transform="translate(790.328125 0)"/>
     <use xlink:href="#DejaVuSans-20" transform="translate(824.019531 0)"/>
     <use xlink:href="#DejaVuSans-63" transform="translate(855.806641 0)"/>
     <use xlink:href="#DejaVuSans-6f" transform="translate(910.787109 0)"/>
     <use xlink:href="#DejaVuSans-6d" transform="translate(971.96875 0)"/>
     <use xlink:href="#DejaVuSans-70" transform="translate(1069.380859 0)"/>
     <use xlink:href="#DejaVuSans-6f" transform="translate(1132.857422 0)"/>
     <use xlink:href="#DejaVuSans-73" transform="translate(1194.039062 0)"/>
     <use xlink:href="#DejaVuSans-69" transform="translate(1246.138672 0)"/>
     <use xlink:href="#DejaVuSans-74" transform="translate(1273.921875 0)"/>
     <use xlink:href="#DejaVuSans-69" transform="translate(1313.130859 0)"/>
     <use xlink:href="#DejaVuSans-6f" transform="translate(1340.914062 0)"/>
     <use xlink:href="#DejaVuSans-6e" transform="translate(1402.095703 0)"/>
     <use xlink:href="#DejaVuSans-20" transform="translate(1465.474609 0)"/>
     <use xlink:href="#DejaVuSans-6f" transform="translate(1497.261719 0)"/>
     <use xlink:href="#DejaVuSans-66" transform="translate(1558.443359 0)"/>
     <use xlink:href="#DejaVuSans-20" transform="translate(1593.648438 0)"/>
     <use xlink:href="#DejaVuSans-6d" transform="translate(1625.435547 0)"/>
     <use xlink:href="#DejaVuSans-61" transform="translate(1722.847656 0)"/>
     <use xlink:href="#DejaVuSans-72" transform="translate(1784.126953 0)"/>
     <use xlink:href="#DejaVuSans-67" transform="translate(1823.490234 0)"/>
     <use xlink:href="#DejaVuSans-69" transform="translate(1886.966797 0)"/>
     <use xlink:href="#DejaVuSans-6e" transform="translate(1914.75 0)"/>
     <use xlink:href="#DejaVuSans-61" transform="translate(1978.128906 0)"/>
     <use xlink:href="#DejaVuSans-6c" transform="translate(2039.408203 0)"/>
     <use xlink:href="#DejaVuSans-73" transform="translate(2067.191406 0)"/>
     <use xlink:href="#DejaVuSans-20" transform="translate(2119.291016 0)"/>
     <use xlink:href="#DejaVuSans-77" transform="translate(2151.078125 0)"/>
     <use xlink:href="#DejaVuSans-69" transform="translate(2232.865234 0)"/>
     <use xlink:href="#DejaVuSans-74" transform="translate(2260.648438 0)"/>
     <use xlink:href="#DejaVuSans-68" transform="translate(2299.857422 0)"/>
     <use xlink:href="#DejaVuSans-20" transform="translate(2363.236328 0)"/>
     <use xlink:href="#DejaVuSans-61" transform="translate(2395.023438 0)"/>
     <use xlink:href="#DejaVuSans-20" transform="translate(2456.302734 0)"/>
     <use xlink:href="#DejaVuSans-63" transform="translate(2488.089844 0)"/>
     <use xlink:href="#DejaVuSans-6f" transform="translate(2543.070312 0)"/>
     <use xlink:href="#DejaVuSans-70" transform="translate(2604.251953 0)"/>
     <use xlink:href="#DejaVuSans-75" transform="translate(2667.728516 0)"/>
     <use xlink:href="#DejaVuSans-6c" transform="translate(2731.107422 0)"/>
     <use xlink:href="#DejaVuSans-61" transform="translate(2758.890625 0)"/>
    </g>
   </g>
  </g>
 </g>
 <defs>
  <clipPath id="peb1aecea96">
   <rect x="10.8" y="30.88" width="554.4" height="246.32"/>
  </clipPath>
 </defs>
</svg>
